<svg xmlns="http://www.w3.org/2000/svg" xmlns:xlink="http://www.w3.org/1999/xlink" id="Laag_1" x="0" y="0" version="1.1" viewBox="0 0 125.5 19.1" xml:space="preserve" style="enable-background:new 0 0 125.5 19.1"><style type="text/css">.st0{clip-path:url(#SVGID_2_)}.st1{fill:#00d0fd}.st2{fill:#5b8bf5}.st3{fill:#ff3815}.st4{fill:#d500e6}.st5{fill:#fff}</style><g><g><defs><rect id="SVGID_1_" width="128" height="64" y="-20.7"/></defs><clipPath id="SVGID_2_"><use xlink:href="#SVGID_1_" style="display:none;overflow:visible"/></clipPath><g class="st0"><path d="M4.4,13.8H0v4.4h4.4V13.8z" class="st1"/></g><g class="st0"><path d="M8.8,13.8V9.4H4.4v4.4v4.4h4.4V13.8z" class="st2"/></g><g class="st0"><path d="M26.4,0.5H22v4.4v4.4h-4.4h-4.4H8.8v4.4h4.4h4.4H22h4.4V9.4V4.9h4.4h4.4V0.5h-4.4H26.4z" class="st3"/></g><g class="st0"><path d="M13.2,9.4V4.9V0.5H8.8H4.4v4.4v4.4h4.4H13.2z" class="st4"/></g><g class="st0"><path d="M39,13.8c0,2.5-1.8,4.2-4.5,4.2h-3.5V9.6h3.6C37.2,9.6,39,11.3,39,13.8z M37.1,13.8c0-1.5-1.1-2.6-2.5-2.6 h-1.6v5.2h1.7C36.1,16.4,37.1,15.3,37.1,13.8z" class="st5"/><path d="M46.7,9.6v1.6h-4.5V13h4v1.6h-4v1.9h4.6V18h-6.5V9.6H46.7z" class="st5"/><path d="M49.4,9.6l2.3,6.3L54,9.6h2L52.6,18h-2l-3.3-8.4H49.4z" class="st5"/><path d="M67.3,12.4c0,1.8-1.2,2.9-3.3,2.9h-2.2V18h-1V9.6H64C66.1,9.6,67.3,10.6,67.3,12.4z M66.3,12.4 c0-1.3-0.9-2-2.4-2h-2.2v4H64C65.5,14.4,66.3,13.7,66.3,12.4z" class="st5"/><path d="M74.4,18l-1.8-2.7c-0.2,0-0.3,0-0.5,0h-2.2V18h-1V9.6h3.2c2.1,0,3.3,1,3.3,2.8c0,1.4-0.7,2.3-1.9,2.7l2,2.9 H74.4z M72.1,14.4c1.5,0,2.4-0.7,2.4-2c0-1.3-0.9-2-2.4-2h-2.2v4H72.1z" class="st5"/><path d="M85.5,13.8c0,2.4-1.9,4.2-4.4,4.2c-2.5,0-4.4-1.9-4.4-4.2c0-2.4,1.9-4.2,4.4-4.2 C83.6,9.5,85.5,11.4,85.5,13.8z M77.7,13.8c0,1.9,1.6,3.4,3.4,3.4c1.9,0,3.4-1.5,3.4-3.4c0-1.9-1.5-3.3-3.4-3.3 C79.3,10.4,77.7,11.9,77.7,13.8z" class="st5"/><path d="M92.5,9.6v0.9h-2.7V18h-1v-7.5H86V9.6H92.5z" class="st5"/><path d="M101.3,13.8c0,2.4-1.9,4.2-4.4,4.2c-2.5,0-4.4-1.9-4.4-4.2c0-2.4,1.9-4.2,4.4-4.2 C99.4,9.5,101.3,11.4,101.3,13.8z M93.5,13.8c0,1.9,1.6,3.4,3.4,3.4c1.9,0,3.4-1.5,3.4-3.4c0-1.9-1.5-3.3-3.4-3.3 C95.1,10.4,93.5,11.9,93.5,13.8z" class="st5"/><path d="M106.5,10.4c-1.9,0-3.4,1.5-3.4,3.3c0,1.8,1.5,3.3,3.4,3.3c0.9,0,1.8-0.4,2.5-1l0.6,0.6 c-0.8,0.8-2,1.3-3.1,1.3c-2.4,0-4.3-1.9-4.3-4.2c0-2.4,1.9-4.2,4.4-4.2c1.2,0,2.3,0.5,3.1,1.2l-0.6,0.7 C108.3,10.8,107.4,10.4,106.5,10.4z" class="st5"/><path d="M119.1,13.8c0,2.4-1.9,4.2-4.4,4.2c-2.5,0-4.4-1.9-4.4-4.2c0-2.4,1.9-4.2,4.4-4.2 C117.1,9.5,119.1,11.4,119.1,13.8z M111.3,13.8c0,1.9,1.6,3.4,3.4,3.4c1.9,0,3.4-1.5,3.4-3.4c0-1.9-1.5-3.3-3.4-3.3 C112.8,10.4,111.3,11.9,111.3,13.8z" class="st5"/><path d="M121.8,9.6v7.5h3.7V18h-4.6V9.6H121.8z" class="st5"/></g></g></g></svg>