<svg xmlns="http://www.w3.org/2000/svg" xmlns:xlink="http://www.w3.org/1999/xlink" x="0" y="0" viewBox="0 0 120 120" xml:space="preserve" style="enable-background:new 0 0 120 120"><style type="text/css">.icon-white-63-0{fill:#fff}.icon-white-63-1{fill:#377dff;stroke:#fff}.icon-white-63-2{fill:none;stroke:#fff}.icon-white-63-3{fill:#fff;stroke:#377dff}.icon-white-63-4{fill:none;stroke:#377dff}</style><path d="M22.2,22.4H4V2.3h20.1v18.2C24.2,21.6,23.3,22.4,22.2,22.4z" class="icon-white-63-0 fill-white" opacity=".15"/><path stroke-linecap="round" stroke-miterlimit="10" stroke-width="3" d="M18.7,17.8H4.9c-0.5,0-0.9-0.4-0.9-0.9V3.2c0-0.5,0.4-0.9,0.9-0.9h13.8c0.5,0,0.9,0.4,0.9,0.9v13.8	C19.5,17.4,19.1,17.8,18.7,17.8z" class="icon-white-63-1 fill-primary stroke-white"/><path stroke-linecap="round" stroke-miterlimit="10" stroke-width="3" d="M59.8,2.3h21.9c0.4,0,0.8,0.3,0.8,0.8V80c0,0.4-0.3,0.8-0.8,0.8H4.8C4.4,80.8,4,80.4,4,80V3.1	c0-0.4,0.3-0.8,0.8-0.8h30.3" class="icon-white-63-2 fill-none stroke-white"/><path stroke-linecap="round" stroke-miterlimit="10" stroke-width="3" d="M116,88.6v28.3c0,0.4-0.3,0.8-0.8,0.8H83.3c-0.4,0-0.8-0.3-0.8-0.8V40c0-0.4,0.3-0.8,0.8-0.8h31.9	c0.4,0,0.8,0.3,0.8,0.8v28.3" class="icon-white-63-2 fill-none stroke-white"/><path stroke-linecap="round" stroke-miterlimit="10" stroke-width="3" d="M33.6,115.9h-9.7c-0.4,0-0.8-0.3-0.8-0.8V65.8c0-0.4,0.3-0.8,0.8-0.8h49.4c0.4,0,0.8,0.3,0.8,0.8v49.4	c0,0.4-0.3,0.8-0.8,0.8h-19" class="icon-white-63-0 fill-white" opacity=".15"/><path stroke-linecap="round" stroke-miterlimit="10" stroke-width="3" d="M42,106.2h-9.7c-0.4,0-0.8-0.3-0.8-0.8V56.1c0-0.4,0.3-0.8,0.8-0.8h49.4c0.4,0,0.8,0.3,0.8,0.8v49.4	c0,0.4-0.3,0.8-0.8,0.8h-19" class="icon-white-63-3 fill-white stroke-primary"/><path stroke-linecap="round" stroke-miterlimit="10" stroke-width="3" d="M81.6,72.2H66.4c-0.5,0-0.9-0.4-0.9-0.9V56.1c0-0.5,0.4-0.9,0.9-0.9h15.2c0.5,0,0.9,0.4,0.9,0.9v15.2	C82.5,71.8,82.1,72.2,81.6,72.2z" class="icon-white-63-4 fill-none stroke-primary"/><line x1="35.1" x2="51" y1="2.3" y2="22.4" stroke-linecap="round" stroke-miterlimit="10" stroke-width="3" class="icon-white-63-2 fill-none stroke-white"/><line x1="116" x2="105.4" y1="68.3" y2="82.8" stroke-linecap="round" stroke-miterlimit="10" stroke-width="3" class="icon-white-63-2 fill-none stroke-white"/><line x1="62.6" x2="49.8" y1="106.2" y2="94.1" stroke-linecap="round" stroke-miterlimit="10" stroke-width="3" class="icon-white-63-4 fill-none stroke-primary"/></svg>