<svg xmlns="http://www.w3.org/2000/svg" xmlns:xlink="http://www.w3.org/1999/xlink" x="0" y="0" viewBox="0 0 120 120" xml:space="preserve" style="enable-background:new 0 0 120 120"><style type="text/css">.icon-11-0{fill:#bdc5d1}.icon-11-1{fill:#fff;stroke:#bdc5d1}.icon-11-2{fill:#377dff}.icon-11-3{fill:none;stroke:#bdc5d1}.icon-11-4{fill:none;stroke:#377dff}.icon-11-5{fill:none;stroke:#fff}</style><polygon points="120 87.7 120 26.5 9.4 26.5 9.4 108.4 99.3 108.4 120 87.7" class="icon-11-0 fill-gray-400" opacity=".5"/><polyline stroke-linecap="round" stroke-linejoin="round" stroke-miterlimit="10" stroke-width="3" points="112.6 77.4 112.6 16.3 2 16.3 2 98.2 91.9 98.2" class="icon-11-1 fill-white stroke-gray-400"/><path d="M100.8,84.4h-86c-0.8,0-1.5-0.7-1.5-1.5V45.5c0-0.8,0.7-1.5,1.5-1.5h86c0.8,0,1.5,0.7,1.5,1.5V83	C102.3,83.8,101.6,84.4,100.8,84.4z" class="icon-11-2 fill-primary"/><polygon stroke-linecap="round" stroke-linejoin="round" stroke-miterlimit="10" stroke-width="3" points="91.9 77.4 112.6 77.4 91.9 98.2" class="icon-11-1 fill-white stroke-gray-400"/><g><g><line x1="17.1" x2="17.1" y1="10.8" y2="22.1" stroke-linecap="round" stroke-linejoin="round" stroke-miterlimit="10" stroke-width="3" class="icon-11-3 fill-none stroke-gray-400"/><path stroke-linecap="round" stroke-linejoin="round" stroke-miterlimit="10" stroke-width="3" d="M14.8,24.4c0-1.3,1-2.3,2.3-2.3s2.3,1,2.3,2.3s-1,2.3-2.3,2.3S14.8,25.7,14.8,24.4z" class="icon-11-4 fill-none stroke-primary"/></g><g><line x1="37.2" x2="37.2" y1="10.8" y2="22.1" stroke-linecap="round" stroke-linejoin="round" stroke-miterlimit="10" stroke-width="3" class="icon-11-3 fill-none stroke-gray-400"/><path stroke-linecap="round" stroke-linejoin="round" stroke-miterlimit="10" stroke-width="3" d="M34.9,24.4c0-1.3,1-2.3,2.3-2.3c1.3,0,2.3,1,2.3,2.3s-1,2.3-2.3,2.3C36,26.7,34.9,25.7,34.9,24.4z" class="icon-11-4 fill-none stroke-primary"/></g><g><line x1="57.3" x2="57.3" y1="10.8" y2="22.1" stroke-linecap="round" stroke-linejoin="round" stroke-miterlimit="10" stroke-width="3" class="icon-11-3 fill-none stroke-gray-400"/><path stroke-linecap="round" stroke-linejoin="round" stroke-miterlimit="10" stroke-width="3" d="M55,24.4c0-1.3,1-2.3,2.3-2.3c1.3,0,2.3,1,2.3,2.3s-1,2.3-2.3,2.3C56.1,26.7,55,25.7,55,24.4z" class="icon-11-4 fill-none stroke-primary"/></g><g><line x1="77.4" x2="77.4" y1="10.8" y2="22.1" stroke-linecap="round" stroke-linejoin="round" stroke-miterlimit="10" stroke-width="3" class="icon-11-3 fill-none stroke-gray-400"/><path stroke-linecap="round" stroke-linejoin="round" stroke-miterlimit="10" stroke-width="3" d="M75.1,24.4c0-1.3,1-2.3,2.3-2.3c1.3,0,2.3,1,2.3,2.3s-1,2.3-2.3,2.3C76.2,26.7,75.1,25.7,75.1,24.4z" class="icon-11-4 fill-none stroke-primary"/></g><g><line x1="97.5" x2="97.5" y1="10.8" y2="22.1" stroke-linecap="round" stroke-linejoin="round" stroke-miterlimit="10" stroke-width="3" class="icon-11-3 fill-none stroke-gray-400"/><path stroke-linecap="round" stroke-linejoin="round" stroke-miterlimit="10" stroke-width="3" d="M95.2,24.4c0-1.3,1-2.3,2.3-2.3c1.3,0,2.3,1,2.3,2.3s-1,2.3-2.3,2.3C96.3,26.7,95.2,25.7,95.2,24.4z" class="icon-11-4 fill-none stroke-primary"/></g></g><line x1="112.6" x2="2.2" y1="32.9" y2="32.9" stroke-linecap="round" stroke-linejoin="round" stroke-miterlimit="10" stroke-width="3" class="icon-11-3 fill-none stroke-gray-400"/><line x1="100.6" x2="15" y1="58.1" y2="58.1" stroke-linecap="round" stroke-linejoin="round" stroke-miterlimit="10" stroke-width="3" class="icon-11-5 fill-none stroke-white" opacity=".5"/><line x1="100.6" x2="15" y1="70.4" y2="70.4" stroke-linecap="round" stroke-linejoin="round" stroke-miterlimit="10" stroke-width="3" class="icon-11-5 fill-none stroke-white" opacity=".5"/><line x1="32.1" x2="32.1" y1="45.7" y2="82.8" stroke-linecap="round" stroke-linejoin="round" stroke-miterlimit="10" stroke-width="3" class="icon-11-5 fill-none stroke-white" opacity=".5"/><line x1="49.2" x2="49.2" y1="45.7" y2="82.8" stroke-linecap="round" stroke-linejoin="round" stroke-miterlimit="10" stroke-width="3" class="icon-11-5 fill-none stroke-white" opacity=".5"/><line x1="66.4" x2="66.4" y1="45.7" y2="82.8" stroke-linecap="round" stroke-linejoin="round" stroke-miterlimit="10" stroke-width="3" class="icon-11-5 fill-none stroke-white" opacity=".5"/><line x1="83.5" x2="83.5" y1="45.7" y2="82.8" stroke-linecap="round" stroke-linejoin="round" stroke-miterlimit="10" stroke-width="3" class="icon-11-5 fill-none stroke-white" opacity=".5"/><polyline stroke-linecap="round" stroke-linejoin="round" stroke-miterlimit="10" stroke-width="3" points="88.2 64 91 67.4 95.9 61.2" class="icon-11-5 fill-none stroke-white"/><polyline stroke-linecap="round" stroke-linejoin="round" stroke-miterlimit="10" stroke-width="3" points="71.3 64 74 67.4 79 61.2" class="icon-11-5 fill-none stroke-white"/><polyline stroke-linecap="round" stroke-linejoin="round" stroke-miterlimit="10" stroke-width="3" points="37.5 76.3 40.3 79.7 45.2 73.5" class="icon-11-5 fill-none stroke-white"/><polyline stroke-linecap="round" stroke-linejoin="round" stroke-miterlimit="10" stroke-width="3" points="53.9 76.3 56.7 79.7 61.6 73.5" class="icon-11-5 fill-none stroke-white"/><polyline stroke-linecap="round" stroke-linejoin="round" stroke-miterlimit="10" stroke-width="3" points="20.6 76.3 23.3 79.7 28.3 73.5" class="icon-11-5 fill-none stroke-white"/></svg>