<svg xmlns="http://www.w3.org/2000/svg" xmlns:xlink="http://www.w3.org/1999/xlink" x="0" y="0" viewBox="0 0 120 120" xml:space="preserve" style="enable-background:new 0 0 120 120"><style type="text/css">.icon-30-0{fill:#bdc5d1}.icon-30-1{fill:#fff;stroke:#bdc5d1}.icon-30-2{fill:#fff}.icon-30-3{fill:#377dff}.icon-30-4{fill:none;stroke:#377dff}</style><g><polygon points="119.2 47.9 103.5 26.8 96.3 17.2 96.3 17.2 71.9 14.6 66.7 14.1 66.7 14.1 66.7 14.1 66.7 14.1 66.7 14.1 66.7 14.1 66.7 14.1 64.3 14.3 37.1 17.2 14.2 47.9 14.2 47.9 14.2 47.9 66.7 109.1 119.2 47.9" class="icon-30-0 fill-gray-400" opacity=".3"/><path stroke-linecap="round" stroke-linejoin="round" stroke-miterlimit="10" stroke-width="3" d="M25.7,14.1L55.3,11l29.6,3.1l22.9,30.7l-52.5,61.1L2.8,44.8L25.7,14.1z" class="icon-30-1 fill-white stroke-gray-400"/><g transform="translate(59.000000, 85.000000)"><polygon points="-3.7 -73.3 -32 -70.3 -33.6 -40.9" class="icon-30-2 fill-white"/><polygon points="-3.7 -73.3 24.5 -70.3 26.1 -40.9" class="icon-30-2 fill-white"/><polygon points="46.4 -40.9 24.5 -70.3 26.1 -40.9" class="icon-30-3 fill-primary"/><polygon points="-53.9 -40.9 -32 -70.3 -33.6 -40.9" class="icon-30-3 fill-primary"/><polygon points="-3.7 -73.3 -33.6 -40.9 26.1 -40.9" class="icon-30-3 fill-primary"/></g></g><line x1="27" x2="40.2" y1="56.8" y2="72.6" stroke-linecap="round" stroke-linejoin="round" stroke-miterlimit="10" stroke-width="3" class="icon-30-4 fill-none stroke-primary"/><line x1="44.4" x2="48" y1="77.6" y2="82" stroke-linecap="round" stroke-linejoin="round" stroke-miterlimit="10" stroke-width="3" class="icon-30-4 fill-none stroke-primary"/></svg>