<svg xmlns="http://www.w3.org/2000/svg" xmlns:xlink="http://www.w3.org/1999/xlink" x="0" y="0" viewBox="0 0 120 120" xml:space="preserve" style="enable-background:new 0 0 120 120"><style type="text/css">.icon-25-0{fill:none;stroke:#bdc5d1}.icon-25-1{fill:#bdc5d1}.icon-25-2{fill:#fff}.icon-25-3,.icon-25-4{fill:none;stroke:#377dff}.icon-25-4{fill:#377dff}</style><line x1="43" x2="43" y1="22" y2="22" stroke-linecap="round" stroke-linejoin="round" stroke-miterlimit="10" stroke-width="3" class="icon-25-0 fill-none stroke-gray-400"/><ellipse cx="66" cy="69.7" stroke-linecap="round" stroke-linejoin="round" stroke-miterlimit="10" stroke-width="3" class="icon-25-1 fill-gray-400" opacity=".5" rx="36.7" ry="36.7" transform="matrix(1.280544e-02 -0.9999 0.9999 1.280544e-02 -4.6111 134.7994)"/><ellipse cx="60" cy="60.8" class="icon-25-2 fill-white" rx="36.7" ry="36.7" transform="matrix(1.280544e-02 -0.9999 0.9999 1.280544e-02 -1.5924 120.0452)"/><path stroke-linecap="round" stroke-linejoin="round" stroke-miterlimit="10" stroke-width="3" d="M27.3,43.6" class="icon-25-0 fill-none stroke-gray-400"/><path stroke-linecap="round" stroke-linejoin="round" stroke-miterlimit="10" stroke-width="3" d="M119.2,60.9c0,11.5-26.5,20.8-59.2,20.8S0.8,72.4,0.8,60.9c0-6.3,7.9-11.9,20.4-15.7" class="icon-25-0 fill-none stroke-gray-400"/><path stroke-linecap="round" stroke-linejoin="round" stroke-miterlimit="10" stroke-width="3" d="M112.7,51.4c0.9,0.6,1.7,1.3,2.5,1.9" class="icon-25-0 fill-none stroke-gray-400"/><path stroke-linecap="round" stroke-linejoin="round" stroke-miterlimit="10" stroke-width="3" d="M92.7,43.6" class="icon-25-0 fill-none stroke-gray-400"/><path stroke-linecap="round" stroke-linejoin="round" stroke-miterlimit="10" stroke-width="3" d="M23.9,86.3" class="icon-25-0 fill-none stroke-gray-400"/><path stroke-linecap="round" stroke-linejoin="round" stroke-miterlimit="10" stroke-width="3" d="M57.1,86.3c-0.9-0.8-1.9-1.6-2.8-2.4c-3-2.6-6-5.4-9-8.3C22.2,52.5,10,27.1,18.1,19" class="icon-25-3 fill-none stroke-primary"/><path stroke-linecap="round" stroke-linejoin="round" stroke-miterlimit="10" stroke-width="3" d="M95.2,71.5" class="icon-25-0 fill-none stroke-gray-400"/><path stroke-linecap="round" stroke-linejoin="round" stroke-miterlimit="10" stroke-width="3" d="M74.7,46.2" class="icon-25-0 fill-none stroke-gray-400"/><path stroke-linecap="round" stroke-linejoin="round" stroke-miterlimit="10" stroke-width="3" d="M45.3,46.2" class="icon-25-0 fill-none stroke-gray-400"/><path stroke-linecap="round" stroke-linejoin="round" stroke-miterlimit="10" stroke-width="3" d="M60,97.7" class="icon-25-0 fill-none stroke-gray-400"/><path stroke-linecap="round" stroke-linejoin="round" stroke-miterlimit="10" stroke-width="3" d="M74.7,72.6" class="icon-25-0 fill-none stroke-gray-400"/><line x1="91.6" x2="28.4" y1="42.8" y2="42.8" stroke-linecap="round" stroke-linejoin="round" stroke-miterlimit="10" stroke-width="3" class="icon-25-0 fill-none stroke-gray-400"/><line x1="60" x2="60" y1="24.1" y2="72.7" stroke-linecap="round" stroke-linejoin="round" stroke-miterlimit="10" stroke-width="3" class="icon-25-0 fill-none stroke-gray-400"/><path stroke-linecap="round" stroke-linejoin="round" stroke-miterlimit="10" stroke-width="3" d="M44.8,68.7c-0.2-2.5-0.3-5.1-0.3-7.8c0-20.3,7-36.8,15.5-36.8s15.5,16.5,15.5,36.8c0,2.7-0.1,5.3-0.3,7.8" class="icon-25-0 fill-none stroke-gray-400"/><path stroke-linecap="round" stroke-linejoin="round" stroke-miterlimit="10" stroke-width="3" d="M45.3,72.6" class="icon-25-0 fill-none stroke-gray-400"/><path stroke-linecap="round" stroke-linejoin="round" stroke-miterlimit="10" stroke-width="3" d="M81.6,85.9" class="icon-25-0 fill-none stroke-gray-400"/><path stroke-linecap="round" stroke-linejoin="round" stroke-miterlimit="10" stroke-width="3" d="M91.1,43.2" class="icon-25-0 fill-none stroke-gray-400"/><path stroke-linecap="round" stroke-linejoin="round" stroke-miterlimit="10" stroke-width="3" d="M60,40.1" class="icon-25-0 fill-none stroke-gray-400"/><path stroke-linecap="round" stroke-linejoin="round" stroke-miterlimit="10" stroke-width="3" d="M70.6,25.7c10.1-6.3,19.1-9.6,25.3-9.1" class="icon-25-3 fill-none stroke-primary"/><ellipse cx="60" cy="60.8" stroke-linecap="round" stroke-linejoin="round" stroke-miterlimit="10" stroke-width="3" class="icon-25-3 fill-none stroke-primary" rx="36.7" ry="36.7" transform="matrix(1.280544e-02 -0.9999 0.9999 1.280544e-02 -1.5924 120.0452)"/><path stroke-linecap="round" stroke-linejoin="round" stroke-miterlimit="10" stroke-width="3" d="M102.5,86.2c2.6,7.5,2.6,13.4-0.6,16.6c-6.1,6.1-21.8,0.8-39-11.9" class="icon-25-3 fill-none stroke-primary"/><path stroke-linecap="round" stroke-linejoin="round" stroke-miterlimit="10" stroke-width="3" d="M104.4,25.9c0.2,14.1-11.2,28.6-19.7,38.7C72.9,78.8,58.5,92,42,100.3c-5.6,2.8-12.3,5.7-18.7,4.9" class="icon-25-3 fill-none stroke-primary"/><path stroke-linecap="round" stroke-linejoin="round" stroke-miterlimit="10" stroke-width="3" d="M101.9,19" class="icon-25-0 fill-none stroke-gray-400"/><path stroke-linecap="round" stroke-linejoin="round" stroke-miterlimit="10" stroke-width="3" d="M51.6,73.3" class="icon-25-0 fill-none stroke-gray-400"/><path stroke-linecap="round" stroke-linejoin="round" stroke-miterlimit="10" stroke-width="3" d="M106.8,52.5" class="icon-25-0 fill-none stroke-gray-400"/><path stroke-linecap="round" stroke-linejoin="round" stroke-miterlimit="10" stroke-width="3" d="M84.3,35.2" class="icon-25-0 fill-none stroke-gray-400"/><line x1="81.3" x2="38.7" y1="60.5" y2="60.5" stroke-linecap="round" stroke-linejoin="round" stroke-miterlimit="10" stroke-width="3" class="icon-25-0 fill-none stroke-gray-400"/><circle cx="21.7" cy="100.1" r="7.5" stroke-linecap="round" stroke-linejoin="round" stroke-miterlimit="10" stroke-width="3" class="icon-25-1 fill-gray-400" opacity=".5"/><circle cx="17.6" cy="102.8" r="7.5" stroke-linecap="round" stroke-linejoin="round" stroke-miterlimit="10" stroke-width="3" class="icon-25-4 fill-primary stroke-primary"/><circle cx="17.6" cy="102.8" r="3.7" class="icon-25-2 fill-white"/><path stroke-linecap="round" stroke-linejoin="round" stroke-miterlimit="10" stroke-width="3" d="M115.2,21.3c0,4.7-3.8,8.6-8.6,8.6s-8.6-3.8-8.6-8.6s3.8-8.6,8.6-8.6S115.2,16.6,115.2,21.3z" class="icon-25-1 fill-gray-400" opacity=".5"/><path stroke-linecap="round" stroke-linejoin="round" stroke-miterlimit="10" stroke-width="2.5" d="M109.8,19.3c0,4.7-3.8,8.6-8.6,8.6s-8.6-3.8-8.6-8.6s3.8-8.6,8.6-8.6S109.8,14.6,109.8,19.3z" class="icon-25-4 fill-primary stroke-primary"/><path d="M105.6,19.3c0,2.4-2,4.4-4.4,4.4s-4.4-2-4.4-4.4s2-4.4,4.4-4.4S105.6,16.9,105.6,19.3z" class="icon-25-2 fill-white"/><line x1="108" x2="108" y1="48.7" y2="48.7" stroke-linecap="round" stroke-linejoin="round" stroke-miterlimit="10" stroke-width="3" class="icon-25-0 fill-none stroke-gray-400"/><line x1="16.1" x2="16.1" y1="90.8" y2="90.8" stroke-linecap="round" stroke-linejoin="round" stroke-miterlimit="10" stroke-width="3" class="icon-25-3 fill-none stroke-primary"/><path stroke-linecap="round" stroke-linejoin="round" stroke-miterlimit="10" stroke-width="3" d="M18.5,84.4c0.6-1.4,2.4-6.2,3.1-7.6" class="icon-25-0 fill-none stroke-gray-400"/><line x1="36.5" x2="36.5" y1="19" y2="19" stroke-linecap="round" stroke-linejoin="round" stroke-miterlimit="10" stroke-width="3" class="icon-25-0 fill-none stroke-gray-400"/><path stroke-linecap="round" stroke-linejoin="round" stroke-miterlimit="10" stroke-width="3" d="M23.5,16.6c1-0.1,3.6-0.5,4.8-0.4" class="icon-25-0 fill-none stroke-gray-400"/></svg>