<svg xmlns="http://www.w3.org/2000/svg" xmlns:xlink="http://www.w3.org/1999/xlink" x="0" y="0" viewBox="0 0 120 120" xml:space="preserve" style="enable-background:new 0 0 120 120"><style type="text/css">.icon-white-42-0{fill:#fff}.icon-white-42-1{fill:none;stroke:#fff}</style><path d="M6.7,91v7.8c0,0.8,1.2,1.5,2.7,1.5h102.5c1.5,0,2.7-0.7,2.7-1.5V91H6.7z" class="icon-white-42-0 fill-white" opacity=".15"/><g><rect width="7.6" height="7.6" x="78.4" y="26.7" stroke-linecap="round" stroke-linejoin="round" stroke-miterlimit="10" stroke-width="3" class="icon-white-42-1 fill-none stroke-white"/><line x1="92.4" x2="104.9" y1="27.7" y2="27.7" stroke-linecap="round" stroke-linejoin="round" stroke-miterlimit="10" stroke-width="3" class="icon-white-42-1 fill-none stroke-white"/><line x1="92.4" x2="104.9" y1="33.3" y2="33.3" stroke-linecap="round" stroke-linejoin="round" stroke-miterlimit="10" stroke-width="3" class="icon-white-42-1 fill-none stroke-white"/></g><g opacity=".5"><rect width="7.6" height="7.6" x="78.4" y="46.4" stroke-linecap="round" stroke-linejoin="round" stroke-miterlimit="10" stroke-width="3" class="icon-white-42-1 fill-none stroke-white"/><line x1="92.4" x2="104.9" y1="47.4" y2="47.4" stroke-linecap="round" stroke-linejoin="round" stroke-miterlimit="10" stroke-width="3" class="icon-white-42-1 fill-none stroke-white"/><line x1="92.4" x2="104.9" y1="53" y2="53" stroke-linecap="round" stroke-linejoin="round" stroke-miterlimit="10" stroke-width="3" class="icon-white-42-1 fill-none stroke-white"/></g><g opacity=".5"><rect width="7.6" height="7.6" x="78.4" y="66.1" stroke-linecap="round" stroke-linejoin="round" stroke-miterlimit="10" stroke-width="3" class="icon-white-42-1 fill-none stroke-white"/><line x1="92.4" x2="104.9" y1="67.1" y2="67.1" stroke-linecap="round" stroke-linejoin="round" stroke-miterlimit="10" stroke-width="3" class="icon-white-42-1 fill-none stroke-white"/><line x1="92.4" x2="104.9" y1="72.7" y2="72.7" stroke-linecap="round" stroke-linejoin="round" stroke-miterlimit="10" stroke-width="3" class="icon-white-42-1 fill-none stroke-white"/></g><path d="M39.4,52.6L39.4,52.6l0-22.7h0c-12.4,0-22.7,10.2-22.7,22.7c0,12.4,10.2,22.7,22.7,22.7	c12.4,0,22.7-10.2,22.7-22.7H39.4L39.4,52.6z" class="icon-white-42-0 fill-white" opacity=".15"/><path d="M44.4,24.7v22.7h22.7C67.1,34.9,56.8,24.7,44.4,24.7z" class="icon-white-42-0 fill-white"/><line x1="42.7" x2="57.1" y1="104.8" y2="104.8" stroke-linecap="round" stroke-linejoin="round" stroke-miterlimit="10" stroke-width="3" class="icon-white-42-1 fill-none stroke-white"/><line x1="64.2" x2="78.6" y1="104.8" y2="104.8" stroke-linecap="round" stroke-linejoin="round" stroke-miterlimit="10" stroke-width="3" class="icon-white-42-1 fill-none stroke-white"/><polyline stroke-linecap="round" stroke-linejoin="round" stroke-miterlimit="10" stroke-width="3" points="57.1 91.3 57.1 116.6 64.2 116.6 64.2 91.3" class="icon-white-42-1 fill-none stroke-white" opacity=".5"/><polyline stroke-linecap="round" stroke-linejoin="round" stroke-miterlimit="10" stroke-width="3" points="73.3 91.3 83.3 116.6 90.4 116.6 80.4 91.3" class="icon-white-42-1 fill-none stroke-white" opacity=".5"/><polyline stroke-linecap="round" stroke-linejoin="round" stroke-miterlimit="10" stroke-width="3" points="48 91.3 38 116.6 31 116.6 41 91.3" class="icon-white-42-1 fill-none stroke-white" opacity=".5"/><path stroke-linecap="round" stroke-linejoin="round" stroke-miterlimit="10" stroke-width="3" d="M116.6,13.3H3.4c-1.2,0-2.1-1-2.1-2.1l0,0C1.2,10,2.2,9,3.4,9h113.3c1.2,0,2.1,1,2.1,2.1l0,0	C118.8,12.4,117.8,13.3,116.6,13.3z" class="icon-white-42-1 fill-none stroke-white"/><path stroke-linecap="round" stroke-linejoin="round" stroke-miterlimit="10" stroke-width="3" d="M116.6,91.3H3.4c-1.2,0-2.1-1-2.1-2.1l0,0c0-1.2,1-2.1,2.1-2.1h113.3c1.2,0,2.1,1,2.1,2.1l0,0	C118.8,90.4,117.8,91.3,116.6,91.3z" class="icon-white-42-1 fill-none stroke-white"/><line x1="6.7" x2="6.7" y1="87.1" y2="13.3" stroke-linecap="round" stroke-linejoin="round" stroke-miterlimit="10" stroke-width="3" class="icon-white-42-1 fill-none stroke-white"/><line x1="114.7" x2="114.7" y1="13.3" y2="87.1" stroke-linecap="round" stroke-linejoin="round" stroke-miterlimit="10" stroke-width="3" class="icon-white-42-1 fill-none stroke-white"/><line x1="52.3" x2="69" y1="3.4" y2="3.4" stroke-linecap="round" stroke-linejoin="round" stroke-miterlimit="10" stroke-width="3" class="icon-white-42-1 fill-none stroke-white"/></svg>