<svg xmlns="http://www.w3.org/2000/svg" xmlns:xlink="http://www.w3.org/1999/xlink" x="0" y="0" viewBox="0 0 120 120" xml:space="preserve" style="enable-background:new 0 0 120 120"><style type="text/css">.icon-white-17-1{fill:none;stroke:#fff}.icon-white-17-2{fill:#fff}.icon-white-17-3{fill:none;stroke:#377dff}</style><g opacity=".5"><g><line x1="90.9" x2="100.2" y1="31.3" y2="31.3" stroke-linecap="round" stroke-linejoin="round" stroke-miterlimit="10" stroke-width="3" class="icon-white-17-1 fill-none stroke-white"/><rect width="5.7" height="3.8" x="105.4" y="29.4" stroke-linecap="round" stroke-linejoin="round" stroke-miterlimit="10" stroke-width="3" class="icon-white-17-1 fill-none stroke-white"/></g><g><line x1="90.9" x2="100.2" y1="41.5" y2="41.5" stroke-linecap="round" stroke-linejoin="round" stroke-miterlimit="10" stroke-width="3" class="icon-white-17-1 fill-none stroke-white"/><rect width="5.7" height="3.8" x="105.4" y="39.6" stroke-linecap="round" stroke-linejoin="round" stroke-miterlimit="10" stroke-width="3" class="icon-white-17-1 fill-none stroke-white"/></g><g><line x1="90.9" x2="100.2" y1="51.7" y2="51.7" stroke-linecap="round" stroke-linejoin="round" stroke-miterlimit="10" stroke-width="3" class="icon-white-17-1 fill-none stroke-white"/><rect width="5.7" height="3.8" x="105.4" y="49.8" stroke-linecap="round" stroke-linejoin="round" stroke-miterlimit="10" stroke-width="3" class="icon-white-17-1 fill-none stroke-white"/></g><g><line x1="90.9" x2="100.2" y1="61.9" y2="61.9" stroke-linecap="round" stroke-linejoin="round" stroke-miterlimit="10" stroke-width="3" class="icon-white-17-1 fill-none stroke-white"/><rect width="5.7" height="3.8" x="105.4" y="60" stroke-linecap="round" stroke-linejoin="round" stroke-miterlimit="10" stroke-width="3" class="icon-white-17-1 fill-none stroke-white"/></g><g><line x1="90.9" x2="100.2" y1="72.1" y2="72.1" stroke-linecap="round" stroke-linejoin="round" stroke-miterlimit="10" stroke-width="3" class="icon-white-17-1 fill-none stroke-white"/><rect width="5.7" height="3.8" x="105.4" y="70.2" stroke-linecap="round" stroke-linejoin="round" stroke-miterlimit="10" stroke-width="3" class="icon-white-17-1 fill-none stroke-white"/></g><g><line x1="90.9" x2="100.2" y1="82.3" y2="82.3" stroke-linecap="round" stroke-linejoin="round" stroke-miterlimit="10" stroke-width="3" class="icon-white-17-1 fill-none stroke-white"/><rect width="5.7" height="3.8" x="105.4" y="80.4" stroke-linecap="round" stroke-linejoin="round" stroke-miterlimit="10" stroke-width="3" class="icon-white-17-1 fill-none stroke-white"/></g><g><line x1="90.9" x2="100.2" y1="92.5" y2="92.5" stroke-linecap="round" stroke-linejoin="round" stroke-miterlimit="10" stroke-width="3" class="icon-white-17-1 fill-none stroke-white"/><rect width="5.7" height="3.8" x="105.4" y="90.6" stroke-linecap="round" stroke-linejoin="round" stroke-miterlimit="10" stroke-width="3" class="icon-white-17-1 fill-none stroke-white"/></g></g><polyline stroke-linecap="round" stroke-linejoin="round" stroke-miterlimit="10" stroke-width="3" points="83.4 20.5 118.5 20.5 118.5 103.3 1.5 103.3 1.5 20.5 6.7 20.5" class="icon-white-17-1 fill-none stroke-white"/><line x1="29.8" x2="35.6" y1="20.5" y2="20.5" stroke-linecap="round" stroke-linejoin="round" stroke-miterlimit="10" stroke-width="3" class="icon-white-17-1 fill-none stroke-white"/><path stroke-linecap="round" stroke-linejoin="round" stroke-miterlimit="10" stroke-width="3" d="M24.3,96.1H12.2c-3,0-5.5-2.5-5.5-5.5V18.1c0-3,2.5-5.5,5.5-5.5h12.1c3,0,5.5,2.5,5.5,5.5v72.5	C29.8,93.6,27.3,96.1,24.3,96.1z" class="icon-white-17-1 fill-none stroke-white"/><polyline stroke-linecap="round" stroke-linejoin="round" stroke-miterlimit="10" stroke-width="3" points="17.8 96.1 17.8 109.3 6.7 109.3" class="icon-white-17-1 fill-none stroke-white"/><rect width="47.8" height="28.8" x="35.6" y="10.7" class="icon-white-17-2 fill-white"/><g><line x1="47.9" x2="56.8" y1="22.6" y2="22.6" stroke-linecap="round" stroke-linejoin="round" stroke-miterlimit="10" stroke-width="3" class="icon-white-17-3 fill-none stroke-primary"/><line x1="47.9" x2="50.9" y1="27.5" y2="27.5" stroke-linecap="round" stroke-linejoin="round" stroke-miterlimit="10" stroke-width="3" class="icon-white-17-3 fill-none stroke-primary"/><line x1="69.1" x2="71.1" y1="22.6" y2="22.6" stroke-linecap="round" stroke-linejoin="round" stroke-miterlimit="10" stroke-width="3" class="icon-white-17-3 fill-none stroke-primary"/></g><rect width="36.9" height="18.6" x="41" y="15.8" stroke-linecap="round" stroke-linejoin="round" stroke-miterlimit="10" stroke-width="3" class="icon-white-17-3 fill-none stroke-primary"/><g><g><rect width="9.8" height="4.1" x="40.3" y="63.1" stroke-linecap="round" stroke-linejoin="round" stroke-miterlimit="10" stroke-width="3" class="icon-white-17-1 fill-none stroke-white"/><rect width="6.4" height="4.1" x="40.3" y="47" stroke-linecap="round" stroke-linejoin="round" stroke-miterlimit="10" stroke-width="3" class="icon-white-17-1 fill-none stroke-white" opacity=".5"/><rect width="6.4" height="4.1" x="51" y="47" stroke-linecap="round" stroke-linejoin="round" stroke-miterlimit="10" stroke-width="3" class="icon-white-17-1 fill-none stroke-white" opacity=".5"/><rect width="6.4" height="4.1" x="61.6" y="47" stroke-linecap="round" stroke-linejoin="round" stroke-miterlimit="10" stroke-width="3" class="icon-white-17-1 fill-none stroke-white" opacity=".5"/><rect width="6.4" height="4.1" x="72.3" y="47" stroke-linecap="round" stroke-linejoin="round" stroke-miterlimit="10" stroke-width="3" class="icon-white-17-1 fill-none stroke-white" opacity=".5"/><rect width="9.8" height="4.1" x="54.6" y="63.1" stroke-linecap="round" stroke-linejoin="round" stroke-miterlimit="10" stroke-width="3" class="icon-white-17-1 fill-none stroke-white" opacity=".5"/><rect width="9.8" height="4.1" x="68.9" y="63.1" stroke-linecap="round" stroke-linejoin="round" stroke-miterlimit="10" stroke-width="3" class="icon-white-17-1 fill-none stroke-white" opacity=".5"/></g><g opacity=".5"><rect width="9.8" height="4.1" x="40.3" y="72.3" stroke-linecap="round" stroke-linejoin="round" stroke-miterlimit="10" stroke-width="3" class="icon-white-17-1 fill-none stroke-white"/><rect width="9.8" height="4.1" x="54.6" y="72.3" stroke-linecap="round" stroke-linejoin="round" stroke-miterlimit="10" stroke-width="3" class="icon-white-17-1 fill-none stroke-white"/><rect width="9.8" height="4.1" x="68.9" y="72.3" stroke-linecap="round" stroke-linejoin="round" stroke-miterlimit="10" stroke-width="3" class="icon-white-17-1 fill-none stroke-white"/></g><g opacity=".5"><rect width="9.8" height="4.1" x="40.3" y="81.6" stroke-linecap="round" stroke-linejoin="round" stroke-miterlimit="10" stroke-width="3" class="icon-white-17-1 fill-none stroke-white"/><rect width="9.8" height="4.1" x="54.6" y="81.6" stroke-linecap="round" stroke-linejoin="round" stroke-miterlimit="10" stroke-width="3" class="icon-white-17-1 fill-none stroke-white"/><rect width="9.8" height="4.1" x="68.9" y="81.6" stroke-linecap="round" stroke-linejoin="round" stroke-miterlimit="10" stroke-width="3" class="icon-white-17-1 fill-none stroke-white"/></g><g opacity=".5"><rect width="9.8" height="4.1" x="40.3" y="90.9" stroke-linecap="round" stroke-linejoin="round" stroke-miterlimit="10" stroke-width="3" class="icon-white-17-1 fill-none stroke-white"/><rect width="9.8" height="4.1" x="54.6" y="90.9" stroke-linecap="round" stroke-linejoin="round" stroke-miterlimit="10" stroke-width="3" class="icon-white-17-1 fill-none stroke-white"/><rect width="9.8" height="4.1" x="68.9" y="90.9" stroke-linecap="round" stroke-linejoin="round" stroke-miterlimit="10" stroke-width="3" class="icon-white-17-1 fill-none stroke-white"/></g></g></svg>