<svg xmlns="http://www.w3.org/2000/svg" xmlns:xlink="http://www.w3.org/1999/xlink" x="0" y="0" viewBox="0 0 120 120" xml:space="preserve" style="enable-background:new 0 0 120 120"><style type="text/css">.icon-white-65-0{fill:none;stroke:#fff}.icon-white-65-1{fill:#fff}.icon-white-65-2{fill:#377dff}.icon-white-65-3{fill:none;stroke:#377dff}</style><line x1="110.9" x2="81.3" y1="106" y2="106" stroke-linecap="round" stroke-linejoin="round" stroke-miterlimit="10" stroke-width="3" class="icon-white-65-0 fill-none stroke-white"/><line x1="58.7" x2="8.7" y1="106" y2="106" stroke-linecap="round" stroke-linejoin="round" stroke-miterlimit="10" stroke-width="3" class="icon-white-65-0 fill-none stroke-white"/><line x1="91.7" x2="41.7" y1="116.4" y2="116.4" stroke-linecap="round" stroke-linejoin="round" stroke-miterlimit="10" stroke-width="3" class="icon-white-65-0 fill-none stroke-white" opacity=".5"/><line x1="54.8" x2="4.8" y1="63" y2="63" stroke-linecap="round" stroke-linejoin="round" stroke-miterlimit="10" stroke-width="3" class="icon-white-65-0 fill-none stroke-white" opacity=".5"/><line x1="38.8" x2="22.2" y1="73.8" y2="73.8" stroke-linecap="round" stroke-linejoin="round" stroke-miterlimit="10" stroke-width="3" class="icon-white-65-0 fill-none stroke-white" opacity=".5"/><line x1="75.9" x2="59.2" y1="82.6" y2="82.6" stroke-linecap="round" stroke-linejoin="round" stroke-miterlimit="10" stroke-width="3" class="icon-white-65-0 fill-none stroke-white" opacity=".5"/><line x1="13.7" x2="9.4" y1="73.8" y2="73.8" stroke-linecap="round" stroke-linejoin="round" stroke-miterlimit="10" stroke-width="3" class="icon-white-65-0 fill-none stroke-white" opacity=".5"/><line x1="30.8" x2="20.7" y1="55.5" y2="55.5" stroke-linecap="round" stroke-linejoin="round" stroke-miterlimit="10" stroke-width="3" class="icon-white-65-0 fill-none stroke-white" opacity=".5"/><line x1="112.2" x2="106.6" y1="116.4" y2="116.4" stroke-linecap="round" stroke-linejoin="round" stroke-miterlimit="10" stroke-width="3" class="icon-white-65-0 fill-none stroke-white" opacity=".5"/><line x1="19.9" x2="9.4" y1="116.4" y2="116.4" stroke-linecap="round" stroke-linejoin="round" stroke-miterlimit="10" stroke-width="3" class="icon-white-65-0 fill-none stroke-white" opacity=".5"/><line x1="81.3" x2="75.7" y1="48.3" y2="48.3" stroke-linecap="round" stroke-linejoin="round" stroke-miterlimit="10" stroke-width="3" class="icon-white-65-0 fill-none stroke-white" opacity=".5"/><path stroke-linecap="round" stroke-linejoin="round" stroke-miterlimit="10" stroke-width="3" d="M118.1,95.7H89.7V70.9h24c2.4,0,4.4,2,4.4,4.4V95.7z" class="icon-white-65-0 fill-none stroke-white"/><line x1="108.4" x2="111.8" y1="56.2" y2="70.7" stroke-linecap="round" stroke-linejoin="round" stroke-miterlimit="10" stroke-width="3" class="icon-white-65-0 fill-none stroke-white"/><polyline stroke-linecap="round" stroke-linejoin="round" stroke-miterlimit="10" stroke-width="3" points="15.8 39.1 15.8 33.4 89.7 33.4 89.7 95.7 15.8 95.7 15.8 86.7" class="icon-white-65-0 fill-none stroke-white"/><circle cx="103" cy="95.7" r="8.6" class="icon-white-65-1 fill-white"/><circle cx="103" cy="95.7" r="2.6" class="icon-white-65-2 fill-primary"/><circle cx="38.3" cy="95.7" r="8.6" class="icon-white-65-1 fill-white"/><circle cx="38.3" cy="95.7" r="2.6" class="icon-white-65-2 fill-primary"/><path d="M19.2,7.1C11,7.1,4.5,13.8,4.5,21.9c0,4.3,5.1,14,13.5,25.7c0.3,0.4,0.7,0.6,1.2,0.6s0.9-0.2,1.2-0.6	C28.8,36.1,34,26.4,34,21.9C34,13.8,27.3,7.1,19.2,7.1z" class="icon-white-65-1 fill-white" opacity=".3"/><path d="M14.9,1.6C6.7,1.6,0.1,8.3,0.1,16.4c0,4.3,5.1,14,13.5,25.7c0.3,0.4,0.7,0.6,1.2,0.6c0.5,0,0.9-0.2,1.2-0.6	c8.4-11.5,13.5-21.2,13.5-25.7C29.6,8.3,22.9,1.6,14.9,1.6z" class="icon-white-65-1 fill-white"/><circle cx="14.9" cy="16.5" r="6.8" stroke-linecap="round" stroke-linejoin="round" stroke-miterlimit="10" stroke-width="3" class="icon-white-65-3 fill-none stroke-primary"/><line x1="108.4" x2="89.7" y1="56.2" y2="56.2" stroke-linecap="round" stroke-linejoin="round" stroke-miterlimit="10" stroke-width="3" class="icon-white-65-0 fill-none stroke-white"/></svg>