<svg xmlns="http://www.w3.org/2000/svg" xmlns:xlink="http://www.w3.org/1999/xlink" x="0" y="0" viewBox="0 0 120 120" xml:space="preserve" style="enable-background:new 0 0 120 120"><style type="text/css">.icon-28-0{fill:none;stroke:#377dff}.icon-28-1{fill:#bdc5d1}.icon-28-2{fill:#fff;stroke:#bdc5d1}.icon-28-3{fill:#fff}.icon-28-4{fill:#377dff;stroke:#377dff}.icon-28-5{fill:none;stroke:#fff}.icon-28-6{fill:none;stroke:#bdc5d1}.icon-28-7{fill:#377dff}</style><line x1="88.1" x2="107.4" y1="110.7" y2="110.7" stroke-linecap="round" stroke-linejoin="round" stroke-miterlimit="10" stroke-width="3" class="icon-28-0 fill-none stroke-primary"/><path d="M24.6,56.6h93.1c0.8,0,1.5,0.7,1.5,1.5v60.1c0,0.8-0.7,1.5-1.5,1.5H26.1c-0.8,0-1.5-0.7-1.5-1.5V56.6" class="icon-28-1 fill-gray-400" opacity=".3"/><polyline stroke-linecap="round" stroke-linejoin="round" stroke-miterlimit="10" stroke-width="3" points="107.7 55.3 107.7 118.4 13.2 118.4 13.2 55.3" class="icon-28-2 fill-white stroke-gray-400"/><path d="M40.8,55.4v35.2l3-3c1-1,2.5-1,3.5,0l0.9,1c1.1,1.2,2.8,1,3.8-0.3l0,0c1-1.4,2.7-1.5,3.8-0.3l2.7,2.7V55.4" class="icon-28-1 fill-gray-400" opacity=".5"/><path stroke-linecap="round" stroke-linejoin="round" stroke-miterlimit="10" stroke-width="3" d="M34.1,55.4v28.1l3-2.4c1-0.8,2.5-0.8,3.5,0l0.9,0.8c1.1,0.9,2.8,0.8,3.8-0.3l0,0c1-1.1,2.7-1.2,3.8-0.3l2.7,2.2	V55.4" class="icon-28-4 fill-primary stroke-primary"/><line x1="52.2" x2="33.8" y1="105.5" y2="105.5" stroke-linecap="round" stroke-linejoin="round" stroke-miterlimit="10" stroke-width="3" class="icon-28-0 fill-none stroke-primary"/><line x1="52.2" x2="46.3" y1="99.5" y2="99.5" stroke-linecap="round" stroke-linejoin="round" stroke-miterlimit="10" stroke-width="3" class="icon-28-0 fill-none stroke-primary"/><line x1="41.5" x2="33.8" y1="99.5" y2="99.5" stroke-linecap="round" stroke-linejoin="round" stroke-miterlimit="10" stroke-width="3" class="icon-28-0 fill-none stroke-primary"/><line x1="38.6" x2="38.6" y1="55.4" y2="71.7" stroke-linecap="round" stroke-linejoin="round" stroke-miterlimit="10" stroke-width="3" class="icon-28-5 fill-none stroke-white"/><line x1="75.3" x2="75.3" y1="55.3" y2="97.5" stroke-linecap="round" stroke-linejoin="round" stroke-miterlimit="10" stroke-width="3" class="icon-28-6 fill-none stroke-gray-400"/><line x1="75.3" x2="75.3" y1="106.1" y2="118.4" stroke-linecap="round" stroke-linejoin="round" stroke-miterlimit="10" stroke-width="3" class="icon-28-6 fill-none stroke-gray-400"/><polyline stroke-linecap="round" stroke-linejoin="round" stroke-miterlimit="10" stroke-width="3" points="65.9 55.3 13.2 55.3 2.4 32.2 64.4 32.2 75.2 55.3 94.5 55.3" class="icon-28-6 fill-none stroke-gray-400"/><line x1="83.8" x2="66.5" y1="36.6" y2="36.6" stroke-linecap="round" stroke-linejoin="round" stroke-miterlimit="10" stroke-width="3" class="icon-28-6 fill-none stroke-gray-400"/><line x1="60.4" x2="13.5" y1="38.2" y2="38.2" stroke-linecap="round" stroke-linejoin="round" stroke-miterlimit="10" stroke-width="3" class="icon-28-6 fill-none stroke-gray-400"/><line x1="115.8" x2="90.1" y1="38.2" y2="38.2" stroke-linecap="round" stroke-linejoin="round" stroke-miterlimit="10" stroke-width="3" class="icon-28-6 fill-none stroke-gray-400"/><path stroke-linecap="round" stroke-linejoin="round" stroke-miterlimit="10" stroke-width="3" d="M101,31.7c0-1.3,0.2-2.5,0.5-3.7" class="icon-28-0 fill-none stroke-primary"/><path stroke-linecap="round" stroke-linejoin="round" stroke-miterlimit="10" stroke-width="3" d="M99.9,55.3c0,0,6.6,0,7.7,0l10.8-23.1H86.1L75.3,55.3" class="icon-28-6 fill-none stroke-gray-400"/><path stroke-linecap="round" stroke-linejoin="round" stroke-miterlimit="10" stroke-width="3" d="M7.6,6.6c-2-0.3-4-0.4-6.1-0.4" class="icon-28-0 fill-none stroke-primary"/><path stroke-linecap="round" stroke-linejoin="round" stroke-miterlimit="10" stroke-width="3" d="M28.6,25.9c-1-6.8-5.7-13-11.7-16.3" class="icon-28-0 fill-none stroke-primary"/><path stroke-linecap="round" stroke-linejoin="round" stroke-miterlimit="10" stroke-width="3" d="M105.3,19.6c2.4-2.7,5.9-4,9.5-4" class="icon-28-0 fill-none stroke-primary"/><path d="M70.1,27v-4.2c3.1-1.9,5.1-5.3,5.1-9.1c0-6-4.8-10.8-10.8-10.8S53.6,7.8,53.6,13.7c0,3.9,2,7.2,5.1,9.1V27" class="icon-28-1 fill-gray-400" opacity=".5"/><path d="M66.1,24.4v-4.2c3.1-1.9,5.1-5.3,5.1-9.1c0-6-4.8-10.8-10.8-10.8S49.7,5.1,49.7,11.1c0,3.9,2,7.2,5.1,9.1v4.2" class="icon-28-7 fill-primary"/><path d="M62.5,15.6V14c1.1-0.7,1.9-1.9,1.9-3.4c0-2.2-1.8-4-4-4c-2.2,0-4,1.8-4,4c0,1.4,0.8,2.7,1.9,3.4v1.5" class="icon-28-3 fill-white"/></svg>