<svg xmlns="http://www.w3.org/2000/svg" xmlns:xlink="http://www.w3.org/1999/xlink" x="0" y="0" viewBox="0 0 120 120" xml:space="preserve" style="enable-background:new 0 0 120 120"><style type="text/css">.icon-19-0{fill:#bdc5d1;stroke:#bdc5d1}.icon-19-1{fill:#377dff;stroke:#377dff}.icon-19-2{fill:none;stroke:#bdc5d1}.icon-19-3{fill:none;stroke:#377dff}.icon-19-4{fill:none;stroke:#fff}.icon-19-5{fill:#fff;stroke:#377dff}</style><g><polygon stroke-linecap="round" stroke-linejoin="round" stroke-miterlimit="10" stroke-width="3" points="93.6 40.8 93.6 79.6 93.6 80.5 93.6 88.7 100.6 94 107.5 88.7 107.5 80.5 107.5 79.6 107.5 40.8" class="icon-19-0 fill-gray-400 stroke-gray-400" opacity=".5"/><polygon stroke-linecap="round" stroke-linejoin="round" stroke-miterlimit="10" stroke-width="3" points="86.7 39 86.7 77.9 86.7 78.7 86.7 87 93.6 92.3 100.6 87 100.6 78.7 100.6 77.9 100.6 39" class="icon-19-1 fill-primary stroke-primary"/></g><g><polygon stroke-linecap="round" stroke-linejoin="round" stroke-miterlimit="10" stroke-width="3" points="26.6 40.8 26.6 79.6 26.6 80.5 26.6 88.7 33.5 94 40.4 88.7 40.4 80.5 40.4 79.6 40.4 40.8" class="icon-19-0 fill-gray-400 stroke-gray-400" opacity=".5"/><polygon stroke-linecap="round" stroke-linejoin="round" stroke-miterlimit="10" stroke-width="3" points="19.7 39 19.7 77.9 19.7 78.7 19.7 87 26.6 92.3 33.5 87 33.5 78.7 33.5 77.9 33.5 39" class="icon-19-1 fill-primary stroke-primary"/></g><rect width="116.2" height="79.4" x="1.9" y="39" stroke-linecap="round" stroke-linejoin="round" stroke-miterlimit="10" stroke-width="3" class="icon-19-2 fill-none stroke-gray-400"/><line x1="1.9" x2="16.9" y1="71.4" y2="71.4" stroke-linecap="round" stroke-linejoin="round" stroke-miterlimit="10" stroke-width="3" class="icon-19-2 fill-none stroke-gray-400"/><line x1="118.1" x2="103.6" y1="71.4" y2="71.4" stroke-linecap="round" stroke-linejoin="round" stroke-miterlimit="10" stroke-width="3" class="icon-19-2 fill-none stroke-gray-400"/><line x1="83.7" x2="70.2" y1="71.4" y2="71.4" stroke-linecap="round" stroke-linejoin="round" stroke-miterlimit="10" stroke-width="3" class="icon-19-2 fill-none stroke-gray-400"/><line x1="50.3" x2="36.8" y1="71.4" y2="71.4" stroke-linecap="round" stroke-linejoin="round" stroke-miterlimit="10" stroke-width="3" class="icon-19-2 fill-none stroke-gray-400"/><line x1="118.1" x2="1.9" y1="110.9" y2="110.9" stroke-linecap="round" stroke-linejoin="round" stroke-miterlimit="10" stroke-width="3" class="icon-19-2 fill-none stroke-gray-400"/><rect width="19.9" height="9.4" x="50.3" y="66.8" stroke-linecap="round" stroke-linejoin="round" stroke-miterlimit="10" stroke-width="3" class="icon-19-3 fill-none stroke-primary"/><polyline stroke-linecap="round" stroke-linejoin="round" stroke-miterlimit="10" stroke-width="3" points="73.1 28.9 77.2 28.9 77.2 39" class="icon-19-2 fill-none stroke-gray-400"/><polyline stroke-linecap="round" stroke-linejoin="round" stroke-miterlimit="10" stroke-width="3" points="42.8 39 42.8 28.9 47.1 28.9" class="icon-19-2 fill-none stroke-gray-400"/><path stroke-linecap="round" stroke-linejoin="round" stroke-miterlimit="10" stroke-width="3" d="M46,24.9L46,24.9c-2.3,0-4.2-1.9-4.2-4.2v-4.3c0-4.6,1.8-6.8,3.8-7.8C48.2,7.4,50,1.6,50,1.6h20.2l2.1,7.1	c0.6,1.9,0.9,4,0.9,6v15c0,2.2-2.1,3.8-4.4,3.1c-1.3-0.5-2.1-1.7-2.1-3.1v-0.1c0,1.8-1.5,3.2-3.2,3.2c-1.8,0-3.2-1.4-3.2-3.2v0.1	c0,2.2-2.1,3.8-4.4,3.1c-1.3-0.5-2.1-1.7-2.1-3.1v-0.1c0,2-1.9,3.5-3.9,3.1c-1.5-0.3-2.6-1.8-2.6-3.3V18.4" class="icon-19-2 fill-none stroke-gray-400"/><line x1="66.6" x2="66.6" y1="26.5" y2="29.5" stroke-linecap="round" stroke-linejoin="round" stroke-miterlimit="10" stroke-width="3" class="icon-19-4 fill-none stroke-white"/><line x1="60.1" x2="60.1" y1="26.5" y2="29.5" stroke-linecap="round" stroke-linejoin="round" stroke-miterlimit="10" stroke-width="3" class="icon-19-4 fill-none stroke-white"/><rect width="19.9" height="12.7" x="16.9" y="65.1" stroke-linecap="round" stroke-linejoin="round" stroke-miterlimit="10" stroke-width="3" class="icon-19-5 fill-white stroke-primary"/><rect width="19.9" height="12.7" x="83.7" y="65.1" stroke-linecap="round" stroke-linejoin="round" stroke-miterlimit="10" stroke-width="3" class="icon-19-5 fill-white stroke-primary"/><line x1="93.6" x2="93.6" y1="72.5" y2="70.5" stroke-linecap="round" stroke-linejoin="round" stroke-miterlimit="10" stroke-width="3" class="icon-19-3 fill-none stroke-primary"/><line x1="26.9" x2="26.9" y1="72.5" y2="70.5" stroke-linecap="round" stroke-linejoin="round" stroke-miterlimit="10" stroke-width="3" class="icon-19-3 fill-none stroke-primary"/><line x1="53.6" x2="53.6" y1="26.5" y2="29.5" stroke-linecap="round" stroke-linejoin="round" stroke-miterlimit="10" stroke-width="3" class="icon-19-4 fill-none stroke-white"/></svg>