<svg xmlns="http://www.w3.org/2000/svg" xmlns:xlink="http://www.w3.org/1999/xlink" x="0" y="0" viewBox="0 0 120 120" xml:space="preserve" style="enable-background:new 0 0 120 120"><style type="text/css">.icon-white-64-0{fill:none;stroke:#fff}.icon-white-64-1{fill:#fff}.icon-white-64-2{fill:none;stroke:#377dff}</style><polyline stroke-linecap="round" stroke-linejoin="round" stroke-miterlimit="10" stroke-width="3" points="64.8 49.5 64.8 91.3 1.6 81.4 1.6 11.6" class="icon-white-64-0 fill-none stroke-white"/><polyline stroke-linecap="round" stroke-linejoin="round" stroke-miterlimit="10" stroke-width="3" points="1.6 11.6 64.8 21.5 64.8 34.6" class="icon-white-64-0 fill-none stroke-white"/><polyline stroke-linecap="round" stroke-linejoin="round" stroke-miterlimit="10" stroke-width="3" points="105.7 10.3 105.7 79.4 64.8 91.3" class="icon-white-64-0 fill-none stroke-white"/><line x1="64.8" x2="105.7" y1="21.5" y2="10.3" stroke-linecap="round" stroke-linejoin="round" stroke-miterlimit="10" stroke-width="3" class="icon-white-64-0 fill-none stroke-white"/><polyline stroke-linecap="round" stroke-linejoin="round" stroke-miterlimit="10" stroke-width="3" points="1.6 11.6 42.4 1.7 105.7 10.3" class="icon-white-64-0 fill-none stroke-white"/><circle cx="92.8" cy="92.8" r="27.2" class="icon-white-64-1 fill-white" opacity=".3"/><circle cx="82.8" cy="84.3" r="27.2" class="icon-white-64-1 fill-white"/><path stroke-linecap="round" stroke-linejoin="round" stroke-miterlimit="10" stroke-width="3" d="M81.2,76.5h6.7c4.3,0,7.8,3.5,7.8,7.8v0c0,4.3-3.5,7.8-7.8,7.8h-18" class="icon-white-64-2 fill-none stroke-primary"/><polyline stroke-linecap="round" stroke-linejoin="round" stroke-miterlimit="10" stroke-width="3" points="85.5 80.7 81.2 76.5 85.5 72.2" class="icon-white-64-2 fill-none stroke-primary"/><line x1="79.9" x2="79.9" y1="17.3" y2="34.6" stroke-linecap="round" stroke-linejoin="round" stroke-miterlimit="10" stroke-width="3" class="icon-white-64-0 fill-none stroke-white"/><line x1="85" x2="79.9" y1="33" y2="34.6" stroke-linecap="round" stroke-linejoin="round" stroke-miterlimit="10" stroke-width="3" class="icon-white-64-0 fill-none stroke-white"/><line x1="95" x2="91.2" y1="29.9" y2="31.1" stroke-linecap="round" stroke-linejoin="round" stroke-miterlimit="10" stroke-width="3" class="icon-white-64-0 fill-none stroke-white"/><line x1="95" x2="95" y1="13.3" y2="29.7" stroke-linecap="round" stroke-linejoin="round" stroke-miterlimit="10" stroke-width="3" class="icon-white-64-0 fill-none stroke-white"/><line x1="38.5" x2="38.5" y1="64.6" y2="75.5" stroke-linecap="round" stroke-linejoin="round" stroke-miterlimit="10" stroke-width="3" class="icon-white-64-0 fill-none stroke-white"/><line x1="46.1" x2="46.1" y1="65.6" y2="76.5" stroke-linecap="round" stroke-linejoin="round" stroke-miterlimit="10" stroke-width="3" class="icon-white-64-0 fill-none stroke-white"/><circle cx="24.8" cy="29.3" r="3.1" stroke-linecap="round" stroke-linejoin="round" stroke-miterlimit="10" stroke-width="3" class="icon-white-64-0 fill-none stroke-white" opacity=".5"/><circle cx="13.4" cy="27.1" r="3.1" stroke-linecap="round" stroke-linejoin="round" stroke-miterlimit="10" stroke-width="3" class="icon-white-64-0 fill-none stroke-white"/></svg>