<svg xmlns="http://www.w3.org/2000/svg" xmlns:xlink="http://www.w3.org/1999/xlink" x="0" y="0" viewBox="0 0 120 120" xml:space="preserve" style="enable-background:new 0 0 120 120"><style type="text/css">.icon-16-0{fill:#bdc5d1}.icon-16-1{fill:#377dff}.icon-16-2{fill:none;stroke:#fff}.icon-16-3{fill:none;stroke:#bdc5d1}.icon-16-4{fill:none;stroke:#377dff}</style><path d="M19.3,28.1L19.3,28.1C14,33.4,10.9,40.6,11,48.2c0.2,10.7,5.1,26.6,24.7,46.2c11.5,11.5,21.5,17.7,29.8,20.7	c11.8,4.3,25.1,1.2,34-7.7l0,0c1.8-1.8,1.8-4.8,0-6.6L85.2,86.5c-1.8-1.8-4.7-1.8-6.5-0.1l-8.6,8c0,0-25.3-9.2-37.6-37.6l7.7-7.7	c2.1-2.1,2.1-5.5,0-7.6L26.9,28.1C24.8,26,21.4,26,19.3,28.1z" class="icon-16-0 fill-gray-400" opacity=".5"/><path d="M9,30.9L9,30.9c-5.3,5.3-8.4,12.5-8.3,20.1c0.2,10.7,5.1,26.6,24.7,46.2c11.5,11.5,21.5,17.7,29.8,20.7	c11.8,4.3,25.1,1.2,34-7.7l0,0c1.8-1.8,1.8-4.8,0-6.6L74.9,89.2c-1.8-1.8-4.7-1.8-6.5-0.1l-8.6,8c0,0-25.3-9.2-37.6-37.6l7.7-7.7	c2.1-2.1,2.1-5.5,0-7.6L16.6,30.9C14.5,28.8,11.1,28.8,9,30.9z" class="icon-16-1 fill-primary"/><line x1="9" x2="23.4" y1="32.2" y2="46.6" stroke-linecap="round" stroke-linejoin="round" stroke-miterlimit="10" stroke-width="3" class="icon-16-2 fill-none stroke-white"/><line x1="88.7" x2="74" y1="111.9" y2="97.2" stroke-linecap="round" stroke-linejoin="round" stroke-miterlimit="10" stroke-width="3" class="icon-16-2 fill-none stroke-white"/><path stroke-linecap="round" stroke-linejoin="round" stroke-miterlimit="10" stroke-width="3" d="M61.3,97.1l-5.2,5.3c0,0-8.9-2.9-18.7-12.4" class="icon-16-2 fill-none stroke-white"/><path stroke-linecap="round" stroke-linejoin="round" stroke-miterlimit="10" stroke-width="3" d="M34.7,86.2" class="icon-16-3 fill-none stroke-gray-400"/><path stroke-linecap="round" stroke-linejoin="round" stroke-miterlimit="10" stroke-width="3" d="M32.5,84.9c0,0-3.7-3.9-5.9-7.7" class="icon-16-2 fill-none stroke-white"/><g><g><g><path stroke-linecap="round" stroke-linejoin="round" stroke-miterlimit="10" stroke-width="3" d="M64.3,1.7c1.7-0.1,3.3-0.1,5,0" class="icon-16-3 fill-none stroke-gray-400"/><path stroke-dasharray="11.227 11.227" stroke-linecap="round" stroke-linejoin="round" stroke-miterlimit="10" stroke-width="3" d="M80.4,3.5c5.3,1.5,10.5,3.8,15.3,6.9" class="icon-16-3 fill-none stroke-gray-400"/><path stroke-linecap="round" stroke-linejoin="round" stroke-miterlimit="10" stroke-width="3" d="M100.2,13.8c1.3,1.1,2.5,2.2,3.7,3.4" class="icon-16-3 fill-none stroke-gray-400"/></g></g></g><path stroke-linecap="round" stroke-linejoin="round" stroke-miterlimit="10" stroke-width="3" d="M103.9,17.1c19.2,19.2,19.2,50.4,0,69.7" class="icon-16-3 fill-none stroke-gray-400"/><path stroke-linecap="round" stroke-linejoin="round" stroke-miterlimit="10" stroke-width="3" d="M28.9,17.1c9.8-9.8,22.5-15,35.4-15.5" class="icon-16-3 fill-none stroke-gray-400"/><line x1="97.5" x2="93.7" y1="71.1" y2="69.2" stroke-linecap="round" stroke-linejoin="round" stroke-miterlimit="10" stroke-width="3" class="icon-16-3 fill-none stroke-gray-400"/><line x1="101.5" x2="97.4" y1="49.1" y2="50.1" stroke-linecap="round" stroke-linejoin="round" stroke-miterlimit="10" stroke-width="3" class="icon-16-3 fill-none stroke-gray-400"/><line x1="49.4" x2="51.1" y1="23.1" y2="28.5" stroke-linecap="round" stroke-linejoin="round" stroke-miterlimit="10" stroke-width="3" class="icon-16-3 fill-none stroke-gray-400"/><line x1="71.4" x2="70.4" y1="19" y2="23.1" stroke-linecap="round" stroke-linejoin="round" stroke-miterlimit="10" stroke-width="3" class="icon-16-3 fill-none stroke-gray-400"/><line x1="91.9" x2="87.3" y1="29.2" y2="33.8" stroke-linecap="round" stroke-linejoin="round" stroke-miterlimit="10" stroke-width="3" class="icon-16-3 fill-none stroke-gray-400"/><path stroke-linecap="round" stroke-linejoin="round" stroke-miterlimit="10" stroke-width="3" d="M41.2,29.2c14-14,36.6-14,50.6,0c14,14,14,36.6,0,50.6" class="icon-16-4 fill-none stroke-primary"/><line x1="53.7" x2="62.9" y1="66.9" y2="66.9" stroke-linecap="round" stroke-linejoin="round" stroke-miterlimit="10" stroke-width="3" class="icon-16-3 fill-none stroke-gray-400"/><line x1="55.4" x2="60.7" y1="54.1" y2="54.1" stroke-linecap="round" stroke-linejoin="round" stroke-miterlimit="10" stroke-width="3" class="icon-16-3 fill-none stroke-gray-400"/><line x1="72.4" x2="77.7" y1="54.1" y2="54.1" stroke-linecap="round" stroke-linejoin="round" stroke-miterlimit="10" stroke-width="3" class="icon-16-3 fill-none stroke-gray-400"/><line x1="53.7" x2="62.9" y1="41.1" y2="41.1" stroke-linecap="round" stroke-linejoin="round" stroke-miterlimit="10" stroke-width="3" class="icon-16-3 fill-none stroke-gray-400"/><line x1="53.7" x2="53.7" y1="57.2" y2="63.7" stroke-linecap="round" stroke-linejoin="round" stroke-miterlimit="10" stroke-width="3" class="icon-16-3 fill-none stroke-gray-400"/><line x1="80.3" x2="80.3" y1="55.5" y2="66.3" stroke-linecap="round" stroke-linejoin="round" stroke-miterlimit="10" stroke-width="3" class="icon-16-3 fill-none stroke-gray-400"/><line x1="80.3" x2="80.3" y1="41.1" y2="51.8" stroke-linecap="round" stroke-linejoin="round" stroke-miterlimit="10" stroke-width="3" class="icon-16-3 fill-none stroke-gray-400"/><line x1="69.6" x2="69.6" y1="41.1" y2="51.8" stroke-linecap="round" stroke-linejoin="round" stroke-miterlimit="10" stroke-width="3" class="icon-16-3 fill-none stroke-gray-400"/><line x1="62.9" x2="62.9" y1="44.8" y2="51.5" stroke-linecap="round" stroke-linejoin="round" stroke-miterlimit="10" stroke-width="3" class="icon-16-3 fill-none stroke-gray-400"/><path stroke-linecap="round" stroke-linejoin="round" stroke-miterlimit="10" stroke-width="3" d="M107.9,38.6c0,0,5.5,11.5,0.8,25.9" class="icon-16-3 fill-none stroke-gray-400"/><path stroke-linecap="round" stroke-linejoin="round" stroke-miterlimit="10" stroke-width="3" d="M42.1,17.4c0,0,3.4-2.6,7.3-3.6" class="icon-16-3 fill-none stroke-gray-400"/><line x1="104.2" x2="100.8" y1="31.8" y2="26.5" stroke-linecap="round" stroke-linejoin="round" stroke-miterlimit="10" stroke-width="3" class="icon-16-3 fill-none stroke-gray-400"/></svg>