<svg xmlns="http://www.w3.org/2000/svg" xmlns:xlink="http://www.w3.org/1999/xlink" x="0" y="0" viewBox="0 0 120 120" xml:space="preserve" style="enable-background:new 0 0 120 120"><style type="text/css">.icon-white-33-0{fill:none;stroke:#fff}.icon-white-33-1{fill:#fff}.icon-white-33-2{fill:none;stroke:#377dff}</style><path stroke-linecap="round" stroke-linejoin="round" stroke-miterlimit="10" stroke-width="3" d="M2.1,39.3V24.9c0-1.8,1.5-3.2,3.2-3.2h109.4c1.8,0,3.2,1.5,3.2,3.2v9.8" class="icon-white-33-0 fill-none stroke-white"/><path stroke-linecap="round" stroke-linejoin="round" stroke-miterlimit="10" stroke-width="3" d="M117.9,54.3v26.6c0,1.8-1.5,3.2-3.2,3.2H5.3c-1.8,0-3.2-1.5-3.2-3.2V54.3" class="icon-white-33-0 fill-none stroke-white"/><line x1="117.9" x2="117.9" y1="34.7" y2="39.3" stroke-linecap="round" stroke-linejoin="round" stroke-miterlimit="10" stroke-width="3" class="icon-white-33-0 fill-none stroke-white"/><line x1="24" x2="24" y1="98.3" y2="92.3" stroke-linecap="round" stroke-linejoin="round" stroke-miterlimit="10" stroke-width="3" class="icon-white-33-0 fill-none stroke-white"/><line x1="33" x2="33" y1="98.3" y2="92.3" stroke-linecap="round" stroke-linejoin="round" stroke-miterlimit="10" stroke-width="3" class="icon-white-33-0 fill-none stroke-white"/><line x1="42" x2="42" y1="98.3" y2="92.3" stroke-linecap="round" stroke-linejoin="round" stroke-miterlimit="10" stroke-width="3" class="icon-white-33-0 fill-none stroke-white"/><line x1="51" x2="51" y1="98.3" y2="92.3" stroke-linecap="round" stroke-linejoin="round" stroke-miterlimit="10" stroke-width="3" class="icon-white-33-0 fill-none stroke-white"/><line x1="60" x2="60" y1="98.3" y2="92.3" stroke-linecap="round" stroke-linejoin="round" stroke-miterlimit="10" stroke-width="3" class="icon-white-33-0 fill-none stroke-white"/><line x1="69" x2="69" y1="98.3" y2="92.3" stroke-linecap="round" stroke-linejoin="round" stroke-miterlimit="10" stroke-width="3" class="icon-white-33-0 fill-none stroke-white"/><line x1="78" x2="78" y1="98.3" y2="92.3" stroke-linecap="round" stroke-linejoin="round" stroke-miterlimit="10" stroke-width="3" class="icon-white-33-0 fill-none stroke-white"/><line x1="87" x2="87" y1="98.3" y2="92.3" stroke-linecap="round" stroke-linejoin="round" stroke-miterlimit="10" stroke-width="3" class="icon-white-33-0 fill-none stroke-white"/><line x1="96" x2="96" y1="98.3" y2="92.3" stroke-linecap="round" stroke-linejoin="round" stroke-miterlimit="10" stroke-width="3" class="icon-white-33-0 fill-none stroke-white"/><path stroke-linecap="round" stroke-linejoin="round" stroke-miterlimit="10" stroke-width="3" d="M107.5,99.1H10.9c-1.8,0-3.2-1.6-3.2-3.4V84.1h103v11.6C110.7,97.6,109.2,99.1,107.5,99.1z" class="icon-white-33-0 fill-none stroke-white"/><path stroke-linecap="round" stroke-linejoin="round" stroke-miterlimit="10" stroke-width="3" d="M117.8,54.3c-4.1,0-7.5-3.3-7.5-7.5s3.3-7.5,7.5-7.5" class="icon-white-33-0 fill-none stroke-white"/><path stroke-linecap="round" stroke-linejoin="round" stroke-miterlimit="10" stroke-width="3" d="M2.4,39.3c4.1,0,7.5,3.3,7.5,7.5s-3.3,7.5-7.5,7.5" class="icon-white-33-0 fill-none stroke-white"/><path d="M92.5,73.6H39c-2,0-3.5-1.5-3.5-3.2V41.2c0-1.8,1.7-3.2,3.5-3.2h53.4c2,0,3.5,1.5,3.5,3.2v29.2	C96.1,72.2,94.5,73.6,92.5,73.6z" class="icon-white-33-1 fill-white" opacity=".15"/><path d="M87.1,67.5H29.5c-2.2,0-3.8-1.5-3.8-3.2V35.1c0-1.8,1.7-3.2,3.8-3.2H87c2.2,0,3.8,1.5,3.8,3.2v29.2	C90.9,66.1,89.2,67.5,87.1,67.5z" class="icon-white-33-1 fill-white"/><rect width="5.7" height="11.3" x="37.7" y="44" stroke-linecap="round" stroke-linejoin="round" stroke-miterlimit="10" stroke-width="3" class="icon-white-33-2 fill-none stroke-primary"/><rect width="5.7" height="11.3" x="55.7" y="44" stroke-linecap="round" stroke-linejoin="round" stroke-miterlimit="10" stroke-width="3" class="icon-white-33-2 fill-none stroke-primary" opacity=".5"/><rect width="5.7" height="11.3" x="73.7" y="44" stroke-linecap="round" stroke-linejoin="round" stroke-miterlimit="10" stroke-width="3" class="icon-white-33-2 fill-none stroke-primary" opacity=".5"/></svg>