<svg xmlns="http://www.w3.org/2000/svg" xmlns:xlink="http://www.w3.org/1999/xlink" x="0" y="0" viewBox="0 0 120 120" xml:space="preserve" style="enable-background:new 0 0 120 120"><style type="text/css">.icon-37-0{fill:none;stroke:#bdc5d1}.icon-37-1{fill:#bdc5d1}.icon-37-2{fill:#377dff}</style><path stroke-linecap="round" stroke-linejoin="round" stroke-miterlimit="10" stroke-width="3" d="M5.9,88.9c-5.3-3-5.3-8,0-11l44.4-25.7c5.3-3,13.8-3,19.1,0l44.5,25.7c5.3,3,5.3,8,0,11l-44.4,25.7	c-5.3,3-13.8,3-19.1,0L5.9,88.9z" class="icon-37-0 fill-none stroke-gray-400"/><path d="M4.7,65.6c-5.4-3.1-5.4-8.2,0-11.3l45.5-26.2c5.4-3.1,14.2-3.1,19.5,0l45.5,26.2c5.4,3.1,5.4,8.2,0,11.3	L69.8,91.8c-5.4,3.1-14.2,3.1-19.5,0L4.7,65.6z" class="icon-37-1 fill-gray-400" opacity=".5"/><path d="M4.7,43c-5.4-3.1-5.4-8.2,0-11.3L50.2,5.5c5.4-3.1,14.2-3.1,19.5,0l45.5,26.2c5.4,3.1,5.4,8.2,0,11.3L69.8,69.3	c-5.4,3.1-14.2,3.1-19.5,0L4.7,43z" class="icon-37-2 fill-primary"/></svg>