<svg xmlns="http://www.w3.org/2000/svg" xmlns:xlink="http://www.w3.org/1999/xlink" id="Laag_1" x="0" y="0" version="1.1" viewBox="0 0 120 120" xml:space="preserve" style="enable-background:new 0 0 120 120"><style type="text/css">.st0,.st1{fill:none;stroke:#377dff;stroke-width:3;stroke-linecap:round;stroke-linejoin:round;stroke-miterlimit:10}.st1{stroke:#bdc5d1}.st2{opacity:.5}.st3{fill:#bdc5d1}.st4{fill:#dd4d7e}.st5{fill:#fff}.st6,.st7{fill:none;stroke-width:3;stroke-linecap:round;stroke-linejoin:round;stroke-miterlimit:10}.st6{opacity:.5;stroke:#bdc5d1;enable-background:new}.st7{stroke:#dd4d7e}</style><path d="M99.1,113.3" class="st0"/><path d="M15.1,75.6V11l4.4-4.3l4.3,4.3l4.3-4.3l4.3,4.3l4.3-4.3L41,11l4.3-4.3l4.3,4.3l4.3-4.3l4.3,4.3l4.3-4.3l4.3,4.3	l4.3-4.3l4.3,4.3l4.3-4.3L84,11l5-4.3l4.4,4.3v96.5c0,3.2,2.6,5.8,5.8,5.8l0,0c3.2,0,5.8-2.6,5.8-5.8V13.2h-5.8v93.1" class="st1"/><line x1="99.1" x2="26.1" y1="113.3" y2="113.3" class="st1"/><g class="st2"><path d="M78.1,44.5H39.2c-4.1,0-7.3-3.3-7.3-7.3l0,0c0-4.1,3.3-7.3,7.3-7.3h38.9c4.1,0,7.3,3.3,7.3,7.3l0,0 C85.5,41.2,82.2,44.5,78.1,44.5z" class="st3"/></g><g><path d="M73.1,38H34.2c-4.1,0-7.3-3.3-7.3-7.3l0,0c0-4.1,3.3-7.3,7.3-7.3h38.9c4.1,0,7.3,3.3,7.3,7.3l0,0 C80.5,34.7,77.2,38,73.1,38z" class="st4"/></g><g><path d="M65.4,32.3H41.9c-0.9,0-1.6-0.7-1.6-1.6l0,0c0-0.9,0.7-1.6,1.6-1.6h23.5c0.9,0,1.6,0.7,1.6,1.6l0,0 C67,31.5,66.3,32.3,65.4,32.3z" class="st5"/></g><g class="st2"><line x1="3.8" x2="33.1" y1="86" y2="86" class="st1"/><line x1="3.8" x2="33.1" y1="93.5" y2="93.5" class="st1"/><line x1="3.8" x2="18.3" y1="101.1" y2="101.1" class="st1"/><line x1="27.3" x2="33.1" y1="101.1" y2="101.1" class="st1"/></g><line x1="54.4" x2="54.4" y1="90.6" y2="102.8" class="st6"/><line x1="62.3" x2="62.3" y1="87.1" y2="102.8" class="st6"/><line x1="70.3" x2="70.3" y1="89.7" y2="102.8" class="st6"/><line x1="78.3" x2="78.3" y1="81.8" y2="102.8" class="st6"/><polyline points="50.6 86 64.2 75.6 69 81.3 80.9 71.2" class="st7"/></svg>