<svg xmlns="http://www.w3.org/2000/svg" xmlns:xlink="http://www.w3.org/1999/xlink" x="0" y="0" viewBox="0 0 120 120" xml:space="preserve" style="enable-background:new 0 0 120 120"><style type="text/css">.icon-white-15-0{fill:none;stroke:#fff}.icon-white-15-1{fill:#fff}.icon-white-15-2{fill:none;stroke:#377dff}</style><line x1="25.2" x2="35.9" y1="66.2" y2="66.2" stroke-linecap="round" stroke-linejoin="round" stroke-miterlimit="10" stroke-width="3" class="icon-white-15-0" opacity=".5"/><line x1="44.3" x2="33.2" y1="76.4" y2="76.4" stroke-linecap="round" stroke-linejoin="round" stroke-miterlimit="10" stroke-width="3" class="icon-white-15-0" opacity=".5"/><line x1="27.8" x2="22.3" y1="76.5" y2="76.5" stroke-linecap="round" stroke-linejoin="round" stroke-miterlimit="10" stroke-width="3" class="icon-white-15-0" opacity=".5"/><line x1="6.4" x2="11.8" y1="85.8" y2="85.8" stroke-linecap="round" stroke-linejoin="round" stroke-miterlimit="10" stroke-width="3" class="icon-white-15-0" opacity=".5"/><line x1="17.1" x2="33.1" y1="85.8" y2="85.8" stroke-linecap="round" stroke-linejoin="round" stroke-miterlimit="10" stroke-width="3" class="icon-white-15-0" opacity=".5"/><line x1="17.1" x2="1.8" y1="76.5" y2="76.5" stroke-linecap="round" stroke-linejoin="round" stroke-miterlimit="10" stroke-width="3" class="icon-white-15-0" opacity=".5"/><line x1="19" x2="15.4" y1="66.2" y2="66.2" stroke-linecap="round" stroke-linejoin="round" stroke-miterlimit="10" stroke-width="3" class="icon-white-15-0" opacity=".5"/><path d="M115.7,114.2h-77c-2.4,0-4.3-2-4.3-4.3v-48c0-2.4,2-4.3,4.3-4.3h76.9c2.4,0,4.3,2,4.3,4.3v48	C120,112.2,118,114.2,115.7,114.2z" class="icon-white-15-1" opacity=".15"/><path d="M106.1,102.9H29.2c-2.4,0-4.3-2-4.3-4.3v-48c0-2.4,2-4.3,4.3-4.3h76.9c2.4,0,4.3,2,4.3,4.3v48	C110.4,100.9,108.5,102.9,106.1,102.9z" class="icon-white-15-1"/><g><line x1="78.4" x2="109.6" y1="81.6" y2="101.5" stroke-linecap="round" stroke-linejoin="round" stroke-miterlimit="10" stroke-width="3" class="icon-white-15-2 fill-none stroke-primary"/><line x1="56.9" x2="25.6" y1="81.6" y2="101.5" stroke-linecap="round" stroke-linejoin="round" stroke-miterlimit="10" stroke-width="3" class="icon-white-15-2 fill-none stroke-primary"/><line x1="25.6" x2="67.6" y1="47.9" y2="78.6" stroke-linecap="round" stroke-linejoin="round" stroke-miterlimit="10" stroke-width="3" class="icon-white-15-2 fill-none stroke-primary"/><line x1="109.6" x2="67.6" y1="47.9" y2="78.6" stroke-linecap="round" stroke-linejoin="round" stroke-miterlimit="10" stroke-width="3" class="icon-white-15-2 fill-none stroke-primary"/></g><path stroke-linecap="round" stroke-linejoin="round" stroke-miterlimit="10" stroke-width="3" d="M106.1,102.9H29.2c-2.4,0-4.3-2-4.3-4.3v-48c0-2.4,2-4.3,4.3-4.3h76.9c2.4,0,4.3,2,4.3,4.3v48	C110.4,100.9,108.5,102.9,106.1,102.9z" class="icon-white-15-2 fill-none stroke-primary"/><line x1="70" x2="55.8" y1="95.1" y2="95.1" stroke-linecap="round" stroke-linejoin="round" stroke-miterlimit="10" stroke-width="3" class="icon-white-15-2 fill-none stroke-primary" opacity=".5"/><line x1="76.2" x2="82.6" y1="95.1" y2="95.1" stroke-linecap="round" stroke-linejoin="round" stroke-miterlimit="10" stroke-width="3" class="icon-white-15-2 fill-none stroke-primary" opacity=".5"/><path stroke-linecap="round" stroke-linejoin="round" stroke-miterlimit="10" stroke-width="3" d="M89.9,107.9" class="icon-white-15-0"/><line x1="72.5" x2="90.4" y1="36.3" y2="36.3" stroke-linecap="round" stroke-linejoin="round" stroke-miterlimit="10" stroke-width="3" class="icon-white-15-0" opacity=".5"/><line x1="108.7" x2="103.4" y1="27.9" y2="27.9" stroke-linecap="round" stroke-linejoin="round" stroke-miterlimit="10" stroke-width="3" class="icon-white-15-0" opacity=".5"/><line x1="98" x2="82.1" y1="27.9" y2="27.9" stroke-linecap="round" stroke-linejoin="round" stroke-miterlimit="10" stroke-width="3" class="icon-white-15-0" opacity=".5"/><line x1="97" x2="112.4" y1="36.2" y2="36.2" stroke-linecap="round" stroke-linejoin="round" stroke-miterlimit="10" stroke-width="3" class="icon-white-15-0" opacity=".5"/><path stroke-linecap="round" stroke-linejoin="round" stroke-miterlimit="10" stroke-width="3" d="M5,41.6V14.7c0-2.1,1.8-3.9,3.9-3.9h77.8c2.2,0,3.9,1.7,3.9,3.9v5.5" class="icon-white-15-0"/><g><line x1="17.5" x2="47.4" y1="20.3" y2="39.2" stroke-linecap="round" stroke-linejoin="round" stroke-miterlimit="10" stroke-width="3" class="icon-white-15-0"/><line x1="78" x2="47.6" y1="20" y2="39.2" stroke-linecap="round" stroke-linejoin="round" stroke-miterlimit="10" stroke-width="3" class="icon-white-15-0"/></g><path stroke-linecap="round" stroke-linejoin="round" stroke-miterlimit="10" stroke-width="3" d="M25.2,5.8" class="icon-white-15-0"/></svg>