<svg xmlns="http://www.w3.org/2000/svg" xmlns:xlink="http://www.w3.org/1999/xlink" id="Laag_1" x="0" y="0" version="1.1" viewBox="0 0 120 120" xml:space="preserve" style="enable-background:new 0 0 120 120"><style type="text/css">.st0{fill:none;stroke:#bdc5d1;stroke-width:3;stroke-linecap:round;stroke-linejoin:round;stroke-miterlimit:10}.st1{opacity:.5;fill:#bdc5d1;enable-background:new}.st2{fill:#dd4d7e}</style><g><path d="M52.9,42.5c-2.7,0-5.2,1.2-6.8,3.2v-17h-36c-5,0-9.1,4.1-9.1,9.1v36h16.7c-1.8-1.6-3-4-3-6.6 c0-4.9,3.9-8.8,8.8-8.8s8.8,3.9,8.8,8.8c0,2.6-1.1,5-3,6.6H46v-17c1.6,2,4,3.2,6.8,3.2c4.8,0,8.7-3.9,8.7-8.7 C61.7,46.4,57.8,42.5,52.9,42.5z" class="st0"/><path d="M17.8,73.8H1v36c0,5,4.1,9.1,9.1,9.1h36v-16.7c-1.6,1.8-4,3-6.6,3c-4.9,0-8.8-3.9-8.8-8.8s3.9-8.8,8.8-8.8 c2.6,0,5,1.1,6.6,3V73.8H29.5" class="st0"/><path d="M46.2,102.3V119h36c5,0,9.1-4.1,9.1-9.1v-36H74.6c1.8,1.6,3,4,3,6.6c0,4.9-3.9,8.8-8.8,8.8S60,85.4,60,80.5 c0-2.6,1.1-5,3-6.6H46.2v16.7" class="st0"/><path d="M105.9,16.1c-1.4-4.8-6.5-7.6-11.3-6.2L60,19.8l4.6,16.1c1-2.2,3-3.9,5.5-4.7c4.7-1.4,9.6,1.3,10.9,6 c1.4,4.7-1.3,9.6-6,10.9c-2.5,0.7-5.1,0.3-7.1-1l4.6,16.1l15.7-4.5c-1.1,2-1.5,4.4-0.8,6.8c1.4,4.7,6.3,7.5,11.1,6.1 c4.7-1.4,7.5-6.3,6.1-11.1c-0.7-2.4-2.3-4.3-4.3-5.4l15.6-4.5L105.9,16.1z" class="st1"/><path d="M110,6.6c-1.4-4.8-6.5-7.6-11.3-6.2l-34.6,10l4.6,16.1c1-2.2,3-3.9,5.5-4.7c4.7-1.4,9.6,1.3,10.9,6 c1.4,4.7-1.3,9.6-6,10.9c-2.5,0.7-5.1,0.3-7.1-1l4.6,16.1l15.7-4.5c-1.1,2-1.5,4.4-0.8,6.8c1.4,4.7,6.3,7.5,11.1,6.1 c4.7-1.4,7.5-6.3,6.1-11.1c-0.7-2.4-2.3-4.3-4.3-5.4l15.6-4.5L110,6.6z" class="st2"/></g></svg>