<svg xmlns="http://www.w3.org/2000/svg" xmlns:xlink="http://www.w3.org/1999/xlink" x="0" y="0" viewBox="0 0 120 120" xml:space="preserve" style="enable-background:new 0 0 120 120"><style type="text/css">.icon-white-32-0{fill:#fff}.icon-white-32-1{fill:none;stroke:#377dff}.icon-white-32-2{fill:#377dff;stroke:#fff}.icon-white-32-3{fill:none;stroke:#fff}</style><path d="M73,46.6l-7.5-7.7l-2-2.1l-2.2-2.3l-9.5-9.8l-24.5-5.4L7.4,38.6l4.7,24.7l9.5,9.8l2.1,2.2l2.1,2.2L66,118.6	c1.8,1.8,4.7,1.9,6.6,0.1l32.9-32c1.8-1.8,1.9-4.7,0.1-6.6l-5.7-5.8" class="icon-white-32-0 fill-white" opacity=".15"/><path d="M75.1,29.1l-7.5-7.7l-2-2.1L63.4,17l-9.5-9.8L29.4,1.8L9.6,21.1l4.7,24.7l9.5,9.8l2.1,2.2L28,60l40.1,41.2	c1.8,1.8,4.7,1.9,6.6,0.1l32.9-32c1.8-1.8,1.9-4.7,0.1-6.6l-5.7-5.8" class="icon-white-32-0 fill-white"/><ellipse cx="95.9" cy="42.3" class="icon-white-32-0 fill-white" opacity=".15" rx="16.2" ry="16.2"/><ellipse cx="31.8" cy="24.2" stroke-linecap="round" stroke-linejoin="round" stroke-miterlimit="10" stroke-width="3" class="icon-white-32-1 fill-none stroke-primary" rx="7" ry="7"/><ellipse cx="88.5" cy="42.8" stroke-miterlimit="10" stroke-width="3" class="icon-white-32-2 fill-primary stroke-white" rx="16.2" ry="16.2"/><line x1="82.6" x2="93.1" y1="37" y2="47.8" stroke-linecap="round" stroke-linejoin="round" stroke-miterlimit="10" stroke-width="3" class="icon-white-32-3 fill-none stroke-white"/><line x1="82.4" x2="93.2" y1="47.6" y2="37.1" stroke-linecap="round" stroke-linejoin="round" stroke-miterlimit="10" stroke-width="3" class="icon-white-32-3 fill-none stroke-white"/><line x1="57.2" x2="49.1" y1="54.8" y2="62.4" stroke-linecap="round" stroke-linejoin="round" stroke-miterlimit="10" stroke-width="3" class="icon-white-32-1 fill-none stroke-primary"/><line x1="66.9" x2="55.9" y1="59.3" y2="69.7" stroke-linecap="round" stroke-linejoin="round" stroke-miterlimit="10" stroke-width="3" class="icon-white-32-1 fill-none stroke-primary" opacity=".5"/><line x1="73.4" x2="62.7" y1="66.8" y2="76.9" stroke-linecap="round" stroke-linejoin="round" stroke-miterlimit="10" stroke-width="3" class="icon-white-32-1 fill-none stroke-primary" opacity=".5"/></svg>