<svg xmlns="http://www.w3.org/2000/svg" xmlns:xlink="http://www.w3.org/1999/xlink" x="0" y="0" viewBox="0 0 120 120" xml:space="preserve" style="enable-background:new 0 0 120 120"><style type="text/css">.icon-white-14-0{fill:none;stroke:#fff}.icon-white-14-1{fill:#fff}.icon-white-14-2{fill:none;stroke:#377dff}</style><line x1="97.8" x2="109.8" y1="37.8" y2="37.8" stroke-linecap="round" stroke-linejoin="round" stroke-miterlimit="10" stroke-width="3" class="icon-white-14-0 fill-none stroke-white" opacity=".5"/><line x1="97.8" x2="109.8" y1="45.7" y2="45.7" stroke-linecap="round" stroke-linejoin="round" stroke-miterlimit="10" stroke-width="3" class="icon-white-14-0 fill-none stroke-white" opacity=".5"/><line x1="97.8" x2="109.8" y1="53.7" y2="53.7" stroke-linecap="round" stroke-linejoin="round" stroke-miterlimit="10" stroke-width="3" class="icon-white-14-0 fill-none stroke-white" opacity=".5"/><line x1="83.7" x2="83.7" y1="99.5" y2="89" stroke-linecap="round" stroke-linejoin="round" stroke-miterlimit="10" stroke-width="3" class="icon-white-14-0 fill-none stroke-white" opacity=".5"/><line x1="90.2" x2="90.2" y1="99.5" y2="86.6" stroke-linecap="round" stroke-linejoin="round" stroke-miterlimit="10" stroke-width="3" class="icon-white-14-0 fill-none stroke-white" opacity=".5"/><line x1="96.8" x2="96.8" y1="99.5" y2="89" stroke-linecap="round" stroke-linejoin="round" stroke-miterlimit="10" stroke-width="3" class="icon-white-14-0 fill-none stroke-white" opacity=".5"/><line x1="109.8" x2="109.8" y1="99.5" y2="78" stroke-linecap="round" stroke-linejoin="round" stroke-miterlimit="10" stroke-width="3" class="icon-white-14-0 fill-none stroke-white" opacity=".5"/><line x1="103.3" x2="103.3" y1="99.5" y2="82.4" stroke-linecap="round" stroke-linejoin="round" stroke-miterlimit="10" stroke-width="3" class="icon-white-14-0 fill-none stroke-white" opacity=".5"/><polygon stroke-linecap="round" stroke-linejoin="round" stroke-miterlimit="10" stroke-width="3" points="103.6 26.5 118.1 26.5 103.6 12" class="icon-white-14-0 fill-none stroke-white"/><g><line x1="103.6" x2="69.6" y1="12" y2="12" stroke-linecap="round" stroke-linejoin="round" stroke-miterlimit="10" stroke-width="3" class="icon-white-14-0 fill-none stroke-white"/><polyline stroke-linecap="round" stroke-linejoin="round" stroke-miterlimit="10" stroke-width="3" points="118.1 26.5 118.1 109.2 81.5 109.2" class="icon-white-14-0 fill-none stroke-white"/></g><path d="M37.4,34.3c0,0,0.5,14.5-17.9,14.4L12,55.3H6.6l-5.9-4.7v-6.7L14.4,29L11,26.5l7.5-9.1c0,0,2.8-1.8,7.1-3.3	c0.2-2.2,0.5-11.5,0.5-11.5s6.2,7,8.7,9.7c6.4-0.4,14,1.2,21.3,7.3c18,15,10.8,35.4,8.9,39.5S54.5,79.8,54.4,88.2H16.6	c0,0-1.7-17.9,6.5-25C33.2,54.5,38.6,48.7,35,42.3" class="icon-white-14-1 fill-white"/><path stroke-linecap="round" stroke-linejoin="round" stroke-miterlimit="10" stroke-width="3" d="M35.1,4.2c8-0.4,17.5,1.4,26.6,9C84.1,32,75,57.3,72.8,62.4c-2.9,6.6-8.9,20-10,25.8" class="icon-white-14-0 fill-none stroke-white"/><path stroke-linecap="round" stroke-linejoin="round" stroke-miterlimit="10" stroke-width="3" d="M65.3,98.5H13.8c-1.5,0-2.7-1.2-2.7-2.7l0,0c0-1.5,1.2-2.7,2.7-2.7h51.5c1.5,0,2.7,1.2,2.7,2.7l0,0	C68,97.3,66.8,98.5,65.3,98.5z" class="icon-white-14-0 fill-none stroke-white"/><path stroke-linecap="round" stroke-linejoin="round" stroke-miterlimit="10" stroke-width="3" d="M75.1,116.1v-1.3c0-6.2-5.1-11.3-11.3-11.3H15.3c-6.2,0-11.3,5.1-11.3,11.3v1.3H75.1z" class="icon-white-14-0 fill-none stroke-white"/><polyline stroke-linecap="round" stroke-linejoin="round" stroke-miterlimit="10" stroke-width="3" points="20.6 7.4 13.3 11.3 15.1 14.6" class="icon-white-14-0 fill-none stroke-white"/><polyline stroke-linecap="round" stroke-linejoin="round" stroke-miterlimit="10" stroke-width="3" points="19.9 27.5 25.9 25.7 21.3 30.1" class="icon-white-14-2 fill-none stroke-primary"/><rect width="5.9" height="5.9" x="83.7" y="34.7" stroke-linecap="round" stroke-linejoin="round" stroke-miterlimit="10" stroke-width="3" class="icon-white-14-0 fill-none stroke-white"/><polyline stroke-linecap="round" stroke-linejoin="round" stroke-miterlimit="10" stroke-width="3" points="75.1 86.6 88.4 76.3 93.1 80.3 111.8 68.2" class="icon-white-14-0 fill-none stroke-white"/></svg>