<svg xmlns="http://www.w3.org/2000/svg" xmlns:xlink="http://www.w3.org/1999/xlink" id="Layer_1" x="0" y="0" version="1.1" viewBox="0 0 120 120" xml:space="preserve" style="enable-background:new 0 0 120 120"><style type="text/css">.st0{opacity:.15;fill:#fff;enable-background:new}.st1,.st2{stroke:#fff;stroke-width:3;stroke-linecap:round;stroke-linejoin:round;stroke-miterlimit:10}.st1{fill:none}.st2{opacity:.1;enable-background:new}.st2,.st3{fill:#fff}.st3,.st4{clip-path:url(#iconWhite46ID_3_)}.st4,.st5{fill:#377dff}</style><path d="M101.2,102.4c-7.4,7.8-16.6,13.9-26.9,17.6c-26.6-9.4-45.8-34.9-45.8-64.6V30l45.8-15.2L120.1,30v25.3	c0,9.2-1.8,18-5.2,26C114.9,81.3,109,95.3,101.2,102.4z" class="st0"/><path d="M82.4,98.9c-8.3,8.7-18.5,15.5-30,19.6c-29.6-10.5-51-38.8-51-71.9V18.3l51-16.9l51,16.9v28.2	c0,10.2-2.1,20-5.8,29C97.7,75.5,91.2,91,82.4,98.9z" class="st1"/><path d="M52.4,1.5L52.4,1.5v117c11.5-4.1,21.8-10.9,30-19.6c8.7-7.9,15.3-23.4,15.3-23.4c3.7-8.9,5.8-18.7,5.8-29V18.3	L52.4,1.5z" class="st2"/><g><defs><circle id="iconWhite46ID_2_" cx="50.8" cy="57.5" r="28.8"/></defs><clipPath id="iconWhite46ID_3_"><use xlink:href="#iconWhite46ID_2_" style="overflow:visible"/></clipPath><circle id="iconWhite46ID_1_" cx="50.8" cy="57.5" r="28.8" class="st3"/><circle cx="50.5" cy="86.2" r="21.7" class="st4"/><use xlink:href="#iconWhite46ID_2_" style="overflow:visible;fill:none;stroke:#fff;stroke-width:2;stroke-miterlimit:10"/></g><circle cx="50.8" cy="46.7" r="8.3" class="st5"/></svg>