<svg xmlns="http://www.w3.org/2000/svg" xmlns:xlink="http://www.w3.org/1999/xlink" x="0" y="0" viewBox="0 0 120 120" xml:space="preserve" style="enable-background:new 0 0 120 120"><style type="text/css">.icon-12-0{fill:#bdc5d1}.icon-12-1{fill:none;stroke:#bdc5d1}.icon-12-2{fill:#377dff}.icon-12-3{fill:none;stroke:#fff}</style><rect width="9.5" height="105" x="102.2" y="15" class="icon-12-0 fill-gray-400" opacity=".5"/><path stroke-linecap="round" stroke-linejoin="round" stroke-miterlimit="10" stroke-width="3" d="M19.5,110.4V12.2c0-5.9,4.8-10.7,10.7-10.7h70.4v100.7H27.6C23.1,102.2,19.5,105.9,19.5,110.4L19.5,110.4	c0,4.5,3.6,8.1,8.1,8.1h72.9" class="icon-12-1 fill-none stroke-gray-400"/><line x1="100.5" x2="29.4" y1="107.6" y2="107.6" stroke-linecap="round" stroke-linejoin="round" stroke-miterlimit="10" stroke-width="3" class="icon-12-1 fill-none stroke-gray-400"/><line x1="100.5" x2="29.4" y1="113.1" y2="113.1" stroke-linecap="round" stroke-linejoin="round" stroke-miterlimit="10" stroke-width="3" class="icon-12-1 fill-none stroke-gray-400"/><rect width="54.5" height="78.9" x="34.8" y="12.4" class="icon-12-2 fill-primary"/><line x1="57.7" x2="67.6" y1="38.4" y2="38.4" stroke-linecap="round" stroke-linejoin="round" stroke-miterlimit="10" stroke-width="3" class="icon-12-3 fill-none stroke-white"/><line x1="48.9" x2="76.4" y1="46.4" y2="46.4" stroke-linecap="round" stroke-linejoin="round" stroke-miterlimit="10" stroke-width="3" class="icon-12-3 fill-none stroke-white"/><line x1="48.9" x2="76.4" y1="54.5" y2="54.5" stroke-linecap="round" stroke-linejoin="round" stroke-miterlimit="10" stroke-width="3" class="icon-12-3 fill-none stroke-white"/><line x1="48.9" x2="76.4" y1="62.6" y2="62.6" stroke-linecap="round" stroke-linejoin="round" stroke-miterlimit="10" stroke-width="3" class="icon-12-3 fill-none stroke-white"/></svg>