<svg xmlns="http://www.w3.org/2000/svg" xmlns:xlink="http://www.w3.org/1999/xlink" id="Layer_1" x="0" y="0" version="1.1" viewBox="0 0 120 120" xml:space="preserve" style="enable-background:new 0 0 120 120"><style type="text/css">.icon-48-0{fill:#bdc5d1}.icon-48-1,.icon-48-2{fill:#fff;stroke:#bdc5d1}.icon-48-2{fill:none}.icon-48-3{fill:#fff}.icon-48-4{fill:#377dff}.icon-48-5{fill:none;stroke:#fff}.icon-46-6{fill:none;stroke:377DFF}</style><path d="M58.8,54.1H18.5c-4.7,0-8.6,3.8-8.6,8.6v48.8c0,4.7,3.8,8.6,8.6,8.6h92.4c4.7,0,8.6-3.8,8.6-8.6V62.6	c0-4.7-3.8-8.6-8.6-8.6H70.6" class="icon-48-0 fill-gray-400" opacity=".4"/><path stroke-linecap="round" stroke-linejoin="round" stroke-miterlimit="10" stroke-width="3" d="M50.6,45.2H10.3c-4.7,0-8.6,3.8-8.6,8.6v48.8c0,4.7,3.8,8.6,8.6,8.6h92.4c4.7,0,8.6-3.8,8.6-8.6V53.8	c0-4.7-3.8-8.6-8.6-8.6H62.4" class="icon-48-1 fill-white stroke-gray-400"/><rect width="10.3" height="7.4" x="89.8" y="70" stroke-linecap="round" stroke-linejoin="round" stroke-miterlimit="10" stroke-width="3" class="icon-48-2 fill-none stroke-gray-400" opacity=".5" transform="matrix(-1 -1.224647e-16 1.224647e-16 -1 189.8421 147.4976)"/><line x1="58.4" x2="55.1" y1="70" y2="70" stroke-linecap="round" stroke-linejoin="round" stroke-miterlimit="10" stroke-width="3" class="icon-48-2 fill-none stroke-gray-400" opacity=".5"/><line x1="84.1" x2="70.3" y1="70" y2="70" stroke-linecap="round" stroke-linejoin="round" stroke-miterlimit="10" stroke-width="3" class="icon-48-2 fill-none stroke-gray-400"/><line x1="55.1" x2="84.1" y1="78.1" y2="78.1" stroke-linecap="round" stroke-linejoin="round" stroke-miterlimit="10" stroke-width="3" class="icon-48-2 fill-none stroke-gray-400"/><line x1="93.4" x2="100.1" y1="86.1" y2="86.1" stroke-linecap="round" stroke-linejoin="round" stroke-miterlimit="10" stroke-width="3" class="icon-48-2 fill-none stroke-gray-400"/><line x1="55.1" x2="85.6" y1="86.1" y2="86.1" stroke-linecap="round" stroke-linejoin="round" stroke-miterlimit="10" stroke-width="3" class="icon-48-2 fill-none stroke-gray-400"/><line x1="28.7" x2="53.1" y1="2" y2="34.6" stroke-linecap="round" stroke-linejoin="round" stroke-miterlimit="10" stroke-width="3" class="icon-48-2 fill-none stroke-gray-400" opacity=".5"/><line x1="50.6" x2="18.7" y1="44.1" y2="2" stroke-linecap="round" stroke-linejoin="round" stroke-miterlimit="10" stroke-width="3" class="icon-48-2 fill-none stroke-gray-400" opacity=".5"/><line x1="84.4" x2="60" y1="2" y2="34.6" stroke-linecap="round" stroke-linejoin="round" stroke-miterlimit="10" stroke-width="3" class="icon-48-2 fill-none stroke-gray-400" opacity=".5"/><line x1="62.5" x2="94.3" y1="44.1" y2="2" stroke-linecap="round" stroke-linejoin="round" stroke-miterlimit="10" stroke-width="3" class="icon-48-2 fill-none stroke-gray-400" opacity=".5"/><path d="M56.5,58L56.5,58c-3.8,0-6.9-3.1-6.9-6.9V38.4c0-3.8,3.1-6.9,6.9-6.9l0,0c3.8,0,6.9,3.1,6.9,6.9v12.7	C63.5,54.9,60.3,58,56.5,58z" class="icon-48-4 fill-primary"/><line x1="56.5" x2="56.5" y1="41.1" y2="49.3" stroke-linecap="round" stroke-linejoin="round" stroke-miterlimit="10" stroke-width="3" class="icon-48-5 fill-none stroke-white"/><path stroke-linecap="round" stroke-linejoin="round" stroke-miterlimit="10" stroke-width="3" d="M83.2,98.1" class="icon-48-5 fill-none stroke-white"/><path stroke-linecap="round" stroke-linejoin="round" stroke-miterlimit="10" stroke-width="3" d="M86.5,98.5" class="icon-48-5 fill-none stroke-white"/><circle id="icon48ID" cx="34.3" cy="82.3" r="16.2" class="icon-48-0 fill-gray-400" opacity=".5"/><g><defs><circle id="icon48ID_1" cx="26.2" cy="77.4" r="16.2"/></defs><use class="icon-48-4 fill-primary" xlink:href="#icon48ID_1" style="overflow:visible"/><clipPath id="icon48ID_2"><use xlink:href="#icon48ID_1" style="overflow:visible"/></clipPath><circle cx="26" cy="93.6" r="12.2" class="icon-48-3 fill-white" clip-path="url(#icon48ID_2)"/><use stroke-miterlimit="10" stroke-width="3" class="icon-46-6 fill-none stroke-primary" xlink:href="#icon48ID_1" style="overflow:visible"/></g><circle cx="26.2" cy="71.4" r="4.7" class="icon-48-3 fill-white"/></svg>