<svg xmlns="http://www.w3.org/2000/svg" xmlns:xlink="http://www.w3.org/1999/xlink" x="0" y="0" viewBox="0 0 120 120" xml:space="preserve" style="enable-background:new 0 0 120 120"><style type="text/css">.icon-26-0{fill:#bdc5d1}.icon-26-1{fill:#377dff}.icon-26-2{fill:none;stroke:#fff}.icon-26-3{fill:none;stroke:#377dff}.icon-26-4{fill:none;stroke:#bdc5d1}.icon-26-5{fill:none;stroke:#fff}</style><circle cx="62.6" cy="62.7" r="23.4" class="icon-26-0 fill-gray-400" opacity=".5"/><circle cx="58.6" cy="54.2" r="23.4" class="icon-26-1 fill-primary"/><circle cx="58.6" cy="54.2" r="9.8" stroke-miterlimit="10" stroke-width="3" class="icon-26-2 fill-none stroke-white"/><polyline stroke-linecap="round" stroke-linejoin="round" stroke-miterlimit="10" stroke-width="3" points="27.7 103.1 16.6 119.2 8.2 119.2 19 95.6" class="icon-26-3 fill-none stroke-primary"/><polyline stroke-linecap="round" stroke-linejoin="round" stroke-miterlimit="10" stroke-width="3" points="92.4 103.1 103.4 119.2 111.8 119.2 101 95.6" class="icon-26-3 fill-none stroke-primary"/><circle cx="60" cy="57.2" r="40.9" stroke-linecap="round" stroke-linejoin="round" stroke-miterlimit="10" stroke-width="3" class="icon-26-4 fill-none stroke-gray-400"/><path stroke-linecap="round" stroke-linejoin="round" stroke-miterlimit="10" stroke-width="3" d="M108,28c5.2,8.5,8.2,18.5,8.2,29.2c0,31-25.1,56.1-56.1,56.1S3.8,88.2,3.8,57.2S29,1.1,60,1.1	c10.5,0,20.4,2.9,28.8,8" class="icon-26-4 fill-none stroke-gray-400"/><polyline stroke-linecap="round" stroke-linejoin="round" stroke-miterlimit="10" stroke-width="3" points="58.6 54.3 97.6 15.4 99.1 13.9" class="icon-26-4 fill-none stroke-gray-400"/><polyline points="94.4 24.9 104.8 24.9 116.1 13.5 107.2 12.1 105.7 3.1 94.4 14.4 94.4 24.9" class="icon-26-0 fill-gray-400" opacity=".5"/><polyline points="90.4 22.6 100.9 22.6 112.2 11.2 103.2 9.7 101.8 .8 90.4 12.1 90.4 22.6" class="icon-26-1 fill-primary"/><line x1="98.2" x2="97.3" y1="8.8" y2="3.3" stroke-linecap="round" stroke-linejoin="round" stroke-miterlimit="10" stroke-width="3" class="icon-26-5 fill-none stroke-white"/><path stroke-linecap="round" stroke-linejoin="round" stroke-miterlimit="10" stroke-width="3" d="M39.2,13c0.6-0.3,1.2-0.5,1.8-0.8" class="icon-26-3 fill-none stroke-primary"/><path stroke-linecap="round" stroke-linejoin="round" stroke-miterlimit="10" stroke-width="3" d="M23.2,25.1c3.5-4,7.6-7.4,12.2-10.1" class="icon-26-3 fill-none stroke-primary"/></svg>