<svg xmlns="http://www.w3.org/2000/svg" xmlns:xlink="http://www.w3.org/1999/xlink" x="0" y="0" viewBox="0 0 120 120" xml:space="preserve" style="enable-background:new 0 0 120 120"><style type="text/css">.icon-white-30-0{fill:#fff}.icon-white-30-1{fill:#377dff}.icon-white-30-2{fill:none;stroke:#377dff}</style><polygon points="119.2 47.9 103.5 26.8 96.3 17.2 96.3 17.2 71.9 14.6 66.7 14.1 66.7 14.1 66.7 14.1 66.7 14.1 66.7 14.1 66.7 14.1 66.7 14.1 64.3 14.3 37.1 17.2 14.2 47.9 14.2 47.9 14.2 47.9 66.7 109.1 119.2 47.9" class="icon-white-30-0 fill-white" opacity=".15"/><path d="M25.7,14.1L55.3,11l29.6,3.1l22.9,30.7l-52.5,61.1L2.8,44.8L25.7,14.1z" class="icon-white-30-0 fill-white"/><polygon points="55.3 11.7 27 14.7 25.4 44.1" class="icon-white-30-0 fill-white"/><polygon points="55.3 11.7 83.5 14.7 85.1 44.1" class="icon-white-30-0 fill-white"/><polygon points="105.4 44.1 83.5 14.7 85.1 44.1" class="icon-white-30-1 fill-primary"/><polygon points="5.1 44.1 27 14.7 25.4 44.1" class="icon-white-30-1 fill-primary"/><polygon points="55.3 11.7 25.4 44.1 85.1 44.1" class="icon-white-30-1 fill-primary"/><line x1="27" x2="40.2" y1="56.8" y2="72.6" stroke-linecap="round" stroke-linejoin="round" stroke-miterlimit="10" stroke-width="3" class="icon-white-30-2 fill-none stroke-primary"/><line x1="44.4" x2="48" y1="77.6" y2="82" stroke-linecap="round" stroke-linejoin="round" stroke-miterlimit="10" stroke-width="3" class="icon-white-30-2 fill-none stroke-primary"/></svg>