<svg xmlns="http://www.w3.org/2000/svg" xmlns:xlink="http://www.w3.org/1999/xlink" x="0" y="0" viewBox="0 0 120 120" xml:space="preserve" style="enable-background:new 0 0 120 120"><style type="text/css">.icon-white-61-0{fill:#fff}.icon-white-61-1{fill:#377dff;stroke:#fff}</style><path d="M23.1,98.8l40.3-69.9c2.8-4.9,9.8-4.9,12.7,0l40.3,69.9c2.8,4.9-0.7,11-6.3,11H29.4	C23.8,109.7,20.3,103.6,23.1,98.8z" class="icon-white-61-0 fill-white" opacity=".15"/><path stroke-linecap="round" stroke-linejoin="round" stroke-miterlimit="10" stroke-width="3" d="M5.1,87.3l40.3-69.9c2.8-4.9,9.8-4.9,12.7,0l40.3,69.9c2.8,4.9-0.7,11-6.3,11H11.4C5.8,98.3,2.3,92.2,5.1,87.3z" class="icon-white-61-1 fill-primary stroke-white"/><path d="M51.7,38.9L51.7,38.9c-3.4,0-6,2.9-5.6,6.3l3.6,28.7c0.3,2.4,3.8,2.4,4.1,0l3.6-28.7	C57.7,42,55.2,38.9,51.7,38.9L51.7,38.9z" class="icon-white-61-0 fill-white"/><circle cx="51.7" cy="81.6" r="2.4" class="icon-white-61-0 fill-white"/></svg>