<svg xmlns="http://www.w3.org/2000/svg" xmlns:xlink="http://www.w3.org/1999/xlink" x="0" y="0" viewBox="0 0 120 120" xml:space="preserve" style="enable-background:new 0 0 120 120"><style type="text/css">.icon-white-6-0{fill:none;stroke:#fff}.icon-white-6-1{fill:none;stroke:#377dff}.icon-white-6-2{fill:#fff}</style><path stroke-linecap="round" stroke-linejoin="round" stroke-miterlimit="10" stroke-width="3" d="M35,16.7c-2.6,2.9-4.5,6.4-5.3,10.4" class="icon-white-6-0 fill-none stroke-white"/><path stroke-linecap="round" stroke-linejoin="round" stroke-miterlimit="10" stroke-width="3" d="M44.1,10.7C43,11.1,42,11.5,41,12.1" class="icon-white-6-0 fill-none stroke-white"/><path stroke-linecap="round" stroke-linejoin="round" stroke-miterlimit="10" stroke-width="3" d="M105.1,53c0.1-0.7,0.1-1.5,0.1-2.2" class="icon-white-6-0 fill-none stroke-white"/><path stroke-linecap="round" stroke-linejoin="round" stroke-miterlimit="10" stroke-width="3" d="M97.3,65.7c3-2,5.3-4.9,6.7-8.3" class="icon-white-6-0 fill-none stroke-white"/><path stroke-linecap="round" stroke-linejoin="round" stroke-miterlimit="10" stroke-width="3" d="M91.3,73.2L91.3,73.2c12,0,21.7-9.7,21.7-21.7c0-11.1-8.3-20.2-19-21.5c-1.2-8.6-8.5-15.3-17.5-15.3	c-1.7,0-3.4,0.3-4.9,0.7C67,7.3,58.3,1.8,48.3,1.8c-14.8,0-26.7,12-26.7,26.7c0,0.6,0,1.2,0.1,1.7C12,32.4,4.7,41,4.7,51.4	c0,12,9.7,21.7,21.7,21.7h6" class="icon-white-6-0 fill-none stroke-white"/><g opacity=".5"><path stroke-linecap="round" stroke-linejoin="round" stroke-miterlimit="10" stroke-width="3" d="M18,101.5h-6.9c-4.4,0-8-3.6-8-8l0,0c0-4.4,3.6-8,8-8h18.6" class="icon-white-6-0 fill-none stroke-white"/><polyline stroke-linecap="round" stroke-linejoin="round" stroke-miterlimit="10" stroke-width="3" points="13.6 97.1 18 101.5 13.6 105.9" class="icon-white-6-0 fill-none stroke-white"/><path stroke-linecap="round" stroke-linejoin="round" stroke-miterlimit="10" stroke-width="3" d="M102,96h6.9c4.4,0,8,3.6,8,8l0,0c0,4.4-3.6,8-8,8H90.3" class="icon-white-6-0 fill-none stroke-white"/><polyline stroke-linecap="round" stroke-linejoin="round" stroke-miterlimit="10" stroke-width="3" points="106.4 100.4 102 96 106.4 91.6" class="icon-white-6-0 fill-none stroke-white"/></g><path d="M83.7,119.2H54.4c-2.5,0-4.5-2-4.5-4.5V59.2c0-2.5,2-4.5,4.5-4.5h29.3c2.5,0,4.5,2,4.5,4.5v55.5	C88.3,117.2,86.2,119.2,83.7,119.2z" class="icon-white-6-2 fill-white" opacity=".15"/><path d="M73.8,115.2H43.9c-2.5,0-4.5-2-4.5-4.5V50.9c0-2.5,2-4.5,4.5-4.5h29.8c2.5,0,4.5,2,4.5,4.5v59.8	C78.3,113.2,76.3,115.2,73.8,115.2z" class="icon-white-6-2 fill-white"/><g><g><line x1="59.7" x2="68.6" y1="63.3" y2="63.3" stroke-linecap="round" stroke-linejoin="round" stroke-miterlimit="10" stroke-width="3" class="icon-white-6-1 fill-none stroke-primary"/><line x1="59.7" x2="68.6" y1="67.5" y2="67.5" stroke-linecap="round" stroke-linejoin="round" stroke-miterlimit="10" stroke-width="3" class="icon-white-6-1 fill-none stroke-primary"/></g><rect width="7.3" height="7.3" x="46.3" y="61.8" stroke-linecap="round" stroke-linejoin="round" stroke-miterlimit="10" stroke-width="3" class="icon-white-6-1 fill-none stroke-primary"/></g><circle cx="58" cy="108.9" r="2.5" stroke-linecap="round" stroke-linejoin="round" stroke-miterlimit="10" stroke-width="3" class="icon-white-6-1 fill-none stroke-primary" opacity=".5"/><line x1="43.1" x2="72.8" y1="52.4" y2="52.4" stroke-linecap="round" stroke-linejoin="round" stroke-miterlimit="10" stroke-width="3" class="icon-white-6-1 fill-none stroke-primary" opacity=".5"/><line x1="72.8" x2="43.1" y1="102.3" y2="102.3" stroke-linecap="round" stroke-linejoin="round" stroke-miterlimit="10" stroke-width="3" class="icon-white-6-1 fill-none stroke-primary" opacity=".5"/><path stroke-linecap="round" stroke-linejoin="round" stroke-miterlimit="10" stroke-width="3" d="M62,102.3" class="icon-white-6-0 fill-none stroke-white"/></svg>