<svg xmlns="http://www.w3.org/2000/svg" xmlns:xlink="http://www.w3.org/1999/xlink" x="0" y="0" viewBox="0 0 120 120" xml:space="preserve" style="enable-background:new 0 0 120 120"><style type="text/css">.icon-white-10-0{fill:none;stroke:#fff}.icon-white-10-1{fill:#fff}.icon-white-10-2{fill:none;stroke:#377dff}</style><path stroke-linecap="round" stroke-linejoin="round" stroke-miterlimit="10" stroke-width="3" d="M118.3,45v67.4c0,3.2-2.7,5.9-5.9,5.9H7.6c-3.2,0-5.9-2.7-5.9-5.9V7.6c0-3.2,2.7-5.9,5.9-5.9h104.9	c3.2,0,5.9,2.7,5.9,5.9v19.3" class="icon-white-10-0 fill-none stroke-white"/><rect width="86.6" height="20" x="23.1" y="22" class="icon-white-10-1 fill-white" opacity=".15"/><rect width="88" height="20" x="15.8" y="16.9" class="icon-white-10-1 fill-white"/><rect width="15.2" height="10.5" x="65" y="87.1" stroke-linecap="round" stroke-linejoin="round" stroke-miterlimit="10" stroke-width="3" class="icon-white-10-0 fill-none stroke-white" opacity=".5"/><rect width="15.2" height="10.5" x="40.8" y="87.1" stroke-linecap="round" stroke-linejoin="round" stroke-miterlimit="10" stroke-width="3" class="icon-white-10-0 fill-none stroke-white" opacity=".5"/><rect width="15.2" height="10.5" x="16.5" y="87.1" stroke-linecap="round" stroke-linejoin="round" stroke-miterlimit="10" stroke-width="3" class="icon-white-10-0 fill-none stroke-white" opacity=".5"/><rect width="15.2" height="10.5" x="65" y="69.4" stroke-linecap="round" stroke-linejoin="round" stroke-miterlimit="10" stroke-width="3" class="icon-white-10-0 fill-none stroke-white" opacity=".5"/><rect width="15.2" height="10.5" x="40.8" y="69.4" stroke-linecap="round" stroke-linejoin="round" stroke-miterlimit="10" stroke-width="3" class="icon-white-10-0 fill-none stroke-white" opacity=".5"/><rect width="15.2" height="10.5" x="16.5" y="69.4" stroke-linecap="round" stroke-linejoin="round" stroke-miterlimit="10" stroke-width="3" class="icon-white-10-0 fill-none stroke-white" opacity=".5"/><rect width="15.2" height="28.2" x="88.6" y="69.4" stroke-linecap="round" stroke-linejoin="round" stroke-miterlimit="10" stroke-width="3" class="icon-white-10-0 fill-none stroke-white"/><rect width="15.2" height="10.5" x="88.6" y="51.7" stroke-linecap="round" stroke-linejoin="round" stroke-miterlimit="10" stroke-width="3" class="icon-white-10-0 fill-none stroke-white" opacity=".5"/><rect width="15.2" height="10.5" x="65" y="51.7" stroke-linecap="round" stroke-linejoin="round" stroke-miterlimit="10" stroke-width="3" class="icon-white-10-0 fill-none stroke-white" opacity=".5"/><rect width="15.2" height="10.5" x="40.8" y="51.7" stroke-linecap="round" stroke-linejoin="round" stroke-miterlimit="10" stroke-width="3" class="icon-white-10-0 fill-none stroke-white" opacity=".5"/><rect width="15.2" height="10.5" x="16.5" y="51.7" stroke-linecap="round" stroke-linejoin="round" stroke-miterlimit="10" stroke-width="3" class="icon-white-10-0 fill-none stroke-white" opacity=".5"/><line x1="93" x2="99.4" y1="85.8" y2="85.8" stroke-linecap="round" stroke-linejoin="round" stroke-miterlimit="10" stroke-width="3" class="icon-white-10-0 fill-none stroke-white"/><line x1="93" x2="99.4" y1="81.3" y2="81.3" stroke-linecap="round" stroke-linejoin="round" stroke-miterlimit="10" stroke-width="3" class="icon-white-10-0 fill-none stroke-white"/><line x1="91.4" x2="93.5" y1="32.7" y2="32.7" stroke-linecap="round" stroke-linejoin="round" stroke-miterlimit="10" stroke-width="3" class="icon-white-10-2 fill-none stroke-primary"/><line x1="91.4" x2="93.5" y1="20.9" y2="20.9" stroke-linecap="round" stroke-linejoin="round" stroke-miterlimit="10" stroke-width="3" class="icon-white-10-2 fill-none stroke-primary"/><line x1="89.4" x2="89.4" y1="30" y2="23.3" stroke-linecap="round" stroke-linejoin="round" stroke-miterlimit="10" stroke-width="3" class="icon-white-10-2 fill-none stroke-primary"/><line x1="96" x2="96" y1="30" y2="23.3" stroke-linecap="round" stroke-linejoin="round" stroke-miterlimit="10" stroke-width="3" class="icon-white-10-2 fill-none stroke-primary"/><line x1="40.2" x2="33" y1="23.3" y2="30.6" stroke-linecap="round" stroke-linejoin="round" stroke-miterlimit="10" stroke-width="3" class="icon-white-10-2 fill-none stroke-primary"/><line x1="31.4" x2="24.1" y1="23.3" y2="30.6" stroke-linecap="round" stroke-linejoin="round" stroke-miterlimit="10" stroke-width="3" class="icon-white-10-2 fill-none stroke-primary"/></svg>