<svg xmlns="http://www.w3.org/2000/svg" xmlns:xlink="http://www.w3.org/1999/xlink" x="0" y="0" viewBox="0 0 120 120" xml:space="preserve" style="enable-background:new 0 0 120 120"><style type="text/css">.icon-white-27-0{fill:none;stroke:#fff}.icon-white-27-1{fill:#fff}.icon-white-27-2{fill:#377dff}</style><rect width="30.1" height="11.4" x="44.9" y="98" stroke-linecap="round" stroke-linejoin="round" stroke-miterlimit="10" stroke-width="3" class="icon-white-27-0 fill-none stroke-white"/><polyline stroke-linecap="round" stroke-linejoin="round" stroke-miterlimit="10" stroke-width="3" points="82.9 116.1 82.9 91.3 37.1 91.3 37.1 116.1" class="icon-white-27-0 fill-none stroke-white"/><line x1="96.3" x2="23.7" y1="116.5" y2="116.5" stroke-linecap="round" stroke-linejoin="round" stroke-miterlimit="10" stroke-width="3" class="icon-white-27-0 fill-none stroke-white"/><polygon points="65 22 70.3 32.9 82.3 34.6 73.6 43 75.7 55 65 49.3 54.3 55 56.3 43 47.7 34.6 59.6 32.9" class="icon-white-27-1 fill-white" opacity=".15"/><polygon points="60 17.1 65.3 27.9 77.3 29.7 68.7 38.1 70.7 50 60 44.4 49.3 50 51.3 38.1 42.7 29.7 54.7 27.9" class="icon-white-27-1 fill-white"/><polygon points="60 26.3 62.4 31.1 67.7 31.8 63.8 35.5 64.7 40.8 60 38.3 55.3 40.8 56.2 35.5 52.3 31.8 57.6 31.1" class="icon-white-27-2 fill-primary"/><path stroke-linecap="round" stroke-linejoin="round" stroke-miterlimit="10" stroke-width="3" d="M41.8,58.9c0.6,1,1.4,2.1,2.3,3.1" class="icon-white-27-0 fill-none stroke-white"/><path stroke-linecap="round" stroke-linejoin="round" stroke-miterlimit="10" stroke-width="3" d="M53.9,91.2v-1.9c0-5.5-2.6-10.6-7-13.9C36,67.1,24.7,53.6,24.7,32V3.5H94L93.9,32c0,18.4-10.8,35.4-21.9,43.5	c-4.5,3.3-7.2,8.5-7.2,14.1v1.6" class="icon-white-27-0 fill-none stroke-white"/><path stroke-linecap="round" stroke-linejoin="round" stroke-miterlimit="10" stroke-width="3" d="M30.8,57.4C10.5,57.4,1.2,40.6,1.2,20v-4.5c0-1.9,1.1-3.5,2.5-3.5h21" class="icon-white-27-0 fill-none stroke-white"/><path stroke-linecap="round" stroke-linejoin="round" stroke-miterlimit="10" stroke-width="3" d="M87.5,57.4c21.7,0,31.3-16.8,31.3-37.4v-4.5c0-1.9-1.1-3.5-2.5-3.5h-22" class="icon-white-27-0 fill-none stroke-white"/><path stroke-linecap="round" stroke-linejoin="round" stroke-miterlimit="10" stroke-width="3" d="M33.6,32.2c0.3,6.6,1.6,13.2,4.1,19.1" class="icon-white-27-0 fill-none stroke-white"/></svg>