<svg xmlns="http://www.w3.org/2000/svg" xmlns:xlink="http://www.w3.org/1999/xlink" x="0" y="0" viewBox="0 0 120 120" xml:space="preserve" style="enable-background:new 0 0 120 120"><style type="text/css">.icon-9-0{fill:none;stroke:#fff}.icon-9-1{fill:#bdc5d1}.icon-9-2{fill:#377dff}.icon-9-3{fill:none;stroke:#bdc5d1}.icon-9-5{fill:none;stroke:#377dff}</style><path d="M35.7,120H4c-2.2,0-4-1.8-4-4V54.1c0-2.2,1.8-4,4-4h31.7c2.2,0,4,1.8,4,4V116C39.7,118.2,37.9,120,35.7,120z" class="icon-9-1 fill-gray-400" opacity=".5"/><path d="M48.4,116.4H16.7c-2.2,0-4-1.8-4-4V48.5c0-2.2,1.8-4,4-4h31.7c2.2,0,4,1.8,4,4v63.9	C52.4,114.6,50.6,116.4,48.4,116.4z" class="icon-9-2 fill-primary"/><path stroke-linecap="round" stroke-linejoin="round" stroke-miterlimit="10" stroke-width="3" d="M80.3,106.9c0,1.4-1.1,2.6-2.6,2.6c-1.4,0-2.6-1.1-2.6-2.6c0-1.4,1.1-2.6,2.6-2.6	C79.2,104.3,80.3,105.5,80.3,106.9z" class="icon-9-3 fill-none stroke-gray-400"/><circle cx="33.2" cy="109.9" r="2.6" stroke-linecap="round" stroke-linejoin="round" stroke-miterlimit="10" stroke-width="3" class="icon-9-0 fill-none stroke-white"/><line x1="17.3" x2="47.6" y1="52.1" y2="52.1" stroke-linecap="round" stroke-linejoin="round" stroke-miterlimit="10" stroke-width="3" class="icon-9-0 fill-none stroke-white"/><line x1="47.6" x2="17.3" y1="101.7" y2="101.7" stroke-linecap="round" stroke-linejoin="round" stroke-miterlimit="10" stroke-width="3" class="icon-9-0 fill-none stroke-white"/><path stroke-linecap="round" stroke-linejoin="round" stroke-miterlimit="10" stroke-width="3" d="M36.9,35.3V5.6c0-2.1,1.7-3.8,3.8-3.8h73.9c2.1,0,3.8,1.7,3.8,3.8v104.9c0,2.1-1.7,3.8-3.8,3.8H61.3" class="icon-9-3 fill-none stroke-gray-400"/><line x1="94" x2="61.5" y1="28.8" y2="71.4" stroke-linecap="round" stroke-linejoin="round" stroke-miterlimit="10" stroke-width="3" class="icon-9-5 fill-none stroke-primary"/><line x1="71.6" x2="82.1" y1="68.8" y2="55.1" stroke-linecap="round" stroke-linejoin="round" stroke-miterlimit="10" stroke-width="3" class="icon-9-5 fill-none stroke-primary"/><line x1="85.4" x2="90.2" y1="50.8" y2="44.7" stroke-linecap="round" stroke-linejoin="round" stroke-miterlimit="10" stroke-width="3" class="icon-9-5 fill-none stroke-primary"/><line x1="43.1" x2="20.8" y1="62.3" y2="91.5" stroke-linecap="round" stroke-linejoin="round" stroke-miterlimit="10" stroke-width="3" class="icon-9-0 fill-none stroke-white" opacity=".5"/><line x1="27.7" x2="34.9" y1="89.7" y2="80.3" stroke-linecap="round" stroke-linejoin="round" stroke-miterlimit="10" stroke-width="3" class="icon-9-0 fill-none stroke-white" opacity=".5"/><line x1="37.2" x2="40.5" y1="77.3" y2="73.2" stroke-linecap="round" stroke-linejoin="round" stroke-miterlimit="10" stroke-width="3" class="icon-9-0 fill-none stroke-white" opacity=".5"/><line x1="72.5" x2="82.7" y1="6.8" y2="6.8" stroke-linecap="round" stroke-linejoin="round" stroke-miterlimit="10" stroke-width="3" class="icon-9-0 fill-none stroke-white"/><polyline stroke-linecap="round" stroke-linejoin="round" stroke-miterlimit="10" stroke-width="3" points="45.6 34.8 45.6 11.7 109.9 11.7 109.9 66.4" class="icon-9-3 fill-none stroke-gray-400"/><polyline stroke-linecap="round" stroke-linejoin="round" stroke-miterlimit="10" stroke-width="3" points="109.9 81.7 109.9 96.9 59.3 96.9" class="icon-9-3 fill-none stroke-gray-400"/></svg>