<svg xmlns="http://www.w3.org/2000/svg" xmlns:xlink="http://www.w3.org/1999/xlink" x="0" y="0" viewBox="0 0 467 712" xml:space="preserve" style="enable-background:new 0 0 467 712"><style type="text/css">.abstract-shapes-12-0{fill:#377dff}.abstract-shapes-12-1{fill:#00dffc}.abstract-shapes-12-2{fill:none;stroke:#ffc107}</style><path d="M64.5,583L64.5,583c35.6,0,64.5,28.9,64.5,64.5v0c0,35.6-28.9,64.5-64.5,64.5h0C28.9,712,0,683.1,0,647.5v0	C0,611.9,28.9,583,64.5,583z" class="abstract-shapes-12-0 fill-primary"/><path d="M338,428L338,428c71.2,0,129,57.8,129,129v0H338V428z" class="abstract-shapes-12-1 fill-info"/><line x1="5" x2="115.3" y1="114.5" y2="4.3" stroke-linecap="round" stroke-miterlimit="10" stroke-width="4" class="abstract-shapes-12-2 fill-none stroke-warning"/><line x1="75.8" x2="2.3" y1="2.8" y2="76.3" stroke-linecap="round" stroke-miterlimit="10" stroke-width="4" class="abstract-shapes-12-2 fill-none stroke-warning"/><line x1="3.1" x2="35.4" y1="34.6" y2="2.4" stroke-linecap="round" stroke-miterlimit="10" stroke-width="4" class="abstract-shapes-12-2 fill-none stroke-warning"/><line x1="3.6" x2="53.9" y1="53.1" y2="2.9" stroke-linecap="round" stroke-miterlimit="10" stroke-width="4" class="abstract-shapes-12-2 fill-none stroke-warning"/><line x1="45.2" x2="116.2" y1="115.2" y2="44.2" stroke-linecap="round" stroke-miterlimit="10" stroke-width="4" class="abstract-shapes-12-2 fill-none stroke-warning"/><line x1="21.2" x2="117.2" y1="118.2" y2="22.2" stroke-linecap="round" stroke-miterlimit="10" stroke-width="4" class="abstract-shapes-12-2 fill-none stroke-warning"/><line x1="2.2" x2="96.2" y1="96.2" y2="2.2" stroke-linecap="round" stroke-miterlimit="10" stroke-width="4" class="abstract-shapes-12-2 fill-none stroke-warning"/><line x1="84.4" x2="117.6" y1="116.9" y2="83.6" stroke-linecap="round" stroke-miterlimit="10" stroke-width="4" class="abstract-shapes-12-2 fill-none stroke-warning"/><line x1="66.9" x2="117.1" y1="116.4" y2="66.1" stroke-linecap="round" stroke-miterlimit="10" stroke-width="4" class="abstract-shapes-12-2 fill-none stroke-warning"/></svg>