<svg xmlns="http://www.w3.org/2000/svg" xmlns:xlink="http://www.w3.org/1999/xlink" id="Layer_1" x="0" y="0" version="1.1" viewBox="0 0 522 504" xml:space="preserve" style="enable-background:new 0 0 522 504"><style type="text/css">.st0{fill:#00c9a7}.st1{fill:#377dff}</style><g><path d="M332,504h178.4c6.4,0,11.6-5.2,11.6-11.6V314c0-104.9-85.1-190-190-190h0c-104.9,0-190,85.1-190,190v0 C142,418.9,227.1,504,332,504z" class="st0" opacity=".5"/></g><g><path d="M190,380H11.6C5.2,380,0,374.8,0,368.4V190C0,85.1,85.1,0,190,0h0c104.9,0,190,85.1,190,190v0 C380,294.9,294.9,380,190,380z" class="st1"/></g></svg>