<svg xmlns="http://www.w3.org/2000/svg" xmlns:xlink="http://www.w3.org/1999/xlink" id="Layer_1" x="0" y="0" version="1.1" viewBox="0 0 600 337.5" xml:space="preserve" style="enable-background:new 0 0 600 337.5"><style type="text/css">.st0,.st1{opacity:.1;fill:#08bc80}.st1{fill:#013d32}.st2{fill:#00c9a7}.st3{fill:url(#SVGID_1_)}.st4{fill:url(#SVGID_2_)}.st5{fill:url(#SVGID_3_)}</style><rect width="600" height="337.5" class="st0"/><circle cx="203" cy="275.4" r="14.4" class="st1"/><circle cx="290.8" cy="275.8" r="14.4" class="st1"/><circle cx="290.8" cy="167.8" r="14.4" class="st1"/><circle cx="378.6" cy="275.8" r="14.4" class="st1"/><circle cx="378.6" cy="167.8" r="14.4" class="st1"/><circle cx="378.6" cy="79.7" r="14.4" class="st1"/><circle cx="203" cy="258.4" r="14.4" class="st2"/><circle cx="290.8" cy="258.8" r="14.4" class="st2"/><circle cx="290.8" cy="150.8" r="14.4" class="st2"/><circle cx="378.6" cy="258.8" r="14.4" class="st2"/><circle cx="378.6" cy="150.8" r="14.4" class="st2"/><circle cx="378.6" cy="62.7" r="14.4" class="st2"/><linearGradient id="SVGID_1_" x1="378.63" x2="378.63" y1="151.298" y2="61.544" gradientUnits="userSpaceOnUse"><stop offset="0" style="stop-color:#00c9a7"/><stop offset="1" style="stop-color:#fff;stop-opacity:0"/></linearGradient><rect width="28.8" height="89.8" x="364.2" y="61.5" class="st3"/><linearGradient id="SVGID_2_" x1="378.63" x2="378.63" y1="260.065" y2="170.312" gradientUnits="userSpaceOnUse"><stop offset="0" style="stop-color:#00c9a7"/><stop offset="1" style="stop-color:#fff;stop-opacity:0"/></linearGradient><rect width="28.8" height="89.8" x="364.2" y="170.3" class="st4"/><linearGradient id="SVGID_3_" x1="290.849" x2="290.849" y1="260.065" y2="170.312" gradientUnits="userSpaceOnUse"><stop offset="0" style="stop-color:#00c9a7"/><stop offset="1" style="stop-color:#fff;stop-opacity:0"/></linearGradient><rect width="28.8" height="89.8" x="276.5" y="170.3" class="st5"/></svg>