<svg xmlns="http://www.w3.org/2000/svg" xmlns:xlink="http://www.w3.org/1999/xlink" x="0" y="0" viewBox="0 0 359 176" xml:space="preserve" style="enable-background:new 0 0 359 176"><style type="text/css">.abstract-shapes-18-0{fill:#fff}</style><rect width="51.9" height="51.9" x="89.8" y="-25.6" class="abstract-shapes-18-0 fill-white" transform="matrix(0.7071 0.7071 -0.7071 0.7071 34.1268 -81.7319)"/><rect width="51.9" height="51.9" x="153.5" y="20.6" class="abstract-shapes-18-0 fill-white" opacity=".6" transform="matrix(0.7071 0.7071 -0.7071 0.7071 85.5285 -113.2785)"/><rect width="51.9" height="51.9" x="15.3" y="11.6" class="abstract-shapes-18-0 fill-white" opacity=".5" transform="matrix(0.7071 0.7071 -0.7071 0.7071 38.685 -18.1885)"/><rect width="51.9" height="51.9" x="291.7" y="11.6" class="abstract-shapes-18-0 fill-white" opacity=".5" transform="matrix(0.7071 0.7071 -0.7071 0.7071 119.6439 -213.6405)"/><rect width="51.9" height="51.9" x="219.3" y="-25.6" class="abstract-shapes-18-0 fill-white" transform="matrix(0.7071 0.7071 -0.7071 0.7071 72.0665 -173.3265)"/><rect width="51.9" height="51.9" x="89.8" y="67.4" class="abstract-shapes-18-0 fill-white" opacity=".25" transform="matrix(0.7071 0.7071 -0.7071 0.7071 99.9168 -54.4808)"/><rect width="51.9" height="51.9" x="219.3" y="67.4" class="abstract-shapes-18-0 fill-white" opacity=".25" transform="matrix(0.7071 0.7071 -0.7071 0.7071 137.8565 -146.0754)"/></svg>