<svg xmlns="http://www.w3.org/2000/svg" xmlns:xlink="http://www.w3.org/1999/xlink" x="0" y="0" viewBox="0 0 2000 500" xml:space="preserve" style="enable-background:new 0 0 2000 500"><style type="text/css">.abstract-shapes-15-0,.abstract-shapes-15-1{clip-path:url(#abstractShapes15ID);fill:#19a0ff}.abstract-shapes-15-1{fill:url(#abstractShapes15ID3)}.abstract-shapes-15-2,.abstract-shapes-15-3{clip-path:url(#abstractShapes15ID);fill:url(#abstractShapes15ID4)}.abstract-shapes-15-3{fill:url(#abstractShapes15ID5)}.abstract-shapes-15-4,.abstract-shapes-15-5{clip-path:url(#abstractShapes15ID);fill:url(#abstractShapes15ID6)}.abstract-shapes-15-5{fill:url(#abstractShapes15ID7)}.abstract-shapes-15-6,.abstract-shapes-15-7{clip-path:url(#abstractShapes15ID);fill:url(#abstractShapes15ID8)}.abstract-shapes-15-7{fill:url(#abstractShapes15ID9)}.abstract-shapes-15-8,.abstract-shapes-15-9{clip-path:url(#abstractShapes15ID);fill:url(#abstractShapes15ID10)}.abstract-shapes-15-9{fill:url(#abstractShapes15ID11)}.abstract-shapes-15-10,.abstract-shapes-15-11{clip-path:url(#abstractShapes15ID);fill:url(#abstractShapes15ID12)}.abstract-shapes-15-11{fill:url(#abstractShapes15ID13)}.abstract-shapes-15-12,.abstract-shapes-15-13{clip-path:url(#abstractShapes15ID);fill:url(#abstractShapes15ID14)}.abstract-shapes-15-13{fill:url(#abstractShapes15ID15)}.abstract-shapes-15-14,.abstract-shapes-15-15{clip-path:url(#abstractShapes15ID);fill:url(#abstractShapes15ID16)}.abstract-shapes-15-15{fill:url(#abstractShapes15ID17)}</style><g><defs><rect id="abstractShapes15ID1" width="2000" height="500.8" y="1.8" transform="matrix(-1 -4.489621e-11 4.489621e-11 -1 2000 504.4521)"/></defs><clipPath id="abstractShapes15ID"><use xlink:href="#abstractShapes15ID1" style="overflow:visible"/></clipPath><linearGradient id="abstractShapes15ID3" x1="5220.988" x2="5191.778" y1="8378.657" y2="8495.817" gradientTransform="matrix(-1 2.364263e-05 -2.364263e-05 -1 5493.0742 8770.0088)" gradientUnits="userSpaceOnUse"><stop class="stop-color-primary" offset="0" style="stop-color:#377dff;stop-opacity:0"/><stop class="stop-color-primary-lighter" offset="1" style="stop-color:#196eff"/></linearGradient><polygon points="224.5 373.1 351.5 404 351.3 280.1 224.3 249.3" class="abstract-shapes-15-1"/><polygon points="351.3 218.3 224.7 249.4 351.4 280.1 478 249" class="abstract-shapes-15-0 fill-info"/><linearGradient id="abstractShapes15ID4" x1="5472.559" x2="5443.349" y1="8451.684" y2="8568.844" gradientTransform="matrix(-1 0 0 -1 6124.8447 8737.96)" gradientUnits="userSpaceOnUse"><stop class="stop-color-primary" offset="0" style="stop-color:#377dff;stop-opacity:0"/><stop class="stop-color-primary-lighter" offset="1" style="stop-color:#196eff"/></linearGradient><polygon points="605 268.1 732 298.9 731.8 175.1 604.8 144.3" class="abstract-shapes-15-2"/><polygon points="731.8 113 605.2 144.1 731.9 174.9 858.5 143.7" class="abstract-shapes-15-0 fill-info"/><linearGradient id="abstractShapes15ID5" x1="-3932.058" x2="-3961.268" y1="115.26" y2="232.42" gradientTransform="matrix(-1 0 0 -1 -2000.8601 503.15)" gradientUnits="userSpaceOnUse"><stop class="stop-color-primary" offset="0" style="stop-color:#377dff;stop-opacity:0"/><stop class="stop-color-primary-lighter" offset="1" style="stop-color:#196eff"/></linearGradient><polygon points="1883.9 369.7 2010.9 400.5 2010.7 276.7 1883.7 245.9" class="abstract-shapes-15-3"/><polygon points="2010.7 214.9 1884.1 246 2010.8 276.7 2137.4 245.6" class="abstract-shapes-15-0 fill-info"/><linearGradient id="abstractShapes15ID6" x1="-2765.389" x2="-2823.206" y1="211.305" y2="443.186" gradientTransform="matrix(-1 0 0 -1 -2000.8601 503.15)" gradientUnits="userSpaceOnUse"><stop class="stop-color-primary" offset="0" style="stop-color:#377dff;stop-opacity:0"/><stop class="stop-color-primary-lighter" offset="1" style="stop-color:#196eff"/></linearGradient><polygon points="731.3 278.4 858.3 309.2 857.9 63.7 731 32.9" class="abstract-shapes-15-4"/><polygon points="858 1.8 731.4 33 858.1 63.7 984.7 32.6" class="abstract-shapes-15-0 fill-info"/><linearGradient id="abstractShapes15ID7" x1="5207.262" x2="5178.052" y1="8379.484" y2="8496.645" gradientTransform="matrix(-1 1.965122e-05 -1.965122e-05 -1 7138.6016 8828.8584)" gradientUnits="userSpaceOnUse"><stop class="stop-color-primary" offset="0" style="stop-color:#377dff;stop-opacity:0"/><stop class="stop-color-primary-lighter" offset="1" style="stop-color:#196eff"/></linearGradient><polygon points="1884 431.5 2011 462.3 2010.8 338.5 1883.8 307.7" class="abstract-shapes-15-5"/><polygon points="2010.8 276.7 1884.2 307.8 2010.9 338.5 2137.5 307.4" class="abstract-shapes-15-0 fill-info"/><polygon points="477.5 324.1 351 355.2 477.6 386 604.2 354.8" class="abstract-shapes-15-0 fill-info"/><linearGradient id="abstractShapes15ID8" x1="5726.469" x2="5697.259" y1="8302.607" y2="8419.768" gradientTransform="matrix(-1 1.931079e-05 -1.931079e-05 -1 6124.98 8799.4424)" gradientUnits="userSpaceOnUse"><stop class="stop-color-primary" offset="0" style="stop-color:#377dff;stop-opacity:0"/><stop class="stop-color-primary-lighter" offset="1" style="stop-color:#196eff"/></linearGradient><polygon points="351.2 479 478.2 509.8 478 386 351 355.2" class="abstract-shapes-15-6"/><polygon points="1758.2 277 1631.6 308.2 1758.3 338.9 1884.9 307.8" class="abstract-shapes-15-0 fill-info"/><linearGradient id="abstractShapes15ID9" x1="-3671.345" x2="-3717.146" y1="-15.069" y2="168.633" gradientTransform="matrix(-1 0 0 -1 -2000.8601 503.15)" gradientUnits="userSpaceOnUse"><stop class="stop-color-primary" offset="0" style="stop-color:#377dff;stop-opacity:0"/><stop class="stop-color-primary-lighter" offset="1" style="stop-color:#196eff"/></linearGradient><polygon points="1631.5 502.5 1758.4 533.3 1758.1 338.9 1631.2 308.1" class="abstract-shapes-15-7"/><polygon points="604.2 217.9 477.6 249 604.3 279.8 730.9 248.6" class="abstract-shapes-15-0 fill-info"/><linearGradient id="abstractShapes15ID10" x1="5346.563" x2="5317.353" y1="8343.685" y2="8460.846" gradientTransform="matrix(-1 1.940399e-05 -1.940399e-05 -1 5871.7246 8734.3203)" gradientUnits="userSpaceOnUse"><stop class="stop-color-primary" offset="0" style="stop-color:#377dff;stop-opacity:0"/><stop class="stop-color-primary-lighter" offset="1" style="stop-color:#196eff"/></linearGradient><polygon points="477.9 372.8 604.8 403.6 604.6 279.8 477.7 249" class="abstract-shapes-15-8"/><linearGradient id="abstractShapes15ID11" x1="5207.209" x2="5177.999" y1="8379.415" y2="8496.574" gradientTransform="matrix(-1 4.326975e-05 -4.326975e-05 -1 5998.8047 8957.3574)" gradientUnits="userSpaceOnUse"><stop class="stop-color-primary" offset="0" style="stop-color:#377dff;stop-opacity:0"/><stop class="stop-color-primary-lighter" offset="1" style="stop-color:#196eff"/></linearGradient><polygon points="744 560 870.9 590.8 870.8 467 743.8 436.2" class="abstract-shapes-15-9"/><polygon points="870.9 466.9 744.3 498.1 871 528.8 997.6 497.7" class="abstract-shapes-15-0 fill-info"/><polygon points="870.8 405.1 744.2 436.3 870.9 467 997.5 435.9" class="abstract-shapes-15-0 fill-info"/><polygon points="997.5 436 870.9 467.1 997.6 497.8 1124.2 466.7" class="abstract-shapes-15-0 fill-info"/><polygon points="491.9 -16.6 365.3 14.5 492 45.3 618.6 14.1" class="abstract-shapes-15-0 fill-info"/><linearGradient id="abstractShapes15ID12" x1="-2407.238" x2="-2449.612" y1="294.765" y2="464.693" gradientTransform="matrix(-1 0 0 -1 -2000.8601 503.15)" gradientUnits="userSpaceOnUse"><stop class="stop-color-primary" offset="0" style="stop-color:#377dff;stop-opacity:0"/><stop class="stop-color-primary-lighter" offset="1" style="stop-color:#196eff"/></linearGradient><polygon points="365.1 194.2 492.1 225 491.8 45.3 364.9 14.5" class="abstract-shapes-15-10"/><polygon points="112.2 94.2 -14.4 125.4 112.3 156.1 238.9 125" class="abstract-shapes-15-0 fill-info"/><linearGradient id="abstractShapes15ID13" x1="-2026.618" x2="-2071.158" y1="175.478" y2="354.118" gradientTransform="matrix(-1 0 0 -1 -2000.8601 503.15)" gradientUnits="userSpaceOnUse"><stop class="stop-color-primary" offset="0" style="stop-color:#377dff;stop-opacity:0"/><stop class="stop-color-primary-lighter" offset="1" style="stop-color:#196eff"/></linearGradient><polygon points="-14.5 314.3 112.5 345.1 112.2 156.1 -14.8 125.3" class="abstract-shapes-15-11"/><linearGradient id="abstractShapes15ID14" x1="5431.603" x2="5402.393" y1="8451.684" y2="8568.844" gradientTransform="matrix(1 0 0 -1 -4124.8447 8737.96)" gradientUnits="userSpaceOnUse"><stop class="stop-color-primary" offset="0" style="stop-color:#377dff;stop-opacity:0"/><stop class="stop-color-primary-lighter" offset="1" style="stop-color:#196eff"/></linearGradient><polygon points="1354.2 144.3 1227.2 175.1 1227 298.9 1354 268.1" class="abstract-shapes-15-12"/><polygon points="1100.5 143.7 1227.1 174.9 1353.8 144.1 1227.2 113" class="abstract-shapes-15-0 fill-info"/><linearGradient id="abstractShapes15ID15" x1="-2806.345" x2="-2864.163" y1="211.305" y2="443.186" gradientTransform="matrix(1 0 0 -1 4000.8601 503.15)" gradientUnits="userSpaceOnUse"><stop class="stop-color-primary" offset="0" style="stop-color:#377dff;stop-opacity:0"/><stop class="stop-color-primary-lighter" offset="1" style="stop-color:#196eff"/></linearGradient><polygon points="1228.1 32.9 1101.1 63.7 1100.7 309.2 1227.7 278.4" class="abstract-shapes-15-13"/><polygon points="974.4 32.6 1101 63.7 1227.7 33 1101.1 1.8" class="abstract-shapes-15-0 fill-info"/><polygon points="1354.8 354.8 1481.4 386 1608.1 355.2 1481.5 324.1" class="abstract-shapes-15-0 fill-info"/><linearGradient id="abstractShapes15ID16" x1="5685.512" x2="5656.302" y1="8302.606" y2="8419.767" gradientTransform="matrix(1 1.931084e-05 1.931084e-05 -1 -4124.98 8799.4424)" gradientUnits="userSpaceOnUse"><stop class="stop-color-primary" offset="0" style="stop-color:#377dff;stop-opacity:0"/><stop class="stop-color-primary-lighter" offset="1" style="stop-color:#196eff"/></linearGradient><polygon points="1608 355.2 1481 386 1480.8 509.8 1607.8 479" class="abstract-shapes-15-14"/><polygon points="1228.2 248.6 1354.8 279.8 1481.4 249 1354.9 217.9" class="abstract-shapes-15-0 fill-info"/><linearGradient id="abstractShapes15ID17" x1="5305.606" x2="5276.396" y1="8343.685" y2="8460.845" gradientTransform="matrix(1 1.940404e-05 1.940404e-05 -1 -3871.7246 8734.3203)" gradientUnits="userSpaceOnUse"><stop class="stop-color-primary" offset="0" style="stop-color:#377dff;stop-opacity:0"/><stop class="stop-color-primary-lighter" offset="1" style="stop-color:#196eff"/></linearGradient><polygon points="1481.4 249 1354.4 279.8 1354.2 403.6 1481.2 372.8" class="abstract-shapes-15-15"/></g></svg>