<svg xmlns="http://www.w3.org/2000/svg" xmlns:xlink="http://www.w3.org/1999/xlink" x="0" y="0" viewBox="0 0 613 769.5" xml:space="preserve" style="enable-background:new 0 0 613 769.5"><style type="text/css">.abstract-shapes-13-0{fill:#00dffc}.abstract-shapes-13-1{fill:#ffc107}.abstract-shapes-13-2{fill:#377dff}.abstract-shapes-13-3{fill:none;stroke:#00dffc}</style><g><circle cx="201.5" cy="153.5" r="3.5" class="abstract-shapes-13-0 fill-info"/><circle cx="201.5" cy="63.5" r="3.5" class="abstract-shapes-13-0 fill-info"/><circle cx="201.5" cy="135.5" r="3.5" class="abstract-shapes-13-0 fill-info"/><circle cx="201.5" cy="117.5" r="3.5" class="abstract-shapes-13-0 fill-info"/><circle cx="201.5" cy="99.5" r="3.5" class="abstract-shapes-13-0 fill-info"/><circle cx="201.5" cy="81.5" r="3.5" class="abstract-shapes-13-0 fill-info"/><circle cx="183.5" cy="153.5" r="3.5" class="abstract-shapes-13-0 fill-info"/><circle cx="183.5" cy="63.5" r="3.5" class="abstract-shapes-13-0 fill-info"/><circle cx="183.5" cy="135.5" r="3.5" class="abstract-shapes-13-0 fill-info"/><circle cx="183.5" cy="117.5" r="3.5" class="abstract-shapes-13-0 fill-info"/><circle cx="183.5" cy="99.5" r="3.5" class="abstract-shapes-13-0 fill-info"/><circle cx="183.5" cy="81.5" r="3.5" class="abstract-shapes-13-0 fill-info"/><circle cx="165.5" cy="153.5" r="3.5" class="abstract-shapes-13-0 fill-info"/><circle cx="165.5" cy="63.5" r="3.5" class="abstract-shapes-13-0 fill-info"/><circle cx="165.5" cy="135.5" r="3.5" class="abstract-shapes-13-0 fill-info"/><circle cx="165.5" cy="117.5" r="3.5" class="abstract-shapes-13-0 fill-info"/><circle cx="165.5" cy="99.5" r="3.5" class="abstract-shapes-13-0 fill-info"/><circle cx="165.5" cy="81.5" r="3.5" class="abstract-shapes-13-0 fill-info"/><circle cx="147.5" cy="153.5" r="3.5" class="abstract-shapes-13-0 fill-info"/><circle cx="147.5" cy="63.5" r="3.5" class="abstract-shapes-13-0 fill-info"/><circle cx="147.5" cy="135.5" r="3.5" class="abstract-shapes-13-0 fill-info"/><circle cx="147.5" cy="117.5" r="3.5" class="abstract-shapes-13-0 fill-info"/><circle cx="147.5" cy="99.5" r="3.5" class="abstract-shapes-13-0 fill-info"/><circle cx="147.5" cy="81.5" r="3.5" class="abstract-shapes-13-0 fill-info"/><circle cx="129.5" cy="153.5" r="3.5" class="abstract-shapes-13-0 fill-info"/><circle cx="129.5" cy="63.5" r="3.5" class="abstract-shapes-13-0 fill-info"/><circle cx="129.5" cy="135.5" r="3.5" class="abstract-shapes-13-0 fill-info"/><circle cx="129.5" cy="117.5" r="3.5" class="abstract-shapes-13-0 fill-info"/><circle cx="129.5" cy="99.5" r="3.5" class="abstract-shapes-13-0 fill-info"/><circle cx="129.5" cy="81.5" r="3.5" class="abstract-shapes-13-0 fill-info"/><circle cx="111.5" cy="153.5" r="3.5" class="abstract-shapes-13-0 fill-info"/><circle cx="111.5" cy="63.5" r="3.5" class="abstract-shapes-13-0 fill-info"/><circle cx="111.5" cy="135.5" r="3.5" class="abstract-shapes-13-0 fill-info"/><circle cx="111.5" cy="117.5" r="3.5" class="abstract-shapes-13-0 fill-info"/><circle cx="111.5" cy="99.5" r="3.5" class="abstract-shapes-13-0 fill-info"/><circle cx="111.5" cy="81.5" r="3.5" class="abstract-shapes-13-0 fill-info"/><circle cx="93.5" cy="153.5" r="3.5" class="abstract-shapes-13-0 fill-info"/><circle cx="93.5" cy="63.5" r="3.5" class="abstract-shapes-13-0 fill-info"/><circle cx="93.5" cy="135.5" r="3.5" class="abstract-shapes-13-0 fill-info"/><circle cx="93.5" cy="117.5" r="3.5" class="abstract-shapes-13-0 fill-info"/><circle cx="93.5" cy="99.5" r="3.5" class="abstract-shapes-13-0 fill-info"/><circle cx="93.5" cy="81.5" r="3.5" class="abstract-shapes-13-0 fill-info"/><circle cx="75.5" cy="63.5" r="3.5" class="abstract-shapes-13-0 fill-info"/><circle cx="75.5" cy="135.5" r="3.5" class="abstract-shapes-13-0 fill-info"/><circle cx="75.5" cy="117.5" r="3.5" class="abstract-shapes-13-0 fill-info"/><circle cx="75.5" cy="99.5" r="3.5" class="abstract-shapes-13-0 fill-info"/><circle cx="75.5" cy="81.5" r="3.5" class="abstract-shapes-13-0 fill-info"/><circle cx="57.5" cy="63.5" r="3.5" class="abstract-shapes-13-0 fill-info"/><circle cx="57.5" cy="117.5" r="3.5" class="abstract-shapes-13-0 fill-info"/><circle cx="57.5" cy="99.5" r="3.5" class="abstract-shapes-13-0 fill-info"/><circle cx="57.5" cy="81.5" r="3.5" class="abstract-shapes-13-0 fill-info"/><circle cx="39.5" cy="63.5" r="3.5" class="abstract-shapes-13-0 fill-info"/><circle cx="39.5" cy="99.5" r="3.5" class="abstract-shapes-13-0 fill-info"/><circle cx="39.5" cy="81.5" r="3.5" class="abstract-shapes-13-0 fill-info"/><circle cx="21.5" cy="63.5" r="3.5" class="abstract-shapes-13-0 fill-info"/><circle cx="3.5" cy="63.5" r="3.5" class="abstract-shapes-13-0 fill-info"/><circle cx="21.5" cy="81.5" r="3.5" class="abstract-shapes-13-0 fill-info"/></g><circle cx="601" cy="12" r="12" class="abstract-shapes-13-1 fill-warning"/><path d="M535.5,769L535.5,769c42.8,0,77.5-34.7,77.5-77.5v0c0-42.8-34.7-77.5-77.5-77.5h0c-42.8,0-77.5,34.7-77.5,77.5	v0C458,734.3,492.7,769,535.5,769z" class="abstract-shapes-13-2 fill-primary"/><path stroke-miterlimit="10" stroke-width="4" d="M535.5,747.9L535.5,747.9c31.2,0,56.4-25.3,56.4-56.4v0c0-31.2-25.3-56.4-56.4-56.4h0	c-31.2,0-56.4,25.3-56.4,56.4v0C479.1,722.7,504.3,747.9,535.5,747.9z" class="abstract-shapes-13-3 fill-none stroke-info"/><path stroke-miterlimit="10" stroke-width="4" d="M535.5,711.2L535.5,711.2c10.9,0,19.7-8.8,19.7-19.7l0,0c0-10.9-8.8-19.7-19.7-19.7l0,0	c-10.9,0-19.7,8.8-19.7,19.7l0,0C515.8,702.4,524.6,711.2,535.5,711.2z" class="abstract-shapes-13-3 fill-none stroke-info"/></svg>