<svg xmlns="http://www.w3.org/2000/svg" xmlns:xlink="http://www.w3.org/1999/xlink" id="Layer_1" x="0" y="0" version="1.1" viewBox="0 0 1980.6 901" xml:space="preserve" style="enable-background:new 0 0 1980.6 901"><style type="text/css">.st0{opacity:.7;fill:#2d1582}.st0,.st1,.st2{enable-background:new}.st1{opacity:.5;fill:none;stroke:#ffc107;stroke-width:4;stroke-linecap:round;stroke-miterlimit:10}.st2{opacity:.3;fill:#00dffc}</style><circle cx="1696.9" cy="618.5" r="1.7" class="st0"/><circle cx="1733.7" cy="618.5" r="1.7" class="st0"/><circle cx="1770.6" cy="618.5" r="1.7" class="st0"/><circle cx="1807.5" cy="618.5" r="1.7" class="st0"/><circle cx="1844.4" cy="618.5" r="1.7" class="st0"/><circle cx="1844.4" cy="655.4" r="1.7" class="st0"/><circle cx="1881.2" cy="655.4" r="1.7" class="st0"/><circle cx="1881.2" cy="618.5" r="1.7" class="st0"/><circle cx="1696.9" cy="655.4" r="1.7" class="st0"/><circle cx="1733.7" cy="655.4" r="1.7" class="st0"/><circle cx="1770.6" cy="655.4" r="1.7" class="st0"/><circle cx="1807.5" cy="655.4" r="1.7" class="st0"/><circle cx="1696.9" cy="692.3" r="1.7" class="st0"/><circle cx="1733.7" cy="692.3" r="1.7" class="st0"/><circle cx="1770.6" cy="692.3" r="1.7" class="st0"/><circle cx="1807.5" cy="692.3" r="1.7" class="st0"/><circle cx="1844.4" cy="692.3" r="1.7" class="st0"/><circle cx="1881.2" cy="692.3" r="1.7" class="st0"/><circle cx="1696.9" cy="729.1" r="1.7" class="st0"/><circle cx="1733.7" cy="729.1" r="1.7" class="st0"/><circle cx="1770.6" cy="729.1" r="1.7" class="st0"/><circle cx="1807.5" cy="729.1" r="1.7" class="st0"/><circle cx="1844.4" cy="729.1" r="1.7" class="st0"/><circle cx="1881.2" cy="729.1" r="1.7" class="st0"/><circle cx="1696.9" cy="766" r="1.7" class="st0"/><circle cx="1733.7" cy="766" r="1.7" class="st0"/><circle cx="1770.6" cy="766" r="1.7" class="st0"/><circle cx="1807.5" cy="766" r="1.7" class="st0"/><circle cx="1844.4" cy="766" r="1.7" class="st0"/><circle cx="1881.2" cy="766" r="1.7" class="st0"/><circle cx="1696.9" cy="803" r="1.7" class="st0"/><circle cx="1733.7" cy="803" r="1.7" class="st0"/><circle cx="1770.6" cy="803" r="1.7" class="st0"/><circle cx="1807.5" cy="803" r="1.7" class="st0"/><circle cx="1844.4" cy="803" r="1.7" class="st0"/><circle cx="1881.2" cy="803" r="1.7" class="st0"/><g><line x1="4.8" x2="115.1" y1="160.5" y2="50.3" class="st1"/><line x1="75.6" x2="2.1" y1="48.8" y2="122.3" class="st1"/><line x1="2.9" x2="35.2" y1="80.6" y2="48.4" class="st1"/><line x1="3.4" x2="53.7" y1="99.1" y2="48.9" class="st1"/><line x1="45" x2="116" y1="161.2" y2="90.2" class="st1"/><line x1="21" x2="117" y1="164.2" y2="68.2" class="st1"/><line x1="2" x2="96" y1="142.2" y2="48.2" class="st1"/><line x1="84.2" x2="117.4" y1="162.9" y2="129.6" class="st1"/><line x1="66.7" x2="116.9" y1="162.4" y2="112.1" class="st1"/></g><path d="M541.7,677L541.7,677c71.2,0,129,57.8,129,129l0,0h-129V677z" class="st2"/></svg>