<svg xmlns="http://www.w3.org/2000/svg" xmlns:xlink="http://www.w3.org/1999/xlink" x="0" y="0" viewBox="0 0 857 670" xml:space="preserve" style="enable-background:new 0 0 857 670"><style type="text/css">.borwser-0{fill:#fff}.borwser-1{fill:#ff4e50}.borwser-2{fill:#ffc107}.borwser-3{fill:#00c9a7}</style><g><defs><path id="browserID1" d="M833,665H25c-10.5,0-19-8.5-19-19V24.9c0-10.5,8.5-19,19-19h808c10.5,0,19,8.5,19,19V646 C852,656.5,843.5,665,833,665z"/></defs><clipPath id="browserID2"><use xlink:href="#browserID1" style="overflow:visible"/></clipPath><use fill="none" stroke="#fff" stroke-miterlimit="10" stroke-width="10" xlink:href="#browserID1" style="overflow:visible;fill:none;stroke:#fff;stroke-width:10;stroke-miterlimit:10"/></g><g><path d="M856.8,40.2H0.8V19c0-10.5,8.5-19,19-19h818c10.5,0,19,8.5,19,19V40.2z" class="borwser-0 fill-white"/></g><g><ellipse cx="28.5" cy="20.1" class="borwser-1 fill-danger" rx="6" ry="6"/><ellipse cx="48.4" cy="20.1" class="borwser-2 fill-warning" rx="6" ry="6"/><ellipse cx="68.4" cy="20.1" class="borwser-3 fill-success" rx="6" ry="6"/></g></svg>