<svg xmlns="http://www.w3.org/2000/svg" xmlns:xlink="http://www.w3.org/1999/xlink" id="Layer_1" x="0" y="0" version="1.1" viewBox="0 0 500 500" xml:space="preserve" style="enable-background:new 0 0 500 500"><style type="text/css">.st0{clip-path:url(#SVGID_2_);fill:none;stroke:#377dff;stroke-width:4;stroke-linecap:round;stroke-miterlimit:10;enable-background:new}</style><g><defs><circle id="SVGID_1_" cx="250" cy="250" r="250"/></defs><clipPath id="SVGID_2_"><use xlink:href="#SVGID_1_" style="overflow:visible"/></clipPath><line x1="11.3" x2="486.6" y1="9.1" y2="484" class="st0"/><line x1="-6.5" x2="468.8" y1="34.8" y2="509.6" class="st0"/><line x1="498.2" x2="181.5" y1="319.4" y2="2.7" class="st0"/><line x1="526.8" x2="210.1" y1="299.6" y2="-17.1" class="st0"/><line x1="355.6" x2="494.7" y1="1" y2="139.7" class="st0"/><line x1="275.9" x2="492.6" y1="3.1" y2="219.4" class="st0"/><line x1="294.6" x2="511.3" y1="-17.6" y2="198.7" class="st0"/><line x1="7.4" x2="313.3" y1="181.1" y2="487" class="st0"/><line x1="-6.4" x2="299.5" y1="216.6" y2="522.5" class="st0"/><line x1="3.1" x2="416.8" y1="86.3" y2="499.9" class="st0"/><line x1="-12.7" x2="401" y1="116.8" y2="530.5" class="st0"/><line x1="93.6" x2="498.6" y1=".1" y2="405.1" class="st0"/><line x1="115.3" x2="520.3" y1="-20.6" y2="384.4" class="st0"/><line x1="81.8" x2="486.8" y1="33.6" y2="438.7" class="st0"/><line x1="1.4" x2="144.4" y1="350.8" y2="494.3" class="st0"/><line x1="3.5" x2="219.8" y1="275.4" y2="492.2" class="st0"/><line x1="-11.3" x2="205" y1="300.1" y2="516.8" class="st0"/></g></svg>