<svg xmlns="http://www.w3.org/2000/svg" xmlns:xlink="http://www.w3.org/1999/xlink" id="Layer_1" x="0" y="0" version="1.1" viewBox="0 0 638 1178" xml:space="preserve" style="enable-background:new 0 0 638 1178"><style type="text/css">.st0{fill:#1e2022}</style><circle cx="4" cy="4" r="4" class="st0"/><circle cx="94" cy="4" r="4" class="st0"/><circle cx="184" cy="4" r="4" class="st0"/><circle cx="274" cy="4" r="4" class="st0"/><circle cx="364" cy="4" r="4" class="st0"/><circle cx="454" cy="4" r="4" class="st0"/><circle cx="4" cy="94" r="4" class="st0"/><circle cx="94" cy="94" r="4" class="st0"/><circle cx="184" cy="94" r="4" class="st0"/><circle cx="274" cy="94" r="4" class="st0"/><circle cx="364" cy="94" r="4" class="st0"/><circle cx="454" cy="94" r="4" class="st0"/><circle cx="4" cy="184" r="4" class="st0"/><circle cx="94" cy="184" r="4" class="st0"/><circle cx="184" cy="184" r="4" class="st0"/><circle cx="274" cy="184" r="4" class="st0"/><circle cx="364" cy="184" r="4" class="st0"/><circle cx="454" cy="184" r="4" class="st0"/><circle cx="4" cy="274" r="4" class="st0"/><circle cx="94" cy="274" r="4" class="st0"/><circle cx="184" cy="274" r="4" class="st0"/><circle cx="274" cy="274" r="4" class="st0"/><circle cx="364" cy="274" r="4" class="st0"/><circle cx="454" cy="274" r="4" class="st0"/><circle cx="4" cy="364" r="4" class="st0"/><circle cx="94" cy="364" r="4" class="st0"/><circle cx="184" cy="364" r="4" class="st0"/><circle cx="274" cy="364" r="4" class="st0"/><circle cx="364" cy="364" r="4" class="st0"/><circle cx="454" cy="364" r="4" class="st0"/><circle cx="4" cy="454" r="4" class="st0"/><circle cx="94" cy="454" r="4" class="st0"/><circle cx="184" cy="454" r="4" class="st0"/><circle cx="274" cy="454" r="4" class="st0"/><circle cx="364" cy="454" r="4" class="st0"/><circle cx="454" cy="454" r="4" class="st0"/><circle cx="4" cy="544" r="4" class="st0"/><circle cx="94" cy="544" r="4" class="st0"/><circle cx="184" cy="544" r="4" class="st0"/><circle cx="274" cy="544" r="4" class="st0"/><circle cx="364" cy="544" r="4" class="st0"/><circle cx="454" cy="544" r="4" class="st0"/><circle cx="4" cy="634" r="4" class="st0"/><circle cx="94" cy="634" r="4" class="st0"/><circle cx="184" cy="634" r="4" class="st0"/><circle cx="274" cy="634" r="4" class="st0"/><circle cx="364" cy="634" r="4" class="st0"/><circle cx="454" cy="634" r="4" class="st0"/><circle cx="4" cy="724" r="4" class="st0"/><circle cx="94" cy="724" r="4" class="st0"/><circle cx="184" cy="724" r="4" class="st0"/><circle cx="274" cy="724" r="4" class="st0"/><circle cx="364" cy="724" r="4" class="st0"/><circle cx="454" cy="724" r="4" class="st0"/><circle cx="4" cy="814" r="4" class="st0"/><circle cx="94" cy="814" r="4" class="st0"/><circle cx="184" cy="814" r="4" class="st0"/><circle cx="274" cy="814" r="4" class="st0"/><circle cx="364" cy="814" r="4" class="st0"/><circle cx="454" cy="814" r="4" class="st0"/><circle cx="4" cy="904" r="4" class="st0"/><circle cx="94" cy="904" r="4" class="st0"/><circle cx="184" cy="904" r="4" class="st0"/><circle cx="274" cy="904" r="4" class="st0"/><circle cx="364" cy="904" r="4" class="st0"/><circle cx="454" cy="904" r="4" class="st0"/><circle cx="544" cy="4" r="4" class="st0"/><circle cx="634" cy="4" r="4" class="st0"/><circle cx="544" cy="94" r="4" class="st0"/><circle cx="634" cy="94" r="4" class="st0"/><circle cx="544" cy="184" r="4" class="st0"/><circle cx="634" cy="184" r="4" class="st0"/><circle cx="544" cy="274" r="4" class="st0"/><circle cx="634" cy="274" r="4" class="st0"/><circle cx="544" cy="364" r="4" class="st0"/><circle cx="634" cy="364" r="4" class="st0"/><circle cx="544" cy="454" r="4" class="st0"/><circle cx="634" cy="454" r="4" class="st0"/><circle cx="544" cy="544" r="4" class="st0"/><circle cx="634" cy="544" r="4" class="st0"/><circle cx="544" cy="634" r="4" class="st0"/><circle cx="634" cy="634" r="4" class="st0"/><circle cx="544" cy="724" r="4" class="st0"/><circle cx="634" cy="724" r="4" class="st0"/><circle cx="544" cy="814" r="4" class="st0"/><circle cx="634" cy="814" r="4" class="st0"/><circle cx="544" cy="904" r="4" class="st0"/><circle cx="634" cy="904" r="4" class="st0"/><circle cx="4" cy="994" r="4" class="st0"/><circle cx="94" cy="994" r="4" class="st0"/><circle cx="184" cy="994" r="4" class="st0"/><circle cx="274" cy="994" r="4" class="st0"/><circle cx="364" cy="994" r="4" class="st0"/><circle cx="454" cy="994" r="4" class="st0"/><circle cx="4" cy="1084" r="4" class="st0"/><circle cx="94" cy="1084" r="4" class="st0"/><circle cx="184" cy="1084" r="4" class="st0"/><circle cx="274" cy="1084" r="4" class="st0"/><circle cx="364" cy="1084" r="4" class="st0"/><circle cx="454" cy="1084" r="4" class="st0"/><circle cx="4" cy="1174" r="4" class="st0"/><circle cx="94" cy="1174" r="4" class="st0"/><circle cx="184" cy="1174" r="4" class="st0"/><circle cx="274" cy="1174" r="4" class="st0"/><circle cx="364" cy="1174" r="4" class="st0"/><circle cx="454" cy="1174" r="4" class="st0"/><circle cx="544" cy="994" r="4" class="st0"/><circle cx="634" cy="994" r="4" class="st0"/><circle cx="544" cy="1084" r="4" class="st0"/><circle cx="634" cy="1084" r="4" class="st0"/><circle cx="544" cy="1174" r="4" class="st0"/><circle cx="634" cy="1174" r="4" class="st0"/></svg>