<svg xmlns="http://www.w3.org/2000/svg" xmlns:xlink="http://www.w3.org/1999/xlink" id="Layer_1" x="0" y="0" version="1.1" viewBox="0 0 225.9 225.9" xml:space="preserve" style="enable-background:new 0 0 225.9 225.9"><style type="text/css">.st0{opacity:.7;fill:#bdc5d1;enable-background:new}</style><circle cx="1.9" cy="1.9" r="1.9" class="st0"/><circle cx="26.6" cy="1.9" r="1.9" class="st0"/><circle cx="51.3" cy="1.9" r="1.9" class="st0"/><circle cx="1.9" cy="26.6" r="1.9" class="st0"/><circle cx="26.6" cy="26.6" r="1.9" class="st0"/><circle cx="51.3" cy="26.6" r="1.9" class="st0"/><circle cx="1.9" cy="51.3" r="1.9" class="st0"/><circle cx="26.6" cy="51.3" r="1.9" class="st0"/><circle cx="51.3" cy="51.3" r="1.9" class="st0"/><circle cx="1.9" cy="75.9" r="1.9" class="st0"/><circle cx="26.6" cy="75.9" r="1.9" class="st0"/><circle cx="51.3" cy="75.9" r="1.9" class="st0"/><circle cx="1.9" cy="100.6" r="1.9" class="st0"/><circle cx="26.6" cy="100.6" r="1.9" class="st0"/><circle cx="51.3" cy="100.6" r="1.9" class="st0"/><circle cx="1.9" cy="125.3" r="1.9" class="st0"/><circle cx="26.6" cy="125.3" r="1.9" class="st0"/><circle cx="51.3" cy="125.3" r="1.9" class="st0"/><circle cx="1.9" cy="149.9" r="1.9" class="st0"/><circle cx="26.6" cy="149.9" r="1.9" class="st0"/><circle cx="51.3" cy="149.9" r="1.9" class="st0"/><circle cx="1.9" cy="174.6" r="1.9" class="st0"/><circle cx="26.6" cy="174.6" r="1.9" class="st0"/><circle cx="51.3" cy="174.6" r="1.9" class="st0"/><circle cx="1.9" cy="199.3" r="1.9" class="st0"/><circle cx="26.6" cy="199.3" r="1.9" class="st0"/><circle cx="51.3" cy="199.3" r="1.9" class="st0"/><circle cx="1.9" cy="223.9" r="1.9" class="st0"/><circle cx="26.6" cy="223.9" r="1.9" class="st0"/><circle cx="51.3" cy="223.9" r="1.9" class="st0"/><circle cx="75.9" cy="1.9" r="1.9" class="st0"/><circle cx="100.6" cy="1.9" r="1.9" class="st0"/><circle cx="75.9" cy="26.6" r="1.9" class="st0"/><circle cx="100.6" cy="26.6" r="1.9" class="st0"/><circle cx="75.9" cy="51.3" r="1.9" class="st0"/><circle cx="100.6" cy="51.3" r="1.9" class="st0"/><circle cx="75.9" cy="75.9" r="1.9" class="st0"/><circle cx="100.6" cy="75.9" r="1.9" class="st0"/><circle cx="75.9" cy="100.6" r="1.9" class="st0"/><circle cx="100.6" cy="100.6" r="1.9" class="st0"/><circle cx="75.9" cy="125.3" r="1.9" class="st0"/><circle cx="100.6" cy="125.3" r="1.9" class="st0"/><circle cx="75.9" cy="149.9" r="1.9" class="st0"/><circle cx="100.6" cy="149.9" r="1.9" class="st0"/><circle cx="75.9" cy="174.6" r="1.9" class="st0"/><circle cx="100.6" cy="174.6" r="1.9" class="st0"/><circle cx="75.9" cy="199.3" r="1.9" class="st0"/><circle cx="100.6" cy="199.3" r="1.9" class="st0"/><circle cx="75.9" cy="223.9" r="1.9" class="st0"/><circle cx="100.6" cy="223.9" r="1.9" class="st0"/><circle cx="125.3" cy="1.9" r="1.9" class="st0"/><circle cx="149.9" cy="1.9" r="1.9" class="st0"/><circle cx="174.6" cy="1.9" r="1.9" class="st0"/><circle cx="125.3" cy="26.6" r="1.9" class="st0"/><circle cx="149.9" cy="26.6" r="1.9" class="st0"/><circle cx="174.6" cy="26.6" r="1.9" class="st0"/><circle cx="125.3" cy="51.3" r="1.9" class="st0"/><circle cx="149.9" cy="51.3" r="1.9" class="st0"/><circle cx="174.6" cy="51.3" r="1.9" class="st0"/><circle cx="125.3" cy="75.9" r="1.9" class="st0"/><circle cx="149.9" cy="75.9" r="1.9" class="st0"/><circle cx="174.6" cy="75.9" r="1.9" class="st0"/><circle cx="125.3" cy="100.6" r="1.9" class="st0"/><circle cx="149.9" cy="100.6" r="1.9" class="st0"/><circle cx="174.6" cy="100.6" r="1.9" class="st0"/><circle cx="125.3" cy="125.3" r="1.9" class="st0"/><circle cx="149.9" cy="125.3" r="1.9" class="st0"/><circle cx="174.6" cy="125.3" r="1.9" class="st0"/><circle cx="125.3" cy="149.9" r="1.9" class="st0"/><circle cx="149.9" cy="149.9" r="1.9" class="st0"/><circle cx="174.6" cy="149.9" r="1.9" class="st0"/><circle cx="125.3" cy="174.6" r="1.9" class="st0"/><circle cx="149.9" cy="174.6" r="1.9" class="st0"/><circle cx="174.6" cy="174.6" r="1.9" class="st0"/><circle cx="125.3" cy="199.3" r="1.9" class="st0"/><circle cx="149.9" cy="199.3" r="1.9" class="st0"/><circle cx="174.6" cy="199.3" r="1.9" class="st0"/><circle cx="125.3" cy="223.9" r="1.9" class="st0"/><circle cx="149.9" cy="223.9" r="1.9" class="st0"/><circle cx="174.6" cy="223.9" r="1.9" class="st0"/><circle cx="199.3" cy="1.9" r="1.9" class="st0"/><circle cx="223.9" cy="1.9" r="1.9" class="st0"/><circle cx="199.3" cy="26.6" r="1.9" class="st0"/><circle cx="223.9" cy="26.6" r="1.9" class="st0"/><circle cx="199.3" cy="51.3" r="1.9" class="st0"/><circle cx="223.9" cy="51.3" r="1.9" class="st0"/><circle cx="199.3" cy="75.9" r="1.9" class="st0"/><circle cx="223.9" cy="75.9" r="1.9" class="st0"/><circle cx="199.3" cy="100.6" r="1.9" class="st0"/><circle cx="223.9" cy="100.6" r="1.9" class="st0"/><circle cx="199.3" cy="125.3" r="1.9" class="st0"/><circle cx="223.9" cy="125.3" r="1.9" class="st0"/><circle cx="199.3" cy="149.9" r="1.9" class="st0"/><circle cx="223.9" cy="149.9" r="1.9" class="st0"/><circle cx="199.3" cy="174.6" r="1.9" class="st0"/><circle cx="223.9" cy="174.6" r="1.9" class="st0"/><circle cx="199.3" cy="199.3" r="1.9" class="st0"/><circle cx="223.9" cy="199.3" r="1.9" class="st0"/><circle cx="199.3" cy="223.9" r="1.9" class="st0"/><circle cx="223.9" cy="223.9" r="1.9" class="st0"/></svg>