<svg xmlns="http://www.w3.org/2000/svg" xmlns:xlink="http://www.w3.org/1999/xlink" width="500" height="300" x="0" y="0" viewBox="0 0 500 300" xml:space="preserve" style="enable-background:new 0 0 500 300"><style type="text/css">.graphics-4-0{clip-path:url(#SVGID_2_)}.graphics-4-1{fill:url(#SVGID_3_)}.graphics-4-2,.graphics-4-3{clip-path:url(#SVGID_2_);fill:url(#SVGID_4_);stroke:url(#SVGID_5_);stroke-width:20;stroke-miterlimit:10}.graphics-4-3{fill:url(#SVGID_6_);stroke:url(#SVGID_7_);stroke-width:19}</style><g><defs><rect id="SVGID_1_" width="500" height="300"/></defs><clipPath id="SVGID_2_"><use xlink:href="#SVGID_1_" style="overflow:visible"/></clipPath><g class="graphics-4-0"><linearGradient id="SVGID_3_" x1="29.433" x2="470.567" y1="-35.077" y2="335.077" gradientUnits="userSpaceOnUse"><stop offset="0" style="stop-color:#377dff"/><stop offset="1" style="stop-color:#47ddfc"/></linearGradient><rect width="500" height="300" class="graphics-4-1"/></g><linearGradient id="SVGID_4_" x1="470.421" x2="530.579" y1="320.087" y2="-21.087" gradientUnits="userSpaceOnUse"><stop offset="0" style="stop-color:#377dff"/><stop offset="1" style="stop-color:#47ddfc"/></linearGradient><linearGradient id="SVGID_5_" x1="303.633" x2="603.801" y1="-50.535" y2="159.645" gradientTransform="matrix(0.7071 0.7071 -0.7071 0.7071 218.2502 -209.9026)" gradientUnits="userSpaceOnUse"><stop offset="0" style="stop-color:#377dff"/><stop offset="1" style="stop-color:#47ddfc"/></linearGradient><path d="M489.7,320.7L329.3,160.3c-6-6-6-15.7,0-21.7L489.7-21.7c6-6,15.7-6,21.7,0l160.3,160.3c6,6,6,15.7,0,21.7 L511.3,320.7C505.4,326.6,495.6,326.6,489.7,320.7z" class="graphics-4-2"/><linearGradient id="SVGID_6_" x1="172.168" x2="212.832" y1="114.806" y2="-115.806" gradientUnits="userSpaceOnUse"><stop offset="0" style="stop-color:#377dff"/><stop offset="1" style="stop-color:#47ddfc"/></linearGradient><linearGradient id="SVGID_7_" x1="19.444" x2="240.28" y1="136.692" y2="195.865" gradientTransform="matrix(0.7071 0.7071 -0.7071 0.7071 218.2502 -209.9026)" gradientUnits="userSpaceOnUse"><stop offset="0" style="stop-color:#377dff"/><stop offset="1" style="stop-color:#47ddfc"/></linearGradient><path d="M181.7,113.7L78.3,10.3c-6-6-6-15.7,0-21.7l103.3-103.3c6-6,15.7-6,21.7,0L306.7-11.3c6,6,6,15.7,0,21.7 L203.3,113.7C197.4,119.6,187.6,119.6,181.7,113.7z" class="graphics-4-3"/></g></svg>