<svg xmlns="http://www.w3.org/2000/svg" xmlns:xlink="http://www.w3.org/1999/xlink" width="500" height="300" x="0" y="0" viewBox="0 0 500 300" xml:space="preserve" style="enable-background:new 0 0 500 300"><style type="text/css">.graphics-1-0{clip-path:url(#SVGID_2_);fill:#326cb2}.graphics-1-1,.graphics-1-2{opacity:.8;clip-path:url(#SVGID_2_);fill:#00eafc;enable-background:new}.graphics-1-2{opacity:.7;fill:none;stroke:#377dff;stroke-width:10;stroke-miterlimit:10}.graphics-1-3,.graphics-1-4{clip-path:url(#SVGID_2_);fill:#26bcb8}.graphics-1-4{opacity:.7;fill:#f4e800;enable-background:new}.graphics-1-5{opacity:.4;clip-path:url(#SVGID_2_)}.graphics-1-6{fill:#00eafc}.graphics-1-7,.graphics-1-8{opacity:.1;clip-path:url(#SVGID_2_);enable-background:new}.graphics-1-7{fill:none;stroke:#00eafc;stroke-width:3;stroke-miterlimit:10}.graphics-1-8{fill:#00eafc}</style><g><defs><rect id="SVGID_1_" width="500" height="300"/></defs><clipPath id="SVGID_2_"><use xlink:href="#SVGID_1_" style="overflow:visible"/></clipPath><rect width="500" height="300" class="graphics-1-0"/><circle cx="475" cy="66" r="52" class="graphics-1-1"/><circle cx="434.5" cy="39.5" r="15.5" class="graphics-1-2"/><circle cx="410" cy="11" r="3" class="graphics-1-3"/><path d="M435.9,26.4L435.9,26.4c-1.3-4.5,1.3-9.2,5.7-10.5l0,0c4.5-1.3,9.2,1.3,10.5,5.7l0,0c1.3,4.5-1.3,9.2-5.8,10.5 l0,0C441.9,33.5,437.2,30.9,435.9,26.4z" class="graphics-1-4"/><g class="graphics-1-5"><circle cx="358.8" cy="188.7" r="1.4" class="graphics-1-6"/><circle cx="389.3" cy="188.7" r="1.4" class="graphics-1-6"/><circle cx="419.9" cy="188.7" r="1.4" class="graphics-1-6"/><circle cx="450.5" cy="188.7" r="1.4" class="graphics-1-6"/><circle cx="481.1" cy="188.7" r="1.4" class="graphics-1-6"/><circle cx="481.1" cy="219.3" r="1.4" class="graphics-1-6"/><circle cx="511.6" cy="219.3" r="1.4" class="graphics-1-6"/><circle cx="511.6" cy="188.7" r="1.4" class="graphics-1-6"/><circle cx="358.8" cy="219.3" r="1.4" class="graphics-1-6"/><circle cx="389.3" cy="219.3" r="1.4" class="graphics-1-6"/><circle cx="419.9" cy="219.3" r="1.4" class="graphics-1-6"/><circle cx="450.5" cy="219.3" r="1.4" class="graphics-1-6"/><circle cx="358.8" cy="249.8" r="1.4" class="graphics-1-6"/><circle cx="389.3" cy="249.8" r="1.4" class="graphics-1-6"/><circle cx="419.9" cy="249.8" r="1.4" class="graphics-1-6"/><circle cx="450.5" cy="249.8" r="1.4" class="graphics-1-6"/><circle cx="481.1" cy="249.8" r="1.4" class="graphics-1-6"/><circle cx="511.6" cy="249.8" r="1.4" class="graphics-1-6"/><circle cx="358.8" cy="280.4" r="1.4" class="graphics-1-6"/><circle cx="389.3" cy="280.4" r="1.4" class="graphics-1-6"/><circle cx="419.9" cy="280.4" r="1.4" class="graphics-1-6"/><circle cx="450.5" cy="280.4" r="1.4" class="graphics-1-6"/><circle cx="481.1" cy="280.4" r="1.4" class="graphics-1-6"/><circle cx="511.6" cy="280.4" r="1.4" class="graphics-1-6"/><circle cx="358.8" cy="311" r="1.4" class="graphics-1-6"/><circle cx="389.3" cy="311" r="1.4" class="graphics-1-6"/><circle cx="419.9" cy="311" r="1.4" class="graphics-1-6"/><circle cx="450.5" cy="311" r="1.4" class="graphics-1-6"/><circle cx="481.1" cy="311" r="1.4" class="graphics-1-6"/><circle cx="511.6" cy="311" r="1.4" class="graphics-1-6"/><circle cx="358.8" cy="341.6" r="1.4" class="graphics-1-6"/><circle cx="389.3" cy="341.6" r="1.4" class="graphics-1-6"/><circle cx="419.9" cy="341.6" r="1.4" class="graphics-1-6"/><circle cx="450.5" cy="341.6" r="1.4" class="graphics-1-6"/><circle cx="481.1" cy="341.6" r="1.4" class="graphics-1-6"/><circle cx="511.6" cy="341.6" r="1.4" class="graphics-1-6"/></g><path id="phyton_1_" d="M164.3,56c-38,0-35.6,16.5-35.6,16.5v17.1H165v5.1h-50.6c0,0-24.3-2.8-24.3,35.6 c0,38.3,21.2,37,21.2,37H124v-17.8c0,0-0.7-21.2,20.9-21.2s36,0,36,0s20.2,0.3,20.2-19.5s0-32.8,0-32.8S204,56,164.3,56z M144.3,67.5c3.6,0,6.5,2.9,6.5,6.5s-2.9,6.5-6.5,6.5s-6.5-2.9-6.5-6.5S140.7,67.5,144.3,67.5z" class="graphics-1-7"/><path id="phyton" d="M165.4,204.8c38,0,35.6-16.5,35.6-16.5v-17.1h-36.2v-5.1h50.6c0,0,24.3,2.8,24.3-35.6 c0-38.3-21.2-37-21.2-37h-12.7v17.8c0,0,0.7,21.2-20.9,21.2s-36,0-36,0s-20.2-0.3-20.2,19.5s0,32.8,0,32.8S125.7,204.8,165.4,204.8 z M185.3,193.4c-3.6,0-6.5-2.9-6.5-6.5s2.9-6.5,6.5-6.5s6.5,2.9,6.5,6.5C191.9,190.5,188.9,193.4,185.3,193.4z" class="graphics-1-8"/></g></svg>