<svg xmlns="http://www.w3.org/2000/svg" xmlns:xlink="http://www.w3.org/1999/xlink" id="Layer_1" x="0" y="0" version="1.1" viewBox="0 0 443.4 456.2" xml:space="preserve" style="enable-background:new 0 0 443.4 456.2"><style type="text/css">.half-iphone-x-0,.half-iphone-x-1{clip-path:url(#SVGID_2_);fill:#fff;stroke:#e7eaf3;stroke-miterlimit:10}.half-iphone-x-1{fill:none;stroke:#f7f7f7;stroke-width:4}</style><g><defs><rect id="SVGID_1_" width="443.4" height="456.2"/></defs><clipPath id="SVGID_2_"><use xlink:href="#SVGID_1_" style="overflow:visible"/></clipPath><path d="M378.3,0H65.1C29.1,0,0,29.1,0,65.1v777.4c0,35.9,29.1,65.1,65.1,65.1h313.2c35.9,0,65.1-29.1,65.1-65.1V65.1 C443.4,29.1,414.2,0,378.3,0z M424.8,838.8c0,28-21.8,50.7-48.8,50.7H67.4c-26.9,0-48.8-22.7-48.8-50.7V73.6 c0-28,21.8-50.7,48.8-50.7h35.3c4,0,7.2,3.4,7.2,7.5c0,14.9,11.6,27,26,27h171.5c14.4,0.1,26-12,26-27c0-4.1,3.2-7.5,7.2-7.5H376 c26.9,0,48.8,22.7,48.8,50.7V838.8z" class="half-iphone-x-0"/><path d="M242.8,36.8h-46.4c-2,0-3.6-1.6-3.6-3.6l0,0c0-2,1.6-3.6,3.6-3.6h46.4c2,0,3.6,1.6,3.6,3.6l0,0 C246.4,35.2,244.8,36.8,242.8,36.8z" class="half-iphone-x-1"/><circle cx="269.5" cy="33.2" r="5.5" class="half-iphone-x-1"/></g></svg>