<svg xmlns="http://www.w3.org/2000/svg" xmlns:xlink="http://www.w3.org/1999/xlink" x="0" y="0" viewBox="0 0 999.1 577.5" xml:space="preserve" style="enable-background:new 0 0 999.1 577.5"><style type="text/css">.macbook-0{fill:#fff;stroke:#e7eaf3;stroke-miterlimit:10}.macbook-1{fill:#f7f7f7}.macbook-2{fill:#fff}.macbook-3{fill:#efefef}.macbook-4{fill:url(#macbookID1)}.macbook-5{fill:none;stroke:#e7eaf3;stroke-miterlimit:10}</style><path d="M881.3,577H117.5c-14.4,0-26.2-11.8-26.2-26.2V26.7c0-14.4,11.8-26.2,26.2-26.2h763.9	c14.4,0,26.2,11.8,26.2,26.2v524.2C907.5,565.2,895.7,577,881.3,577z" class="macbook-0"/><circle cx="498" cy="23.8" r="3" class="macbook-1"/><path d="M996.3,561.2H2.9c-1.5,0-2.8-1.3-2.8-2.8l0,0c0-1.5,1.3-2.8,2.8-2.8h993.4c1.5,0,2.8,1.3,2.8,2.8l0,0	C999.1,559.9,997.9,561.2,996.3,561.2z" class="macbook-2"/><path d="M499.6,563L0,561.2c0,0,24.1,11.3,117.8,15.8H498h3.1h380.2c93.7-4.5,117.8-15.8,117.8-15.8L499.6,563z" class="macbook-3"/><linearGradient id="macbookID1" x1="403.9" x2="595" y1="16.8" y2="16.8" gradientTransform="matrix(1 0 0 -1 0 576)" gradientUnits="userSpaceOnUse"><stop offset="0" style="stop-color:#f0f1f2"/><stop offset=".052" style="stop-color:#f6f7f8"/><stop offset=".171" style="stop-color:#fdfdfd"/><stop offset=".5" style="stop-color:#fff"/><stop offset=".829" style="stop-color:#fdfdfd"/><stop offset=".948" style="stop-color:#f6f7f8"/><stop offset="1" style="stop-color:#f0f1f2"/></linearGradient><path d="M591.4,562.7h-184c-1.9,0-3.5-1.6-3.5-3.5v-3.5H595v3.5C595,561.1,593.4,562.7,591.4,562.7z" class="macbook-4"/><g><image style="overflow:visible;enable-background:new" id="SVGmacbookImg1" width="1618" height="1010" transform="matrix(0.4651 0 0 0.4651 121.7472 37.9679)" xlink:href="../../img/1618x1010/img3.jpg"/><rect id="macbookID2" width="752.5" height="469.7" x="121.7" y="38" class="macbook-5"/></g></svg>