<svg xmlns="http://www.w3.org/2000/svg" xmlns:xlink="http://www.w3.org/1999/xlink" style="enable-background:new 0 0 384.2 152.8" x="0" y="0" viewBox="0 0 384.2 152.8" xml:space="preserve"><style type="text/css">.ai-creation-0{clip-path:url(#SVGID_2_)}.ai-creation-1{fill:url(#clothe-back-part_1_)}.ai-creation-2{fill:#2d208e}.ai-creation-3{fill:#ffc107}.ai-creation-4{fill:url(#left-collar-shadow_1_)}.ai-creation-5{fill:#2d1582}.ai-creation-6{fill:#efa02e}.ai-creation-7{fill:url(#SVGID_3_)}.ai-creation-8{fill:url(#aside_2_)}.ai-creation-9{fill:url(#SVGID_4_)}.ai-creation-10{fill:url(#right-collar-shadow_1_)}.ai-creation-11{fill:url(#left-sleeve_1_)}.ai-creation-12{opacity:.4}.ai-creation-13{fill:#1e2022}.ai-creation-14{fill:#19a0ff}.ai-creation-15{fill:url(#SVGID_5_)}.ai-creation-16{fill:url(#SVGID_6_)}.ai-creation-17{fill:#377dff}.ai-creation-18{fill:#33218e}.ai-creation-19{opacity:.15}.ai-creation-20{fill:#fff}.ai-creation-21{fill:#b2cbed}.ai-creation-22{fill:url(#SVGID_7_)}.ai-creation-23{opacity:.85;fill:#9fbee2;enable-background:new}.ai-creation-24{fill:url(#SVGID_8_)}.ai-creation-25{opacity:.5}.ai-creation-26{fill:none;stroke:#9fbee2;stroke-width:.6228;stroke-miterlimit:10}.ai-creation-27{opacity:.6}.ai-creation-28{fill:none;stroke:#62e0fa;stroke-width:.6228;stroke-miterlimit:10}.ai-creation-29{fill:#48c9fb}.ai-creation-30{fill:url(#gradient_1_)}.ai-creation-31{stroke:url(#_x35__2_)}.ai-creation-31,.ai-creation-32,.ai-creation-33{fill:none;stroke-width:.6228;stroke-miterlimit:10}.ai-creation-32{stroke:url(#_x34__2_)}.ai-creation-33{stroke:url(#_x33__1_)}.ai-creation-34{stroke:url(#_x32__1_)}.ai-creation-34,.ai-creation-35,.ai-creation-36,.ai-creation-37{fill:none;stroke-width:.6228;stroke-miterlimit:10}.ai-creation-35{stroke:url(#_x31__1_)}.ai-creation-36{stroke:url(#SVGID_9_)}.ai-creation-37{stroke:url(#SVGID_10_)}.ai-creation-38,.ai-creation-39{clip-path:url(#SVGID_2_);fill:#ffc107}.ai-creation-39{fill:url(#face-shadow_1_)}.ai-creation-40,.ai-creation-41{clip-path:url(#SVGID_2_);fill:#1e2022}.ai-creation-41{fill:#efa02e}.ai-creation-42,.ai-creation-43{clip-path:url(#SVGID_2_);fill:#62e0fa}.ai-creation-43{opacity:.3;fill:url(#clothe-bottom-shadow_1_);enable-background:new}.ai-creation-44{fill:url(#laptop-shadow_1_)}.ai-creation-44,.ai-creation-45,.ai-creation-46{opacity:.15;enable-background:new}.ai-creation-45{fill:url(#paper-shadow_1_)}.ai-creation-46{fill:url(#on-top-shadow_1_)}.ai-creation-47{fill:#9fbee2}.ai-creation-48{opacity:.5;fill:#9fbee2;enable-background:new}.ai-creation-49{fill:#e7eaf3}.ai-creation-50{fill:url(#body_1_)}.ai-creation-51{fill:#f8fafd}.ai-creation-52,.ai-creation-53{opacity:.3;fill:url(#shadow_1_);enable-background:new}.ai-creation-53{fill:url(#shadow_4_)}.ai-creation-54{fill:url(#back-shadow_1_)}.ai-creation-55{fill:url(#left-shadow_1_)}.ai-creation-56{fill:#3bc1ea}.ai-creation-57,.ai-creation-58{opacity:.3;fill:url(#shadow_5_);enable-background:new}.ai-creation-58{opacity:.15;fill:#377dff}.ai-creation-59{fill:#62e0fa}.ai-creation-60{fill:url(#top_1_)}.ai-creation-61{fill:url(#shadow_6_)}.ai-creation-62{opacity:.2;fill:#62e0fa;enable-background:new}.ai-creation-63{fill:#2b2f33}.ai-creation-64{opacity:.8}.ai-creation-65{opacity:.15;fill:#fff;enable-background:new}.ai-creation-66,.ai-creation-67{fill:none;stroke-width:.6228;stroke-linecap:round;stroke-miterlimit:10}.ai-creation-66{opacity:.33;stroke:#48c9fb;enable-background:new}.ai-creation-67{stroke:url(#chart_1_)}.ai-creation-68{fill:#de4437}.ai-creation-69{opacity:.3;fill:#1e2022;enable-background:new}.ai-creation-70,.ai-creation-71{opacity:.4;fill:#b2cbed;enable-background:new}.ai-creation-71{opacity:.15;fill:url(#shadow_7_)}.ai-creation-72{fill:#bbf5f9}.ai-creation-73,.ai-creation-74{opacity:.35;fill:#fff;enable-background:new}.ai-creation-74{opacity:.15;fill:url(#inner-shadow_1_)}.ai-creation-75{fill:#512dcf}.ai-creation-76{fill:url(#SVGID_11_)}.ai-creation-77{fill:#4431a3}.ai-creation-78{opacity:.1;fill:#fff;enable-background:new}</style><g><defs><rect id="SVGID_1_" width="383.7" height="152.8" x=".5"/></defs><clipPath id="SVGID_2_"><use style="overflow:visible" xlink:href="#SVGID_1_"/></clipPath><g id="woman" class="ai-creation-0"><linearGradient id="clothe-back-part_1_" x1="305.308" x2="311.014" y1="55.081" y2="55.081" gradientTransform="matrix(1 0 0 -1 0 154)" gradientUnits="userSpaceOnUse"><stop style="stop-color:#2d208e" offset=".299"/><stop style="stop-color:#2d1b88" offset=".534"/><stop style="stop-color:#2d1582" offset="1"/></linearGradient><path id="clothe-back-part" d="M310.3,84.9c0,0,1.5,12.8,0,19.6s-2.6,8.4-2.6,8.4l-2-1.1 C305.8,111.7,303,86.6,310.3,84.9z" class="ai-creation-1"/><path id="hair_5_" d="M293.9,57.5c0,0-2.2-3.6,2.5-5.3c0,0,3.7-3.1,7.8-0.6c4.1,2.5,0.4,7.9,0.4,7.9s-1-1.6-2.6,0.5 c-1.5,2.1-1.9-0.4-1.9-0.4s-4.6-0.7-4.3-3.1C295.8,56.5,294.4,56.9,293.9,57.5z"/><path id="clothe_1_" d="M305,99.8l0.7,0.5l1.7-11.2l-4.3-1.6l3.5-19.3l-5.7,2.7l-0.1-0.4c0,0-1.4,0.4-1.6-0.7 l-0.2,0.2l-0.2-0.9l0.6-2.2l-2.9,0.2c0,0-3.2-0.2-3.8,3.7c-0.6,4.1-1.9,14.4-1.4,20.7l-0.1,11.5l14.8,8.6l-0.5-11.7 C305.3,100,305.2,99.9,305,99.8z" class="ai-creation-2"/><path id="face_5_" d="M294.1,57.3C294.1,57.1,294.1,57.1,294.1,57.3c0.1-0.1,0.2-0.2,0.4-0.2c0.1-0.1,0.4-0.2,0.6-0.4 l0,0c0.4-0.1,0.6-0.2,1-0.2c0.4,0,0.6,0,1,0c0.2,0,0.6,0.1,0.9,0.2c0.2,0.1,0.5,0.2,0.7,0.4c0.2,0.1,0.4,0.2,0.6,0.4 c0.1,0.1,0.2,0.2,0.4,0.4l0.1,0.1c0,0,1,0.9,1.9,2.7c0.2-0.2,0.5-0.6,0.5-0.6l-0.1,1.9c0.1,0.4,0.2,0.7,0.2,1.1 c0.1,0.6,0,1.1-0.2,1.7c-0.2,0.5-0.5,0.9-1,1.2c-0.4,0.4-0.9,0.5-1.2,0.7c-0.4,0.1-0.7,0.2-1.2,0.4c-0.2,0.1-0.5,0.1-0.9,0.2 c-0.2,0.1-0.5,0.1-0.9,0.1c-0.2-0.1-0.6-0.4-0.6-0.6c0-0.1,0-0.1,0-0.2v-0.1c0.1-0.4,0-0.6,0-0.6c-0.7-0.4-0.4-0.9-0.4-0.9 s-0.5-0.1-0.2-0.5c0-0.1,0.1-0.2,0.1-0.4c0-0.1,0-0.1-0.1-0.1s-0.1,0-0.2,0s-0.1,0.1-0.2,0.1s-0.2,0-0.2,0c-0.1,0-0.1,0-0.2-0.1 c-0.1-0.1-0.1-0.2-0.1-0.2c0-0.1,0-0.2,0.1-0.4c0-0.1,0.1-0.2,0.1-0.2c0.1-0.2,0.1-0.4,0.1-0.6c0-0.1,0.1-0.2,0.1-0.5 c0-0.1,0.1-0.2,0.1-0.5c0-0.1,0-0.4,0-0.5s-0.1-0.4-0.2-0.5c-0.1,0-0.1-0.1-0.2-0.2c0-0.1-0.1-0.1-0.1-0.2 c-0.1-0.1-0.1-0.4-0.2-0.5c-0.1-0.4-0.1-0.7-0.1-1s0-0.5,0-0.6c0-0.1,0-0.2,0-0.4C294.1,57.4,294.1,57.3,294.1,57.3z" class="ai-creation-3"/><path id="hair_4_" d="M294.7,53c0,0,0,5.8,4,6.3c0,0-0.9,0.5-2.5-0.5c-1.6-1-2.7-3.6-2.7-3.6S293.6,53.7,294.7,53z"/><path id="hair_3_" d="M296.9,54.2c0,0-2.2,4,0.4,5.8c0,0-0.7,0-1.5-1.4c-0.7-1.4-0.5-3.5-0.5-3.5S295.9,54.2,296.9,54.2z"/><path id="hair_2_" d="M299.3,52.8c0,0-2.2,4,0.4,5.8c0,0-0.7,0-1.5-1.4c-0.7-1.4-0.5-3.5-0.5-3.5S298.3,52.8,299.3,52.8z"/><linearGradient id="left-collar-shadow_1_" x1="-1200.256" x2="-1199.603" y1="116.048" y2="116.425" gradientTransform="matrix(-0.9991 -4.335320e-02 4.335320e-02 -0.9991 -905.4094 134.3966)" gradientUnits="userSpaceOnUse"><stop style="stop-color:#2d208e;stop-opacity:0" offset="0"/><stop style="stop-color:#2a1e83;stop-opacity:6.789008e-02" offset=".136"/><stop style="stop-color:#201766;stop-opacity:.1871" offset=".374"/><stop style="stop-color:#110c36;stop-opacity:.3434" offset=".687"/><stop style="stop-color:#000;stop-opacity:.5" offset="1"/></linearGradient><path id="left-collar-shadow" d="M299.3,69.7l-0.6,1l-1,0.2C297.7,70.9,298.7,70,299.3,69.7z" class="ai-creation-4"/><path id="left-collar" d="M305.5,64.9l1.4,3.2l-4.8,4.3l-1.1-1.9C300.8,70.5,305.7,67.7,305.5,64.9z" class="ai-creation-5"/><path id="back-collar" d="M304.7,64.9c0,0,0.5-0.1,0.9,0.4c0,0,0.2,1.5-1,2.2L304.7,64.9z" class="ai-creation-2"/><path id="neck_1_" d="M298.3,63l2.7-0.4l-1-1.4l3.8-0.2l0.2,1.2l0.9,5c0,0-2.4,3.1-4.6,3.3c-2.2,0.1-0.9-2.6-0.9-2.6 L298.3,63z" class="ai-creation-3"/><path id="hair_6_" d="M302.9,58.3l1.6,0.4c0-0.1,0.1-0.1,0.1-0.2c1.1-3.1,0.9-5.1,0.9-5.1s4.2-2.4,3.6,3.7c0,0.5-0.2,1-0.2,1.5 c0,0.6,0,1.1,0.1,1.7c0.1,0.5,0.4,1.1,0.4,1.7c0.1,0.6,0,1.2-0.2,1.9c-0.2,1-0.7,2.1-1.7,2.6h-0.1c-0.9,0.4-1.7,0-2.6-0.4 c0,0-1.2-1.6-1.2-4l0,0L302.9,58.3z"/><path id="ear_3_" d="M302,59.7C302,59.6,302,59.6,302,59.7c0.1-0.2,0.2-0.5,0.5-0.6c0.2-0.2,0.5-0.4,0.9-0.2 c0.7,0.2,0.9,1,0.7,1.7c0,0.2-0.1,0.5-0.4,0.7c-0.1,0.1-0.2,0.2-0.2,0.2c-0.1,0-0.1,0.1-0.2,0.1s-0.1,0.1-0.2,0.2 c0,0.1-0.1,0.1-0.2,0.1c-0.1,0.1-0.4,0.1-0.5,0c-0.2-0.1-0.2-0.4-0.2-0.6c0-0.2,0-0.6,0-0.9C301.9,60.1,301.9,59.9,302,59.7z" class="ai-creation-6"/><path id="right-sleeve" d="M292.5,74c0,0-1.4,5.7-3.2,6.1c0,0-0.6,1.4,0.2,2.5c0.9,1.1,2-1.5,2-1.5L292.5,74z" class="ai-creation-5"/><g id="tablet"><g id="bottom_14_"><linearGradient id="SVGID_3_" x1="-1192.235" x2="-1181.148" y1="107.375" y2="107.375" gradientTransform="matrix(-0.9991 -4.335320e-02 4.335320e-02 -0.9991 -905.4094 134.3966)" gradientUnits="userSpaceOnUse"><stop style="stop-color:#fff" offset="0"/><stop style="stop-color:#c8dced" offset=".516"/><stop style="stop-color:#aecbe5" offset=".805"/></linearGradient><path d="M289.5,83.3c0.1,0.4,0.2,1.1,0.4,1.5l0.2,0.6c0.1,0.4,0,0.5-0.2,0.1l-9.8-10.3c-0.2-0.2-0.5-0.9-0.5-1.4 l0.1-2.1c0-0.4,0.2-0.5,0.5-0.2l8.4,9.5c0.2,0.4,0.6,0.9,0.7,1.4L289.5,83.3z" class="ai-creation-7"/></g><linearGradient id="aside_2_" x1="-1192.331" x2="-1181.237" y1="107.361" y2="107.361" gradientTransform="matrix(-0.9991 -4.335320e-02 4.335320e-02 -0.9991 -905.4094 134.3966)" gradientUnits="userSpaceOnUse"><stop style="stop-color:#fff" offset="0"/><stop style="stop-color:#c8dced" offset=".516"/><stop style="stop-color:#aecbe5" offset=".805"/></linearGradient><polygon id="aside_1_" points="279.9 71.5 279.7 71.8 290.1 85.7 290.2 85.3" class="ai-creation-8"/><g id="screen_7_"><linearGradient id="SVGID_4_" x1="-1192.407" x2="-1181.319" y1="107.628" y2="107.628" gradientTransform="matrix(-0.9991 -4.335320e-02 4.335320e-02 -0.9991 -905.4094 134.3966)" gradientUnits="userSpaceOnUse"><stop style="stop-color:#aecbe5" offset=".195"/><stop style="stop-color:#c8dced" offset=".484"/><stop style="stop-color:#fff" offset="1"/></linearGradient><path d="M289.6,83c0.1,0.4,0.2,1.1,0.4,1.5l0.2,0.6c0.1,0.4,0,0.5-0.2,0.1L280.2,75c-0.2-0.2-0.5-0.9-0.5-1.4 l0.1-2.1c0-0.4,0.2-0.5,0.5-0.2l8.4,9.5c0.2,0.4,0.6,0.9,0.7,1.4L289.6,83z" class="ai-creation-9"/></g></g><path id="right-hand_9_" d="M289.4,79.7c0.1,0,0.2,0.1,0.2,0.1c0-0.1,0.1-0.1,0.1-0.1c0.4,0,0.5,0.2,0.6,0.5 c0.7,0.4,1.7,1.2,3.2,3.2c0,0-1.2,1.4-1.9,1.7c0,0-3.6-1.2-4.7-3.6C286,79.1,288.4,79.3,289.4,79.7z" class="ai-creation-3"/><linearGradient id="right-collar-shadow_1_" x1="-1203.65" x2="-1201.954" y1="114.649" y2="115.628" gradientTransform="matrix(-0.9991 -4.335320e-02 4.335320e-02 -0.9991 -905.4094 134.3966)" gradientUnits="userSpaceOnUse"><stop style="stop-color:#2d208e;stop-opacity:0" offset="0"/><stop style="stop-color:#2a1e83;stop-opacity:6.789008e-02" offset=".136"/><stop style="stop-color:#201766;stop-opacity:.1871" offset=".374"/><stop style="stop-color:#110c36;stop-opacity:.3434" offset=".687"/><stop style="stop-color:#000;stop-opacity:.5" offset="1"/></linearGradient><polygon id="right-collar-shadow" points="301.9 72.5 300.8 70.5 301 71.5" class="ai-creation-10"/><linearGradient id="left-sleeve_1_" x1="-1215.913" x2="-1194.553" y1="110.735" y2="98.403" gradientTransform="matrix(-0.9991 -4.335320e-02 4.335320e-02 -0.9991 -905.4094 134.3966)" gradientUnits="userSpaceOnUse"><stop style="stop-color:#2d208e" offset=".299"/><stop style="stop-color:#2d1b88" offset=".534"/><stop style="stop-color:#2d1582" offset="1"/></linearGradient><path id="left-sleeve_2_" d="M306.7,68.2c0,0,4.6,2.4,5.3,4.1c0.7,1.7,2.4,8.6-1.2,12l-5.6,8.6c0,0-0.9,2.4-3.7,0.4 c-2.9-2-10.3-7.7-10.3-7.7s2.6-1.4,2.6-2.9l7.1,4.7L305,78L306.7,68.2z" class="ai-creation-11"/><path id="right-collar" d="M299.8,67.9c0,0-0.6,1.2-0.4,1.7l-1.6,1.2c0,0,0.5-2.6,1.4-4l0.4-0.1L299.8,67.9z" class="ai-creation-5"/><path id="left-hand_7_" d="M285,80.6c0,0-1.4-0.4-1.4-1.5L285,80.6z" class="ai-creation-3"/></g><g id="cubic-chair_1_" class="ai-creation-0"><g class="ai-creation-12"><path d="M31.8,143.6c-1.7-1-1.7-2.6,0-3.6l19.6-11.3c1.7-1,4.5-1,6.2,0L77.2,140c1.7,1,1.7,2.6,0,3.6l-19.6,11.3 c-1.7,1-4.5,1-6.2,0L31.8,143.6z" class="ai-creation-13"/></g><g><path d="M31.8,142.5c-1.7-1-1.7-2.6,0-3.6l19.6-11.3c1.7-1,4.5-1,6.2,0l19.6,11.3c1.7,1,1.7,2.6,0,3.6l-19.6,11.3 c-1.7,1-4.5,1-6.2,0L31.8,142.5z" class="ai-creation-14"/></g><polygon points="30.5 123 30.5 140.6 78.4 140.7 78.4 123" class="ai-creation-14"/><linearGradient id="SVGID_5_" x1="43" x2="78.4" y1="15.188" y2="15.188" gradientTransform="matrix(1 0 0 -1 0 154)" gradientUnits="userSpaceOnUse"><stop style="stop-color:#19a0ff;stop-opacity:0" offset="0"/><stop style="stop-color:#1a9afa;stop-opacity:.1383" offset=".039"/><stop style="stop-color:#1c8aeb;stop-opacity:.3199" offset=".089"/><stop style="stop-color:#206fd3;stop-opacity:.5255" offset=".147"/><stop style="stop-color:#2649b0;stop-opacity:.7488" offset=".209"/><stop style="stop-color:#2c1985;stop-opacity:.984" offset=".275"/><stop style="stop-color:#2d1582" offset=".28"/></linearGradient><path d="M78.4,123v17.7c0,0.6-0.3,1.2-0.9,1.5l-20,11.6c-1.9,1.1-4.2,1.1-6.1,0l-5.1-3L43,131.3l8.1,4.7 c2.1,1.2,4.7,1.2,6.7-0.1L78.4,123z" class="ai-creation-15"/><g><linearGradient id="SVGID_6_" x1="30.525" x2="78.425" y1="30.9" y2="30.9" gradientTransform="matrix(1 0 0 -1 0 154)" gradientUnits="userSpaceOnUse"><stop style="stop-color:#377dff" offset="0"/><stop style="stop-color:#345fdb" offset=".315"/><stop style="stop-color:#2d1582" offset="1"/></linearGradient><path d="M31.8,124.8c-1.7-1-1.7-2.6,0-3.6L51.4,110c1.7-1,4.5-1,6.2,0l19.6,11.3c1.7,1,1.7,2.6,0,3.6l-19.6,11.3 c-1.7,1-4.5,1-6.2,0L31.8,124.8z" class="ai-creation-16"/></g></g><g id="left-leg_5_" class="ai-creation-0"><path id="jeans-inner_1_" d="M76.2,149.6c0,0-4.1,1.7-6,1c0,0,2-2.9,4.9-2.6S76.2,149.6,76.2,149.6z" class="ai-creation-17"/><path id="left-shoe_2_" d="M71.1,154.7c0,0-2.9,3.6-1.6,5.4c0,0,0.6,1.9,0.6,4.9c0,0,0.9,1,1.7,0v-2.3 c0.3,0.5,0.5,1.1,0.8,1.6c0.1,0.3,0.3,0.6,0.4,0.8s0.2,0.4,0.3,0.6c0.1,0.3,0,0.5,0,0.8c0,0.2-0.1,0.5,0,0.7 c0,0.1,0.1,0.1,0.2,0.2c0.1,0.1,0.2,0.1,0.3,0.2c0.2,0.1,0.4,0.2,0.6,0.3c0.4,0.2,0.7,0.3,1.1,0.5c1.1,0.4,2.3,0.6,3.5,0.4 c0.3,0,0.6-0.1,1-0.2c0,0,1.3-1.2,0-2.2s-1.1-1.1-1.1-1.1s-4.4,1.8-5.5-0.9s-1-3.6-3.2-5.8c0,0-0.7-0.4-0.4-1.4 S71.1,154.7,71.1,154.7z" class="ai-creation-13"/><path id="leg_7_" d="M78.8,165.3c-0.1,0-0.4-0.3-0.4-0.3l-1.2-2.1c0,0-0.8-3.7-0.9-5.7c0,0,0.1-1.3-0.4-2.6 s0-6.6,0-6.6s-2.7-0.4-5.3,1.7l0.4,5c0,0-2.6,2.8-1.1,3.9c1.5,1.1,2.2,2.6,3.2,5.6c0.9,3,5.6,1.1,5.6,1.1S78.9,165.3,78.8,165.3z" class="ai-creation-3"/><path id="jeans_1_" d="M50.8,128.3l15.3,0.9c0,0,2.6,0.2,1.7,4.5c-0.4,1.7-0.3,3.5,0.1,5.2c0.2,0.9,0.4,1.7,0.7,2.6 c0.5,1.4,0.9,2.8,1,4.2c0.2,1.6,0.4,3.2,0.6,4.8l0.2-0.2c0.2-0.1,0.4-0.3,0.6-0.4c0.6-0.4,1.3-0.8,2-1.1s1.5-0.5,2.3-0.4 c0.2,0,0.5,0.1,0.7,0.3c0.2,0.1,0.4,0.2,0.4,0.5c0,0.1-0.1,0.2-0.1,0.2c0.4-0.1,0.6-0.5,0.7-0.9c0-0.3,0-0.6-0.1-0.8 c-0.3-1.2-0.3-2.5-0.4-3.7c-0.1-1.9-0.3-3.8-0.4-5.7c0-0.8-0.1-1.7-0.1-2.5c-0.1-1.1-0.1-2.2-0.4-3.2c-0.3-1.2-0.5-2.4-0.7-3.7 s-0.1-2.5,0-3.7c0-0.2,0-0.5,0-0.7c-0.1-0.5-0.3-1.1-0.6-1.6c-0.8-1.3-2.3-2-3.8-1.9c-1.2,0.1-2.3,0.5-3.4,1 C61,125.4,62,127.6,50.8,128.3z" class="ai-creation-18"/></g><g id="right-leg_5_" class="ai-creation-0"><path id="jeans-inner" d="M86.1,138.3c0.4-0.4,0.9-1.1-0.9-0.8c-2.5,0.5-4.8,3.6-4.8,3.7c0,0,0.6,0.6,4.5-2l0,0 c0,0,1.4-0.7,1.7-1.1C86.6,138,86.4,138.1,86.1,138.3z" class="ai-creation-17"/><path id="leg_6_" d="M80.4,140.7c0,0,2.4,3,2.5,5.1c0,0-2.2,2.5,0.4,3.7c2.5,1.2,4,4.6,4,4.6s4.9,4.8,7.6,0.1 c0,0-1.8,0.3-3.9-5s-6.5-11.4-6.5-11.4L80.4,140.7z" class="ai-creation-3"/><path id="jeans" d="M86,136.5c-0.6-0.6-1.1-1.5-1.5-2.3c-0.7-1.3-1.4-2.7-2-4.1c-1-2.2-2.1-4.5-2.9-6.8 c-0.4-1.1-0.7-2.3-1-3.5c-0.2-1.1-0.2-2.4-0.7-3.5c-0.3-0.7-1-1.2-1.7-1.5c-1.8-0.8-4-0.8-5.9-0.7c-0.6,0-1.2,0.1-1.9,0.1 c0,0-4,0.8-5.1-0.6c-1.2-1.4-17.4,1-17.4,1s-4.9,12.1,4.9,13.8c9.8,1.8,15.3-4.6,15.3-4.6c0.2-0.2,0.4-0.3,0.6-0.4 c0.5-0.3,1-0.6,1.5-0.8c1.4-0.6,3-0.7,4.2,0.2c2,1.4,1.7,3.7,2,5.8c0.1,0.9,0.3,1.8,0.7,2.7c0.6,1.8,1.4,3.5,2.3,5.1 c0.4,0.8,0.9,1.5,1.3,2.3c0.1,0.2,1.6,2.5,1.6,2.5s8.2-5.9,5.3-2.6l-0.3,0.3c0,0,0.8-0.4,0.9-0.5l0,0 C86.7,138.1,87.2,137.6,86,136.5z" class="ai-creation-5"/><path id="shoe_6_" d="M82.3,146.8c0,0-1.6,2.3,0,4.3c0,0,0.4,1.7,0.3,3.4c0,0,0.4,0.8,1.5,0.2V152 c0,0,1.7-0.2,3.8,4.5c0,0,4.3,2.2,8.4,0.7c0,0,2.6-1.5,0-2.5l-1.4-0.5c0,0-1.9,3.8-6.2,0.9c-0.3-0.2-0.5-0.4-0.7-0.6 c-0.2-0.2-0.5-0.5-0.7-0.8s-0.3-0.6-0.4-0.9c-0.4-0.9-1-1.6-1.6-2.3c-0.5-0.5-1.2-1.1-2-1.4C81.9,148.9,82.3,146.8,82.3,146.8z" class="ai-creation-13"/></g><g id="cube" class="ai-creation-0"><g id="table_1_"><g id="table-4-shadow" class="ai-creation-19"><path d="M4.5,173.8c-5.9-3.4-5.9-9,0-12.5L180.7,59.6c5.9-3.4,15.6-3.4,21.6,0l176.3,101.8c5.9,3.4,5.9,9,0,12.5 L202.3,275.6c-5.9,3.4-15.6,3.4-21.6,0L4.5,173.8z" class="ai-creation-13"/></g><g id="table-4_1_"><path d="M4.9,161.6c-5.9-3.4-5.9-9,0-12.5L181.1,47.4c5.9-3.4,15.6-3.4,21.6,0L379,149.2c5.9,3.4,5.9,9,0,12.5 L202.7,263.4c-5.9,3.4-15.6,3.4-21.6,0L4.9,161.6z" class="ai-creation-20"/></g><g id="table-4" class="ai-creation-12"><path d="M4.9,161.6c-5.9-3.4-5.9-9,0-12.5L181.1,47.4c5.9-3.4,15.6-3.4,21.6,0L379,149.2c5.9,3.4,5.9,9,0,12.5 L202.7,263.4c-5.9,3.4-15.6,3.4-21.6,0L4.9,161.6z" class="ai-creation-21"/></g><g id="table-3-shadow"><linearGradient id="SVGID_7_" x1="191.5" x2="191.5" y1="87.85" y2="-77.55" gradientTransform="matrix(1 0 0 -1 0 154)" gradientUnits="userSpaceOnUse"><stop style="stop-color:#b2cbed;stop-opacity:.4" offset="0"/><stop style="stop-color:#b0caec;stop-opacity:.4436" offset=".048"/><stop style="stop-color:#9fbee2" offset=".656"/></linearGradient><path d="M52.6,155.1c-5.9-3.4-5.9-9,0-12.5l128.1-73.9c5.9-3.4,15.6-3.4,21.6,0l128.1,73.9c5.9,3.4,5.9,9,0,12.5 L202.3,229c-5.9,3.4-15.6,3.4-21.6,0L52.6,155.1z" class="ai-creation-22"/></g><path d="M334.8,148.9v7.8l-1.6-3.9C333.2,152.9,334.9,151.2,334.8,148.9z" class="ai-creation-23"/><path d="M48.2,149v7.7l1.6-3.9C49.8,152.9,48.2,151.3,48.2,149z" class="ai-creation-23"/><g id="table-3"><linearGradient id="SVGID_8_" x1="48.175" x2="334.825" y1="-2.85" y2="-2.85" gradientTransform="matrix(1 0 0 -1 0 154)" gradientUnits="userSpaceOnUse"><stop style="stop-color:#512dcf" offset="0"/><stop style="stop-color:#4d2ac6" offset=".205"/><stop style="stop-color:#4123ae" offset=".539"/><stop style="stop-color:#2f1686" offset=".958"/><stop style="stop-color:#2d1582" offset="1"/></linearGradient><path d="M52.6,163.1c-5.9-3.4-5.9-9,0-12.5l128.1-73.9c5.9-3.4,15.6-3.4,21.6,0l128.1,73.9c5.9,3.4,5.9,9,0,12.5 L202.3,237c-5.9,3.4-15.6,3.4-21.6,0L52.6,163.1z" class="ai-creation-24"/></g><g id="table-line-2" class="ai-creation-25"><path d="M26.8,160.7c-5.9-3.4-5.9-9,0-12.5l153.9-88.8c5.9-3.4,15.6-3.4,21.6,0l153.9,88.8c5.9,3.4,5.9,9,0,12.5 l-153.9,88.8c-5.9,3.4-15.6,3.4-21.6,0L26.8,160.7z" class="ai-creation-26"/></g><g id="table-line-1" class="ai-creation-27"><path d="M130.5,160.7c-5.9-3.4-5.9-9,0-12.5l50.2-29c5.9-3.4,15.6-3.4,21.6,0l50.2,29c5.9,3.4,5.9,9,0,12.5 l-50.2,29c-5.9,3.4-15.6,3.4-21.6,0L130.5,160.7z" class="ai-creation-28"/></g><g id="table-2"><path d="M130.5,143.9c-5.9-3.4-5.9-9,0-12.5l50.2-29c5.9-3.4,15.6-3.4,21.6,0l50.2,29c5.9,3.4,5.9,9,0,12.5 l-50.2,29c-5.9,3.4-15.6,3.4-21.6,0L130.5,143.9z" class="ai-creation-20"/></g><g id="table-1-shadow" class="ai-creation-19"><path d="M130.5,127.1c-5.9-3.4-5.9-9,0-12.5l50.2-29c5.9-3.4,15.6-3.4,21.6,0l50.2,29c5.9,3.4,5.9,9,0,12.5 l-50.2,29c-5.9,3.4-15.6,3.4-21.6,0L130.5,127.1z" class="ai-creation-17"/></g><g id="table-1"><path d="M130.5,110.3c-5.9-3.4-5.9-9,0-12.5l50.2-29c5.9-3.4,15.6-3.4,21.6,0l50.2,29c5.9,3.4,5.9,9,0,12.5 l-50.2,29c-5.9,3.4-15.6,3.4-21.6,0L130.5,110.3z" class="ai-creation-29"/></g></g><linearGradient id="gradient_1_" x1="191.9" x2="191.9" y1="50.4" y2="154" gradientTransform="matrix(1 0 0 -1 0 154)" gradientUnits="userSpaceOnUse"><stop style="stop-color:#48c9fb;stop-opacity:.6" offset=".19"/><stop style="stop-color:#43d2f5;stop-opacity:.4895" offset=".339"/><stop style="stop-color:#3fdbef;stop-opacity:.282" offset=".619"/><stop style="stop-color:#3ddeed;stop-opacity:0" offset="1"/></linearGradient><rect id="gradient" width="130.4" height="103.6" x="126.7" class="ai-creation-30"/><g id="lines"><linearGradient id="_x35__2_" x1="-412.182" x2="-412.182" y1="419.725" y2="460.925" gradientTransform="matrix(-1 0 0 1 -167.4824 -403.5247)" gradientUnits="userSpaceOnUse"><stop style="stop-color:#48c9fb;stop-opacity:.6" offset=".19"/><stop style="stop-color:#43d2f5;stop-opacity:.4895" offset=".339"/><stop style="stop-color:#3fdbef;stop-opacity:.282" offset=".619"/><stop style="stop-color:#3ddeed;stop-opacity:0" offset="1"/></linearGradient><line id="_x35__1_" x1="244.7" x2="244.7" y1="57.4" y2="16.2" class="ai-creation-31"/><linearGradient id="_x34__2_" x1="-356.182" x2="-356.182" y1="436.57" y2="477.769" gradientTransform="matrix(-1 0 0 1 -167.4824 -403.5247)" gradientUnits="userSpaceOnUse"><stop style="stop-color:#48c9fb;stop-opacity:.6" offset=".19"/><stop style="stop-color:#43d2f5;stop-opacity:.4895" offset=".339"/><stop style="stop-color:#3fdbef;stop-opacity:.282" offset=".619"/><stop style="stop-color:#3ddeed;stop-opacity:0" offset="1"/></linearGradient><line id="_x34__1_" x1="188.7" x2="188.7" y1="74.2" y2="33" class="ai-creation-32"/><linearGradient id="_x33__1_" x1="-311.282" x2="-311.282" y1="436.57" y2="477.769" gradientTransform="matrix(-1 0 0 1 -167.4824 -403.5247)" gradientUnits="userSpaceOnUse"><stop style="stop-color:#48c9fb;stop-opacity:.6" offset=".19"/><stop style="stop-color:#43d2f5;stop-opacity:.4895" offset=".339"/><stop style="stop-color:#3fdbef;stop-opacity:.282" offset=".619"/><stop style="stop-color:#3ddeed;stop-opacity:0" offset="1"/></linearGradient><line id="_x33__2_" x1="143.8" x2="143.8" y1="74.2" y2="33" class="ai-creation-33"/><linearGradient id="_x32__1_" x1="-389.782" x2="-389.782" y1="453.425" y2="494.625" gradientTransform="matrix(-1 0 0 1 -167.4824 -403.5247)" gradientUnits="userSpaceOnUse"><stop style="stop-color:#48c9fb;stop-opacity:.6" offset=".19"/><stop style="stop-color:#43d2f5;stop-opacity:.4895" offset=".339"/><stop style="stop-color:#3fdbef;stop-opacity:.282" offset=".619"/><stop style="stop-color:#3ddeed;stop-opacity:0" offset="1"/></linearGradient><line id="_x32__2_" x1="222.3" x2="222.3" y1="91.1" y2="49.9" class="ai-creation-34"/><linearGradient id="_x31__1_" x1="-305.482" x2="-305.482" y1="479.325" y2="520.525" gradientTransform="matrix(-1 0 0 1 -167.4824 -403.5247)" gradientUnits="userSpaceOnUse"><stop style="stop-color:#48c9fb;stop-opacity:.6" offset=".19"/><stop style="stop-color:#43d2f5;stop-opacity:.4895" offset=".339"/><stop style="stop-color:#3fdbef;stop-opacity:.282" offset=".619"/><stop style="stop-color:#3ddeed;stop-opacity:0" offset="1"/></linearGradient><line id="_x31__2_" x1="138" x2="138" y1="117" y2="75.8" class="ai-creation-35"/></g><g id="gradient-lines"><g id="_x32__3_"><linearGradient id="SVGID_9_" x1="191.6" x2="191.6" y1="30.439" y2="114.261" gradientTransform="matrix(1 0 0 -1 0 154)" gradientUnits="userSpaceOnUse"><stop style="stop-color:#62e0fa;stop-opacity:.6" offset=".19"/><stop style="stop-color:#54dff5;stop-opacity:.4436" offset=".401"/><stop style="stop-color:#43deef;stop-opacity:.1898" offset=".744"/><stop style="stop-color:#3ddeed;stop-opacity:0" offset="1"/></linearGradient><path d="M123.9,87.9c-5.9-3.4-5.9-9,0-12.5l56.9-32.8c5.9-3.4,15.6-3.4,21.6,0l56.9,32.8c5.9,3.4,5.9,9,0,12.5 l-56.9,32.8c-5.9,3.4-15.6,3.4-21.6,0L123.9,87.9z" class="ai-creation-36"/></g><g id="_x31__3_"><linearGradient id="SVGID_10_" x1="191.55" x2="191.55" y1="52.839" y2="136.761" gradientTransform="matrix(1 0 0 -1 0 154)" gradientUnits="userSpaceOnUse"><stop style="stop-color:#62e0fa;stop-opacity:.6" offset=".19"/><stop style="stop-color:#54dff5;stop-opacity:.4436" offset=".401"/><stop style="stop-color:#43deef;stop-opacity:.1898" offset=".744"/><stop style="stop-color:#3ddeed;stop-opacity:0" offset="1"/></linearGradient><path d="M123.9,65.4c-5.9-3.4-5.9-9,0-12.5l56.9-32.8c5.9-3.4,15.6-3.4,21.6,0L259.2,53c5.9,3.4,5.9,9,0,12.5 l-56.9,32.8c-5.9,3.4-15.6,3.4-21.6,0L123.9,65.4z" class="ai-creation-37"/></g></g></g><path id="face_7_" d="M57.1,84.5c0,0,2.5-2.1,3.5-4.7s-1.5-11.1,7.8-10.6c0,0,7.9,2.6,5.8,9.8c0,0-0.1,0.1-0.2,0.1 c-0.1,0.1-0.2,0.3-0.3,0.4c-0.2,0.3-0.3,0.6-0.4,0.9s0,0.7,0.1,1s0.1,0.7,0.2,1c0,0.2,0.1,0.4,0.1,0.6c0,0.3-0.3,0.3-0.5,0.3 s-0.4,0.1-0.6,0.1s-0.4,0.1-0.6,0.2c-0.2,0.2-0.3,0.4-0.4,0.7c-0.2,0.4-0.4,0.8-0.6,1.1c-0.2,0.3-0.4,0.7-0.7,0.9 c-0.6,0.2-3.3-0.8-3.3-0.8s-2.3-0.9-3.5,3.2C62.3,93,53.6,87.8,57.1,84.5z" class="ai-creation-38"/><linearGradient id="face-shadow_1_" x1="56.275" x2="74.555" y1="74.246" y2="74.246" gradientTransform="matrix(1 0 0 -1 0 154)" gradientUnits="userSpaceOnUse"><stop style="stop-color:#efa02e;stop-opacity:0" offset="0"/><stop style="stop-color:#e6972f;stop-opacity:2.558833e-02" offset=".085"/><stop style="stop-color:#be7332;stop-opacity:.1457" offset=".486"/><stop style="stop-color:#a65d34;stop-opacity:.2413" offset=".804"/><stop style="stop-color:#9d5535;stop-opacity:.3" offset="1"/></linearGradient><path id="face-shadow" d="M57.1,84.5c0,0,2.5-2.1,3.5-4.7s-1.5-11.1,7.8-10.6c0,0,7.9,2.6,5.8,9.8 c0,0-0.1,0.1-0.2,0.1c-0.1,0.1-0.2,0.3-0.3,0.4c-0.2,0.3-0.3,0.6-0.4,0.9s0,0.7,0.1,1s0.1,0.7,0.2,1c0,0.2,0.1,0.4,0.1,0.6 c0,0.3-0.3,0.3-0.5,0.3s-0.4,0.1-0.6,0.1s-0.4,0.1-0.6,0.2c-0.2,0.2-0.3,0.4-0.4,0.7c-0.2,0.4-0.4,0.8-0.6,1.1 c-0.2,0.3-0.4,0.7-0.7,0.9c-0.6,0.2-3.3-0.8-3.3-0.8s-2.3-0.9-3.5,3.2C62.3,93,53.6,87.8,57.1,84.5z" class="ai-creation-39"/><path id="hair_15_" d="M66.8,68c-3.9-0.1-6.1,1.1-7.4,2.8c-1.2-0.3-1.7-0.1-1.7-0.1s-2.2,0.1-2.2,3.2 c0,1.1,0.7,2.1,1.5,2.8c-2.8,0.6-4.3,4.9,0.5,6.8C62.9,85.6,63,81,63,81c0.1-0.3,0.3-0.5,0.5-0.8c0.3-0.2,0.5-0.4,0.6-1 c0.7-1.1,1.5-1.9,2.3-2.4c0.1,0,0.1,0.1,0.1,0.1s1.5,4.6,2.5,1.8c1-2.8,3.8-1.6,3.8-1.6s-0.2-0.4-0.4-0.9c1.3,0.5,2.2,1.2,2.2,1.2 S77.4,68.3,66.8,68z" class="ai-creation-40"/><path id="ear_2_" d="M66.4,76.6c0,0-2.1-1.3-1.6,2.1c0,0,0.4,1.8,1.6,0.2C67.7,77.2,66.4,76.6,66.4,76.6z" class="ai-creation-41"/><path id="clothe-bottom" d="M55,113.6c0,0,7.5,2,9-1.1s1.6-4.9,1.6-4.9L55,113.6z" class="ai-creation-42"/><linearGradient id="clothe-bottom-shadow_1_" x1="54.982" x2="65.582" y1="43.083" y2="43.083" gradientTransform="matrix(1 0 0 -1 0 154)" gradientUnits="userSpaceOnUse"><stop style="stop-color:#fff;stop-opacity:0" offset="0"/><stop style="stop-color:#e7e8e8;stop-opacity:2.374744e-02" offset=".076"/><stop style="stop-color:#7c7d7e;stop-opacity:.1361" offset=".437"/><stop style="stop-color:#383a3c;stop-opacity:.2138" offset=".687"/><stop style="stop-color:#1e2022;stop-opacity:.25" offset=".804"/></linearGradient><path id="clothe-bottom-shadow" d="M55,113.6c0,0,7.5,2,9-1.1s1.6-4.9,1.6-4.9L55,113.6z" class="ai-creation-43"/><g id="laptop_2_" class="ai-creation-0"><linearGradient id="laptop-shadow_1_" x1="-1272.868" x2="-1279.535" y1="36.6" y2="54.918" gradientTransform="matrix(-1 0 0 -1 -1173.9462 154)" gradientUnits="userSpaceOnUse"><stop style="stop-color:#2d1582" offset="0"/><stop style="stop-color:#62e0fa;stop-opacity:0" offset="1"/></linearGradient><polygon id="laptop-shadow" points="95.9 116.3 115.5 107.6 94.1 94.9" class="ai-creation-44"/><linearGradient id="paper-shadow_1_" x1="104.79" x2="125.396" y1="64.1" y2="64.1" gradientTransform="matrix(1 0 0 -1 0 154)" gradientUnits="userSpaceOnUse"><stop style="stop-color:#fff;stop-opacity:0" offset="0"/><stop style="stop-color:#2d1582" offset="1"/></linearGradient><path id="paper-shadow" d="M116.1,83.7L105,90.2c0,0-0.6,1,1,1.8c0.1,0,0.2,0.1,0.2,0.1c0.1,0,0.2,0.1,0.3,0.1 c0.1,0.1,0.2,0.1,0.3,0.2c0.1,0.1,0.2,0.1,0.4,0.2c0.1,0.1,0.3,0.1,0.4,0.2s0.3,0.1,0.4,0.2s0.3,0.2,0.4,0.2 c0.1,0.1,0.3,0.2,0.4,0.2c0.2,0.1,0.3,0.2,0.5,0.2c0.2,0.1,0.3,0.2,0.5,0.2c0.2,0.1,0.3,0.2,0.5,0.2c0.1,0.1,0.3,0.2,0.4,0.2 c0.1,0.1,0.3,0.2,0.4,0.2c0.1,0.1,0.3,0.1,0.4,0.2s0.3,0.1,0.4,0.2s0.2,0.1,0.4,0.2c0.1,0.1,0.2,0.1,0.3,0.2 c0.1,0.1,0.2,0.1,0.3,0.2c0.1,0.1,0.2,0.1,0.3,0.2c0.1,0.1,0.2,0.1,0.3,0.2c0.1,0,0.1,0.1,0.2,0.1s0.2,0.1,0.2,0.1 c0.1,0,0.2,0,0.3,0.1c0.1,0,0.2,0,0.3,0c0.1,0,0.2,0,0.3,0c0.1,0,0.2,0,0.4,0c0.1,0,0.3,0,0.4-0.1c0.1,0,0.3-0.1,0.4-0.1 c0.2,0,0.3-0.1,0.5-0.1c0.2-0.1,0.3-0.1,0.5-0.2s0.4-0.2,0.5-0.2c0.2-0.1,0.4-0.2,0.6-0.3c0.2-0.1,0.4-0.2,0.6-0.3 c0.2-0.1,0.4-0.2,0.6-0.4c6.4-4.1,6.3-5.1,6.3-5.1L116.1,83.7z" class="ai-creation-45"/><path id="paper_3_" d="M116.1,83.3L105,89.8c0,0-0.6,1,1,1.8c0.1,0,0.2,0.1,0.2,0.1c0.1,0,0.2,0.1,0.3,0.1 c0.1,0.1,0.2,0.1,0.3,0.2c0.1,0.1,0.2,0.1,0.4,0.2c0.1,0.1,0.3,0.1,0.4,0.2s0.3,0.1,0.4,0.2s0.3,0.2,0.4,0.2 c0.1,0.1,0.3,0.2,0.4,0.2c0.2,0.1,0.3,0.2,0.5,0.2c0.2,0.1,0.3,0.2,0.5,0.2c0.2,0.1,0.3,0.2,0.5,0.2c0.1,0.1,0.3,0.2,0.4,0.2 c0.1,0.1,0.3,0.2,0.4,0.2c0.1,0.1,0.3,0.1,0.4,0.2s0.3,0.1,0.4,0.2s0.2,0.1,0.4,0.2c0.1,0.1,0.2,0.1,0.3,0.2 c0.1,0.1,0.2,0.1,0.3,0.2c0.1,0.1,0.2,0.1,0.3,0.2c0.1,0.1,0.2,0.1,0.3,0.2c0.1,0,0.1,0.1,0.2,0.1s0.2,0.1,0.2,0.1 c0.1,0,0.2,0,0.3,0.1c0.1,0,0.2,0,0.3,0c0.1,0,0.2,0,0.3,0c0.1,0,0.2,0,0.4,0c0.1,0,0.3,0,0.4-0.1c0.1,0,0.3-0.1,0.4-0.1 c0.2,0,0.3-0.1,0.5-0.1c0.2-0.1,0.3-0.1,0.5-0.2s0.4-0.2,0.5-0.2c0.2-0.1,0.4-0.2,0.6-0.3c0.2-0.1,0.4-0.2,0.6-0.3 c0.2-0.1,0.4-0.2,0.6-0.4c6.4-4.1,6.3-5.1,6.3-5.1L116.1,83.3z" class="ai-creation-20"/><linearGradient id="on-top-shadow_1_" x1="104.79" x2="125.396" y1="64.5" y2="64.5" gradientTransform="matrix(1 0 0 -1 0 154)" gradientUnits="userSpaceOnUse"><stop style="stop-color:#fff;stop-opacity:0" offset="0"/><stop style="stop-color:#377dff;stop-opacity:.7" offset="1"/></linearGradient><path id="on-top-shadow" d="M116.1,83.3L105,89.8c0,0-0.6,1,1,1.8c0.1,0,0.2,0.1,0.2,0.1c0.1,0,0.2,0.1,0.3,0.1 c0.1,0.1,0.2,0.1,0.3,0.2c0.1,0.1,0.2,0.1,0.4,0.2c0.1,0.1,0.3,0.1,0.4,0.2s0.3,0.1,0.4,0.2s0.3,0.2,0.4,0.2 c0.1,0.1,0.3,0.2,0.4,0.2c0.2,0.1,0.3,0.2,0.5,0.2c0.2,0.1,0.3,0.2,0.5,0.2c0.2,0.1,0.3,0.2,0.5,0.2c0.1,0.1,0.3,0.2,0.4,0.2 c0.1,0.1,0.3,0.2,0.4,0.2c0.1,0.1,0.3,0.1,0.4,0.2s0.3,0.1,0.4,0.2s0.2,0.1,0.4,0.2c0.1,0.1,0.2,0.1,0.3,0.2 c0.1,0.1,0.2,0.1,0.3,0.2c0.1,0.1,0.2,0.1,0.3,0.2c0.1,0.1,0.2,0.1,0.3,0.2c0.1,0,0.1,0.1,0.2,0.1s0.2,0.1,0.2,0.1 c0.1,0,0.2,0,0.3,0.1c0.1,0,0.2,0,0.3,0c0.1,0,0.2,0,0.3,0c0.1,0,0.2,0,0.4,0c0.1,0,0.3,0,0.4-0.1c0.1,0,0.3-0.1,0.4-0.1 c0.2,0,0.3-0.1,0.5-0.1c0.2-0.1,0.3-0.1,0.5-0.2s0.4-0.2,0.5-0.2c0.2-0.1,0.4-0.2,0.6-0.3c0.2-0.1,0.4-0.2,0.6-0.3 c0.2-0.1,0.4-0.2,0.6-0.4c6.4-4.1,6.3-5.1,6.3-5.1L116.1,83.3z" class="ai-creation-46"/><g id="checkbox_11_"><g id="checkbox_13_" class="ai-creation-25"><path d="M114.6,88.2C114.7,88.2,114.7,88.1,114.6,88.2l-0.9-0.6c-0.1,0-0.2,0-0.3,0l-1.1,0.6c-0.1,0-0.1,0.1,0,0.1 l0.9,0.5c0.1,0,0.2,0,0.3,0L114.6,88.2z" class="ai-creation-47"/></g><path id="lines_13_" d="M118.5,91.5l-4.1-2.4c-0.1,0-0.2,0-0.3,0l0,0c-0.1,0.1-0.1,0.1,0,0.2l4.1,2.4 c0.1,0,0.2,0,0.3,0l0,0C118.5,91.6,118.5,91.5,118.5,91.5z" class="ai-creation-48"/><path id="lines_12_" d="M116.7,89.5l-1.5-0.8c-0.1,0-0.2,0-0.3,0l0,0c-0.1,0.1-0.1,0.1,0,0.2l1.5,0.8 c0.1,0,0.2,0,0.3,0l0,0C116.7,89.6,116.7,89.5,116.7,89.5z" class="ai-creation-48"/><path id="check_5_" d="M113.8,87.9h-0.9c-0.1,0-0.2,0.1-0.2,0.1v0.1c0,0.1,0.1,0.1,0.2,0.1h0.5c0.1,0,0.2,0,0.2,0.1 l-0.1,1.1c0,0.1,0.1,0.1,0.2,0.1h0.1c0.1,0,0.2-0.1,0.2-0.1l0-1.4C114,88,113.9,87.9,113.8,87.9z" class="ai-creation-17"/></g><g id="checkbox_15_"><g id="checkbox_16_" class="ai-creation-25"><path d="M111.3,90.2C111.4,90.2,111.4,90.1,111.3,90.2l-0.9-0.6c-0.1,0-0.2,0-0.3,0l-1.1,0.6c-0.1,0-0.1,0.1,0,0.1 l0.9,0.5c0.1,0,0.2,0,0.3,0L111.3,90.2z" class="ai-creation-47"/></g><path id="lines_15_" d="M115.1,93.5l-4.1-2.4c-0.1,0-0.2,0-0.3,0l0,0c-0.1,0.1-0.1,0.1,0,0.2l4.1,2.4 c0.1,0,0.2,0,0.3,0l0,0C115.2,93.6,115.2,93.5,115.1,93.5z" class="ai-creation-48"/><path id="lines_14_" d="M113.3,91.5l-1.5-0.8c-0.1,0-0.2,0-0.3,0l0,0c-0.1,0.1-0.1,0.1,0,0.2l1.5,0.8 c0.1,0,0.2,0,0.3,0l0,0C113.4,91.6,113.4,91.5,113.3,91.5z" class="ai-creation-48"/><path id="check_6_" d="M110.5,89.9h-0.9c-0.1,0-0.2,0.1-0.2,0.1v0.1c0,0.1,0.1,0.1,0.2,0.1h0.5c0.1,0,0.2,0,0.2,0.1 l-0.1,1.1c0,0.1,0.1,0.1,0.2,0.1h0.1c0.1,0,0.2-0.1,0.2-0.1l0.2-1.3C110.7,90,110.6,89.9,110.5,89.9z" class="ai-creation-17"/></g><path id="paper-back-part" d="M114.7,84.3c-0.2-0.5-0.4-1-0.8-1.5s-0.9-1-1.5-1.3c-0.1,0-0.1-0.1-0.2-0.1 c-5.4-3.2-8.5-4.9-8.5-4.9c0.1,0,0.1,0.1,0.2,0.2c0.2,0.2,0.3,0.3,0.5,0.5c0.2,0.3,0.5,0.5,0.7,0.8c0.3,0.4,0.5,0.7,0.7,1.1 s0.4,0.9,0.5,1.4s0.2,1.1,0.3,1.7c0,0.6,0,1.3-0.2,1.9c-0.2,0.7-0.4,1.5-0.8,2.2c-0.6,1.2-1.8,2.4-1.3,3.8 c0.2,0.7,0.7,1.2,1.3,1.5c0,0,0.1,0,0.1,0.1c0.5,0.3,1,0.5,1.5,0.8c1,0.5,2,1.1,3,1.6s2,1.1,3,1.6c-0.6-0.3-1-1.2-1.1-1.8 c-0.1-0.8,0.2-1.6,0.5-2.3c0.4-0.7,0.8-1.3,1.2-2c0.4-0.6,0.6-1.4,0.8-2.1c0.1-0.5,0.2-1,0.2-1.5 C114.9,85.3,114.8,84.8,114.7,84.3z" class="ai-creation-49"/><g id="top-body"><path id="back_4_" d="M91,79.5c0.4-0.1,1.1,0.3,1.1,0.3l17.4,10c0.2,0.1,0.3,0.3,0.3,0.5l0.1,16.9l0,0l0,0 c0,0,0,0.7-0.5,0.9l-0.1-0.9l0,0l-17-9.8c-0.2-0.1-0.3-0.3-0.3-0.5L91.8,80l0,0L91,79.5z" class="ai-creation-49"/><path id="body_30_" d="M91.1,97.8l17.9,10.4c0.2,0.1,0.3,0,0.3-0.2V90.4c0-0.2-0.1-0.4-0.3-0.5L91.1,79.5 c-0.2-0.1-0.3,0-0.3,0.2v17.6C90.9,97.5,91,97.7,91.1,97.8z" class="ai-creation-20"/></g><g id="screen_4_"><path id="shadow_86_" d="M91.7,97.5l16.8,9.7c0.1,0.1,0.3,0,0.3-0.2V90.6c0-0.2-0.1-0.4-0.3-0.5l-16.8-9.7 c-0.1-0.1-0.3,0-0.3,0.2v16.5C91.4,97.2,91.6,97.4,91.7,97.5z" class="ai-creation-49"/><linearGradient id="body_1_" x1="-1282.022" x2="-1265.477" y1="60.8" y2="60.8" gradientTransform="matrix(-1 0 0 -1 -1173.9462 154)" gradientUnits="userSpaceOnUse"><stop style="stop-color:#377dff" offset="0"/><stop style="stop-color:#3fa1fd" offset=".499"/><stop style="stop-color:#48c9fb" offset="1"/></linearGradient><path id="body_29_" d="M91.8,96.4l16,9.2c0.2,0.1,0.3,0,0.3-0.2V90.5c0-0.2-0.1-0.4-0.3-0.5l-16-9.2 c-0.2-0.1-0.3,0-0.3,0.2v14.9C91.5,96.1,91.7,96.3,91.8,96.4z" class="ai-creation-50"/></g><g id="keyboard_2_"><path id="shadow_83_" d="M77.6,105.3l13-7.1c0.2-0.1,0.4-0.1,0.6,0l17.3,10.3l0.7-0.2v0.7l0,0c0,0.1,0,0.1-0.1,0.2 l-13,7.1c-0.2,0.1-0.4,0.1-0.6,0l-17.8-10.6C77.5,105.5,77.5,105.4,77.6,105.3z" class="ai-creation-49"/><path id="body_27_" d="M77.5,105.6l18,10.4c0.2,0.1,0.4,0.1,0.6,0l13.1-7.5c0.2-0.1,0.2-0.2,0-0.3l-18-10.4 c-0.2-0.1-0.4-0.1-0.6,0l-13.1,7.5C77.3,105.3,77.3,105.5,77.5,105.6z" class="ai-creation-51"/><g id="keyboard_1_"><g id="_x31__4_"><path d="M104.9,108.3l0.7,0.4c0.1,0.1,0.3,0.1,0.4,0l0.6-0.3c0.1-0.1,0.1-0.2,0-0.2l-0.7-0.4 c-0.1-0.1-0.3-0.1-0.4,0l-0.6,0.3C104.8,108.1,104.8,108.2,104.9,108.3z" class="ai-creation-49"/><path d="M103.7,107.6l0.7,0.4c0.1,0.1,0.3,0.1,0.4,0l0.6-0.3c0.1-0.1,0.1-0.2,0-0.2l-0.7-0.4 c-0.1-0.1-0.3-0.1-0.4,0l-0.6,0.3C103.6,107.4,103.6,107.5,103.7,107.6z" class="ai-creation-49"/><path d="M102.5,106.9l0.7,0.4c0.1,0.1,0.3,0.1,0.4,0l0.6-0.3c0.1-0.1,0.1-0.2,0-0.2l-0.7-0.4 c-0.1-0.1-0.3-0.1-0.4,0l-0.6,0.3C102.4,106.7,102.4,106.8,102.5,106.9z" class="ai-creation-49"/><path d="M101.3,106.2l0.7,0.4c0.1,0.1,0.3,0.1,0.4,0l0.6-0.3c0.1-0.1,0.1-0.2,0-0.2l-0.7-0.4 c-0.1-0.1-0.3-0.1-0.4,0l-0.6,0.3C101.2,106,101.2,106.1,101.3,106.2z" class="ai-creation-49"/><path d="M100.1,105.5l0.7,0.4c0.1,0.1,0.3,0.1,0.4,0l0.6-0.3c0.1-0.1,0.1-0.2,0-0.2l-0.7-0.4 c-0.1-0.1-0.3-0.1-0.4,0l-0.6,0.3C100,105.4,100,105.5,100.1,105.5z" class="ai-creation-49"/><path d="M98.9,104.8l0.7,0.4c0.1,0.1,0.3,0.1,0.4,0l0.6-0.3c0.1-0.1,0.1-0.2,0-0.2l-0.7-0.4 c-0.1-0.1-0.3-0.1-0.4,0l-0.6,0.3C98.8,104.7,98.8,104.8,98.9,104.8z" class="ai-creation-49"/><path d="M97.7,104.1l0.7,0.4c0.1,0.1,0.3,0.1,0.4,0l0.6-0.3c0.1-0.1,0.1-0.2,0-0.2l-0.7-0.4 c-0.1-0.1-0.3-0.1-0.4,0l-0.6,0.3C97.6,104,97.6,104.1,97.7,104.1z" class="ai-creation-49"/><path d="M96.5,103.5l0.7,0.4c0.1,0.1,0.3,0.1,0.4,0l0.6-0.3c0.1-0.1,0.1-0.2,0-0.2l-0.7-0.4 c-0.1-0.1-0.3-0.1-0.4,0l-0.6,0.3C96.5,103.3,96.4,103.4,96.5,103.5z" class="ai-creation-49"/><path d="M95.4,102.8l0.7,0.4c0.1,0.1,0.3,0.1,0.4,0l0.6-0.3c0.1-0.1,0.1-0.2,0-0.2l-0.7-0.4 c-0.1-0.1-0.3-0.1-0.4,0l-0.6,0.3C95.3,102.6,95.2,102.7,95.4,102.8z" class="ai-creation-49"/><path d="M94.2,102.1l0.7,0.4c0.1,0.1,0.3,0.1,0.4,0l0.6-0.3c0.1-0.1,0.1-0.2,0-0.2l-0.7-0.4 c-0.1-0.1-0.3-0.1-0.4,0l-0.6,0.3C94.1,101.9,94.1,102,94.2,102.1z" class="ai-creation-49"/><path d="M93,101.4l0.7,0.4c0.1,0.1,0.3,0.1,0.4,0l0.6-0.3c0.1-0.1,0.1-0.2,0-0.2l-0.7-0.4c-0.1-0.1-0.3-0.1-0.4,0 l-0.6,0.3C92.9,101.2,92.9,101.3,93,101.4z" class="ai-creation-49"/><path d="M91.8,100.7l0.7,0.4c0.1,0.1,0.3,0.1,0.4,0l0.6-0.3c0.1-0.1,0.1-0.2,0-0.2l-0.7-0.4 c-0.1-0.1-0.3-0.1-0.4,0l-0.6,0.3C91.7,100.5,91.7,100.6,91.8,100.7z" class="ai-creation-49"/><path d="M90.1,99.7l1.2,0.7c0.1,0.1,0.3,0.1,0.4,0l0.6-0.3c0.1-0.1,0.1-0.2,0-0.2l-1.2-0.7 c-0.1-0.1-0.3-0.1-0.4,0l-0.6,0.3C90,99.6,90,99.7,90.1,99.7z" class="ai-creation-49"/></g><g id="_x32__5_"><path d="M89.6,100.8l-0.7-0.4c-0.1-0.1-0.1-0.2,0-0.2l0.6-0.3c0.1-0.1,0.3-0.1,0.4,0l0.7,0.4 c0.1,0.1,0.1,0.2,0,0.2l-0.6,0.3C89.9,100.9,89.7,100.9,89.6,100.8z" class="ai-creation-49"/><path d="M90.8,101.5l-0.7-0.4c-0.1-0.1-0.1-0.2,0-0.2l0.6-0.3c0.1-0.1,0.3-0.1,0.4,0l0.7,0.4 c0.1,0.1,0.1,0.2,0,0.2l-0.6,0.3C91.1,101.6,90.9,101.6,90.8,101.5z" class="ai-creation-49"/><path d="M92,102.2l-0.7-0.4c-0.1-0.1-0.1-0.2,0-0.2l0.6-0.3c0.1-0.1,0.3-0.1,0.4,0l0.7,0.4c0.1,0.1,0.1,0.2,0,0.2 l-0.6,0.3C92.2,102.3,92.1,102.3,92,102.2z" class="ai-creation-49"/><path d="M93.1,102.9l-0.7-0.4c-0.1-0.1-0.1-0.2,0-0.2L93,102c0.1-0.1,0.3-0.1,0.4,0l0.7,0.4 c0.1,0.1,0.1,0.2,0,0.2l-0.6,0.3C93.4,103,93.3,103,93.1,102.9z" class="ai-creation-49"/><path d="M94.3,103.6l-0.7-0.4c-0.1-0.1-0.1-0.2,0-0.2l0.6-0.3c0.1-0.1,0.3-0.1,0.4,0l0.7,0.4 c0.1,0.1,0.1,0.2,0,0.2l-0.6,0.3C94.6,103.6,94.4,103.6,94.3,103.6z" class="ai-creation-49"/><path d="M95.5,104.3l-0.7-0.4c-0.1-0.1-0.1-0.2,0-0.2l0.6-0.3c0.1-0.1,0.3-0.1,0.4,0l0.7,0.4 c0.1,0.1,0.1,0.2,0,0.2l-0.6,0.3C95.8,104.3,95.6,104.3,95.5,104.3z" class="ai-creation-49"/><path d="M96.7,105l-0.7-0.4c-0.1-0.1-0.1-0.2,0-0.2l0.6-0.3c0.1-0.1,0.3-0.1,0.4,0l0.7,0.4c0.1,0.1,0.1,0.2,0,0.2 l-0.6,0.3C97,105,96.8,105,96.7,105z" class="ai-creation-49"/><path d="M97.9,105.6l-0.7-0.4c-0.1-0.1-0.1-0.2,0-0.2l0.6-0.3c0.1-0.1,0.3-0.1,0.4,0l0.7,0.4 c0.1,0.1,0.1,0.2,0,0.2l-0.6,0.3C98.2,105.7,98,105.7,97.9,105.6z" class="ai-creation-49"/><path d="M99.1,106.3l-0.7-0.4c-0.1-0.1-0.1-0.2,0-0.2l0.6-0.3c0.1-0.1,0.3-0.1,0.4,0l0.7,0.4 c0.1,0.1,0.1,0.2,0,0.2l-0.6,0.3C99.4,106.4,99.2,106.4,99.1,106.3z" class="ai-creation-49"/><path d="M100.3,107l-0.7-0.4c-0.1-0.1-0.1-0.2,0-0.2l0.6-0.3c0.1-0.1,0.3-0.1,0.4,0l0.7,0.4 c0.1,0.1,0.1,0.2,0,0.2l-0.6,0.3C100.6,107.1,100.4,107.1,100.3,107z" class="ai-creation-49"/><path d="M101.5,107.7l-0.7-0.4c-0.1-0.1-0.1-0.2,0-0.2l0.6-0.3c0.1-0.1,0.3-0.1,0.4,0l0.7,0.4 c0.1,0.1,0.1,0.2,0,0.2l-0.6,0.3C101.8,107.8,101.6,107.8,101.5,107.7z" class="ai-creation-49"/><path d="M102.7,108.4L102,108c-0.1-0.1-0.1-0.2,0-0.2l0.6-0.3c0.1-0.1,0.3-0.1,0.4,0l0.7,0.4 c0.1,0.1,0.1,0.2,0,0.2l-0.6,0.3C103,108.4,102.8,108.5,102.7,108.4z" class="ai-creation-49"/><path d="M104.4,109.4l-1.2-0.7c-0.1-0.1-0.1-0.2,0-0.2l0.6-0.3c0.1-0.1,0.3-0.1,0.4,0l1.2,0.7 c0.1,0.1,0.1,0.2,0,0.2l-0.6,0.3C104.6,109.4,104.5,109.4,104.4,109.4z" class="ai-creation-49"/></g><g id="_x33__4_"><path d="M100.4,108.5l0.7,0.4c0.1,0.1,0.3,0.1,0.4,0l0.6-0.3c0.1-0.1,0.1-0.2,0-0.2l-0.7-0.4 c-0.1-0.1-0.3-0.1-0.4,0l-0.6,0.3C100.3,108.3,100.3,108.4,100.4,108.5z" class="ai-creation-49"/><path d="M99.2,107.8l0.7,0.4c0.1,0.1,0.3,0.1,0.4,0l0.6-0.3c0.1-0.1,0.1-0.2,0-0.2l-0.7-0.4 c-0.1-0.1-0.3-0.1-0.4,0l-0.6,0.3C99.1,107.6,99.1,107.7,99.2,107.8z" class="ai-creation-49"/><path d="M98,107.1l0.7,0.4c0.1,0.1,0.3,0.1,0.4,0l0.6-0.3c0.1-0.1,0.1-0.2,0-0.2l-0.7-0.4c-0.1-0.1-0.3-0.1-0.4,0 l-0.6,0.3C97.9,107,97.9,107.1,98,107.1z" class="ai-creation-49"/><path d="M96.8,106.4l0.7,0.4c0.1,0.1,0.3,0.1,0.4,0l0.6-0.3c0.1-0.1,0.1-0.2,0-0.2l-0.7-0.4 c-0.1-0.1-0.3-0.1-0.4,0l-0.6,0.3C96.8,106.3,96.7,106.4,96.8,106.4z" class="ai-creation-49"/><path d="M95.7,105.7l0.7,0.4c0.1,0.1,0.3,0.1,0.4,0l0.6-0.3c0.1-0.1,0.1-0.2,0-0.2l-0.7-0.4 c-0.1-0.1-0.3-0.1-0.4,0l-0.6,0.3C95.6,105.6,95.6,105.7,95.7,105.7z" class="ai-creation-49"/><path d="M94.5,105.1l0.7,0.4c0.1,0.1,0.3,0.1,0.4,0l0.6-0.3c0.1-0.1,0.1-0.2,0-0.2l-0.7-0.4 c-0.1-0.1-0.3-0.1-0.4,0l-0.6,0.3C94.4,104.9,94.4,105,94.5,105.1z" class="ai-creation-49"/><path d="M93.3,104.4l0.7,0.4c0.1,0.1,0.3,0.1,0.4,0l0.6-0.3c0.1-0.1,0.1-0.2,0-0.2l-0.7-0.4 c-0.1-0.1-0.3-0.1-0.4,0l-0.6,0.3C93.2,104.2,93.2,104.3,93.3,104.4z" class="ai-creation-49"/><path d="M92.1,103.7l0.7,0.4c0.1,0.1,0.3,0.1,0.4,0l0.6-0.3c0.1-0.1,0.1-0.2,0-0.2l-0.7-0.4 c-0.1-0.1-0.3-0.1-0.4,0l-0.6,0.3C92,103.5,92,103.6,92.1,103.7z" class="ai-creation-49"/><path d="M90.9,103l0.7,0.4c0.1,0.1,0.3,0.1,0.4,0l0.6-0.3c0.1-0.1,0.1-0.2,0-0.2l-0.7-0.4c-0.1-0.1-0.3-0.1-0.4,0 l-0.6,0.3C90.8,102.8,90.8,102.9,90.9,103z" class="ai-creation-49"/><path d="M89.7,102.3l0.7,0.4c0.1,0.1,0.3,0.1,0.4,0l0.6-0.3c0.1-0.1,0.1-0.2,0-0.2l-0.7-0.4 c-0.1-0.1-0.3-0.1-0.4,0l-0.6,0.3C89.6,102.1,89.6,102.3,89.7,102.3z" class="ai-creation-49"/><path d="M101.6,109.2l1.5,0.9c0.1,0.1,0.3,0.1,0.4,0l0.6-0.3c0.1-0.1,0.1-0.2,0-0.2l-1.5-0.9 c-0.1-0.1-0.3-0.1-0.4,0l-0.6,0.3C101.5,109,101.5,109.1,101.6,109.2z" class="ai-creation-49"/><path d="M87.7,101.1l1.5,0.9c0.1,0.1,0.3,0.1,0.4,0l0.6-0.3c0.1-0.1,0.1-0.2,0-0.2l-1.5-0.9 c-0.1-0.1-0.3-0.1-0.4,0l-0.6,0.3C87.6,101,87.6,101.1,87.7,101.1z" class="ai-creation-49"/></g><g id="_x34__3_"><path d="M98.6,108.8l0.7,0.4c0.1,0.1,0.3,0.1,0.4,0l0.6-0.3c0.1-0.1,0.1-0.2,0-0.2l-0.7-0.4 c-0.1-0.1-0.3-0.1-0.4,0l-0.6,0.3C98.5,108.7,98.5,108.8,98.6,108.8z" class="ai-creation-49"/><path d="M97.4,108.2l0.7,0.4c0.1,0.1,0.3,0.1,0.4,0l0.6-0.3c0.1-0.1,0.1-0.2,0-0.2l-0.7-0.4 c-0.1-0.1-0.3-0.1-0.4,0l-0.6,0.3C97.3,108,97.3,108.1,97.4,108.2z" class="ai-creation-49"/><path d="M96.2,107.5l0.7,0.4c0.1,0.1,0.3,0.1,0.4,0l0.6-0.3c0.1-0.1,0.1-0.2,0-0.2l-0.7-0.4 c-0.1-0.1-0.3-0.1-0.4,0l-0.6,0.3C96.1,107.3,96.1,107.4,96.2,107.5z" class="ai-creation-49"/><path d="M95,106.8l0.7,0.4c0.1,0.1,0.3,0.1,0.4,0l0.6-0.3c0.1-0.1,0.1-0.2,0-0.2l-0.7-0.4c-0.1-0.1-0.3-0.1-0.4,0 l-0.6,0.3C94.9,106.6,94.9,106.7,95,106.8z" class="ai-creation-49"/><path d="M93.8,106.1l0.7,0.4c0.1,0.1,0.3,0.1,0.4,0l0.6-0.3c0.1-0.1,0.1-0.2,0-0.2l-0.7-0.4 c-0.1-0.1-0.3-0.1-0.4,0l-0.6,0.3C93.7,105.9,93.7,106,93.8,106.1z" class="ai-creation-49"/><path d="M92.6,105.4l0.7,0.4c0.1,0.1,0.3,0.1,0.4,0l0.6-0.3c0.1-0.1,0.1-0.2,0-0.2l-0.7-0.4 c-0.1-0.1-0.3-0.1-0.4,0l-0.6,0.3C92.6,105.2,92.5,105.3,92.6,105.4z" class="ai-creation-49"/><path d="M91.5,104.7l0.7,0.4c0.1,0.1,0.3,0.1,0.4,0l0.6-0.3c0.1-0.1,0.1-0.2,0-0.2l-0.7-0.4 c-0.1-0.1-0.3-0.1-0.4,0l-0.6,0.3C91.4,104.6,91.3,104.7,91.5,104.7z" class="ai-creation-49"/><path d="M90.3,104l0.7,0.4c0.1,0.1,0.3,0.1,0.4,0l0.6-0.3c0.1-0.1,0.1-0.2,0-0.2l-0.7-0.4c-0.1-0.1-0.3-0.1-0.4,0 l-0.6,0.3C90.2,103.9,90.2,104,90.3,104z" class="ai-creation-49"/><path d="M89.1,103.3l0.7,0.4c0.1,0.1,0.3,0.1,0.4,0l0.6-0.3c0.1-0.1,0.1-0.2,0-0.2l-0.7-0.4 c-0.1-0.1-0.3-0.1-0.4,0l-0.6,0.3C89,103.2,89,103.3,89.1,103.3z" class="ai-creation-49"/><path d="M86.4,101.8l2.1,1.2c0.1,0.1,0.3,0.1,0.4,0l0.6-0.3c0.1-0.1,0.1-0.2,0-0.2l-2.1-1.2 c-0.1-0.1-0.3-0.1-0.4,0l-0.6,0.3C86.4,101.7,86.3,101.8,86.4,101.8z" class="ai-creation-49"/><path d="M99.8,109.5l2.1,1.2c0.1,0.1,0.3,0.1,0.4,0l0.6-0.3c0.1-0.1,0.1-0.2,0-0.2l-2.1-1.2 c-0.1-0.1-0.3-0.1-0.4,0l-0.6,0.3C99.7,109.4,99.7,109.5,99.8,109.5z" class="ai-creation-49"/></g><g id="_x35__3_"><path d="M100,111l0.7,0.4c0.1,0.1,0.3,0.1,0.4,0l0.6-0.3c0.1-0.1,0.1-0.2,0-0.2l-0.7-0.4c-0.1-0.1-0.3-0.1-0.4,0 l-0.6,0.3C99.9,110.9,99.9,111,100,111z" class="ai-creation-49"/><path d="M98.8,110.4l0.7,0.4c0.1,0.1,0.3,0.1,0.4,0l0.6-0.3c0.1-0.1,0.1-0.2,0-0.2l-0.7-0.4 c-0.1-0.1-0.3-0.1-0.4,0l-0.6,0.3C98.7,110.2,98.7,110.3,98.8,110.4z" class="ai-creation-49"/><path d="M97.6,109.7l0.7,0.4c0.1,0.1,0.3,0.1,0.4,0l0.6-0.3c0.1-0.1,0.1-0.2,0-0.2l-0.7-0.4 c-0.1-0.1-0.3-0.1-0.4,0l-0.6,0.3C97.5,109.5,97.5,109.6,97.6,109.7z" class="ai-creation-49"/><path d="M96.4,109l0.7,0.4c0.1,0.1,0.3,0.1,0.4,0l0.6-0.3c0.1-0.1,0.1-0.2,0-0.2l-0.7-0.4c-0.1-0.1-0.3-0.1-0.4,0 l-0.6,0.3C96.3,108.8,96.3,108.9,96.4,109z" class="ai-creation-49"/><path d="M88.8,104.6l0.7,0.4c0.1,0.1,0.3,0.1,0.4,0l0.6-0.3c0.1-0.1,0.1-0.2,0-0.2l-0.7-0.4 c-0.1-0.1-0.3-0.1-0.4,0l-0.6,0.3C88.7,104.4,88.7,104.6,88.8,104.6z" class="ai-creation-49"/><path d="M87.6,103.9l0.7,0.4c0.1,0.1,0.3,0.1,0.4,0l0.6-0.3c0.1-0.1,0.1-0.2,0-0.2l-0.7-0.4 c-0.1-0.1-0.3-0.1-0.4,0l-0.6,0.3C87.6,103.8,87.5,103.9,87.6,103.9z" class="ai-creation-49"/><path d="M86.5,103.2l0.7,0.4c0.1,0.1,0.3,0.1,0.4,0l0.6-0.3c0.1-0.1,0.1-0.2,0-0.2l-0.7-0.4 c-0.1-0.1-0.3-0.1-0.4,0l-0.6,0.3C86.4,103.1,86.4,103.2,86.5,103.2z" class="ai-creation-49"/><path d="M85.3,102.6L86,103c0.1,0.1,0.3,0.1,0.4,0l0.6-0.3c0.1-0.1,0.1-0.2,0-0.2l-0.7-0.4 c-0.1-0.1-0.3-0.1-0.4,0l-0.6,0.3C85.2,102.4,85.2,102.5,85.3,102.6z" class="ai-creation-49"/><path d="M91.1,104.7l2.4,1.4l2.6,1.5l0.9,0.5c0.1,0.1,0.1,0.2,0,0.2l-0.6,0.3c-0.1,0.1-0.3,0.1-0.4,0l-0.9-0.5 l-2.6-1.5l-2.4-1.4c-0.1-0.1-0.1-0.2,0-0.2l0.6-0.3C90.8,104.7,91,104.6,91.1,104.7z" class="ai-creation-49"/></g></g><path id="touchpad_1_" d="M85,108.4l5.6,3.2c0.2,0.1,0.5,0.1,0.7,0l3.1-1.8c0.2-0.1,0.2-0.3,0-0.4l-5.6-3.2 c-0.2-0.1-0.5-0.1-0.7,0L85,108C84.8,108.1,84.8,108.3,85,108.4z" class="ai-creation-49"/></g><path id="paper_5_" d="M103.8,76.4c-2.2-1.3-3.9-1.1-5.2-0.5c-2,1-2.9,3.4-2.3,5.6c0.5,1.5,0.7,3,0.7,4.5 c0,0.7-0.1,1.3-0.3,2c-0.2,0.8-0.5,1.5-0.9,2.2c-0.4,0.6-0.8,1.1-1.2,1.7c-0.4,0.6-0.6,1.2-0.7,1.8c-0.2,1.1,0,2.1,0.4,3.1 c0.1,0.3,0.3,0.7,0.5,1c0,0.1,0.1,0.3,0.2,0.4l8.7,5c0,0,0-0.1-0.1-0.1c-0.2-0.3-0.3-0.6-0.4-0.9c-0.4-1.4-0.2-2.9,0.3-4.2 c0.5-1.4,1.5-2.5,2-3.9s0.6-2.8,0.6-4.3c0-0.6-0.1-1.3-0.1-1.9c-0.2-1.3-0.4-2.7,0.2-3.9c0.5-1.1,1.5-1.9,2.5-2.4 c0.5-0.2,1.1-0.4,1.7-0.4c0.4,0,0.9,0,1.3,0c0.2,0,0.4,0.1,0.5,0.1C112.2,81.3,109.7,79.8,103.8,76.4z" class="ai-creation-20"/><g id="checkbox_4_"><g id="checkbox_5_" class="ai-creation-25"><path d="M99.3,87.1C99.3,87.2,99.2,87.2,99.3,87.1l-1-0.4c-0.1,0-0.1-0.1-0.1-0.2v-1.3c0-0.1,0.1-0.1,0.1-0.1 l0.9,0.5c0.1,0,0.1,0.1,0.1,0.2V87.1z" class="ai-creation-47"/></g><path id="lines_7_" d="M104,88.9l-4.1-2.4c-0.1,0-0.1-0.2-0.1-0.3l0,0c0-0.1,0.1-0.2,0.1-0.1l4.1,2.4 C104.1,88.5,104.1,88.7,104,88.9L104,88.9C104.2,88.9,104.1,88.9,104,88.9z" class="ai-creation-48"/><path id="lines_6_" d="M101.4,88.3l-1.5-0.8c-0.1,0-0.1-0.2-0.1-0.3l0,0c0-0.1,0.1-0.2,0.1-0.1l1.5,0.8 C101.5,87.9,101.5,88.1,101.4,88.3L101.4,88.3C101.6,88.3,101.5,88.3,101.4,88.3z" class="ai-creation-48"/><path id="check_2_" d="M98.7,86.6l-0.4-0.8c0-0.1,0-0.2,0-0.2l0,0c0,0,0.1,0,0.2,0.1l0.2,0.4c0,0.1,0.1,0.1,0.2,0.1 l0.9-0.7c0,0,0.1,0,0.2,0.1v0.1c0,0.1,0,0.2,0,0.2l-1.1,0.8C98.8,86.8,98.7,86.7,98.7,86.6z" class="ai-creation-17"/></g><g id="checkbox_6_"><g id="checkbox_7_" class="ai-creation-25"><path d="M99.3,90.1C99.3,90.2,99.2,90.2,99.3,90.1l-1-0.4c-0.1,0-0.1-0.1-0.1-0.2v-1.3c0-0.1,0.1-0.1,0.1-0.1 l0.9,0.5c0.1,0,0.1,0.1,0.1,0.2V90.1z" class="ai-creation-47"/></g><path id="lines_9_" d="M104,91.8l-4.1-2.4c-0.1,0-0.1-0.2-0.1-0.3l0,0c0-0.1,0.1-0.2,0.1-0.1l4.1,2.4 C104.1,91.4,104.1,91.6,104,91.8L104,91.8C104.2,91.8,104.1,91.8,104,91.8z" class="ai-creation-48"/><path id="lines_8_" d="M101.4,91.2l-1.5-0.8c-0.1,0-0.1-0.2-0.1-0.3l0,0c0-0.1,0.1-0.2,0.1-0.1l1.5,0.8 C101.5,90.8,101.5,91,101.4,91.2L101.4,91.2C101.6,91.2,101.5,91.3,101.4,91.2z" class="ai-creation-48"/><path id="check_3_" d="M98.7,89.6l-0.4-0.8c0-0.1,0-0.2,0-0.2l0,0c0,0,0.1,0,0.2,0.1l0.2,0.4c0,0.1,0.1,0.1,0.2,0.1 l0.9-0.7c0,0,0.1,0,0.2,0.1v0.1c0,0.1,0,0.2,0,0.2l-1.1,0.8C98.8,89.7,98.7,89.7,98.7,89.6z" class="ai-creation-17"/></g><g id="checkbox_2_"><g id="checkbox_3_" class="ai-creation-25"><path d="M99.3,84.2C99.3,84.3,99.2,84.3,99.3,84.2l-1-0.4c-0.1,0-0.1-0.1-0.1-0.2v-1.3c0-0.1,0.1-0.1,0.1-0.1 l0.9,0.5c0.1,0,0.1,0.1,0.1,0.2V84.2z" class="ai-creation-47"/></g><path id="lines_5_" d="M104,85.9l-4.1-2.4c-0.1,0-0.1-0.2-0.1-0.3l0,0c0-0.1,0.1-0.2,0.1-0.1l4.1,2.4 C104.1,85.5,104.1,85.7,104,85.9L104,85.9C104.2,85.9,104.1,86,104,85.9z" class="ai-creation-48"/><path id="lines_4_" d="M101.4,85.4l-1.5-0.8c-0.1,0-0.1-0.2-0.1-0.3l0,0c0-0.1,0.1-0.2,0.1-0.1l1.5,0.8 C101.5,85,101.5,85.2,101.4,85.4L101.4,85.4C101.6,85.4,101.5,85.4,101.4,85.4z" class="ai-creation-48"/><path id="check_1_" d="M98.7,83.7l-0.4-0.8c0-0.1,0-0.2,0-0.2l0,0c0,0,0.1,0,0.2,0.1l0.2,0.4c0,0.1,0.1,0.1,0.2,0.1 l0.9-0.7c0,0,0.1,0,0.2,0.1v0.1c0,0.1,0,0.2,0,0.2l-1.1,0.8C98.8,83.8,98.7,83.8,98.7,83.7z" class="ai-creation-17"/></g><g id="checkbox_8_"><g id="checkbox_10_" class="ai-creation-25"><path d="M117.7,86.4C117.8,86.4,117.8,86.3,117.7,86.4l-0.9-0.6c-0.1,0-0.2,0-0.3,0l-1.1,0.6c-0.1,0-0.1,0.1,0,0.1 l0.9,0.5c0.1,0,0.2,0,0.3,0L117.7,86.4z" class="ai-creation-47"/></g><path id="lines_11_" d="M121.6,89.6l-4.1-2.4c-0.1,0-0.2,0-0.3,0l0,0c-0.1,0.1-0.1,0.1,0,0.2l4.1,2.4 c0.1,0,0.2,0,0.3,0l0,0C121.6,89.7,121.6,89.7,121.6,89.6z" class="ai-creation-48"/><path id="lines_10_" d="M119.8,87.6l-1.5-0.8c-0.1,0-0.2,0-0.3,0l0,0c-0.1,0.1-0.1,0.1,0,0.2l1.5,0.8 c0.1,0,0.2,0,0.3,0l0,0C119.8,87.8,119.8,87.7,119.8,87.6z" class="ai-creation-48"/><path id="check_4_" d="M116.9,86.1H116c-0.1,0-0.2,0.1-0.2,0.1v0.1c0,0.1,0.1,0.1,0.2,0.1h0.5c0.1,0,0.2,0,0.2,0.1 l-0.1,1.1c0,0.1,0.1,0.1,0.2,0.1h0.1c0.1,0,0.2-0.1,0.2-0.1l0.2-1.3C117.1,86.1,117,86.1,116.9,86.1z" class="ai-creation-17"/></g></g><path id="clothe_4_" d="M80.6,97.2c0,0-0.7,2-4,1.7l-6.9-8.4c0,0-0.5-4.5-5.6-3.1L63,89.1c0,0-0.3,0.3-0.5,0.2 c0,0-2.1-0.3-5.5-4.5c0,0-1.1-0.5-2.5,0.3c0,0-7.1,0.6-6.9,7.5c0.3,7,0,13.5,0,13.5s0.5,3.4-1.6,5.2c-2.1,1.8,0,3.1,0,3.1 s3.8,1.6,9.6-1.1c0,0,9.7-5.3,10.1-5.8s2.3-3.7,3.2-7.3l9.3,7.5c0,0,4.6,3.8,4.4-1.9C82.2,100,80.6,97.2,80.6,97.2z" class="ai-creation-42"/><g id="left-hand_10_" class="ai-creation-0"><path id="hand_5_" d="M77.2,89.2L77.2,89.2C77,89,76.8,89,76.6,88.9c-0.2-0.1-0.3-0.3-0.4-0.4c-0.4-0.4-0.8-1-1-1.5 c-1-2-2.8-1.5-2.8-1.5L71,85.7c0,0-0.9,0.9-0.1,1.7c0,0-0.2,2.8,1.9,2.5c0,0,1.2,1.3,1.7,1.6c0,0,0.3,0.2,0.4,0.6l1.7,7.3 c3.9,0.7,4.2-1.7,4.2-1.7c0-0.1-0.1-0.3-0.2-0.4c-0.1-0.3-0.3-0.7-0.4-1c-0.2-0.5-0.4-1-0.6-1.5s-0.5-1.1-0.7-1.6 s-0.4-1.1-0.7-1.6c-0.2-0.4-0.4-0.9-0.5-1.3c-0.1-0.2-0.2-0.4-0.2-0.5C77.4,89.4,77.3,89.3,77.2,89.2z" class="ai-creation-3"/><path id="sleeve_2_" d="M80.7,97.4c0,0-0.3,2.5-4.1,1.8c0,0,0.4,7.2,1.2,8.3c0,0,4.1,3.6,4.5-0.6 C82.4,106.9,82.6,101.4,80.7,97.4z" class="ai-creation-29"/><linearGradient id="shadow_1_" x1="76.59" x2="82.371" y1="50.832" y2="50.832" gradientTransform="matrix(1 0 0 -1 0 154)" gradientUnits="userSpaceOnUse"><stop style="stop-color:#fff;stop-opacity:0" offset="0"/><stop style="stop-color:#e7e8e8;stop-opacity:4.749489e-02" offset=".076"/><stop style="stop-color:#7c7d7e;stop-opacity:.2722" offset=".437"/><stop style="stop-color:#383a3c;stop-opacity:.4276" offset=".687"/><stop style="stop-color:#1e2022;stop-opacity:.5" offset=".804"/></linearGradient><path id="shadow_69_" d="M80.7,97.4c0,0-0.3,2.5-4.1,1.8c0,0,0.4,7.2,1.2,8.3c0,0,4.1,3.6,4.5-0.6 C82.4,106.9,82.6,101.4,80.7,97.4z" class="ai-creation-52"/></g><g id="left-hand-sleeve" class="ai-creation-0"><path id="sleeve_1_" d="M76.5,98.9l0.1,0.4c0,0,0.5,7.6,1.2,8.3l-9.1-7.3c0,0,1.2-6.2,0.9-9.7L76.5,98.9z" class="ai-creation-29"/><linearGradient id="shadow_4_" x1="68.725" x2="77.816" y1="54.9" y2="54.9" gradientTransform="matrix(1 0 0 -1 0 154)" gradientUnits="userSpaceOnUse"><stop style="stop-color:#fff;stop-opacity:0" offset="0"/><stop style="stop-color:#e7e8e8;stop-opacity:2.849693e-02" offset=".076"/><stop style="stop-color:#7c7d7e;stop-opacity:.1633" offset=".435"/><stop style="stop-color:#383a3c;stop-opacity:.2566" offset=".684"/><stop style="stop-color:#1e2022;stop-opacity:.3" offset=".8"/></linearGradient><path id="shadow_50_" d="M76.5,98.9l0.1,0.4c0,0,0.5,7.6,1.2,8.3l-9.1-7.3c0,0,1.2-6.2,0.9-9.7L76.5,98.9z" class="ai-creation-53"/></g><g id="collar" class="ai-creation-0"><path id="back_3_" d="M56,83.6c0,0,0.7-0.6,2.2,0.1l-1.4,1.4L56,83.6z" class="ai-creation-29"/><linearGradient id="back-shadow_1_" x1="55.991" x2="58.187" y1="69.77" y2="69.77" gradientTransform="matrix(1 0 0 -1 0 154)" gradientUnits="userSpaceOnUse"><stop style="stop-color:#efa02e;stop-opacity:0" offset="0"/><stop style="stop-color:#e6972f;stop-opacity:2.558833e-02" offset=".085"/><stop style="stop-color:#be7332;stop-opacity:.1457" offset=".486"/><stop style="stop-color:#a65d34;stop-opacity:.2413" offset=".804"/><stop style="stop-color:#9d5535;stop-opacity:.3" offset="1"/></linearGradient><path id="back-shadow" d="M56,83.6c0,0,0.7-0.6,2.2,0.1l-1.4,1.4L56,83.6z" class="ai-creation-54"/><path id="right" d="M54.4,85.2l1.6-1.6c0,0,3.3,5,6.4,5.8v2.4C62.4,91.8,57.2,91.4,54.4,85.2z" class="ai-creation-29"/><path id="left" d="M64.6,86.6c-0.1,0.1-0.2,0.2-0.3,0.3c-0.1,0.1-0.2,0.3-0.2,0.4c-0.1,0.2-0.2,0.4-0.3,0.5 c-0.1,0.2-0.2,0.4-0.4,0.6c-0.1,0.2-0.2,0.3-0.3,0.5C63,89,63,89.1,62.9,89.2l0.9,2c0,0,1.2-1.1,1.6-2.4 C65.4,88.3,64.7,86.5,64.6,86.6z" class="ai-creation-29"/><linearGradient id="left-shadow_1_" x1="62.939" x2="63.834" y1="63.7" y2="63.7" gradientTransform="matrix(1 0 0 -1 0 154)" gradientUnits="userSpaceOnUse"><stop style="stop-color:#efa02e;stop-opacity:0" offset="0"/><stop style="stop-color:#e9a135;stop-opacity:7.759845e-03" offset=".026"/><stop style="stop-color:#b0af7b;stop-opacity:8.769032e-02" offset=".292"/><stop style="stop-color:#84bab2;stop-opacity:.1597" offset=".532"/><stop style="stop-color:#63c2da;stop-opacity:.2213" offset=".738"/><stop style="stop-color:#4fc7f2;stop-opacity:.2701" offset=".9"/><stop style="stop-color:#48c9fb;stop-opacity:.3" offset="1"/></linearGradient><path id="left-shadow" d="M62.9,89.2l0.5,2.2c0,0,0.2,0,0.4-0.2L62.9,89.2z" class="ai-creation-55"/></g><g id="right-hand_6_" class="ai-creation-0"><path id="hand_4_" d="M91.5,109.8c0.1-0.2,0-0.5-0.1-0.8c-0.5-1.1-1.7-1.8-2.9-2.1c-1.5-0.4-2.9-0.1-4.5,0.1 c-1.2,0.2-2.4,0.4-3.6,0.4c-2.7,0.1-8.1-1.5-8.1-1.5c-0.7,1.8,0,4.3,0,4.3s2.3,0.2,6.8,0.1c1.5,0,3,0,4.6,0.3 c0.7,0.1,1.4,0.3,2.1,0.5c0.7,0.1,1.5,0.2,2.2,0.1c0.7,0,1.4-0.1,2-0.4C90.7,110.8,91.3,110.4,91.5,109.8z" class="ai-creation-3"/><path id="corner" d="M72.6,105.8c0,0,0.1,0.1,0.1,0.3h-0.2L72.6,105.8z" class="ai-creation-56"/><path id="sleeve" d="M72.6,105.8l-4.3-0.8c-6.9-1.6-11.9-10.7-11.9-10.7c-3.1-6.5-8.1-5.2-8.1-5.2s-1.6,1.8-0.1,6.4 v0.1v0.1c0.1,0.3,0.2,0.5,0.3,0.6c1.9,4.3,8.2,9.5,8.2,9.5c2.9,3.8,7.8,4.3,7.8,4.3l8.1,0.3C72.2,108,72.6,105.8,72.6,105.8z" class="ai-creation-29"/><linearGradient id="shadow_5_" x1="47.558" x2="72.6" y1="54.303" y2="54.303" gradientTransform="matrix(1 0 0 -1 0 154)" gradientUnits="userSpaceOnUse"><stop style="stop-color:#fff;stop-opacity:0" offset="0"/><stop style="stop-color:#e7e8e8;stop-opacity:2.849693e-02" offset=".076"/><stop style="stop-color:#7c7d7e;stop-opacity:.1633" offset=".435"/><stop style="stop-color:#383a3c;stop-opacity:.2566" offset=".684"/><stop style="stop-color:#1e2022;stop-opacity:.3" offset=".8"/></linearGradient><path id="shadow_19_" d="M72.6,105.8l-4.3-0.8c-6.9-1.6-11.9-10.7-11.9-10.7c-3.1-6.5-8.1-5.2-8.1-5.2 s-1.6,1.8-0.1,6.4v0.1v0.1c0.1,0.3,0.2,0.5,0.3,0.6c1.9,4.3,8.2,9.5,8.2,9.5c2.9,3.8,7.8,4.3,7.8,4.3l8.1,0.3 C72.2,108,72.6,105.8,72.6,105.8z" class="ai-creation-57"/></g><g id="robot" class="ai-creation-0"><ellipse id="shadow_3_" cx="192.4" cy="105.8" class="ai-creation-58" rx="6.2" ry="4.3"/><g id="body_9_"><path id="left-hand_2_" d="M204.5,56.9c0,0,9.2-1.5,13.2,11.1c0.8,2.6,1.6,5.3,2.1,8.1c0.1,0.9,0.3,1.7,0.3,2.6 c0,0.5-0.1,1-0.2,1.4c-0.2,0.5-0.6,0.9-1.2,0.8c-1.2-0.1-1.8-1.6-2.3-2.5c-0.4-0.7-0.8-1.4-1.2-2.1c-1.1-1.9-2.2-3.8-3.2-5.7 c-1.2-2.2-2.4-4.4-3.6-6.6c-1-1.9-2.1-3.8-3.1-5.7C205.2,58.1,204.6,56.9,204.5,56.9z" class="ai-creation-29"/><path d="M209.8,57.7c0,0,1.5,0.7,2.4,1.4c0,0,1.1,4.5-0.2,11.4l-1.3-2.3L209.8,57.7z" class="ai-creation-58"/><path id="body_10_" d="M210.6,58.4c-0.3,0-0.5,0-0.8,0c-0.5-0.9-1.2-1.7-2-2.4c-3-2.7-7.4-3.3-11.3-3.3 c-3.7,0-7.4,0.5-11.1,1.3c-2,0.4-4.1,0.8-6,1.5c-1.4,0.6-2.5,1.4-3.4,2.4h-2.1c-0.1,0.1-0.1,0.4-0.1,0.6c0,0.3,0,0.6,0,0.9 c-0.3,7.5,0.7,14.6,3.2,21.7c1.8,5.2,4.4,10.4,8.9,13.7c0.6,0.4,1.2,0.8,1.8,1.2c0.9,0.5,2.4,1.2,4.3,1.3c3.7,0.1,7-2.1,9.5-4.6 c3.3-3.2,5.8-7.3,7.6-11.5c1.4-3.5,2.3-7.2,2.5-10.9c0.2-3.3-0.1-6.8-0.5-10.1C211.1,59.8,211,58.4,210.6,58.4z" class="ai-creation-59"/><linearGradient id="top_1_" x1="64.697" x2="83.121" y1="-118.535" y2="-110.398" gradientTransform="matrix(0.6925 -0.7214 -0.7214 -0.6925 58.6329 32.374)" gradientUnits="userSpaceOnUse"><stop style="stop-color:#64d7fa" offset=".19"/><stop style="stop-color:#63ddfa" offset=".472"/><stop style="stop-color:#62e0fa" offset="1"/></linearGradient><path id="top_8_" d="M203.7,51.7c8,3.1,9.5,8.7,3.3,12.3s-17.8,4-25.9,0.9c-8-3.1-9.5-8.7-3.3-12.3 S195.6,48.6,203.7,51.7z" class="ai-creation-60"/><linearGradient id="shadow_6_" x1="177.605" x2="190.826" y1="96.204" y2="96.204" gradientTransform="matrix(1 0 0 -1 0 154)" gradientUnits="userSpaceOnUse"><stop style="stop-color:#48c9fb;stop-opacity:.6" offset=".19"/><stop style="stop-color:#43d2f5;stop-opacity:.4895" offset=".339"/><stop style="stop-color:#3fdbef;stop-opacity:.282" offset=".619"/><stop style="stop-color:#3ddeed;stop-opacity:0" offset="1"/></linearGradient><path id="shadow_2_" d="M178.3,53.4c-1.7,2-0.2,8.7,4.6,9.7c4.2,0.9,8.2-3.1,7.9-5.6 C190.4,53.7,180.5,50.7,178.3,53.4z" class="ai-creation-61"/><path id="right-hand_3_" d="M168.3,87.6c0.5-0.8,0.9-1.6,1.4-2.3c1.5-2.4,3.1-4.9,4.6-7.4s3-5,3.6-7.9 c0.5-2.1,0.9-4.9-0.7-6.7c-1.7-2-4.4-1.3-6,0.3c-2.1,2.1-3.3,5.1-4.2,7.9c-3.3,10.1-2.5,15.2-2.5,15.2c0.1,0.8,0.5,2.3,1.5,2.6 c0.4,0.1,0.8-0.1,1.1-0.4C167.5,88.6,167.9,88.1,168.3,87.6z" class="ai-creation-58"/><path id="right-hand_2_" d="M167.5,86.9c0.5-0.8,0.9-1.6,1.4-2.3c1.5-2.4,3.1-4.9,4.6-7.4s3-5,3.6-7.9 c0.5-2.1,0.9-4.9-0.7-6.7c-1.7-2-4.4-1.3-6,0.3c-2.1,2.1-3.3,5.1-4.2,7.9c-3.3,10.1-2.5,15.2-2.5,15.2c0.1,0.8,0.5,2.3,1.5,2.6 c0.4,0.1,0.8-0.1,1.1-0.4C166.7,87.9,167.1,87.4,167.5,86.9z" class="ai-creation-59"/></g><g id="head_6_"><path id="head_7_" d="M179.5,55.2c-2-1.4-3.5-3.3-4.2-5.8c-0.9-3.3-0.6-6.8,0.4-10c0.4-1.3,0.9-2.5,1.5-3.7 c1.1-2.1,2.7-4.1,4.6-5.5c4.3-3.3,10-4.8,15.4-4.1c1.9,0.2,3.8,0.8,5.6,1.6c2.7,1.3,5.2,3.4,7.1,5.8c1.6,2.1,3,4.5,3.5,7.1 c1.4,7-6,11.6-11.3,14.3c-2.2,1.1-4.5,2-6.9,2.5c-0.2,0-0.3,0.1-0.5,0.1c-3.7,0.7-7.8,0.7-11.4-0.5 C181.8,56.5,180.6,55.9,179.5,55.2z" class="ai-creation-20"/><path id="head_8_" d="M179.5,55.2c-2-1.4-3.5-3.3-4.2-5.8c-0.9-3.3-0.6-6.8,0.4-10c0.4-1.3,0.9-2.5,1.5-3.7 c1.1-2.1,2.7-4.1,4.6-5.5c4.3-3.3,10-4.8,15.4-4.1c1.9,0.2,3.8,0.8,5.6,1.6c2.7,1.3,5.2,3.4,7.1,5.8c1.6,2.1,3,4.5,3.5,7.1 c1.4,7-6,11.6-11.3,14.3c-2.2,1.1-4.5,2-6.9,2.5c-0.2,0-0.3,0.1-0.5,0.1c-3.7,0.7-7.8,0.7-11.4-0.5 C181.8,56.5,180.6,55.9,179.5,55.2z" class="ai-creation-62"/><path id="face_1_" d="M200.7,48.9c-1.6,0.7-3.3,1.3-5,1.8c-3.5,0.9-8,1.4-10.9-1.1c-0.3-0.3-0.6-0.6-0.8-0.9 c-1.1-1.4-1.2-3.4-0.9-5.1c0.2-1.2,0.6-2.4,1.1-3.5c1.6-3.6,4.5-6.6,8.1-8.3c3.4-1.6,7.4-1.8,11-0.8c3,0.8,6,2.9,6.5,6.2 s-1.7,6.5-4.1,8.6C204.2,47.1,202.4,48.1,200.7,48.9z" class="ai-creation-63"/><g id="eyes_1_" class="ai-creation-64"><path id="left-eye_1_" d="M188.1,44c-0.2-0.3-0.2-0.6-0.1-0.9c0.1-0.3,0.3-0.6,0.5-0.8c1.1-1.2,2.7-2.2,4.4-2.4 c0.9-0.1,1.9,0.2,2.7,0.7c0.3,0.2,0.6,0.4,0.7,0.7c0.3,0.5-0.2,0.9-0.6,1.2c-0.6,0.3-1.2,0.6-1.9,0.8c-0.7,0.3-1.4,0.5-2.1,0.7 c-0.8,0.3-1.6,0.6-2.4,0.6C188.8,44.5,188.3,44.4,188.1,44z" class="ai-creation-59"/><path id="right-eye_1_" d="M199.5,39.6c-0.2-0.2-0.3-0.5-0.3-0.8s0.1-0.6,0.3-0.8c0.7-1.3,1.9-2.5,3.4-2.9 c0.8-0.2,1.8-0.2,2.6,0.1c0.3,0.1,0.6,0.2,0.8,0.5c0.4,0.4,0,0.8-0.3,1.1c-0.5,0.4-1,0.7-1.5,1c-0.6,0.3-1.1,0.7-1.7,1 c-0.6,0.4-1.3,0.8-2,1C200.4,39.9,199.9,39.9,199.5,39.6z" class="ai-creation-59"/></g><path id="reflection" d="M199.7,30.4c0,0,7.4,3.9,9.1,11.5l0,0l0.1-0.1c0.1-0.2,0.2-0.3,0.2-0.5 c0.1-0.2,0.2-0.5,0.3-0.8s0.2-0.6,0.3-1s0.1-0.8,0.2-1.1c0-0.4,0-0.8-0.1-1.3s-0.2-0.9-0.4-1.3c-0.2-0.5-0.4-0.9-0.8-1.3 c-0.1-0.1-0.2-0.3-0.3-0.4c-0.1-0.1-0.1-0.2-0.2-0.3c-0.1-0.1-0.2-0.2-0.3-0.3s-0.3-0.3-0.4-0.4c-0.2-0.2-0.4-0.3-0.5-0.4 c-0.2-0.2-0.4-0.3-0.7-0.4c-0.3-0.2-0.5-0.3-0.8-0.4c-0.3-0.2-0.6-0.3-0.9-0.4c-0.3-0.1-0.7-0.3-1.1-0.4 c-0.4-0.1-0.8-0.2-1.2-0.3c-0.5-0.1-0.9-0.2-1.4-0.2C200.5,30.5,200.1,30.5,199.7,30.4z" class="ai-creation-65"/></g><g id="belts_2_" class="ai-creation-25"><path id="bottom_9_" d="M202.8,91.2c0,0-9.6,6.3-20.5,0c0,0,0.6,0.8,0.7,0.9c0,0,8.8,5.8,18.9,0L202.8,91.2z" class="ai-creation-20"/><path id="top_9_" d="M180,87.8c0,0,11.8,9.1,25.5,0l-0.8,1.2c0,0-11.4,8.6-24,0L180,87.8z" class="ai-creation-20"/></g></g><g id="graphic-1" class="ai-creation-0"><g id="screen_1_" class="ai-creation-25"><path d="M302.6,94.9c0-1.4-1-3-2.2-3.7l-41.2-23.6c-1.2-0.7-2.2-0.1-2.2,1.3V90c0,1.4,1,3,2.2,3.7l41.2,23.4 c1.2,0.7,2.2,0.1,2.2-1.3V94.9z" class="ai-creation-29"/></g><line id="line-4_1_" x1="267" x2="267" y1="78.4" y2="93.3" class="ai-creation-66"/><line id="line-3_1_" x1="276.2" x2="276.2" y1="83.7" y2="98.6" class="ai-creation-66"/><line id="line-2_1_" x1="285.5" x2="285.5" y1="89.2" y2="104.1" class="ai-creation-66"/><line id="line-1_1_" x1="295.6" x2="295.6" y1="95" y2="109.9" class="ai-creation-66"/><linearGradient id="chart_1_" x1="-550.874" x2="-515.89" y1="59.95" y2="59.95" gradientTransform="matrix(-1 0 0 -1 -251.9032 154)" gradientUnits="userSpaceOnUse"><stop style="stop-color:#de4437" offset="0"/><stop style="stop-color:#e14e33" offset=".03"/><stop style="stop-color:#ea7126" offset=".158"/><stop style="stop-color:#f28e1b" offset=".292"/><stop style="stop-color:#f8a512" offset=".435"/><stop style="stop-color:#fcb50c" offset=".589"/><stop style="stop-color:#febe08" offset=".764"/><stop style="stop-color:#ffc107" offset="1"/></linearGradient><path id="chart_2_" d="M298.7,108.1c-7.6-13.9-13.1-17-16.9-16.6c-2.6,0.2-3.9,2-6.6,1.8c-4.9-0.5-8.5-7-10.8-13.3" class="ai-creation-67"/></g><g id="paperwork_1_" class="ai-creation-0"><g id="shadow_73_" class="ai-creation-12"><path d="M81,122.7c0.5,0.3,0.5,0.7,0,1l-7.7,4.4c-0.5,0.3-1.2,0.3-1.7,0L59.3,121c-0.5-0.3-0.5-0.7,0-1l7.7-4.4 c0.5-0.3,1.2-0.3,1.7,0L81,122.7z" class="ai-creation-20"/></g><g id="shadow_74_" class="ai-creation-12"><path d="M81,122.7c0.5,0.3,0.5,0.7,0,1l-7.7,4.4c-0.5,0.3-1.2,0.3-1.7,0L59.3,121c-0.5-0.3-0.5-0.7,0-1l7.7-4.4 c0.5-0.3,1.2-0.3,1.7,0L81,122.7z" class="ai-creation-17"/></g><g id="paper_1_"><path d="M81,122.5c0.5,0.3,0.5,0.7,0,1l-7.7,4.4c-0.5,0.3-1.2,0.3-1.7,0l-12.4-7.1c-0.5-0.3-0.5-0.7,0-1l7.7-4.4 c0.5-0.3,1.2-0.3,1.7,0L81,122.5z" class="ai-creation-51"/></g><path id="line_21_" d="M72,124.7l4.7-2.7c0.1,0,0.2,0,0.2,0l0.1,0.1c0.1,0,0.1,0.1,0,0.1l-4.7,2.7 c-0.1,0-0.2,0-0.2,0L72,124.7C72,124.8,71.9,124.7,72,124.7z" class="ai-creation-48"/><path id="line_20_" d="M74,122.4l1.8-1c0.1,0,0.2,0,0.2,0l0.1,0.1c0.1,0,0.1,0.1,0,0.1l-1.8,1c-0.1,0-0.2,0-0.2,0 L74,122.4L74,122.4z" class="ai-creation-48"/><path id="line_19_" d="M69,122.9l4.7-2.7c0.1,0,0.2,0,0.2,0l0.1,0.1c0.1,0,0.1,0.1,0,0.1l-4.7,2.7 c-0.1,0-0.2,0-0.2,0L69,122.9C69,123,69,123,69,122.9z" class="ai-creation-48"/><path id="line_18_" d="M71.1,120.7l1.8-1c0.1,0,0.2,0,0.2,0l0.1,0.1c0.1,0,0.1,0.1,0,0.1l-1.8,1c-0.1,0-0.2,0-0.2,0 L71.1,120.7C71,120.8,71,120.7,71.1,120.7z" class="ai-creation-48"/><path id="line_17_" d="M66.1,121.2l4.7-2.7c0.1,0,0.2,0,0.2,0l0.1,0.1c0.1,0,0.1,0.1,0,0.1l-4.7,2.7 c-0.1,0-0.2,0-0.2,0L66.1,121.2C66,121.3,66,121.3,66.1,121.2z" class="ai-creation-48"/><path id="line_15_" d="M68.1,119l1.8-1c0.1,0,0.2,0,0.2,0l0.1,0.1c0.1,0,0.1,0.1,0,0.1l-1.8,1c-0.1,0-0.2,0-0.2,0 L68.1,119C68,119.1,68,119,68.1,119z" class="ai-creation-48"/><g id="badge"><path d="M63.7,120.4c-0.1,0.1-0.3-0.1-0.5,0c-0.1,0-0.2,0.3-0.3,0.3s-0.3-0.2-0.4-0.2c-0.1,0-0.3,0.2-0.4,0.2 c-0.1,0-0.2-0.3-0.3-0.3s-0.3,0.1-0.5,0.1c-0.1-0.1,0-0.3-0.1-0.4s-0.3,0-0.3-0.1s0.2-0.2,0.2-0.3c0-0.1-0.2-0.3-0.1-0.3 c0.1-0.1,0.3,0,0.4,0c0.1-0.1,0-0.3,0.1-0.4s0.3,0.1,0.5,0c0.1,0,0.2-0.3,0.3-0.3s0.3,0.2,0.4,0.2c0.1,0,0.3-0.2,0.4-0.2 c0.1,0,0.2,0.3,0.3,0.3s0.3-0.1,0.5-0.1c0.1,0.1,0,0.3,0.1,0.4c0.1,0.1,0.3,0,0.3,0.1s-0.2,0.2-0.2,0.3c0,0.1,0.2,0.3,0.1,0.3 c-0.1,0.1-0.3,0-0.4,0C63.8,120.1,63.8,120.3,63.7,120.4z" class="ai-creation-68"/></g><ellipse id="shadow_55_" cx="62.6" cy="119.6" class="ai-creation-69" rx=".9" ry=".5" transform="matrix(0.9927 -0.121 0.121 0.9927 -14.0121 8.4529)"/></g><g id="pencil_2_" class="ai-creation-0"><polygon id="shadow_72_" points="77.8 117.8 70 113.3 69.6 113.5 69.5 113.8 69.5 114 77.3 118.6 78.1 118.6 78.3 118.3" class="ai-creation-70"/><polygon id="body-1_2_" points="77.5 117.8 77.8 117.6 70 113.1 69.6 113.3" class="ai-creation-14"/><polygon id="body-2_2_" points="69.6 113.3 69.5 113.6 77.3 118.2 77.5 117.8" class="ai-creation-17"/><polygon id="body-3_2_" points="69.5 113.6 69.5 113.8 77.3 118.4 77.3 118.2" class="ai-creation-5"/><polygon id="wood_2_" points="77.8 117.6 78.3 118.2 78.1 118.4 77.3 118.4 77.3 118.2 77.5 117.8" class="ai-creation-20"/><g id="lead_2_"><g><ellipse cx="78.2" cy="118.3" class="ai-creation-5" rx=".2" ry=".1" transform="matrix(0.4468 -0.8946 0.8946 0.4468 -62.5644 135.3981)"/></g><g><polygon points="78.4 118.4 78.4 118.4 78.4 118.4 78.4 118.4" class="ai-creation-5"/></g><polygon points="78.4 118.4 78.4 118.4 78.3 118.2 78.3 118.2 78.3 118.2 78.2 118.4 78.2 118.4" class="ai-creation-5"/></g></g><g id="mug_2_" class="ai-creation-0"><linearGradient id="shadow_7_" x1="56.813" x2="62.384" y1="-69.121" y2="-69.121" gradientTransform="matrix(0.9024 -0.4308 -0.4308 -0.9024 -34.7128 94.7847)" gradientUnits="userSpaceOnUse"><stop style="stop-color:#62e0fa;stop-opacity:0" offset="0"/><stop style="stop-color:#2d1582" offset="1"/></linearGradient><path id="shadow_70_" d="M51.6,132.5l-3.8,1.6c-0.5,0.2-1-0.2-1-0.7l0.4-3.1c0.1-0.5,0.5-0.7,1-0.6l3.5,1.5 C52.2,131.4,52.2,132.2,51.6,132.5z" class="ai-creation-71"/><path id="body_16_" d="M52.5,125.7H49c0,0,0,3.1,1.6,5.6c0.9,1.3,2.8,1.3,3.7,0c1.6-2.5,1.6-5.6,1.6-5.6 S52.5,125.7,52.5,125.7z" class="ai-creation-59"/><ellipse id="inner_1_" cx="52.5" cy="125.7" class="ai-creation-72" rx="3.4" ry="2.1"/><path id="surface_3_" d="M49.6,126.8c0,0,2.6-2,5.7,0C55.3,126.8,52.7,129,49.6,126.8z" class="ai-creation-17"/><path id="hand_6_" d="M54.7,130.5L54.7,130.5l-0.3-0.2v-0.1l0.7-2.8c0-0.1,0.1-0.2,0.3-0.3l0,0l0,0 c0.4-0.3,0.9-0.4,1.4-0.2c0.5,0.2,0.9,0.6,1,1.1c0.1,0.9-0.8,1.5-1.5,1.8h-0.1c-0.4,0.2-0.8,0.4-1.3,0.5c0,0,0,0-0.1,0 C54.7,130.5,54.7,130.5,54.7,130.5z M54.6,130.3L54.6,130.3L54.6,130.3L54.6,130.3L54.6,130.3L54.6,130.3L54.6,130.3z M55.5,127.6 l-0.6,2.4c0.3-0.1,0.7-0.3,1-0.5H56c0.6-0.3,1.3-0.8,1.3-1.4c0-0.3-0.3-0.6-0.6-0.7s-0.7,0-1,0.2 C55.7,127.5,55.6,127.5,55.5,127.6C55.6,127.6,55.6,127.6,55.5,127.6z M56,129.8c-0.1,0-0.1,0.1-0.2,0.1 C55.8,129.9,55.9,129.8,56,129.8z M57.5,127.9c0,0.1,0,0.1,0,0.2c0.1,0.8-0.8,1.3-1.4,1.6H56h0.1c0.6-0.3,1.5-0.8,1.4-1.6 C57.5,128,57.5,128,57.5,127.9z M55.5,127.4C55.5,127.4,55.4,127.4,55.5,127.4C55.4,127.4,55.5,127.4,55.5,127.4z M56.4,127.1 c-0.3,0-0.6,0.1-0.8,0.3l0,0l0,0c0.3-0.2,0.7-0.3,1-0.3C56.5,127.1,56.4,127.1,56.4,127.1z" class="ai-creation-59"/></g><g id="flask" class="ai-creation-0"><polygon id="body_21_" points="333.9 118.6 333.9 115.9 329.6 115.9 329.6 118.6 325.7 126.1 331.8 126 337.8 126.1" class="ai-creation-59"/><path id="bubbles_5_" d="M333.7,119.8c0,0.4-0.3,0.7-0.7,0.7s-0.7-0.3-0.7-0.7c0-0.4,0.3-0.7,0.7-0.7 S333.7,119.4,333.7,119.8z" class="ai-creation-73"/><path id="bubbles_8_" d="M331.4,117.8c0,0.2-0.2,0.4-0.4,0.4s-0.4-0.2-0.4-0.4c0-0.2,0.2-0.4,0.4-0.4 S331.4,117.6,331.4,117.8z" class="ai-creation-73"/><linearGradient id="inner-shadow_1_" x1="331.75" x2="331.75" y1="38.071" y2="27.918" gradientTransform="matrix(1 0 0 -1 0 154)" gradientUnits="userSpaceOnUse"><stop style="stop-color:#2d1582;stop-opacity:.8" offset="0"/><stop style="stop-color:#62e0fa;stop-opacity:0" offset="1"/></linearGradient><polygon id="inner-shadow" points="333.9 118.6 333.9 115.9 329.6 115.9 329.6 118.6 325.7 126.1 331.8 126 337.8 126.1" class="ai-creation-74"/><g id="holder_2_"><path d="M327.3,130.1c-2.5-1.5-2.5-3.9,0-5.3s6.5-1.4,9,0s2.5,3.8,0,5.3S329.7,131.6,327.3,130.1z" class="ai-creation-29"/></g><g id="shadow_66_" class="ai-creation-19"><path d="M327.3,130.9c-2.5-1.5-2.5-3.9,0-5.3s6.5-1.4,9,0s2.5,3.8,0,5.3S329.7,132.4,327.3,130.9z" class="ai-creation-5"/></g><polygon id="aside_10_" points="325.4 127.5 325.4 127.1 338.1 127.2 338.1 127.5" class="ai-creation-29"/><g id="bottom_25_"><path d="M327.3,129.8c-2.5-1.4-2.5-3.8,0-5.2c2.5-1.4,6.5-1.4,9,0s2.5,3.8,0,5.2S329.7,131.2,327.3,129.8z" class="ai-creation-59"/></g><g id="liquid-bottom"><path d="M327.4,129.6c-2.4-1.4-2.4-3.6,0-5s6.3-1.4,8.7,0c2.4,1.4,2.4,3.6,0,5S329.8,131,327.4,129.6z" class="ai-creation-5"/></g><polygon id="liquid" points="327.8 122.4 325.9 126 337.6 126.1 335.7 122.4" class="ai-creation-5"/><g id="liquid-surface"><path d="M328.9,124.6c-1.6-0.9-1.6-2.4,0-3.3s4.2-0.9,5.8,0s1.6,2.4,0,3.3C333.1,125.5,330.5,125.5,328.9,124.6z" class="ai-creation-75"/></g><g id="top-bottom"><path d="M329.9,116.2c-1-0.6-1-1.5,0-2.1s2.6-0.6,3.7,0c1,0.6,1,1.5,0,2.1C332.6,116.8,330.9,116.8,329.9,116.2z" class="ai-creation-29"/></g><polygon id="top-aside_1_" points="329.2 114.4 329.2 115.2 334.3 115.2 334.3 114.4" class="ai-creation-29"/><g id="top_36_"><path d="M329.9,115.5c-1-0.6-1-1.5,0-2.1s2.6-0.6,3.7,0c1,0.6,1,1.5,0,2.1C332.6,116,330.9,116,329.9,115.5z" class="ai-creation-59"/></g><g id="border"><path d="M330.5,115.1c-0.7-0.4-0.7-1,0-1.4s1.8-0.4,2.5,0s0.7,1,0,1.4S331.2,115.5,330.5,115.1z" class="ai-creation-29"/></g><g id="mouth"><path d="M330.6,115c-0.6-0.4-0.6-0.9,0-1.3s1.6-0.4,2.2,0s0.6,0.9,0,1.3C332.3,115.4,331.2,115.4,330.6,115z" class="ai-creation-59"/></g><g id="mouth-shadow" class="ai-creation-19"><linearGradient id="SVGID_11_" x1="331.7" x2="331.7" y1="38.688" y2="40.516" gradientTransform="matrix(1 0 0 -1 0 154)" gradientUnits="userSpaceOnUse"><stop style="stop-color:#2d1582;stop-opacity:.7" offset="0"/><stop style="stop-color:#62e0fa;stop-opacity:0" offset="1"/></linearGradient><path d="M330.6,115c-0.6-0.4-0.6-0.9,0-1.3s1.6-0.4,2.2,0s0.6,0.9,0,1.3C332.3,115.4,331.2,115.4,330.6,115z" class="ai-creation-76"/></g><circle id="bubbles_4_" cx="336.4" cy="126.4" r=".4" class="ai-creation-77"/><circle id="bubbles_3_" cx="329.2" cy="127.3" r=".4" class="ai-creation-77"/><circle id="bubbles_2_" cx="330" cy="127.6" r=".3" class="ai-creation-77"/><circle id="bubbles_1_" cx="336.7" cy="127" r=".1" class="ai-creation-77"/><circle id="bubbles" cx="335.7" cy="126.8" r=".2" class="ai-creation-77"/><ellipse id="bubbles_12_" cx="337.5" cy="106.4" class="ai-creation-78" rx="4" ry="4"/><path id="bubbles_11_" d="M338.7,111.7c-0.1,0.6-0.5,1-1,1c-0.6,0-1-0.5-1-1c0-0.6,0.5-1,1-1 C338.3,110.7,338.8,111.2,338.7,111.7z" class="ai-creation-78"/><path id="bubbles_10_" d="M333,108c0,0.3-0.2,0.5-0.5,0.5s-0.5-0.2-0.5-0.5s0.2-0.5,0.5-0.5S333.1,107.7,333,108z" class="ai-creation-78"/><path id="bubbles_9_" d="M345.3,112.2c-0.1,1.4-1.1,2.6-2.6,2.6s-2.6-1.1-2.6-2.6c0-1.4,1.1-2.6,2.6-2.6 S345.5,110.8,345.3,112.2z" class="ai-creation-78"/><path id="bubbles_7_" d="M345.1,107.6c0,0.8-0.7,1.5-1.5,1.5s-1.5-0.7-1.5-1.5s0.7-1.5,1.5-1.5 S345.1,106.8,345.1,107.6z" class="ai-creation-78"/><path id="bubbles_6_" d="M333.4,111.2c0,0.8-0.6,1.4-1.4,1.4s-1.4-0.6-1.4-1.4s0.6-1.4,1.4-1.4 C332.8,109.8,333.4,110.4,333.4,111.2z" class="ai-creation-78"/></g></g></svg>