<svg xmlns="http://www.w3.org/2000/svg" xmlns:xlink="http://www.w3.org/1999/xlink" style="enable-background:new 0 0 128 126" id="Layer_1" x="0" y="0" version="1.1" viewBox="0 0 128 126" xml:space="preserve"><style type="text/css">.st0{opacity:.3;fill:#bdc5d1}.st1{fill:#fff}.st2{fill:#2684ff}.st3{fill:url(#SVGID_1_)}.st4{fill:url(#SVGID_2_)}.st5{fill:#95bf47}.st6{fill:#5e8e3e}.st7{fill:url(#b_1_)}.st8{fill:url(#e_1_)}.st9{fill:url(#h_1_)}.st10{fill:#ea6c00}.st10,.st11,.st12,.st13{fill-rule:evenodd;clip-rule:evenodd}.st11{fill:#fdad00}.st12{fill:#fdd231}.st13{fill:#feeeb7}</style><path d="M75.3,67.8L33.2,50.3c-3-1.2-4.4-4.7-3.2-7.7l17.5-42c1.2-3,4.7-4.4,7.7-3.2l42.1,17.4c3,1.2,4.4,4.7,3.2,7.7	L83,64.6C81.8,67.6,78.3,69,75.3,67.8z" class="st0"/><path d="M73.4,63.4L31.3,45.9c-3-1.2-4.4-4.7-3.2-7.7l17.5-42c1.2-3,4.7-4.4,7.7-3.2l42.1,17.4c3,1.2,4.4,4.7,3.2,7.7	L81.1,60.2C79.9,63.2,76.4,64.6,73.4,63.4z" class="st1"/><path d="M81,20l-13.2-5.5c-1.4,3.3,0.2,7.1,3.5,8.4l2.4,1l-1,2.3c-1.4,3.3,0.2,7.1,3.5,8.4l5.4-13.1	C81.9,21,81.6,20.2,81,20z" class="st2"/><linearGradient id="SVGID_1_" x1="-1162.484" x2="-1162.489" y1="423.036" y2="423.031" gradientTransform="matrix(1079.1891 447.1534 444.5365 -1072.8733 1066557.125 973696.75)" gradientUnits="userSpaceOnUse"><stop style="stop-color:#0052cc" offset=".18"/><stop style="stop-color:#2684ff" offset="1"/></linearGradient><path d="M71.7,23.8l-13.2-5.5c-1.4,3.3,0.2,7.1,3.5,8.4l2.4,1l-1,2.3c-1.4,3.3,0.2,7.1,3.5,8.4l5.4-13.1	C72.7,24.8,72.4,24.1,71.7,23.8L71.7,23.8z" class="st3"/><linearGradient id="SVGID_2_" x1="-1162.034" x2="-1162.04" y1="423.491" y2="423.485" gradientTransform="matrix(1079.1971 447.1567 444.5364 -1072.8732 1065869.875 973991.3125)" gradientUnits="userSpaceOnUse"><stop style="stop-color:#0052cc" offset=".18"/><stop style="stop-color:#2684ff" offset="1"/></linearGradient><path d="M62.5,27.7l-13.2-5.5c-1.4,3.3,0.2,7.1,3.5,8.4l2.4,1l-1,2.3c-1.4,3.3,0.2,7,3.5,8.4l5.4-13.1	C63.4,28.7,63.1,28,62.5,27.7L62.5,27.7z" class="st4"/><path d="M48.2,134.7L6.1,117.3c-3-1.2-4.4-4.7-3.2-7.7l17.4-42.1c1.2-3,4.7-4.4,7.7-3.2l42.2,17.5	c3,1.2,4.4,4.7,3.2,7.7L56,131.6C54.6,134.5,51.2,136,48.2,134.7z" class="st0"/><path d="M46,129.5L3.9,112.1c-3-1.2-4.4-4.7-3.2-7.7l17.4-42.1c1.2-3,4.7-4.4,7.7-3.2L68,76.6c3,1.2,4.4,4.7,3.2,7.7	l-17.4,42.1C52.4,129.3,49,130.8,46,129.5z" class="st1"/><path d="M49.7,89.7c0.1-0.1-0.1-0.3-0.1-0.4c-0.1,0-2.2-1.1-2.2-1.1s-0.9-2.1-1-2.3c-0.1-0.2-0.5-0.3-0.6-0.3	c0,0-0.4,0-0.9-0.1c0.1-1.6-0.2-3.3-1.8-3.9L43,81.5c-0.2-0.8-0.6-1.3-1.1-1.4c-3.6-1.5-7.1,2.3-8.6,4.4c-1.6-0.1-2.7-0.2-2.8-0.3	c-0.8-0.1-0.9-0.1-1.3,0.6c-0.4,0.6-8.9,15.5-8.9,15.5l14.6,9.6l9.4,1.7C44.2,111.5,49.7,89.8,49.7,89.7z M44,85.4	c-0.5,0-0.9-0.1-1.5-0.2l0.1-0.3c0.4-0.9,0.5-1.7,0.6-2.3C43.8,83.2,44,84.3,44,85.4z M42.1,82.5c0,0.6-0.2,1.5-0.6,2.5l-0.1,0.1	c-0.9-0.1-2.1-0.2-3.1-0.3C39.6,83.1,41,82.5,42.1,82.5z M41.4,81c0.1,0.1,0.3,0.2,0.4,0.3c-1.4,0.1-3.2,0.9-4.8,3.4	c-0.8-0.1-1.7-0.2-2.5-0.2C36,82.8,38.9,80,41.4,81z" class="st5"/><path d="M49.6,89.4c-0.1,0-2.2-1.1-2.2-1.1s-0.9-2.1-1-2.3c0-0.1-0.1-0.2-0.2-0.2l-11.4,24l9.4,1.7	c0,0,5.4-21.7,5.5-21.8C49.8,89.5,49.7,89.4,49.6,89.4z" class="st6"/><path d="M39.4,90.7L37,93.4c0,0-0.7-0.9-1.9-1.4c-1.7-0.7-2.2,0.3-2.3,0.6c-0.6,1.4,2.9,3.5,1.5,6.9	c-1.1,2.6-3.5,3.7-5.7,2.7c-2.7-1.1-3.4-3.4-3.4-3.4l1.7-2.1c0,0,0.9,1.8,2.1,2.3c0.8,0.3,1.4-0.2,1.5-0.6c0.8-1.9-2.3-3.3-1-6.4	c1.1-2.6,4-4.3,7.7-2.8C38.9,90,39.4,90.7,39.4,90.7z" class="st1"/><path d="M124.4,137.8l-42.1-17.4c-3-1.2-4.4-4.7-3.2-7.7l17.4-42.1c1.2-3,4.7-4.4,7.7-3.2l42.1,17.4	c3,1.2,4.4,4.7,3.2,7.7l-17.4,42.1C130.8,137.6,127.4,139,124.4,137.8z" class="st0"/><path d="M122.5,134l-42.1-17.4c-3-1.2-4.4-4.7-3.2-7.7l17.4-42.1c1.2-3,4.7-4.4,7.7-3.2L144.4,81c3,1.2,4.4,4.7,3.2,7.7	l-17.4,42.1C128.9,133.8,125.5,135.2,122.5,134z" class="st1"/><g><g><g transform="translate(75 23)"><path id="b_4_" d="M37.5,69.1l-12.4,2.5c-1.7,0.3-2.3,1.8-1.3,3.3l7,10.5c1,1.4,3.1,2.4,4.8,2L48,84.9c1.7-0.3,2.3-1.8,1.3-3.3 l-7-10.5C41.4,69.6,39.2,68.7,37.5,69.1L37.5,69.1z"/></g><g transform="translate(75 23)"><linearGradient id="b_1_" x1="-412.089" x2="-412.089" y1="-42.473" y2="-42.408" gradientTransform="matrix(402.5218 166.7817 -112.0828 270.508 161154.3281 80287.5078)" gradientUnits="userSpaceOnUse"><stop style="stop-color:#5c24ae" offset="0"/><stop style="stop-color:#30135a" offset="1"/></linearGradient><path id="b_3_" d="M37.5,69.1l-12.4,2.5c-1.7,0.3-2.3,1.8-1.3,3.3l7,10.5c1,1.4,3.1,2.4,4.8,2L48,84.9 c1.7-0.3,2.3-1.8,1.3-3.3l-7-10.5C41.4,69.6,39.2,68.7,37.5,69.1L37.5,69.1z" class="st7"/></g></g><g><g transform="translate(75 23)"><path id="e_4_" d="M38.8,65.8l-12.4,2.5c-1.7,0.3-2.3,1.8-1.3,3.3l7,10.5c1,1.4,3.1,2.4,4.8,2l12.4-2.5c1.7-0.3,2.3-1.8,1.3-3.3 l-7-10.5C42.7,66.3,40.5,65.4,38.8,65.8L38.8,65.8z"/></g><g transform="translate(75 23)"><linearGradient id="e_1_" x1="-412.089" x2="-412.089" y1="-42.309" y2="-42.232" gradientTransform="matrix(402.5218 166.7817 -112.0828 270.5079 161175.3906 80236.7188)" gradientUnits="userSpaceOnUse"><stop style="stop-color:#7331d4" offset="0"/><stop style="stop-color:#461b84" offset="1"/></linearGradient><path id="e_3_" d="M38.8,65.8l-12.4,2.5c-1.7,0.3-2.3,1.8-1.3,3.3l7,10.5c1,1.4,3.1,2.4,4.8,2l12.4-2.5 c1.7-0.3,2.3-1.8,1.3-3.3l-7-10.5C42.7,66.3,40.5,65.4,38.8,65.8L38.8,65.8z" class="st8"/></g></g><g><g transform="translate(75 23)"><path id="h_4_" d="M40.2,62.5L27.8,65c-1.7,0.3-2.3,1.8-1.3,3.3l7,10.5c1,1.4,3.1,2.4,4.8,2l12.4-2.5C52.4,78,53,76.5,52,75 l-7-10.5C44.1,63,41.9,62.1,40.2,62.5L40.2,62.5z"/></g><g transform="translate(75 23)"><linearGradient id="h_1_" x1="-412.089" x2="-412.089" y1="-42.122" y2="-42.057" gradientTransform="matrix(402.5218 166.7817 -112.0828 270.5079 161196.4375 80185.9063)" gradientUnits="userSpaceOnUse"><stop style="stop-color:#905bdd" offset="0"/><stop style="stop-color:#5521a0" offset="1"/></linearGradient><path id="h_3_" d="M40.2,62.5L27.8,65c-1.7,0.3-2.3,1.8-1.3,3.3l7,10.5c1,1.4,3.1,2.4,4.8,2l12.4-2.5 C52.4,78,53,76.5,52,75l-7-10.5C44.1,63,41.9,62.1,40.2,62.5L40.2,62.5z" class="st9"/></g></g><path d="M114,99.1l-5.4-8.2l3.8-0.8c1.6-0.3,3.3,0.3,4.1,1.5c0.6,0.9,0.4,1.8-0.5,2.1l0,0c1.4-0.1,2.8,0.5,3.5,1.6 c1,1.4,0.3,2.5-1.7,3L114,99.1L114,99.1z M112.1,94.2l1.9-0.4c1.4-0.3,1.9-0.9,1.3-1.8c-0.5-0.8-1.5-1.1-2.7-0.9l-2.3,0.5 L112.1,94.2z M117,97.5c1.4-0.3,1.9-0.9,1.2-1.9c-0.6-0.9-1.7-1.3-3.3-1l-2.3,0.5l1.9,2.9L117,97.5L117,97.5z" class="st1"/></g><path d="M152.1,72.2L110,54.8c-3-1.2-4.4-4.7-3.2-7.7L124.2,5c1.2-3,4.7-4.4,7.7-3.2L174,19.2c3,1.2,4.4,4.7,3.2,7.7	L159.8,69C158.5,72,155.1,73.4,152.1,72.2z" class="st0"/><path d="M149.9,67.8l-42.1-17.4c-3-1.2-4.4-4.7-3.2-7.7L122,0.6c1.2-3,4.7-4.4,7.7-3.2l42.1,17.4c3,1.2,4.4,4.7,3.2,7.7	l-17.4,42.1C156.3,67.6,152.9,69,149.9,67.8z" class="st1"/><path id="a" d="M133.2,26l1.5,18.2L128,23.8L133.2,26z" class="st10"/><path id="b" d="M148.5,32.4l-13.9,11.8l19.1-9.7C153.7,34.5,148.5,32.4,148.5,32.4z" class="st10"/><path id="c" d="M133.2,26l15.3,6.4l-13.9,11.8L133.2,26z" class="st11"/><path id="d" d="M144.3,20.9l-7.6-2.2l-3.5,7.4L144.3,20.9z" class="st12"/><path id="e" d="M144.3,20.9l6.9,3.8l-2.7,7.7L144.3,20.9z" class="st12"/><path id="f" d="M153.7,34.5l-2.5-9.9l-2.7,7.7L153.7,34.5z" class="st11"/><path id="g" d="M128,23.8l8.8-5.2l-3.5,7.4L128,23.8z" class="st11"/><path id="h" d="M144.3,20.9L133.2,26l15.3,6.4L144.3,20.9z" class="st13"/></svg>