<svg xmlns="http://www.w3.org/2000/svg" xmlns:xlink="http://www.w3.org/1999/xlink" x="0" y="0" preserveAspectRatio="xMaxYMin" viewBox="0 0 426.5 232.7" xml:space="preserve" style="enable-background:new 0 0 426.5 232.7"><style type="text/css">.book-0{clip-path:url(#SVGID_2_)}.book-1{fill:url(#SVGID_3_)}.book-2{fill:url(#SVGID_4_)}.book-3{fill:none;stroke:#e7eaf3;stroke-miterlimit:10}.book-4{fill:#fff}.book-5{fill:url(#SVGID_5_)}.book-6{opacity:9.000000e-02;fill:#3a350c}.book-7{fill:url(#SVGID_6_)}.book-8{fill:url(#SVGID_7_)}.book-9{fill:#aff9f9}</style><g><defs><rect id="SVGID_1_" width="426.5" height="232.7"/></defs><clipPath id="SVGID_2_"><use xlink:href="#SVGID_1_" style="overflow:visible"/></clipPath><g class="book-0"><linearGradient id="SVGID_3_" x1="0" x2="576.167" y1="194.868" y2="194.868" gradientTransform="matrix(0.9747 0.2236 -0.2236 0.9747 43.4881 -60.3287)" gradientUnits="userSpaceOnUse"><stop offset="0" style="stop-color:#2d1582;stop-opacity:0"/><stop offset=".098" style="stop-color:#231e73;stop-opacity:7.767697e-02"/><stop offset=".264" style="stop-color:#162960;stop-opacity:.2093"/><stop offset=".379" style="stop-color:#112d59;stop-opacity:.3"/></linearGradient><polygon points="293.1 33.4 557.6 275.5 273.2 355.8 3.1 115.8" class="book-1"/><linearGradient id="SVGID_4_" x1="39.062" x2="301.152" y1="190.944" y2="190.944" gradientUnits="userSpaceOnUse"><stop offset="0" style="stop-color:#1f6cdd"/><stop offset="1" style="stop-color:#0e39a1"/></linearGradient><path d="M40.4,87.5c0,0-5.7-15.2,6.7-29.3l254.1,236.3c0,0-12.1,11.5-6.7,29.3L40.4,87.5z" class="book-2"/><line x1="296" x2="566.9" y1="303.7" y2="220.5" class="book-3"/><line x1="294.1" x2="565" y1="311.8" y2="228.6" class="book-3"/><line x1="293.9" x2="564.7" y1="319" y2="235.8" class="book-3"/><path d="M572.3,211.1c0,0-12,14.5-6.7,29.3l-271.4,84.2c0,0-5.1-12.9,6.9-30.2L572.3,211.1z" class="book-4"/><linearGradient id="SVGID_5_" x1="47.084" x2="572.344" y1="133.513" y2="133.513" gradientUnits="userSpaceOnUse"><stop offset="0" style="stop-color:#0079dd"/><stop offset="1" style="stop-color:#0e39a1"/></linearGradient><polygon points="323.7 -27.4 572.3 211.1 301.2 294.4 47.1 58.1" class="book-5"/><path d="M347.2-5l-21.1-20.2L140.3,32.2c3,2.7,7.1,4.9,11.8,6.2l167.9,45.9c9.6,2.6,18,0,18.6-5.7L347.2-5z" class="book-6"/><linearGradient id="SVGID_6_" x1="201.372" x2="220.547" y1="-16.727" y2="92.017" gradientTransform="matrix(0.9747 0.2236 -0.2236 0.9747 43.4881 -60.3287)" gradientUnits="userSpaceOnUse"><stop offset="0" style="stop-color:#377dff"/><stop offset="1" style="stop-color:#47ddfc"/></linearGradient><path d="M344.7-7.3l-21.1-20.2L137.9,29.9c3,2.7,7.1,4.9,11.8,6.2l167.9,45.9c9.6,2.6,18,0,18.6-5.7L344.7-7.3z" class="book-7"/><linearGradient id="SVGID_7_" x1="206.884" x2="220.048" y1="-9.893" y2="64.763" gradientTransform="matrix(0.9747 0.2236 -0.2236 0.9747 43.4881 -60.3287)" gradientUnits="userSpaceOnUse"><stop offset="0" style="stop-color:#377dff"/><stop offset="1" style="stop-color:#47ddfc"/></linearGradient><path d="M316.9-7l-14.5-13.9L174.8,18.5c2,1.8,4.9,3.4,8.1,4.3l115.2,31.5c6.6,1.8,12.4,0,12.8-3.9L316.9-7z" class="book-8"/><g><path d="M185,138.1l7.4-2.3l23,12.4l-8.6-16.9l7.4-2.3l22.8,21.2l-6.3,1.9l-13.7-12.7l7.9,14.5l-5.1,1.6l-19.5-10.9 l13.7,12.7l-6.3,1.9L185,138.1z" class="book-9"/><path d="M230.8,129.5c3-0.9,6.4-0.5,9.1,0.7l-2.6-2.4l6.3-1.9l18.1,16.8l-6.3,1.9l-2.6-2.4c0.5,1.8-0.5,3.6-3.5,4.6 c-5,1.5-12.6-0.6-18.3-5.9S225.8,131,230.8,129.5z M237.5,133.4c-2.3,0.7-2.9,2.8,0,5.5c2.9,2.7,6.6,3.5,9,2.8 c2.4-0.7,2.9-2.9,0-5.5S239.8,132.7,237.5,133.4z" class="book-9"/><path d="M274.8,139c-5.5,1.7-11.8,0.3-15.6-2.9l6.2-1.9c1.4,1.1,3.5,1.5,5.3,1c1.6-0.5,1.8-1.4,1-2.1 c-2.9-2.7-12,2.7-18.6-3.5c-3.1-2.9-2.6-6.1,2.7-7.8c5.3-1.6,10.8-0.1,14.8,3.1l-5.8,1.8c-1.4-1.1-3.3-1.5-5-1 c-1.5,0.5-1.8,1.2-0.9,2c2.9,2.7,11.9-2.6,18.8,3.6C280.8,134.2,280,137.4,274.8,139z" class="book-9"/><path d="M274.2,122.1l-2.5,0.8l-4.6-4.3l2.5-0.8l-4.4-4.1l6.3-1.9l4.4,4.1l4.1-1.3l4.6,4.3l-4.1,1.3l7.3,6.8 c1.1,1,2,1.3,3.4,0.8l2.2-0.7l4.7,4.4l-3.2,1c-4.3,1.3-8.8,0.7-13.5-3.6L274.2,122.1z" class="book-9"/><path d="M311,127.9c-6,1.8-13.9-0.1-19.6-5.5c-5.7-5.3-5.1-10,1-11.8c6-1.8,13.7,0.1,19.2,5.3c0.5,0.5,1,1,1.5,1.5 l-14.2,4.4c2.6,2.1,5.3,2.7,7.4,2c1.8-0.5,2-1.6,1.5-2.6l6.7-2C317,122.7,316.1,126.3,311,127.9z M295.8,118.8l7.8-2.4 c-2-1.8-4.9-2.4-7-1.7C294.7,115.3,294.2,116.9,295.8,118.8z" class="book-9"/><path d="M330.5,121.6l-6.3,1.9l-18.1-16.8l6.3-1.9l3,2.8c-0.5-2.2,0.5-4.1,3.2-5l5.9,5.5l-1.7,0.5 c-3,0.9-3.8,2.3-0.7,5.2L330.5,121.6z" class="book-9"/><path d="M258.6,186.8l-9.6,2.9l2.5,4.2l-6.6,2l-13.5-24l7.3-2.2l32.1,18.3l-6.6,2L258.6,186.8z M241.2,176.5l5.2,8.7 l6.3-1.9L241.2,176.5z" class="book-9"/><path d="M263.1,167.7c2.7-0.8,6.2-0.5,9.1,0.6l-8.4-7.8l6.3-1.9l24,22.3l-6.3,1.9l-2.6-2.4c0.5,1.9-0.4,3.7-3.5,4.6 c-5,1.5-12.6-0.6-18.4-5.9S258.1,169.2,263.1,167.7z M269.7,171.6c-2.3,0.7-2.9,2.8,0,5.5s6.6,3.5,9,2.8c2.4-0.7,2.9-2.9,0-5.5 S272.1,170.9,269.7,171.6z" class="book-9"/><path d="M308.1,176.9c-6,1.8-14.1-0.1-19.9-5.4c-5.7-5.3-4.7-10.1,1.3-11.9c6-1.8,14.2,0.1,19.9,5.4 S314.1,175,308.1,176.9z M303.3,172.4c2.2-0.7,2.9-2.7-0.2-5.5c-3.1-2.9-6.6-3.6-8.8-2.9c-2.3,0.7-2.8,2.6,0.3,5.5 C297.7,172.4,301,173.1,303.3,172.4z" class="book-9"/><path d="M316.1,151.4c5.1-1.6,12.6,0.5,18.3,5.9s5.3,9.9,0.3,11.5c-3,0.9-6.4,0.5-9.1-0.7l2.5,2.4l-6.3,1.9l-24-22.3 l6.3-1.9l8.5,7.9C312.2,154.1,313.2,152.3,316.1,151.4z M319.1,156.5c-2.3,0.7-2.9,2.9,0,5.5c2.9,2.7,6.6,3.5,8.9,2.8 c2.4-0.7,2.9-2.9,0-5.6C325.1,156.5,321.5,155.7,319.1,156.5z" class="book-9"/><path d="M356.1,162.1c-6,1.8-13.9-0.1-19.6-5.5c-5.7-5.3-5.1-10,1-11.8c6-1.8,13.7,0.1,19.2,5.3c0.5,0.5,1,1,1.5,1.5 l-14.2,4.4c2.6,2.1,5.3,2.7,7.4,2c1.8-0.5,2-1.6,1.5-2.6l6.7-2C362.1,156.9,361.2,160.6,356.1,162.1z M341,153.1l7.8-2.4 c-2-1.8-4.9-2.4-7-1.7C339.8,149.6,339.4,151.1,341,153.1z" class="book-9"/><path d="M389.1,146.7l-9.6,3l2.5,4.2l-6.6,2l-13.5-24l7.3-2.2l32.1,18.3l-6.6,2L389.1,146.7z M371.7,136.4l5.2,8.7 l6.3-1.9L371.7,136.4z" class="book-9"/><path d="M380.6,125.9c-1.7-1.6-1.5-3.3,0.7-4c2.2-0.7,5,0.1,6.7,1.7c1.7,1.5,1.5,3.2-0.7,3.9 C385.1,128.2,382.3,127.4,380.6,125.9z M386.1,130.2l6.3-1.9l18.1,16.8l-6.3,1.9L386.1,130.2z" class="book-9"/></g><g><path d="M151.6,103.9l-1.1,0.3l2.2,2.1l-1.3,0.4l-5.8-5.4l2.4-0.7c1.6-0.5,3.2,0,4.2,0.9 C153,102.4,153.3,103.4,151.6,103.9z M150.6,103.1c0.7-0.2,0.7-0.6,0.2-1.1c-0.5-0.5-1.2-0.7-1.9-0.5l-1,0.3l1.7,1.6L150.6,103.1 z" class="book-4"/><path d="M160,102.7l-2.6,0.8l0.7,1.2l-1.4,0.4l-3.4-6.1l1.5-0.5l8.2,4.7l-1.4,0.4L160,102.7z M155.3,100l1.5,2.5 l1.9-0.6L155.3,100z" class="book-4"/><path d="M160.5,96.8c1.6-0.5,3.2,0,4.1,0.9c0.7,0.7,1,1.5,0.2,2l3.9,1.7l-1.5,0.5l-3.7-1.7l-0.6,0.2l2.3,2.1 l-1.3,0.4l-5.8-5.4L160.5,96.8z M161.4,97.7l-1.1,0.3l1.7,1.6l1.1-0.3c0.7-0.2,0.7-0.6,0.2-1.1C162.8,97.6,162.1,97.4,161.4,97.7 z" class="book-4"/><path d="M163.7,95.8l4.8-1.5l0.9,0.9l-1.7,0.5l4.9,4.5l-1.3,0.4l-4.9-4.5l-1.7,0.5L163.7,95.8z" class="book-4"/><path d="M173.9,92.6l1.3-0.4l5.8,5.4l-1.3,0.4L173.9,92.6z" class="book-4"/><path d="M176.5,91.8l1.3-0.4l5.8,5.4l-1.3,0.4L176.5,91.8z" class="book-4"/></g></g></g></svg>