<svg xmlns="http://www.w3.org/2000/svg" xmlns:xlink="http://www.w3.org/1999/xlink" id="Layer_1" x="0" y="0" version="1.1" viewBox="0 0 250 150.3" xml:space="preserve" style="enable-background:new 0 0 250 150.3"><style type="text/css">.st0,.st1{fill:none;stroke:url(#SVGID_1_);stroke-width:2;stroke-miterlimit:10}.st1{stroke:url(#SVGID_2_)}.st2{fill:#fff}.st3{opacity:.6}.st4{fill:#fff;enable-background:new}.st4,.st5{opacity:.3}.st5,.st6{fill:#377dff}.st7{opacity:.4}.st8{fill:none;stroke:#fff;stroke-width:2;stroke-linecap:round;stroke-linejoin:round;stroke-miterlimit:10}.st9{opacity:.9}</style><linearGradient id="SVGID_1_" x1=".5" x2="250" y1="124.084" y2="124.084" gradientUnits="userSpaceOnUse"><stop offset="0" style="stop-color:#fff"/><stop offset="1" style="stop-color:#fff;stop-opacity:0"/></linearGradient><path d="M247.7,129.8H2.8c-0.7,0-1.3-0.6-1.3-1.3v-8.8c0-0.7,0.6-1.3,1.3-1.3h244.8c0.7,0,1.3,0.6,1.3,1.3v8.8	C249,129.2,248.4,129.8,247.7,129.8z" class="st0"/><linearGradient id="SVGID_2_" x1=".5" x2="177" y1="143.084" y2="143.084" gradientUnits="userSpaceOnUse"><stop offset="0" style="stop-color:#fff"/><stop offset="1" style="stop-color:#fff;stop-opacity:0"/></linearGradient><path d="M174.7,148.8H2.8c-0.7,0-1.3-0.6-1.3-1.3v-8.8c0-0.7,0.6-1.3,1.3-1.3h171.8c0.7,0,1.3,0.6,1.3,1.3v8.8	C176,148.2,175.4,148.8,174.7,148.8z" class="st1"/><g><path d="M55,74.3l-5.4-17.6h-27l-5.4,17.6H0.4L26.6,0h19.2l26.2,74.3H55z M45.9,43.5c-5-16-7.8-25-8.4-27.1 s-1.1-3.7-1.3-5c-1.1,4.3-4.3,15-9.6,32H45.9z" class="st2"/><path d="M116,74.3l-3-7.7h-0.4c-2.6,3.3-5.3,5.5-8,6.8c-2.7,1.3-6.3,1.9-10.8,1.9c-5.4,0-9.7-1.6-12.8-4.7 c-3.1-3.1-4.7-7.5-4.7-13.3c0-6,2.1-10.4,6.3-13.3c4.2-2.9,10.5-4.4,19-4.7l9.8-0.3v-2.5c0-5.7-2.9-8.6-8.8-8.6 c-4.5,0-9.8,1.4-15.9,4.1l-5.1-10.4c6.5-3.4,13.7-5.1,21.7-5.1c7.6,0,13.4,1.7,17.5,5c4,3.3,6.1,8.3,6.1,15.1v37.7H116z M111.4,48.1l-6,0.2c-4.5,0.1-7.8,0.9-10,2.4c-2.2,1.5-3.3,3.7-3.3,6.8c0,4.4,2.5,6.5,7.5,6.5c3.6,0,6.4-1,8.6-3.1 c2.1-2.1,3.2-4.8,3.2-8.2V48.1z" class="st2"/></g><g class="st3"><path d="M248.3,75.2h-21.4c-0.6,0-1.1-0.5-1.1-1.1V52.6c0-0.6,0.5-1.1,1.1-1.1h21.4c0.6,0,1.1,0.5,1.1,1.1v21.4 C249.4,74.7,248.9,75.2,248.3,75.2z" class="st4"/><path d="M243.2,70.7h-20c-0.9,0-1.7-0.7-1.7-1.7V49c0-0.9,0.7-1.7,1.7-1.7h20c0.9,0,1.7,0.7,1.7,1.7v20 C244.8,70,244.1,70.7,243.2,70.7z" class="st2"/><path d="M237.2,63.9h-5.7c-0.4,0-0.8-0.4-0.8-0.8v-5.7c0-0.4,0.4-0.8,0.8-0.8h5.7c0.4,0,0.8,0.4,0.8,0.8v5.7 C238.1,63.5,237.7,63.9,237.2,63.9z" class="st5"/><path d="M234.8,61.5h-5.7c-0.4,0-0.8-0.4-0.8-0.8v-5.7c0-0.4,0.4-0.8,0.8-0.8h5.7c0.4,0,0.8,0.4,0.8,0.8v5.7 C235.6,61.1,235.3,61.5,234.8,61.5z" class="st6"/></g><g class="st7"><circle cx="190.3" cy="61" r="13.3" class="st8"/><circle cx="191.5" cy="62.5" r="5.5" class="st4"/><circle cx="189.1" cy="59.4" r="5.5" class="st2"/></g><g class="st9"><path d="M220.1,26.2l13.5-23.3c0.2-0.4,0.8-0.4,1.1,0l13.5,23.3c0.2,0.4,0,0.9-0.5,0.9h-26.9 C220.2,27.2,219.9,26.6,220.1,26.2z" class="st8"/><path d="M232.5,22.3l4-6.9c0.1-0.2,0.5-0.2,0.6,0l4,6.9c0.1,0.2,0,0.5-0.3,0.5h-8.1C232.5,22.8,232.4,22.5,232.5,22.3z" class="st4"/><path d="M227.9,22.1l4.9-8.5c0.2-0.3,0.6-0.3,0.8,0l4.9,8.5c0.2,0.3-0.1,0.7-0.4,0.7h-9.8 C228,22.8,227.8,22.5,227.9,22.1z" class="st2"/></g></svg>