<svg xmlns="http://www.w3.org/2000/svg" xmlns:xlink="http://www.w3.org/1999/xlink" style="enable-background:new 0 0 180.2 202.5" id="Layer_1" x="0" y="0" version="1.1" viewBox="0 0 180.2 202.5" xml:space="preserve"><style type="text/css">.st0{display:none;opacity:.5;fill:url(#phone_stack_shadow_1_);enable-background:new}.st1{fill:#1b3554}.st2{fill:#e7eaf3}.st3{fill:#bdc5d1}.st4{fill:#fff}.st5,.st6,.st7{enable-background:new}.st5{opacity:.5;fill:url(#Rectangle_19_2_)}.st6{fill:#97a4af}.st7{fill:#e7eaf3}.st8{fill:none;stroke:#97a4af;stroke-width:5;stroke-linecap:round;stroke-linejoin:round;stroke-miterlimit:10}.st9{fill:#377dff}</style><linearGradient id="phone_stack_shadow_1_" x1="671.011" x2="670.827" y1="-255.312" y2="-255.028" gradientTransform="matrix(779.557 0 0 292.144 -522949.3438 74663.1484)" gradientUnits="userSpaceOnUse"><stop style="stop-color:#d0dcf1" offset=".197"/><stop style="stop-color:#d6e1f3" offset=".415"/><stop style="stop-color:#e8eef8" offset=".716"/><stop style="stop-color:#fff" offset="1"/></linearGradient><path id="phone_stack_shadow" d="M-211.9,102.9L18.8,48.2L309.9,155L91.8,246.1" class="st0"/><rect id="Rectangle_19_Copy_2" width="124" height="12" x="19" y="178.5" class="st1"/><rect id="Rectangle_19_Copy" width="124" height="79" x="20" y="14.5" class="st2"/><path id="Rectangle_3" d="M20,14.5v120H0V61.9l10-15.4L20,14.5z" class="st3"/><path id="Rectangle_3_Copy_3" d="M143,14.5v120h20V61.9l-10-15.4L143,14.5z" class="st3"/><path id="Rectangle_19_1_" d="M0,61.5h163l0,0v136c0,2.8-2.2,5-5,5H5c-2.8,0-5-2.2-5-5V61.5L0,61.5z" class="st4"/><linearGradient id="Rectangle_19_2_" x1="0" x2="163" y1="132" y2="132" gradientUnits="userSpaceOnUse"><stop style="stop-color:#d0dcf1;stop-opacity:.7" offset=".197"/><stop style="stop-color:#d6e1f3;stop-opacity:.5" offset=".415"/><stop style="stop-color:#e8eef8;stop-opacity:.5" offset=".716"/><stop style="stop-color:#fff;stop-opacity:0" offset="1"/></linearGradient><path id="Rectangle_19" d="M0,61.5h163l0,0v136c0,2.8-2.2,5-5,5H5c-2.8,0-5-2.2-5-5V61.5L0,61.5z" class="st5"/><path id="Rectangle_3_Copy" d="M49,120.8c0.2-2.8,2-5.3,4.6-6.3l3-0.9l5.1,1.7c1.3,0.5,2.2,1.8,2.3,3.2l0,0	c-0.2,1.1-1.2,1.8-2.3,1.7l-5.2-1.7l-5.2,1.7c-1.1,0.2-2.1-0.6-2.3-1.7V120.8z" class="st6"/><path id="Rectangle_3_Copy_2" d="M100,120.8c0.2-2.8,2-5.3,4.6-6.3l3-0.9l5.1,1.7c1.3,0.5,2.2,1.8,2.3,3.2l0,0	c-0.2,1.1-1.2,1.8-2.3,1.7l-5.2-1.7l-5.2,1.7c-1.1,0.2-2.1-0.6-2.3-1.7V120.8z" class="st6"/><path id="Oval_10" d="M82,144.5c8.8,0,16-5.2,16-14c-16-0.1-19.4,0.3-32,0C66,139.3,73.2,144.5,82,144.5z" class="st6"/><circle id="Oval" cx="45" cy="76.5" r="6" class="st7"/><circle id="Oval_Copy" cx="118" cy="76.5" r="6" class="st7"/><path id="Oval_15" d="M45,76.2V39C45,18.8,61.3,2.5,81.5,2.5S118,18.8,118,39v37.2" class="st8"/><circle id="Oval_2-2" cx="162.3" cy="175.7" r="17.6" class="st9"/><g><path d="M167.4,175.7c0,2.5-0.4,4.4-1.2,5.6c-0.8,1.2-2.1,1.8-3.8,1.8c-1.7,0-2.9-0.6-3.8-1.9 c-0.8-1.3-1.3-3.1-1.3-5.5c0-2.6,0.4-4.4,1.2-5.6c0.8-1.2,2.1-1.8,3.8-1.8c1.7,0,2.9,0.6,3.8,1.9 C166.9,171.5,167.4,173.3,167.4,175.7z M160.3,175.7c0,1.8,0.2,3,0.5,3.8c0.3,0.8,0.8,1.2,1.5,1.2c0.7,0,1.2-0.4,1.5-1.2 c0.3-0.8,0.5-2,0.5-3.8c0-1.8-0.2-3-0.5-3.8c-0.3-0.8-0.8-1.2-1.5-1.2c-0.7,0-1.2,0.4-1.5,1.2C160.5,172.7,160.3,174,160.3,175.7z" class="st4"/></g></svg>