<svg xmlns="http://www.w3.org/2000/svg" xmlns:xlink="http://www.w3.org/1999/xlink" x="0" y="0" viewBox="0 0 330 285" xml:space="preserve" style="enable-background:new 0 0 330 285"><style type="text/css">.flat-house-0{fill:#e7eaf3}.flat-house-1{fill:#f8fafd}.flat-house-2{fill:#377dff}.flat-house-3{fill:#19a0ff}.flat-house-4{fill:#8c98a4}.flat-house-5{fill:#bdc5d1}.flat-house-6{fill:#196eff}.flat-house-7{fill:#de4437}.flat-house-8{fill:#fff}</style><g><polygon points="287.5 285 45 285 46.7 104.2 116 85.9 214.1 85.9 285.8 98.8" class="flat-house-0 fill-gray-300"/></g><g opacity=".7"><linearGradient id="flatHouseID1" x1="129.95" x2="129.95" y1="41.85" y2="6.95" gradientTransform="matrix(1 0 0 1 0 1)" gradientUnits="userSpaceOnUse"><stop offset="0" style="stop-color:gray;stop-opacity:.25"/><stop offset=".54" style="stop-color:gray;stop-opacity:.12"/><stop offset="1" style="stop-color:gray;stop-opacity:.1"/></linearGradient><rect width="17.7" height="34.9" x="121.1" y="7.9" fill="url(#flatHouseID1)"/></g><g><polygon points="121.1 115.5 121.1 77.8 44.2 77.8 31.2 115.5 31.2 119.3 121.5 119.3 121.5 115.5" class="flat-house-1 fill-gray-200"/></g><polygon points="121.1 115.5 32.1 115.5 45 78.2 121.1 78.2" class="flat-house-2 fill-primary"/><rect width="89.4" height="3.8" x="32.1" y="115.5" class="st5"/><g><polygon points="286.6 78.2 209.5 78.2 209.5 116.4 209.1 116.4 209.1 120.3 299.7 120.3 299.7 116.4" class="flat-house-1 fill-gray-200"/></g><polygon points="209.5 79.2 285.6 79.2 298.5 116.5 209.5 116.5" class="flat-house-2 fill-primary"/><rect width="89.4" height="3.8" x="209" y="115" class="flat-house-3 fill-primary-lighter"/><rect width="48.3" height="30.1" x="56" y="216.1" class="flat-house-1 fill-gray-200" opacity=".5"/><rect width="54" height="5.3" x="53.2" y="244.1" class="flat-house-4 fill-gray-600" opacity=".1"/><rect width="54" height="5.3" x="53.2" y="243.6" class="flat-house-4 fill-gray-600"/><g><rect width="48.3" height="12" x="56" y="216.1" class="flat-house-5 fill-gray-400"/></g><rect width="48.3" height="30.1" x="226.7" y="216.1" class="flat-house-1 fill-gray-200" opacity=".5"/><rect width="54" height="5.3" x="223.9" y="244.1" class="flat-house-4 fill-gray-600" opacity=".1"/><rect width="54" height="5.3" x="223.9" y="243.6" class="flat-house-4 fill-gray-600"/><g><rect width="48.3" height="12" x="226.8" y="216.1" class="flat-house-5 fill-gray-400"/></g><rect width="48.3" height="30.1" x="226.7" y="145.8" class="flat-house-1 fill-gray-200" opacity=".5"/><rect width="54" height="5.3" x="223.9" y="173.8" class="flat-house-4 fill-gray-600" opacity=".1"/><rect width="54" height="5.3" x="223.9" y="173.3" class="flat-house-4 fill-gray-600"/><g><rect width="48.3" height="12" x="226.8" y="145.8" class="flat-house-5 fill-gray-400"/></g><rect width="48.3" height="30.1" x="57.5" y="145.8" class="flat-house-1 fill-gray-200" opacity=".5"/><rect width="54" height="5.3" x="54.6" y="173.8" class="flat-house-4 fill-gray-600" opacity=".1"/><rect width="54" height="5.3" x="54.6" y="173.3" class="flat-house-4 fill-gray-600"/><g><rect width="48.3" height="12" x="57.5" y="145.8" class="flat-house-5 fill-gray-400"/></g><g opacity=".7"><polygon points="224.4 58.2 165.5 12.6 108.4 58.2 103.9 52.6 165.4 3.5 228.8 52.6" class="flat-house-6 fill-primary-darker"/></g><rect width="16.7" height="34.4" x="121.6" y="8.4" class="flat-house-7 fill-danger"/><g><polygon points="218.9 283.6 111.8 283.6 111.8 52.1 165.8 50 218.9 52.1" class="flat-house-0 fill-gray-300"/></g><polygon points="217.4 283.6 113.2 283.6 113.2 51.2 165.3 12 218.4 52.7" class="flat-house-8 fill-white"/><rect width="26.3" height="44" x="152.2" y="239.6" class="flat-house-2 fill-primary"/><rect width="54" height="5.3" x="138.3" y="200.2" class="flat-house-4 fill-gray-600"/><rect width="48.3" height="30.1" x="141.2" y="172.2" class="flat-house-4 fill-gray-200"/><rect width="54" height="5.3" x="138.3" y="199.7" class="flat-house-4 fill-gray-600"/><g><rect width="48.3" height="12" x="141.2" y="172.2" class="flat-house-4 fill-gray-400"/></g><rect width="48.3" height="30.1" x="141.2" y="113.1" class="flat-house-4 fill-gray-200"/><rect width="54" height="5.3" x="138.3" y="140.6" class="flat-house-4 fill-gray-600"/><g><rect width="48.3" height="12" x="141.2" y="113.1" class="flat-house-4 fill-gray-400"/></g><rect width="48.3" height="30.1" x="141.2" y="54.1" class="flat-house-4 fill-gray-200"/><rect width="54" height="5.3" x="138.3" y="81.6" class="flat-house-4 fill-gray-600"/><g><rect width="48.3" height="12" x="141.2" y="54.1" class="flat-house-4 fill-gray-400"/></g><polygon points="224.4 59.9 165.5 14.3 108.4 59.9 103.9 54.3 165.4 5.2 228.8 54.2" class="flat-house-6 fill-primary-darker"/><circle cx="174.6" cy="261.6" r="1.9" class="flat-house-8 fill-white"/></svg>