<svg xmlns="http://www.w3.org/2000/svg" xmlns:xlink="http://www.w3.org/1999/xlink" x="0" y="0" viewBox="0 0 149.5 116.1" xml:space="preserve" style="enable-background:new 0 0 149.5 116.1"><style type="text/css">.for-sale-0{fill:#f8fafd}.for-sale-1{fill:#19a0ff}.for-sale-2{fill:none;stroke:#377dff}.for-sale-3{fill:none;stroke:#de4437}.for-sale-4{fill:#fff}.for-sale-5{fill:#de4437}.for-sale-7{fill:none}.for-sale-6{fill:none;stroke:#19a0ff}</style><path d="M74.8,0.4C33.5,0.4,0,33.9,0,75.1c0,15,4.5,29,12.1,40.8h125.3c7.6-11.7,12.1-25.7,12.1-40.8	C149.5,33.9,116,0.4,74.8,0.4z" class="for-sale-0 fill-gray-200"/><g id="forSale_507_"><polygon id="forSale_363_" points="79.9 65.9 19.6 65.9 14.4 73.1 85 73.1" class="for-sale-1 fill-primary-lighter" opacity=".4"/><polyline id="forSale_362_" stroke-miterlimit="10" stroke-width="1.5" points="85 73.1 79.9 65.9 19.6 65.9 14.4 73.1" class="for-sale-2 fill-none stroke-primary"/><polygon id="forSale_359_" stroke-miterlimit="10" stroke-width="1.5" points="65.6 73 33.9 73 14.5 73 14.5 115.5 84.9 115.5 84.9 73" class="for-sale-2 fill-none stroke-primary"/><rect id="forSale_358_" width="4.4" height="6.1" x="18.2" y="78.1" class="for-sale-1 fill-primary-lighter" opacity=".4"/><rect id="forSale_357_" width="4.4" height="6.1" x="25.1" y="78.1" class="for-sale-1 fill-primary-lighter" opacity=".4"/><rect id="forSale_356_" width="4.4" height="6.1" x="18.2" y="86.9" class="for-sale-1 fill-primary-lighter" opacity=".4"/><rect id="forSale_355_" width="4.4" height="6.1" x="25.1" y="86.9" class="for-sale-1 fill-primary-lighter" opacity=".4"/><rect id="forSale_354_" width="4.4" height="6.1" x="18.2" y="95.7" class="for-sale-1 fill-primary-lighter" opacity=".4"/><rect id="forSale_353_" width="4.4" height="6.1" x="25.1" y="95.7" class="for-sale-1 fill-primary-lighter" opacity=".4"/><rect id="forSale_352_" width="56.7" height="2.6" x="14.9" y="74" class="for-sale-1 fill-primary-lighter" opacity=".5"/><rect id="forSale_351_" width="58" height="2.6" x="13.5" y="72.8" class="for-sale-4 fill-white"/><rect id="forSale_350_" width="58" height="2.6" x="13.5" y="72.8" stroke-miterlimit="10" stroke-width="1.5" class="for-sale-2 fill-none stroke-primary"/><rect id="forSale_349_" width="5.9" height="38.9" x="31.5" y="76.6" class="for-sale-1 fill-primary-lighter" opacity=".5"/><rect id="forSale_348_" width="33.6" height="53.7" x="33.2" y="61.4" class="for-sale-4 fill-white"/><rect id="forSale_347_" width="33.6" height="53.7" x="33.1" y="61.8" stroke-miterlimit="10" stroke-width="1.5" class="for-sale-2 fill-none stroke-primary"/><rect id="forSale_346_" width="32.9" height="3.1" x="33.5" y="61.6" class="for-sale-1 fill-primary-lighter" opacity=".5"/><rect id="forSale_345_" width="36.9" height="3.1" x="31.5" y="60.1" class="for-sale-4 fill-white"/><polyline id="forSale_344_" stroke-miterlimit="10" stroke-width="1.5" points="65.1 63.2 31.5 63.2 31.5 60.1 64.3 60.1" class="for-sale-2 fill-none stroke-primary"/><rect id="forSale_343_" width="4.4" height="9.2" x="43.6" y="67" class="for-sale-1 fill-primary-lighter" opacity=".4"/><rect id="forSale_340_" width="4.4" height="9.2" x="51.8" y="67.1" class="for-sale-1 fill-primary-lighter" opacity=".4"/><rect id="forSale_339_" width="4.4" height="9.2" x="43.6" y="79.1" class="for-sale-1 fill-primary-lighter" opacity=".4"/><rect id="forSale_335_" width="4.4" height="9.2" x="51.8" y="79.1" class="for-sale-1 fill-primary-lighter" opacity=".4"/><rect id="forSale_332_" width="4.4" height="9.2" x="35.4" y="79" class="for-sale-1 fill-primary-lighter" opacity=".4"/><rect id="forSale_331_" width="4.4" height="9.2" x="35.2" y="67" class="for-sale-1 fill-primary-lighter" opacity=".4"/><rect id="forSale_330_" width="4.4" height="9.2" x="60.1" y="67.1" class="for-sale-1 fill-primary-lighter" opacity=".4"/><rect id="forSale_329_" width="4.4" height="9.2" x="60" y="79" class="for-sale-1 fill-primary-lighter" opacity=".4"/><path id="forSale_328_" d="M55.7,115.3H44.4v-8.1c0-3.1,2.5-5.6,5.6-5.6l0,0c3.1,0,5.6,2.5,5.6,5.6v8.1H55.7z" class="for-sale-4 fill-white"/><path id="forSale_327_" stroke-miterlimit="10" stroke-width="1.5" d="M55.7,115.3H44.4v-8.1c0-3.1,2.5-5.6,5.6-5.6l0,0c3.1,0,5.6,2.5,5.6,5.6v8.1H55.7z" class="for-sale-2 fill-none stroke-primary"/><line id="forSale_326_" x1="50" x2="50" y1="101.9" y2="115.3" stroke-miterlimit="10" stroke-width="1.5" class="for-sale-2 fill-none stroke-primary"/><rect id="forSale_324_" width="3" height="50.9" x="36.2" y="64.7" class="for-sale-1 fill-primary-lighter" opacity=".5"/><rect id="forSale_323_" width="3.1" height="50.9" x="60.5" y="64.7" class="for-sale-1 fill-primary-lighter" opacity=".5"/><rect id="forSale_319_" width="4.1" height="52.4" x="37.4" y="63.2" class="for-sale-4 fill-white"/><rect id="forSale_317_" width="1.1" height="52.4" x="40" y="63.2" class="for-sale-1 fill-primary-lighter" opacity=".15"/><rect id="forSale_316_" width="4.1" height="52.4" x="37.4" y="63.2" stroke-miterlimit="10" stroke-width="1.5" class="for-sale-2 fill-none stroke-primary"/><rect id="forSale_315_" width="4.1" height="52.4" x="58.3" y="63.2" class="for-sale-4 fill-white"/><rect id="forSale_313_" width="1.3" height="52.4" x="58.3" y="63.2" class="for-sale-1 fill-primary-lighter" opacity=".15"/><rect id="forSale_312_" width="4.1" height="52.4" x="58.3" y="63.2" stroke-miterlimit="10" stroke-width="1.5" class="for-sale-2 fill-none stroke-primary"/><polygon id="forSale_311_" points="70.9 60.4 29.2 60.4 50 45.2" class="for-sale-1 fill-primary-lighter" opacity=".4"/><polyline id="forSale_310_" stroke-miterlimit="10" stroke-width="1.5" points="65.1 60.4 29.2 60.4 50 45.2 65.5 56.5" class="for-sale-2 fill-none stroke-primary"/><line id="forSale_309_" x1="23.1" x2="17.6" y1="101.8" y2="101.8" stroke-miterlimit="10" stroke-width="1.5" class="for-sale-6 fill-none stroke-primary-lighter"/><line id="forSale_308_" x1="30" x2="24.5" y1="101.8" y2="101.8" stroke-miterlimit="10" stroke-width="1.5" class="for-sale-6 fill-none stroke-primary-lighter"/><line id="forSale_307_" x1="23.1" x2="17.6" y1="93" y2="93" stroke-miterlimit="10" stroke-width="1.5" class="for-sale-6 fill-none stroke-primary-lighter"/><line id="forSale_306_" x1="30" x2="24.5" y1="93" y2="93" stroke-miterlimit="10" stroke-width="1.5" class="for-sale-6 fill-none stroke-primary-lighter"/><line id="forSale_304_" x1="23.1" x2="17.6" y1="84.1" y2="84.1" stroke-miterlimit="10" stroke-width="1.5" class="for-sale-6 fill-none stroke-primary-lighter"/><line id="forSale_303_" x1="30" x2="24.5" y1="84.1" y2="84.1" stroke-miterlimit="10" stroke-width="1.5" class="for-sale-6 fill-none stroke-primary-lighter"/><line id="forSale_301_" x1="48.4" x2="43" y1="88.3" y2="88.3" stroke-miterlimit="10" stroke-width="1.5" class="for-sale-6 fill-none stroke-primary-lighter"/><line id="forSale_300_" x1="57" x2="51.5" y1="88.3" y2="88.3" stroke-miterlimit="10" stroke-width="1.5" class="for-sale-6 fill-none stroke-primary-lighter"/><line id="forSale_299_" x1="48.4" x2="43" y1="76.2" y2="76.2" stroke-miterlimit="10" stroke-width="1.5" class="for-sale-6 fill-none stroke-primary-lighter"/><line id="forSale_295_" x1="36.8" x2="34.7" y1="76.2" y2="76.2" stroke-miterlimit="10" stroke-width="1.5" class="for-sale-6 fill-none stroke-primary-lighter"/><line id="forSale_294_" x1="36.8" x2="34.7" y1="88.2" y2="88.2" stroke-miterlimit="10" stroke-width="1.5" class="for-sale-6 fill-none stroke-primary-lighter"/><line id="forSale_291_" x1="57" x2="51.5" y1="76.2" y2="76.2" stroke-miterlimit="10" stroke-width="1.5" class="for-sale-6 fill-none stroke-primary-lighter"/></g><g id="forSale_142_" opacity=".5"><path id="forSale_198_" d="M119.7,20.5L119.7,20.5c-0.6-1.7-2.2-3-4.1-3c-0.8,0-1.6,0.2-2.2,0.7 c-0.4-2.7-2.7-4.8-5.6-4.8c-2.5,0-4.7,1.7-5.4,4c-0.3-0.1-0.7-0.1-1-0.1c-1.9,0-3.5,1.4-3.8,3.3H97c-1.6,0-2.9,1.3-2.9,2.9v0.2 c0,1.6,1.3,2.9,2.9,2.9h22.7c1.6,0,2.9-1.3,2.9-2.9v-0.2C122.6,21.8,121.3,20.5,119.7,20.5z" class="for-sale-1 fill-primary-lighter" opacity=".15"/><path id="forSale_192_" d="M101,26.4h-4c-1.6,0-2.9-1.3-2.9-2.9v-0.2c0-1.6,1.3-2.9,2.9-2.9h0.6 c0.3-1.8,1.9-3.3,3.8-3.3c0.3,0,0.7,0.1,1,0.1c0.7-2.3,2.9-4,5.4-4c2.8,0,5.1,2.1,5.6,4.8c0.6-0.4,1.4-0.7,2.2-0.7 c1.9,0,3.5,1.3,4,3h0.1c1.6,0,2.9,1.3,2.9,2.9v0.2c0,1.6-1.3,2.9-2.9,2.9h-4.4H101V26.4z" class="for-sale-1 fill-primary-lighter" opacity=".15"/></g><g id="forSale_179_" opacity=".5"><path id="forSale_181_" d="M65.8,5.1L65.8,5.1C65.4,3.9,64.2,3,62.9,3c-0.6,0-1.1,0.2-1.6,0.5c-0.3-1.9-2-3.4-4-3.4 c-1.8,0-3.3,1.2-3.8,2.8c-0.2-0.1-0.5-0.1-0.7-0.1c-1.4,0-2.5,1-2.7,2.3h-0.5c-1.1,0-2.1,0.9-2.1,2.1v0.2c0,1.1,0.9,2.1,2.1,2.1 h16.2c1.1,0,2.1-0.9,2.1-2.1V7.1C67.9,6,67,5.1,65.8,5.1z" class="for-sale-1 fill-primary-lighter" opacity=".15"/><path id="forSale_180_" d="M52.5,9.3h-2.9c-1.1,0-2.1-0.9-2.1-2.1V7.1C47.5,6,48.4,5,49.6,5h0.5 c0.2-1.3,1.3-2.3,2.7-2.3c0.2,0,0.5,0,0.7,0.1C54,1.2,55.5,0,57.4,0c2,0,3.7,1.5,4,3.4c0.5-0.3,1-0.5,1.6-0.5 c1.3,0,2.5,0.9,2.8,2.1h0.1C67,5,68,5.9,68,7.1v0.2c0,1.1-0.9,2.1-2.1,2.1h-3.1L52.5,9.3L52.5,9.3z" class="for-sale-1 fill-primary-lighter" opacity=".15"/></g><g id="forSale_176_" opacity=".5"><path id="forSale_178_" d="M147.8,33.5L147.8,33.5c-0.3-0.8-1-1.3-1.8-1.3c-0.4,0-0.7,0.1-1,0.3 c-0.2-1.2-1.2-2.2-2.5-2.2c-1.1,0-2.1,0.8-2.4,1.8c-0.1,0-0.3-0.1-0.5-0.1c-0.9,0-1.6,0.6-1.7,1.5h-0.3c-0.7,0-1.3,0.6-1.3,1.3v0.1 c0,0.7,0.6,1.3,1.3,1.3h10.3c0.7,0,1.3-0.6,1.3-1.3v-0.1C149.1,34.1,148.5,33.5,147.8,33.5z" class="for-sale-1 fill-primary-lighter" opacity=".15"/><path id="forSale_177_" d="M139.3,36.3h-1.8c-0.7,0-1.3-0.6-1.3-1.3v-0.1c0-0.7,0.6-1.3,1.3-1.3h0.3 c0.1-0.8,0.9-1.5,1.7-1.5c0.2,0,0.3,0,0.5,0.1c0.3-1,1.3-1.8,2.4-1.8c1.3,0,2.3,0.9,2.5,2.2c0.3-0.2,0.6-0.3,1-0.3 c0.9,0,1.6,0.6,1.8,1.3h0.1c0.7,0,1.3,0.6,1.3,1.3V35c0,0.7-0.6,1.3-1.3,1.3h-2H139.3z" class="for-sale-1 fill-primary-lighter" opacity=".15"/></g><g id="forSale_125_"><rect id="forSale_279_" width="53.9" height="64.9" x="65.5" y="50.9" class="for-sale-4 fill-white"/><polyline id="forSale_124_" stroke-miterlimit="10" stroke-width="1.5" points="65.5 115.6 65.5 50.9 119.4 50.9 119.4 115.8" class="for-sale-2 fill-none stroke-primary"/><rect id="forSale_275_" width="12.8" height="18.9" x="86.1" y="96.6" class="for-sale-1 fill-primary-lighter" opacity=".4"/><rect id="forSale_9_" width="12.8" height="18.9" x="86.1" y="96.6" stroke-miterlimit="10" stroke-width="1.5" class="for-sale-2 fill-none stroke-primary"/><line x1="65.8" x2="119.8" y1="115.4" y2="115.4" class="for-sale-7 fill-none"/><line id="forSale_8_" x1="92.5" x2="92.5" y1="97.9" y2="114.1" stroke-miterlimit="10" stroke-width="1.5" class="for-sale-2 fill-none stroke-primary"/><rect id="forSale_271_" width="6.3" height="6.3" x="71.3" y="60" class="for-sale-1 fill-primary-lighter" opacity=".4"/><rect id="forSale_270_" width="6.3" height="6.3" x="83.1" y="60" class="for-sale-1 fill-primary-lighter" opacity=".4"/><rect id="forSale_7_" width="6.3" height="6.3" x="94.9" y="60" class="for-sale-1 fill-primary-lighter" opacity=".4"/><rect id="forSale_6_" width="6.3" height="6.3" x="106.8" y="60" class="for-sale-1 fill-primary-lighter" opacity=".4"/><rect id="forSale_257_" width="6.3" height="6.3" x="71.3" y="70.9" class="for-sale-1 fill-primary-lighter" opacity=".4"/><rect id="forSale_255_" width="6.3" height="6.3" x="83.1" y="70.9" class="for-sale-1 fill-primary-lighter" opacity=".4"/><rect id="forSale_254_" width="6.3" height="6.3" x="94.9" y="70.9" class="for-sale-1 fill-primary-lighter" opacity=".4"/><rect id="forSale_5_" width="6.3" height="6.3" x="106.8" y="70.9" class="for-sale-1 fill-primary-lighter" opacity=".4"/><rect id="forSale_252_" width="6.3" height="6.3" x="71.3" y="81.7" class="for-sale-1 fill-primary-lighter" opacity=".4"/><rect id="forSale_249_" width="6.3" height="6.3" x="83.1" y="81.7" class="for-sale-1 fill-primary-lighter" opacity=".4"/><rect id="forSale_247_" width="6.3" height="6.3" x="94.9" y="81.7" class="for-sale-1 fill-primary-lighter" opacity=".4"/><rect id="forSale_246_" width="6.3" height="6.3" x="106.8" y="81.7" class="for-sale-1 fill-primary-lighter" opacity=".4"/><rect id="forSale_245_" width="6.3" height="6.3" x="71.3" y="60" stroke-miterlimit="10" stroke-width="1.5" class="for-sale-2 fill-none stroke-primary"/><rect id="forSale_4_" width="6.3" height="6.3" x="83.1" y="60" stroke-miterlimit="10" stroke-width="1.5" class="for-sale-2 fill-none stroke-primary"/><rect id="forSale_242_" width="6.3" height="6.3" x="94.9" y="60" stroke-miterlimit="10" stroke-width="1.5" class="for-sale-2 fill-none stroke-primary"/><rect id="forSale_241_" width="6.3" height="6.3" x="106.8" y="60" stroke-miterlimit="10" stroke-width="1.5" class="for-sale-2 fill-none stroke-primary"/><rect id="forSale_230_" width="6.3" height="6.3" x="71.3" y="70.9" stroke-miterlimit="10" stroke-width="1.5" class="for-sale-2 fill-none stroke-primary"/><rect id="forSale_227_" width="6.3" height="6.3" x="83.1" y="70.9" stroke-miterlimit="10" stroke-width="1.5" class="for-sale-2 fill-none stroke-primary"/><rect id="forSale_219_" width="6.3" height="6.3" x="94.9" y="70.9" stroke-miterlimit="10" stroke-width="1.5" class="for-sale-2 fill-none stroke-primary"/><rect id="forSale_3_" width="6.3" height="6.3" x="106.8" y="70.9" stroke-miterlimit="10" stroke-width="1.5" class="for-sale-2 fill-none stroke-primary"/><rect id="forSale_204_" width="6.3" height="6.3" x="71.3" y="81.7" stroke-miterlimit="10" stroke-width="1.5" class="for-sale-2 fill-none stroke-primary"/><rect id="forSale_203_" width="6.3" height="13.9" x="71.3" y="96.5" class="for-sale-1 fill-primary-lighter" opacity=".4"/><rect id="forSale_200_" width="6.3" height="13.9" x="106.8" y="96.5" class="for-sale-1 fill-primary-lighter" opacity=".4"/><rect id="forSale_197_" width="6.3" height="13.9" x="71.3" y="96.5" stroke-miterlimit="10" stroke-width="1.5" class="for-sale-2 fill-none stroke-primary"/><rect id="forSale_191_" width="6.3" height="13.9" x="106.8" y="96.5" stroke-miterlimit="10" stroke-width="1.5" class="for-sale-2 fill-none stroke-primary"/><rect id="forSale_2_" width="6.3" height="6.3" x="83.1" y="81.7" stroke-miterlimit="10" stroke-width="1.5" class="for-sale-2 fill-none stroke-primary"/><rect id="forSale_1_" width="6.3" height="6.3" x="94.9" y="81.7" stroke-miterlimit="10" stroke-width="1.5" class="for-sale-2 fill-none stroke-primary"/><rect id="forSale_165_" width="6.3" height="6.3" x="106.8" y="81.7" stroke-miterlimit="10" stroke-width="1.5" class="for-sale-2 fill-none stroke-primary"/><rect id="forSale_162_" width="58.3" height="7.7" x="63.3" y="45.3" class="for-sale-4 fill-white"/><path id="forSale_160_" stroke-miterlimit="10" stroke-width="1.5" d="M121.1,53H63.8c-0.3,0-0.5-0.2-0.5-0.5v-6.7c0-0.3,0.2-0.5,0.5-0.5h57.3 c0.3,0,0.5,0.2,0.5,0.5v6.7C121.6,52.8,121.4,53,121.1,53z" class="for-sale-2 fill-none stroke-primary"/><path id="forSale_158_" stroke-miterlimit="10" stroke-width="1.5" d="M75.5,41.9l-2.9-1.5l-2.9,1.5c-0.1,0-0.2,0-0.2-0.1l0.6-3.2l-2.3-2.3 c-0.1-0.1,0-0.2,0.1-0.2l3.2-0.5l1.5-2.9c0-0.1,0.2-0.1,0.2,0l1.4,2.9l3.2,0.5c0.1,0,0.1,0.1,0.1,0.2l-2.4,2.3L75.5,41.9 C75.7,41.9,75.6,42,75.5,41.9z" class="for-sale-2 fill-none stroke-primary"/><path id="forSale_153_" stroke-miterlimit="10" stroke-width="1.5" d="M88.5,41.9l-2.9-1.5l-2.9,1.5c-0.1,0-0.2,0-0.2-0.1l0.6-3.2l-2.3-2.3 c-0.1-0.1,0-0.2,0.1-0.2l3.2-0.5l1.5-2.9c0-0.1,0.2-0.1,0.2,0l1.4,2.9l3.2,0.5c0.1,0,0.1,0.1,0.1,0.2l-2.4,2.3L88.5,41.9 C88.7,41.9,88.6,42,88.5,41.9z" class="for-sale-2 fill-none stroke-primary"/><path id="forSale_152_" stroke-miterlimit="10" stroke-width="1.5" d="M101.6,41.9l-2.9-1.5l-2.9,1.5c-0.1,0-0.2,0-0.2-0.1l0.6-3.2l-2.3-2.3 c-0.1-0.1,0-0.2,0.1-0.2l3.2-0.5l1.5-2.9c0-0.1,0.2-0.1,0.2,0l1.4,2.9l3.2,0.5c0.1,0,0.1,0.1,0.1,0.2l-2.4,2.3L101.6,41.9 C101.8,41.9,101.7,42,101.6,41.9z" class="for-sale-2 fill-none stroke-primary"/><path id="forSale_149_" stroke-miterlimit="10" stroke-width="1.5" d="M114.6,41.9l-2.9-1.5l-2.9,1.5c-0.1,0-0.2,0-0.2-0.1l0.6-3.2l-2.3-2.3 c-0.1-0.1,0-0.2,0.1-0.2l3.2-0.5l1.5-2.9c0-0.1,0.2-0.1,0.2,0l1.4,2.9l3.2,0.5c0.1,0,0.1,0.1,0.1,0.2l-2.4,2.3L114.6,41.9 C114.8,41.9,114.7,42,114.6,41.9z" class="for-sale-2 fill-none stroke-primary"/><g id="forSale_128_"><path d="M144.1,106.5h-20.3c-0.6,0-1-0.5-1-1V93.9c0-0.6,0.5-1,1-1h20.3c0.6,0,1,0.5,1,1v11.6 C145.1,106,144.7,106.5,144.1,106.5z" class="for-sale-5 fill-danger"/><g><path d="M129.4,95h2.2v0.6h-1.5v0.9h1.1V97h-1.1v1.5h-0.7V95z" class="for-sale-4 fill-white"/><path d="M133.6,98.5c-1,0-1.8-0.7-1.8-1.8c0-1,0.8-1.8,1.8-1.8s1.8,0.7,1.8,1.8C135.4,97.7,134.6,98.5,133.6,98.5z M133.6,97.9c0.6,0,1.1-0.5,1.1-1.2s-0.4-1.2-1.1-1.2c-0.6,0-1.1,0.4-1.1,1.2S133,97.9,133.6,97.9z" class="for-sale-4 fill-white"/><path d="M137.3,95c0.8,0,1.3,0.5,1.3,1.1c0,0.4-0.2,0.9-0.8,1l0.8,1.4h-0.8l-0.8-1.4h-0.3v1.4H136V95H137.3z M137.2,95.5h-0.6v1h0.6c0.4,0,0.6-0.2,0.6-0.5S137.6,95.5,137.2,95.5z" class="for-sale-4 fill-white"/><path d="M129.7,104.5c-0.7,0-1.3-0.4-1.3-1h0.8c0,0.3,0.2,0.5,0.5,0.5s0.5-0.2,0.5-0.4c0-0.8-1.8-0.3-1.8-1.6 c0-0.6,0.5-1,1.2-1s1.2,0.4,1.3,1h-0.8c0-0.2-0.2-0.4-0.5-0.4s-0.5,0.1-0.5,0.4c0,0.7,1.8,0.3,1.8,1.5 C130.9,104,130.5,104.5,129.7,104.5z" class="for-sale-4 fill-white"/><path d="M133.7,103.8h-1.4l-0.2,0.7h-0.7l1.3-3.5h0.8l1.3,3.5h-0.7L133.7,103.8z M133,101.8l-0.5,1.5h1L133,101.8z" class="for-sale-4 fill-white"/><path d="M135.8,101v2.9h1.2v0.6h-1.9V101H135.8z" class="for-sale-4 fill-white"/><path d="M139.4,101.5h-1.3v0.9h1.2v0.6h-1.2v0.9h1.3v0.6h-2V101h2V101.5z" class="for-sale-4 fill-white"/></g><line id="forSale_129_" x1="133.9" x2="133.9" y1="106.5" y2="115.2" class="for-sale-3 fill-none stroke-danger"/></g></g></svg>