<svg xmlns="http://www.w3.org/2000/svg" xmlns:xlink="http://www.w3.org/1999/xlink" id="Layer_1" x="0" y="0" version="1.1" viewBox="0 0 250 150" xml:space="preserve" style="enable-background:new 0 0 250 150"><style type="text/css">.st0{opacity:.4}.st1{fill:#fcf3eb}.st2{fill:#fff}.st3{fill:#f5ca99}.st4,.st5{fill:none;stroke:#f5ca99;stroke-width:5;stroke-miterlimit:10}.st5{stroke-linecap:round}.st6{opacity:.7}.st7{fill:#fcf8f5}.st8{opacity:.8}</style><g class="st0"><path id="browserID1_3_" d="M225.7,149.7H44.3c-2.4,0-4.3-1.7-4.3-3.8V21.1c0-2.1,1.9-3.8,4.3-3.8h181.4 c2.4,0,4.3,1.7,4.3,3.8v124.7C230,148.1,228.1,149.7,225.7,149.7z" class="st1"/><g><path d="M225.9,17.4H44.2C41.9,17.4,40,19,40,21v4h190v-4C230,19,228.2,17.4,225.9,17.4z" class="st2"/><circle cx="47.5" cy="21.2" r="1.2" class="st3"/><circle cx="53.5" cy="21.2" r="1.2" class="st3"/><circle cx="59.5" cy="21.2" r="1.2" class="st3"/></g><g><path d="M193.3,82.5H76.9c-1.4,0-2.5-1.1-2.5-2.5V56c0-1.4,1.1-2.5,2.5-2.5h116.4c1.4,0,2.5,1.1,2.5,2.5v24 C195.8,81.4,194.7,82.5,193.3,82.5z" class="st4"/><line x1="74.5" x2="186.2" y1="103.6" y2="103.6" class="st5"/><line x1="74.5" x2="153.9" y1="120" y2="120" class="st5"/></g></g><g class="st6"><path id="browserID1_2_" d="M215.7,141.7H34.3c-2.4,0-4.3-1.7-4.3-3.8V13.1c0-2.1,1.9-3.8,4.3-3.8h181.4 c2.4,0,4.3,1.7,4.3,3.8v124.7C220,140.1,218.1,141.7,215.7,141.7z" class="st1"/><g><path d="M215.9,9.4H34.2C31.9,9.4,30,11,30,13v4h190v-4C220,11,218.2,9.4,215.9,9.4z" class="st2"/><circle cx="37.5" cy="13.2" r="1.2" class="st3"/><circle cx="43.5" cy="13.2" r="1.2" class="st3"/><circle cx="49.5" cy="13.2" r="1.2" class="st3"/></g><g><path d="M183.3,74.5H66.9c-1.4,0-2.5-1.1-2.5-2.5V48c0-1.4,1.1-2.5,2.5-2.5h116.4c1.4,0,2.5,1.1,2.5,2.5v24 C185.8,73.4,184.7,74.5,183.3,74.5z" class="st4"/><line x1="64.5" x2="176.2" y1="95.6" y2="95.6" class="st5"/><line x1="64.5" x2="143.9" y1="112" y2="112" class="st5"/></g></g><g><path id="browserID1_1_" d="M205.7,132.7H24.3c-2.4,0-4.3-1.7-4.3-3.8V4.1c0-2.1,1.9-3.8,4.3-3.8h181.4 c2.4,0,4.3,1.7,4.3,3.8v124.7C210,131.1,208.1,132.7,205.7,132.7z" class="st7"/><g><path d="M205.9,0.4H24.2C21.9,0.4,20,2,20,4v4h190V4C210,2,208.2,0.4,205.9,0.4z" class="st2"/><circle cx="27.5" cy="4.2" r="1.2" class="st3"/><circle cx="33.5" cy="4.2" r="1.2" class="st3"/><circle cx="39.5" cy="4.2" r="1.2" class="st3"/></g><g class="st8"><path d="M173.3,65.5H56.9c-1.4,0-2.5-1.1-2.5-2.5V39c0-1.4,1.1-2.5,2.5-2.5h116.4c1.4,0,2.5,1.1,2.5,2.5v24 C175.8,64.4,174.7,65.5,173.3,65.5z" class="st4"/><line x1="54.5" x2="166.2" y1="86.6" y2="86.6" class="st5"/><line x1="54.5" x2="133.9" y1="103" y2="103" class="st5"/></g></g></svg>