<svg xmlns="http://www.w3.org/2000/svg" xmlns:xlink="http://www.w3.org/1999/xlink" x="0" y="0" viewBox="0 0 155 152.9" xml:space="preserve" style="enable-background:new 0 0 155 152.9"><style type="text/css">.pro-account-0{fill:#00dffc}.pro-account-1{fill:#2d1582}.pro-account-2{fill:none;stroke:#fff}</style><path d="M144.5,132.9H24.9c-5.7,0-10.3-4.7-10.3-10.3V47.3c0-5.7,4.7-10.3,10.3-10.3h119.6c5.7,0,10.3,4.7,10.3,10.3	v75.2C154.8,128.4,150.3,132.9,144.5,132.9z" class="pro-account-0 fill-info"/><g><path d="M130.1,115.9H10.5c-5.7,0-10.3-4.7-10.3-10.3V30.4C0.2,24.7,4.8,20,10.5,20h119.6c5.7,0,10.3,4.7,10.3,10.3 v75.2C140.5,111.4,136,115.9,130.1,115.9z" class="pro-account-1 fill-indigo"/><line x1="27.2" x2="14" y1="87.2" y2="87.2" stroke-linecap="round" stroke-linejoin="round" stroke-miterlimit="10" stroke-width="4" class="pro-account-2 fill-none stroke-white" opacity=".7"/><line x1="40.9" x2="14" y1="96.4" y2="96.4" stroke-linecap="round" stroke-linejoin="round" stroke-miterlimit="10" stroke-width="4" class="pro-account-2 fill-none stroke-white" opacity=".7"/><rect width="25.5" height="11.5" x="101.2" y="84.9" stroke-linecap="round" stroke-linejoin="round" stroke-miterlimit="10" stroke-width="4" class="pro-account-2 fill-none stroke-white" opacity=".7"/><line x1="126.6" x2="14" y1="41" y2="41" stroke-linecap="round" stroke-linejoin="round" stroke-miterlimit="10" stroke-width="4" class="pro-account-2 fill-none stroke-white"/><line x1="126.6" x2="14" y1="61.4" y2="61.4" stroke-linecap="round" stroke-linejoin="round" stroke-miterlimit="10" stroke-width="4" class="pro-account-2 fill-none stroke-white"/></g></svg>