<svg xmlns="http://www.w3.org/2000/svg" xmlns:xlink="http://www.w3.org/1999/xlink" id="Layer_1" x="0" y="0" version="1.1" viewBox="0 0 1479.7 918.7" xml:space="preserve" style="enable-background:new 0 0 1479.7 918.7"><style type="text/css">.st0{opacity:.118;fill:url(#background_1_);enable-background:new}.st1{fill:url(#_3_1_)}.st2{fill:url(#_2_1_)}.st3{fill:url(#_1_1_)}.st4{opacity:.2}.st5{fill:#8ca4d4}.st6{fill:#123584}.st7{fill:url(#Shape_9-2_1_)}.st8{clip-path:url(#SVGID_2_)}.st9{fill:#a1b8e3}.st10{opacity:.5;fill:none;stroke:#8ca4d4;stroke-width:5;stroke-linecap:round;stroke-miterlimit:10;stroke-dasharray:5,20;enable-background:new}.st11{fill:url(#Shape_5_1_)}.st12{fill:#e1a846}.st13{fill:#e6b052}.st14{fill:url(#chair_shadow_1_)}.st15{fill:url(#chair_1_)}.st16{fill:url(#cushion_1_)}.st17{fill:#94b0d7}.st18{fill:url(#Path_17-2_1_)}.st19{clip-path:url(#SVGID_4_)}.st20{opacity:.2;fill:#3d82f0;enable-background:new}.st21{fill:url(#Path_17_Copy-2_1_)}.st22{clip-path:url(#SVGID_6_)}.st23{opacity:.2;fill:#617fc8;enable-background:new}.st24{fill:url(#sleeve_1_)}.st25{fill:url(#arm_1_)}.st26{fill:url(#Path_7-2_1_)}.st27{clip-path:url(#SVGID_8_)}.st28{opacity:.3;fill:url(#Path_1_);enable-background:new}.st29{fill:url(#Path_4-2_1_)}.st30{clip-path:url(#SVGID_10_)}.st31{opacity:.2;fill:#7890cb;enable-background:new}.st32{fill:#fff}.st33{fill:url(#Path_9-3_1_)}.st34{clip-path:url(#SVGID_12_)}.st35,.st36{enable-background:new}.st35{opacity:.6;stroke:#d9e8ff;stroke-width:4;stroke-miterlimit:10}.st36{opacity:.3;fill:#ccdffd}.st37{fill:url(#leg-3_1_)}.st38{fill:url(#face_1_)}.st39{fill:url(#Path_13-2_1_)}.st40{clip-path:url(#SVGID_14_)}.st41{opacity:.5;fill:#6b84c2;enable-background:new}.st42{fill:url(#hair_1_)}.st43{fill:#ccdffd}.st44{fill:url(#colar-2_1_)}.st45{fill:url(#sleeve-2_1_)}.st46{fill:#143b8c}.st47,.st48{stroke:#143b8c;stroke-miterlimit:10}.st47{stroke-width:3;stroke-linecap:round}.st48{stroke-width:4}.st48,.st49{fill:none}.st50{clip-path:url(#SVGID_16_)}.st51{fill:#eef5ff}.st52{fill:url(#pocket_1_)}.st53{opacity:.2;fill:#bbcff2;enable-background:new}.st54{fill:url(#Ellipse_2-3_1_)}.st55{fill:url(#Ellipse_1-3_1_)}.st56{fill:url(#Shape_2-5_1_)}.st57{clip-path:url(#SVGID_18_)}.st58{opacity:.5;stroke:#489c71;stroke-width:3;stroke-miterlimit:10;enable-background:new}.st59{fill:url(#Shape_2-8_1_)}.st60{clip-path:url(#SVGID_20_)}.st61{fill:url(#Shape_2-11_1_)}.st62{clip-path:url(#SVGID_22_)}.st63{opacity:.6}.st64{fill:url(#Ellipse_4-3_1_)}.st65{fill:none;stroke:#fff;stroke-width:6;stroke-linecap:round;stroke-linejoin:round;stroke-miterlimit:10}</style><linearGradient id="background_1_" x1="452.517" x2="452.774" y1="591.468" y2="592.552" gradientTransform="matrix(1416.0532 0 0 -865.1645 -640168.9375 512560.5)" gradientUnits="userSpaceOnUse"><stop offset="0" style="stop-color:#ecf2fc"/><stop offset="1" style="stop-color:#b9cff7"/></linearGradient><path id="background" d="M585.4,770.2c-246.6,31.2-463.2-59.9-511.8-228.9c-56.6-196.9,136-425.1,430.3-509.7	c236.4-67.9,466.5-22.5,577.2,100.1c190.3,0.7,348.4,86,388.9,226.9c53.8,187.2-120.4,401.5-389.2,478.8	c-65.7,18.9-130.9,27.8-192.8,27.8C766.9,865.2,658.8,831,585.4,770.2z" class="st0"/><linearGradient id="_3_1_" x1="447.145" x2="447.692" y1="596.143" y2="595.246" gradientTransform="matrix(102 0 0 -99 -44369.3906 59264.8516)" gradientUnits="userSpaceOnUse"><stop offset="0" style="stop-color:#acd6ff;stop-opacity:.153"/><stop offset="1" style="stop-color:#96accb;stop-opacity:.459"/></linearGradient><path id="_3" d="M1247,242h63.9c4.2,0,7.6,3.4,7.6,7.6l-22.8,83.8c0,4.2-3.4,7.6-7.6,7.6h-63.9c-4.2,0-7.6-3.4-7.6-7.6	l22.8-83.8C1239.4,245.4,1242.8,242,1247,242z" class="st1"/><linearGradient id="_2_1_" x1="448.484" x2="449.031" y1="595.134" y2="594.237" gradientTransform="matrix(134 0 0 -130 -58763.3047 77651.5625)" gradientUnits="userSpaceOnUse"><stop offset="0" style="stop-color:#acd6ff;stop-opacity:.153"/><stop offset="1" style="stop-color:#96accb;stop-opacity:.459"/></linearGradient><path id="_2" d="M1343.5,278h84c5.5,0,10,4.5,10,10l-30,110c0,5.5-4.5,10-10,10h-84c-5.5,0-10-4.5-10-10l30-110	C1333.5,282.4,1338,278,1343.5,278z" class="st2"/><linearGradient id="_1_1_" x1="448.484" x2="449.031" y1="595.134" y2="594.237" gradientTransform="matrix(134 0 0 -130 -58844.3047 77738.5625)" gradientUnits="userSpaceOnUse"><stop offset="0" style="stop-color:#acd6ff;stop-opacity:.153"/><stop offset="1" style="stop-color:#96accb;stop-opacity:.459"/></linearGradient><path id="_1" d="M1262.5,365h84c5.5,0,10,4.5,10,10l-30,110c0,5.5-4.5,10-10,10h-84c-5.5,0-10-4.5-10-10l30-110	C1252.5,369.4,1257,365,1262.5,365z" class="st3"/><g id="laptop" transform="translate(1297 432)"><g id="table" class="st4" transform="translate(130 167)"><path id="Rectangle_3-2" d="M-118.5,0.9h21V273h-21V0.9z" class="st5"/><path id="Rectangle_2_copy-2" d="M-188.5,273h161v21h-161V273z" class="st5"/><path id="Rectangle_2-2" d="M-247.5-20h280V1h-280V-20z" class="st5"/></g><path id="front" d="M-34.5,147L-5.1,2l169.6,3l-29,142H-34.5z" class="st6"/><path id="bottom" d="M-117.5,138.8h264v9.2h-256L-117.5,138.8z" class="st6"/><g id="back" transform="translate(94)"><linearGradient id="Shape_9-2_1_" x1="-940.429" x2="-940.994" y1="161.814" y2="162.497" gradientTransform="matrix(199 0 0 -146 187209.3281 23774.9023)" gradientUnits="userSpaceOnUse"><stop offset="0" style="stop-color:#367ed7"/><stop offset="1" style="stop-color:#153d8e"/></linearGradient><path id="Shape_9-2" d="M-118.5,148L-89.1,2L80.5,5l-28,143H-118.5z" class="st7"/><g><defs><polygon id="SVGID_1_" points="-118.5 148 -89.1 2 80.5 5 52.5 148"/></defs><clipPath id="SVGID_2_"><use xlink:href="#SVGID_1_" style="overflow:visible"/></clipPath><g id="back-2" class="st8"><path id="Ellipse_5" d="M-17.5,61c8.3,0,15,5.6,15,12.5S-9.2,86-17.5,86s-15-5.6-15-12.5S-25.8,61-17.5,61z" class="st9"/></g></g></g></g><g id="message" transform="translate(118 179)"><path id="line" d="M-33.5,4C-278,260.9,81.4,624.2,299.4,351.3C666.7-108.6,979.5,237,979.5,237" class="st10"/><g id="rocket" transform="translate(1079 212)"><linearGradient id="Shape_5_1_" x1="-749.063" x2="-748.001" y1="204.127" y2="204.275" gradientTransform="matrix(124.988 0 0 -111 93503.5313 22726.3535)" gradientUnits="userSpaceOnUse"><stop offset="0" style="stop-color:#fdae6b"/><stop offset="1" style="stop-color:#fae539"/></linearGradient><path id="Shape_5" d="M-118.5,69l20.8-27.2L-30.1,84l-51.7-59.4L-56.7,1L6.5,112L-118.5,69z" class="st11"/><path id="Shape_6" d="M-98.3,42.5l15.8-2.1l55.3,45.8L-98.3,42.5z" class="st12"/><path id="Shape_7" d="M-83.3,40.3l2.2-15.8l52.4,60.2L-83.3,40.3z" class="st13"/></g></g><g id="Person" transform="translate(174 196)"><radialGradient id="chair_shadow_1_" cx="277.644" cy="400.86" r=".853" gradientTransform="matrix(413 0 0 -83 -114388.7891 33903.5156)" gradientUnits="userSpaceOnUse"><stop offset="0" style="stop-color:#000"/><stop offset="1" style="stop-color:#2062e7"/></radialGradient><path id="chair_shadow" d="M278,703c114,0,206.5-18.6,206.5-41.5c0-22.9-92.5-41.5-206.5-41.5S71.5,638.5,71.5,661.5 C71.5,684.4,164,703,278,703z" class="st14"/><radialGradient id="chair_1_" cx="277.963" cy="396.273" r=".414" gradientTransform="matrix(579.8652 0 0 -544.4641 -160972.1875 216130.1875)" gradientUnits="userSpaceOnUse"><stop offset="0" style="stop-color:#62abfb"/><stop offset="1" style="stop-color:#1440c0"/></radialGradient><path id="chair" d="M135.1,635.7c126.5,60.7,312.4,52.7,395.7-112.1c55.1-106-62.4-232.9-191.5-321.2 c-115.8-79.2-218.8-97.2-279.3-52.6c-6.9,5.1-19.2,4.1-24.7,11C-118.1,336.1,8.6,575,135.1,635.7z" class="st15"/><radialGradient id="cushion_1_" cx="277.959" cy="396.634" r=".533" gradientTransform="matrix(520.54 0 0 -435.894 -144388.5 173132.75)" gradientUnits="userSpaceOnUse"><stop offset="0" style="stop-color:#f4f8ff"/><stop offset="1" style="stop-color:#89b1e9"/></radialGradient><path id="cushion" d="M213.3,484.1c135.3,84.6,275.1,93.8,322.1,18.6c43.6-81.3-62.2-228.2-197.5-312.8 s-253.2-98-300.2-22.8S77.9,399.5,213.3,484.1z" class="st16"/><path id="shadow" d="M243.9,424.7c60.7,37.9,123.3,42.1,144.4,8.3c19.6-36.5-27.9-102.4-88.6-140.3 s-113.5-44-134.6-10.2S183.2,386.8,243.9,424.7z" class="st17"/><g id="shoe" transform="translate(747 624)"><linearGradient id="Path_17-2_1_" x1="-471.731" x2="-472.013" y1="-222.005" y2="-222.989" gradientTransform="matrix(147.7569 0 0 -67.1869 69675.3906 -14898.4463)" gradientUnits="userSpaceOnUse"><stop offset="0" style="stop-color:#9abfff"/><stop offset="1" style="stop-color:#5b87d2"/></linearGradient><path id="Path_17-2" d="M-113.2,48.1c-2-9-5-15.7-2-27.9S-78,1.2-73.7,5s3.6,6,20.7,15.1s66.2,19.7,76.6,31.4 s12.5,19.6-9.4,19.6h-67.5c-12.1-4.4-16.2-6.8-23-10.8c-0.8,3.1-0.8,6.3,0,9.4h-29.1C-105.2,69.8-111.3,57.1-113.2,48.1z" class="st18"/><g><defs><path id="SVGID_3_" d="M-113.2,48.1c-2-9-5-15.7-2-27.9S-78,1.2-73.7,5s3.6,6,20.7,15.1s66.2,19.7,76.6,31.4s12.5,19.6-9.4,19.6 h-67.5c-12.1-4.4-16.2-6.8-23-10.8c-0.8,3.1-0.8,6.3,0,9.4h-29.1C-105.2,69.8-111.3,57.1-113.2,48.1z"/></defs><clipPath id="SVGID_4_"><use xlink:href="#SVGID_3_" style="overflow:visible"/></clipPath><g id="shoe-2" class="st19"><path id="Path_21" d="M-113.2,62.9c6.3-16.1,30.7-46.2,37.7-56s-46.8,11.5-46.8,11.5S-119.4,79.1-113.2,62.9z" class="st20"/></g></g></g><g id="shoe-3" transform="translate(788 347)"><linearGradient id="Path_17_Copy-2_1_" x1="-513.157" x2="-513.323" y1="53.672" y2="52.672" gradientTransform="matrix(134.9466 0 0 -88.7267 69208.9531 4767.1743)" gradientUnits="userSpaceOnUse"><stop offset="0" style="stop-color:#91baff"/><stop offset="1" style="stop-color:#5b87d2"/></linearGradient><path id="Path_17_Copy-2" d="M-97.3,80.2c-6.4-6.1-12.4-9.8-16.6-21s19.2-35.2,24.8-34.4s6.1,2.8,24.6,0.8 S-13,1,1.7,4.7s27.9,3.8,10.6,15.5C4.1,25.7-27.4,59.4-37.2,66c-12,3-16.5,3.4-24.1,3.8c1,2.9,2.8,5.5,5.1,7.5L-79.3,93 C-79.3,93-90.9,86.2-97.3,80.2z" class="st21"/><g><defs><path id="SVGID_5_" d="M-97.3,80.2c-6.4-6.1-12.4-9.8-16.6-21s19.2-35.2,24.8-34.4s6.1,2.8,24.6,0.8S-13,1,1.7,4.7 s27.9,3.8,10.6,15.5C4.1,25.7-27.4,59.4-37.2,66c-12,3-16.5,3.4-24.1,3.8c1,2.9,2.8,5.5,5.1,7.5L-79.3,93 C-79.3,93-90.9,86.2-97.3,80.2z"/></defs><clipPath id="SVGID_6_"><use xlink:href="#SVGID_5_" style="overflow:visible"/></clipPath><g id="shoe-4" class="st22"><path id="Path_19" d="M-87.8,90.6c-9.7-20.1,0.3-65.4-4.1-69.4c-4.4-4-26,32.4-26,32.4s-10.3,10.2,6.2,25.4 S-78.1,110.7-87.8,90.6z" class="st23"/></g></g></g><linearGradient id="sleeve_1_" x1="274.166" x2="273.869" y1="398.081" y2="397.444" gradientTransform="matrix(113.9423 0 0 -191.8499 -30892.9746 76469.0781)" gradientUnits="userSpaceOnUse"><stop offset="0" style="stop-color:#f5f8ff"/><stop offset="1" style="stop-color:#fff"/></linearGradient><path id="sleeve" d="M271.7,204.5c44.9-23.9,70.6-93.8,89.1-113.4c18.6-19.6,26.8,17.9,23.7,29s-25.7,85.4-72.9,145.5 C311.6,304.8,265.9,236,271.7,204.5z" class="st24"/><linearGradient id="arm_1_" x1="273.987" x2="274.611" y1="400.363" y2="401.363" gradientTransform="matrix(123.8486 0 0 -76.8392 -33670.8711 30929.8945)" gradientUnits="userSpaceOnUse"><stop offset="0" style="stop-color:#6b86c0"/><stop offset="1" style="stop-color:#a1b8e3"/></linearGradient><path id="arm" d="M252.5,125.2c0,0,106.5-42.1,120.9-39.3s-28.6,51.9-37.4,55.8c-8.8,4-20.8,13.6-34,14 s-43.7,6.9-43.7,6.9L252.5,125.2z" class="st25"/><g id="leg" transform="translate(384 346)"><linearGradient id="Path_7-2_1_" x1="-106.384" x2="-106.023" y1="50.828" y2="51.097" gradientTransform="matrix(402.2747 0 0 -288.6164 42887.2695 14851.1914)" gradientUnits="userSpaceOnUse"><stop offset="0" style="stop-color:#002383"/><stop offset="1" style="stop-color:#316eea"/></linearGradient><path id="Path_7-2" d="M-105.2,95C-92.1,77.3-60.1,40.5,8.9,27.1s132.3-25.9,248.6,8.6 c9.6,112.3,20.5,225.3,31.5,248.2c-8.4,10.2-38.7,18-56.5,18c-6.5-25.3-26.7-86.2-37-116.3s-13.9-67.5-11.9-80.7 c-35,10-106.8,40.2-132,49.2s-111.5,37.4-140.1,14.5S-118.3,112.6-105.2,95z" class="st26"/><g><defs><path id="SVGID_7_" d="M-105.2,95C-92.1,77.3-60.1,40.5,8.9,27.1s132.3-25.9,248.6,8.6c9.6,112.3,20.5,225.3,31.5,248.2 c-8.4,10.2-38.7,18-56.5,18c-6.5-25.3-26.7-86.2-37-116.3s-13.9-67.5-11.9-80.7c-35,10-106.8,40.2-132,49.2 s-111.5,37.4-140.1,14.5S-118.3,112.6-105.2,95z"/></defs><clipPath id="SVGID_8_"><use xlink:href="#SVGID_7_" style="overflow:visible"/></clipPath><g id="leg-2" class="st27"><linearGradient id="Path_1_" x1="-110.641" x2="-110.141" y1="52.222" y2="52.831" gradientTransform="matrix(105.2737 0 0 -136.4659 11755.0957 7247.4194)" gradientUnits="userSpaceOnUse"><stop offset="0" style="stop-color:#002343"/><stop offset="1" style="stop-color:#1a72ff;stop-opacity:.435"/></linearGradient><path id="Path" d="M132.6,125.4c0-15.6,39.6-98.2,50.2-107.1c10.6-8.8-20.9-7.5-20.9-7.5S90.1,85.4,80.7,125.4 S132.6,141.1,132.6,125.4z" class="st28"/></g></g></g><g id="neck" transform="translate(298 152)"><linearGradient id="Path_4-2_1_" x1="-26.044" x2="-26.044" y1="246.969" y2="246.367" gradientTransform="matrix(80.8784 0 0 -132.0092 2029.7648 32630.2734)" gradientUnits="userSpaceOnUse"><stop offset="0" style="stop-color:#6081c1"/><stop offset="1" style="stop-color:#90aadb"/></linearGradient><path id="Path_4-2" d="M-105.5,62.1C-109,44.7-115.7,14.2-117,7.7c-1.3-6.5,63.4,16,63.4,16l8.1,42.7l9.3,72.2 C-36.2,138.5-102.1,79.5-105.5,62.1z" class="st29"/><g><defs><path id="SVGID_9_" d="M-105.5,62.1C-109,44.7-115.7,14.2-117,7.7c-1.3-6.5,63.4,16,63.4,16l8.1,42.7l9.3,72.2 C-36.2,138.5-102.1,79.5-105.5,62.1z"/></defs><clipPath id="SVGID_10_"><use xlink:href="#SVGID_9_" style="overflow:visible"/></clipPath><g id="neck-2" class="st30"><path id="Path_22" d="M-113.5,9.5c0,6.6,24.6,34.6,37.8,42.2s37.2,7,37.2,7L-42.1,21l-71.4-18V9.5z" class="st31"/></g></g></g><g id="shirt" transform="translate(245 198)"><g id="Path_9"><path id="Path_9-2" d="M3.9,1.3c0,0,24.6,4,26.3,7.1c16,11.6,31.4,46.2,37.9,64.1s19.2,36.4,30.5,50.8 s16.8,17.3,31.7,28s20.3,19.1,11.9,27s-56.9,4.8-91.4,48c-30.1,12.4-30.1,16.9-39.1-9.8s-82.6-93.5-94.5-102.9 s-7.3-18.5-10.3-47.3c-3-28.8-24.7-52.2-6.5-52.2c14.4,5.4,28.4-5.6,34.7-5.6c23.1,5.7,28.3,28.4,37.9,23.7s15.7-4.8,15.7-4.8 c2.2,4.5,3,12.3,5.2,16.8s11.6,13.6,15.7,22L2.3,41.6l2-14.7L3.9,1.3z" class="st32"/><linearGradient id="Path_9-3_1_" x1="31.928" x2="31.837" y1="198.843" y2="199.077" gradientTransform="matrix(252.9848 0 0 -234.6268 -8017.0376 46866.625)" gradientUnits="userSpaceOnUse"><stop offset="0" style="stop-color:#b1c2e4"/><stop offset="1" style="stop-color:#fff;stop-opacity:0"/></linearGradient><path id="Path_9-3" d="M3.9,1.3c0,0,24.6,4,26.3,7.1c16,11.6,31.4,46.2,37.9,64.1s19.2,36.4,30.5,50.8 s16.8,17.3,31.7,28s20.3,19.1,11.9,27s-56.9,4.8-91.4,48c-30.1,12.4-30.1,16.9-39.1-9.8s-82.6-93.5-94.5-102.9 s-7.3-18.5-10.3-47.3c-3-28.8-24.7-52.2-6.5-52.2c14.4,5.4,28.4-5.6,34.7-5.6c23.1,5.7,28.3,28.4,37.9,23.7s15.7-4.8,15.7-4.8 c2.2,4.5,3,12.3,5.2,16.8s11.6,13.6,15.7,22L2.3,41.6l2-14.7L3.9,1.3z" class="st33"/></g><g><defs><path id="SVGID_11_" d="M11.8,216.3c-9-26.7-82.6-93.5-94.5-102.9s-7.3-18.5-10.3-47.3c-2.1-20.5-13.7-38.2-13.7-46.7 c0-3.5,1.9-5.5,7.2-5.5c14.4,5.4,28.4-5.6,34.7-5.6c23.1,5.7,28.3,28.4,37.9,23.7s15.7-4.8,15.7-4.8c2.2,4.5,3,12.3,5.2,16.8 s11.6,13.6,15.7,22L2.3,41.6l2-14.7L3.9,1.3c0,0,24.6,4,26.3,7.1c16,11.6,31.4,46.2,37.9,64.1s19.2,36.4,30.5,50.8 s16.8,17.3,31.7,28c10.1,7.2,15.9,13.4,15.9,19.2c0,2.7-1.3,5.3-4,7.8c-8.4,7.9-56.9,4.8-91.4,48c-14,5.7-21.5,9.8-26.4,9.8 C18.8,235.9,16.6,230.5,11.8,216.3z"/></defs><clipPath id="SVGID_12_"><use xlink:href="#SVGID_11_" style="overflow:visible"/></clipPath><g id="shirt-2" class="st34"><path id="Shape_1" d="M5.5,66c2.2,4.4,25.9,46,31,52c5.1,6,21.6,22.7,28,29s45.5,31.2,46,39" class="st35"/><path id="Path_23" d="M-24.6,58.1c0,0,10.9-19.8,17.3-19.8S-9.5,19-9.5,19l-19.8,15L-24.6,58.1z" class="st36"/></g></g></g><linearGradient id="leg-3_1_" x1="277.409" x2="277.58" y1="397.575" y2="397.19" gradientTransform="matrix(405.4061 0 0 -241.4497 -112045.0781 96280.8438)" gradientUnits="userSpaceOnUse"><stop offset="0" style="stop-color:#3d9bf8"/><stop offset="1" style="stop-color:#3b80f0"/></linearGradient><path id="leg-3" d="M384.5,365.2c36.2-33.3,139.9-97.6,199-107.4c33.9,5.6,122,101.2,122,101.2 c-4,4.2-14.5,41.3-31,53c-41.7-34.6-85.1-50.8-96.8-68.6c-14.6,8.9-52,34.7-73.5,72.7s-35.8,81.3-60.3,82.4s-59.1,3.9-91-16.6 c-18.5-11.9-71.8-38.4-45.9-55.8C321.9,416.1,369.3,379.2,384.5,365.2z" class="st37"/><linearGradient id="face_1_" x1="274.365" x2="273.648" y1="399.51" y2="399.133" gradientTransform="matrix(107.9349 0 0 -110.546 -29329.5527 44275.7656)" gradientUnits="userSpaceOnUse"><stop offset="0" style="stop-color:#fff"/><stop offset=".701" style="stop-color:#b8cbeb"/><stop offset="1" style="stop-color:#a1b8e3"/></linearGradient><path id="face" d="M243.3,87.7c2.5,6.2,15.9,33.4,17.2,40.1c1.3,6.8,14.1,52,6.5,58.9c-7.6,7-30.5,10.5-36.9,8.3 c-6.4-2.2-20.1-3.7-25.5-13.1c-4.1-7.2-17.2-24-20.6-23c-1.3,2.6-5.6,5.3-7.8,3.6c-9.4-7.6-17.6-15.9-13.7-34.6s17.3-28,31.8-34.1 C208.6,87.7,240.8,81.5,243.3,87.7z" class="st38"/><g id="arm-2" transform="translate(134 139)"><linearGradient id="Path_13-2_1_" x1="141.248" x2="141.376" y1="264.319" y2="265.319" gradientTransform="matrix(154.4236 0 0 -50.2403 -21858.6074 13332.2148)" gradientUnits="userSpaceOnUse"><stop offset="0" style="stop-color:#7992c7"/><stop offset="1" style="stop-color:#a1b8e3"/></linearGradient><path id="Path_13-2" d="M-56,52.6c17.5,7.1,74.2-21.1,92.2-18.6c16.5,2.3-4.4-23.6-10.7-28.1s-130.4-2.5-136.9,7 C-117.9,22.5-70.5,46.7-56,52.6z" class="st39"/><g><defs><path id="SVGID_13_" d="M-56,52.6c17.5,7.1,74.2-21.1,92.2-18.6c16.5,2.3-4.4-23.6-10.7-28.1s-130.4-2.5-136.9,7 C-117.9,22.5-70.5,46.7-56,52.6z"/></defs><clipPath id="SVGID_14_"><use xlink:href="#SVGID_13_" style="overflow:visible"/></clipPath><g id="arm-3" class="st40"><path id="Path_24" d="M-90.5,13.8c3.7,1.3,78.4,33.9,96.8,29.4s-46,17-46,17S-94.1,12.5-90.5,13.8z" class="st41"/></g></g></g><linearGradient id="hair_1_" x1="275.157" x2="274.196" y1="397.941" y2="397.633" gradientTransform="matrix(126.8992 0 0 -183.235 -34629.2305 72981.125)" gradientUnits="userSpaceOnUse"><stop offset="0" style="stop-color:#2669e1"/><stop offset="1" style="stop-color:#143b8c"/></linearGradient><path id="hair" d="M191.5,127.9c0,0-8.5-12.8-1.9-25.6c6.5-12.7,41,4.3,69-27.1s3.1-73.8-25.6-65.5 s-21.7,23.1-16.5,34.1s-21.6,15.2-40.7,23s-34.8,28.7-31.4,61.2s33.5,59.1,43.1,64c-2.8-19.2-2.9-28-2.9-33.4 c-11,5.1-23.8-20.1-16.4-26.7c14.2-12.7,21.4,16.2,21.4,16.2c1.4-2.9,3.2-5.6,5.3-8C194.1,135.9,193,131.8,191.5,127.9z" class="st42"/><path id="colar" d="M249.5,224.3c8.7,3.1,10.4,19.3,11.9,23.8c1.5,4.6-6.3-35.7-6.3-35.7c-2.7,3.8-8.6-21.9-7.5-18.2 C250.6,204.4,248.1,215.8,249.5,224.3z" class="st43"/><linearGradient id="colar-2_1_" x1="268.088" x2="268.349" y1="400.669" y2="400.906" gradientTransform="matrix(53.297 0 0 -78.408 -14092.3428 31651.8613)" gradientUnits="userSpaceOnUse"><stop offset="0" style="stop-color:#eef5ff"/><stop offset="1" style="stop-color:#adc8f2"/></linearGradient><path id="colar-2" d="M221,265c0-14.3,5.7-33.1,12.7-39.8c-10.2,0.6-40.1-17.3-43.3-27.2c-3.2-10-3.8-11.4-3.8-11.4 s-6.2,11.9-6.2,19.5C184.8,222.5,204.2,251,221,265z" class="st44"/><linearGradient id="sleeve-2_1_" x1="275.524" x2="275.227" y1="398.5" y2="397.863" gradientTransform="matrix(154.8479 0 0 -160.0736 -42540.2773 63950.5742)" gradientUnits="userSpaceOnUse"><stop offset="0" style="stop-color:#f5f8ff"/><stop offset="1" style="stop-color:#fff"/></linearGradient><path id="sleeve-2" d="M133.4,208c-29.6-16.3-88.7-62.5-104.2-58.7s-11.5,10.8-11.5,26.9s81.2,70.4,93.7,97.2 c5.3,11.5,19.1,39.9,43.6,35.3c24.5-4.6,17.1-29,11.8-48.7C160.6,236.9,151.7,218,133.4,208z" class="st45"/><path d="M260.6,150.3c-1.1-0.2-1.6,0.8-2.3,1.7c-2.2,3.1-6.9,6.5-9.7,7.1c-0.1,0-0.2,0-0.4,0.1l0,0c0,0,0,0-0.1,0 c-2.3,1.7-8.1,2.9-11.9,2.4c-1.1-0.1-2.2-0.4-2.8,0.5c-0.6,0.9,0.5,2.2,1.5,2.6c5,1.9,12.3,3.3,16,0.6c4.5-0.9,8.5-7.2,10.6-12.2 C261.9,152.1,261.7,150.4,260.6,150.3z" class="st46"/><g id="glasses" transform="translate(301 97)"><path id="Path_18" d="M-88,31.5c5.2,1.4,11.6,0.4,15.1-3.4" class="st47"/><path id="Path_18_Copy" d="M-46.5,20.5c4.5,1.4,10.1,0.4,13-3.4" class="st47"/><path id="Path_14" d="M-99.5,23.4l5.6,24.6l31-7.4L-67.6,15L-99.5,23.4z" class="st48"/><path id="Path_14_Copy" d="M-54.2,10.9l5,25.1l23.2-6.7l-4.2-25.1L-54.2,10.9z" class="st48"/><path id="Path_15" d="M-100.1,26.5l-18.3,5l3.1,6.1l19.7,4.7L-100.1,26.5z" class="st46"/><path id="Path_16" d="M-66.6,22.7l13.9-4.3l1.5,7.4l-14.5,4L-66.6,22.7z" class="st46"/></g><g id="Oval_3_Oval_3_Copy_Oval_3_Copy_2_Oval_3_Copy_4_Oval_3_Copy_3_Mask"><path id="Mask-2" d="M213.3,484.1c135.3,84.6,275.1,93.8,322.1,18.6C591.8,393,398.3,440.5,263,355.9 S131,200.7,37.6,167.1C-9.4,242.3,77.9,399.5,213.3,484.1z" class="st49"/><g><defs><path id="SVGID_15_" d="M213.3,484.1c135.3,84.6,275.1,93.8,322.1,18.6C591.8,393,398.3,440.5,263,355.9S131,200.7,37.6,167.1 C-9.4,242.3,77.9,399.5,213.3,484.1z"/></defs><clipPath id="SVGID_16_"><use xlink:href="#SVGID_15_" style="overflow:visible"/></clipPath><g id="Oval_3_Oval_3_Copy_Oval_3_Copy_2_Oval_3_Copy_4_Oval_3_Copy_3_Mask-2" class="st50"><path id="Oval_3" d="M-28.8,377.3c70.6,45.9,151.6,46.6,180.7,1.7s-4.4-118.5-75.1-164.4s-151.6-46.6-180.7-1.7 S-99.4,331.4-28.8,377.3z" class="st51"/><path id="Oval_3_Copy" d="M219,560.1c52.1-24.3,68.2-99.7,36.1-168.6s-100.3-104.9-152.4-80.7 s-68.2,99.7-36.1,168.6S166.9,584.4,219,560.1z" class="st51"/><path id="Oval_3_Copy_2" d="M354,676.1c52.1-24.3,68.2-99.7,36.1-168.6s-100.3-104.9-152.4-80.7 s-68.2,99.7-36.1,168.6S301.9,700.4,354,676.1z" class="st51"/><path id="Oval_3_Copy_4" d="M606,715.1c52.1-24.3,68.2-99.7,36.1-168.6c-32.1-68.8-100.3-104.9-152.4-80.7 s-68.2,99.7-36.1,168.6S553.9,739.4,606,715.1z" class="st51"/><path id="Oval_3_Copy_3" d="M427.7,638.9c57,7,107.6-22.7,112.9-66.2c5.4-43.6-36.5-84.6-93.5-91.6 s-107.6,22.7-112.9,66.2C328.8,590.9,370.7,631.9,427.7,638.9z" class="st51"/></g></g></g><linearGradient id="pocket_1_" x1="266.555" x2="266.3" y1="405.82" y2="404.82" gradientTransform="matrix(45.375 0 0 -42.6243 -11795.3994 17558.1113)" gradientUnits="userSpaceOnUse"><stop offset="0" style="stop-color:#eef5ff"/><stop offset="1" style="stop-color:#d9e8ff"/></linearGradient><path id="pocket" d="M270.8,269.5c0,0,23.7-4.5,26.5-7.7c2.8-3.2,18.9,33.6,18.9,33.6l-7.8,8.8h-18.6L270.8,269.5z" class="st52"/></g><g id="Plant" transform="translate(178 613)"><g id="Pot" transform="translate(41 181)"><path id="shadow-2" d="M-46.5,75c39.8,0,72,6.9,72,15.5S-6.7,106-46.5,106s-72-6.9-72-15.5S-86.2,75-46.5,75z" class="st53"/><g id="Ellipse_2-2" transform="translate(2 11)"><linearGradient id="Ellipse_2-3_1_" x1="228.678" x2="227.957" y1="-209.104" y2="-208.604" gradientTransform="matrix(144 0 0 -88 -32886.5938 -18326.6914)" gradientUnits="userSpaceOnUse"><stop offset="0" style="stop-color:#cee0fb"/><stop offset="1" style="stop-color:#e4edfb"/></linearGradient><path id="Ellipse_2-3" d="M18.5,3.3c4.6,7.9,7,17,7,26.1c0,33.4-32.2,60.5-72,60.5s-72-27.1-72-60.5 c0-9.7,2.7-19.2,7.9-27.5C-78.7,7-15.2,6.7,18.5,3.3z" class="st54"/></g><g id="Ellipse_1-2" transform="translate(8)"><linearGradient id="Ellipse_1-3_1_" x1="221.662" x2="221.662" y1="-188.525" y2="-189.525" gradientTransform="matrix(131 0 0 -31 -29089.7207 -5843.3271)" gradientUnits="userSpaceOnUse"><stop offset="0" style="stop-color:#99bae9"/><stop offset="1" style="stop-color:#bcd0f2"/></linearGradient><path id="Ellipse_1-3" d="M-52,1c36.2,0,65.5,6.9,65.5,15.5S-15.8,32-52,32s-65.5-6.9-65.5-15.5S-88.1,1-52,1z" class="st55"/></g></g><g id="leaves"><g id="leaves-2"><g id="leaf" transform="translate(47)"><g id="Shape_2-4"><linearGradient id="Shape_2-5_1_" x1="220.474" x2="220.918" y1="-18.785" y2="-19.735" gradientTransform="matrix(76.9467 0 0 -183 -17054.0566 -3430.6323)" gradientUnits="userSpaceOnUse"><stop offset="0" style="stop-color:#b1ffbe"/><stop offset=".444" style="stop-color:#5cdb8e"/><stop offset="1" style="stop-color:#149654"/></linearGradient><path id="Shape_2-5" d="M-55.5,184c-3.6-24.8-13.4-60.5-43-99C-115.9,62.3-116,7-118.5,1 c13.7,4.7,38.2,16.8,63,51C-29.5,87.8-46,160.8-55.5,184z" class="st56"/><g><defs><path id="SVGID_17_" d="M-55.5,184c-3.6-24.8-13.4-60.5-43-99C-115.9,62.3-116,7-118.5,1c13.7,4.7,38.2,16.8,63,51 C-29.5,87.8-46,160.8-55.5,184z"/></defs><clipPath id="SVGID_18_"><use xlink:href="#SVGID_17_" style="overflow:visible"/></clipPath><g id="Shape_2-6" class="st57"><path id="Shape_3" d="M-56.5,184c2.7-60.2-4.8-98.1-28.3-134" class="st58"/></g></g></g></g><g id="leaf-2" transform="translate(0 89)"><g id="Shape_2-7"><linearGradient id="Shape_2-8_1_" x1="269.744" x2="269.862" y1="-106.46" y2="-107.441" gradientTransform="matrix(109.591 0 0 -118.6618 -29631.8203 -12637.0186)" gradientUnits="userSpaceOnUse"><stop offset="0" style="stop-color:#b1ffbe"/><stop offset=".444" style="stop-color:#5cdb8e"/><stop offset="1" style="stop-color:#149654"/></linearGradient><path id="Shape_2-8" d="M-8.4,120.4c-11.1-17.7-30.6-41.6-66.1-61.1C-95.4,47.9-114,5.8-118,2 c12-1,34.8,0,65.2,17.7C-20.9,38.3-8.9,99.6-8.4,120.4z" class="st59"/><g><defs><path id="SVGID_19_" d="M-8.4,120.4c-11.1-17.7-30.6-41.6-66.1-61.1C-95.4,47.9-114,5.8-118,2c12-1,34.8,0,65.2,17.7 C-20.9,38.3-8.9,99.6-8.4,120.4z"/></defs><clipPath id="SVGID_20_"><use xlink:href="#SVGID_19_" style="overflow:visible"/></clipPath><g id="Shape_2-9" class="st60"><path id="Shape_3-2" d="M-9.1,120.7C-27.3,73.9-45.8,47.5-75.8,28" class="st58"/></g></g></g></g><g id="leaf-3" transform="translate(115 78)"><g id="Shape_2-10"><linearGradient id="Shape_2-11_1_" x1="153.764" x2="154.208" y1="-95.937" y2="-96.887" gradientTransform="matrix(94.2947 0 0 -132.014 -14586.6279 -12654.0879)" gradientUnits="userSpaceOnUse"><stop offset="0" style="stop-color:#b1ffbe"/><stop offset=".444" style="stop-color:#5cdb8e"/><stop offset="1" style="stop-color:#149654"/></linearGradient><path id="Shape_2-11" d="M-115.4,133.8c8.7-19,25.1-45.4,57.9-69.3C-38.2,50.4-25.1,6.1-21.6,1.8 c-12.1,0.5-34.7,4.5-62.7,26.1C-113.6,50.5-117.6,113-115.4,133.8z" class="st61"/><g><defs><path id="SVGID_21_" d="M-115.4,133.8c8.7-19,25.1-45.4,57.9-69.3C-38.2,50.4-25.1,6.1-21.6,1.8 c-12.1,0.5-34.7,4.5-62.7,26.1C-113.6,50.5-117.6,113-115.4,133.8z"/></defs><clipPath id="SVGID_22_"><use xlink:href="#SVGID_21_" style="overflow:visible"/></clipPath><g id="Shape_2-12" class="st62"><path id="Shape_3-3" d="M-118,133.7c12-48.9,27-77.7,54.4-100.9" class="st58"/></g></g></g></g></g></g></g><g id="Clock" class="st63" transform="translate(210 72)"><g id="Ellipse_4-2"><linearGradient id="Ellipse_4-3_1_" x1="238.492" x2="238.198" y1="522.987" y2="522.412" gradientTransform="matrix(124 0 0 -124 -29619.0195 64894.8164)" gradientUnits="userSpaceOnUse"><stop offset="0" style="stop-color:#cbdaf1"/><stop offset="1" style="stop-color:#9cb3df"/></linearGradient><path id="Ellipse_4-3" d="M-55.5,1c34.2,0,62,27.8,62,62s-27.8,62-62,62s-62-27.8-62-62S-89.7,1-55.5,1z" class="st64"/></g><path id="Shape_8" d="M-54.7,20.6v44.6l20.4,20.4" class="st65"/></g></svg>