<svg xmlns="http://www.w3.org/2000/svg" xmlns:xlink="http://www.w3.org/1999/xlink" style="enable-background:new 0 0 99.7 90.2" id="Layer_1" x="0" y="0" version="1.1" viewBox="0 0 99.7 90.2" xml:space="preserve"><style type="text/css">.st0{fill:#ea6c00}.st0,.st1,.st2,.st3{fill-rule:evenodd;clip-rule:evenodd}.st1{fill:#fdad00}.st2{fill:#fdd231}.st3{fill:#feeeb7}</style><path id="a" d="M20.2,32.2l29.7,58L0,32.2H20.2z" class="st0"/><path id="b" d="M79.5,32.2l-29.7,58l49.8-58H79.5z" class="st0"/><path id="c" d="M20.2,32.2h59.3l-29.7,58L20.2,32.2z" class="st1"/><path id="d" d="M49.8,0L21.8,3l-1.6,29.2L49.8,0z" class="st2"/><path id="e" d="M49.8,0l28.1,3l1.6,29.2L49.8,0z" class="st2"/><path id="f" d="M99.7,32.2L77.9,3l1.6,29.2H99.7z" class="st1"/><path id="g" d="M0,32.2L21.8,3l-1.6,29.2H0z" class="st1"/><path id="h" d="M49.8,0L20.2,32.2h59.3L49.8,0z" class="st3"/></svg>