<svg xmlns="http://www.w3.org/2000/svg" xmlns:xlink="http://www.w3.org/1999/xlink" x="0" y="0" viewBox="0 0 330 285" xml:space="preserve" style="enable-background:new 0 0 330 285"><style type="text/css">.small-house-0{fill:#e7eaf3}.small-house-1{fill:#de4437}.small-house-2{fill:#fff}.small-house-3{fill:#377dff}.small-house-4{fill:#f8fafd}.small-house-5{fill:#8c98a4}.small-house-6{fill:#bdc5d1}.small-house-7{fill:#196eff}</style><g><rect width="187.1" height="163.1" x="71.5" y="121.5" class="small-house-0 fill-gray-300"/></g><g opacity=".7"><linearGradient id="smallHouseID1" x1="120.514" x2="120.514" y1="116.747" y2="72.261" gradientTransform="matrix(1 0 0 1 0 1)" gradientUnits="userSpaceOnUse"><stop offset="0" style="stop-color:gray;stop-opacity:.25"/><stop offset=".54" style="stop-color:gray;stop-opacity:.12"/><stop offset="1" style="stop-color:gray;stop-opacity:.1"/></linearGradient><rect width="22.6" height="44.5" x="109.2" y="73.3" fill="url(#smallHouseID1)"/></g><rect width="21.3" height="43.9" x="109.8" y="73.8" class="small-house-1 fill-danger"/><g><polygon points="233.7 282.7 97.1 282.7 97.1 115.6 165.9 114 233.7 115.6" class="small-house-0 fill-gray-300"/></g><polygon points="232.1 282.7 99.2 282.7 99.2 115.6 165.6 68.4 232.1 115.6" class="small-house-2 fill-white"/><rect width="33.5" height="56.1" x="148.8" y="226.6" class="small-house-3 fill-primary"/><rect width="61.5" height="38.3" x="134.8" y="140.6" class="small-house-4 fill-gray-200" opacity=".5"/><rect width="68.9" height="6.7" x="131.2" y="175.7" class="small-house-5 fill-gray-600"/><g><rect width="61.5" height="15.3" x="134.8" y="140.6" class="small-house-6 fill-gray-400"/></g><g opacity=".7"><polygon points="241 129.8 165.9 71.5 93 129.8 87.3 122.6 165.7 60 246.5 122.5" class="small-house-7 fill-primary-darker"/></g><polygon points="241 130.3 165.9 72.3 93 130.3 87.3 123.2 165.7 60.5 246.5 123.2" class="small-house-7 fill-primary-darker"/><circle cx="177.4" cy="254.6" r="2.4" class="small-house-2 fill-white"/></svg>