<svg xmlns="http://www.w3.org/2000/svg" xmlns:xlink="http://www.w3.org/1999/xlink" id="Layer_1" x="0" y="0" version="1.1" viewBox="0 0 16.7 15.9" xml:space="preserve" style="enable-background:new 0 0 16.7 15.9"><style type="text/css">.st0{fill:#ffc107}</style><path d="M8.7,0.2L11,4.9c0.1,0.1,0.2,0.2,0.3,0.2l5.1,0.7c0.3,0,0.4,0.4,0.2,0.6L12.9,10c-0.1,0.1-0.1,0.2-0.1,0.3	l0.9,5.1c0.1,0.3-0.3,0.5-0.5,0.4l-4.7-2.3c-0.1,0-0.2,0-0.3,0l-4.6,2.4C3.3,16,3,15.8,3.1,15.5L4,10.4c0-0.1,0-0.2-0.1-0.3L0.1,6.4	C-0.1,6.2,0,5.9,0.3,5.9l5.1-0.7c0.1,0,0.2-0.1,0.3-0.2L8,0.2C8.2-0.1,8.6-0.1,8.7,0.2z" class="st0"/></svg>