<svg xmlns="http://www.w3.org/2000/svg" xmlns:xlink="http://www.w3.org/1999/xlink" id="Laag_1" x="0" y="0" version="1.1" viewBox="0 0 128 128" xml:space="preserve" style="enable-background:new 0 0 128 128"><style type="text/css">.st0{fill:url(#SVGID_1_)}.st1{fill:url(#SVGID_2_)}.st2{fill:url(#SVGID_3_)}.st3{fill:url(#SVGID_4_)}</style><radialGradient id="SVGID_1_" cx="-5.719" cy="134.404" r="1.001" gradientTransform="matrix(21.3333 0 0 -21.3333 185.9998 2931.2842)" gradientUnits="userSpaceOnUse"><stop offset="0" style="stop-color:#fff"/><stop offset="1" style="stop-color:#bfa330;stop-opacity:0"/></radialGradient><path d="M64,85.3c11.8,0,21.3-9.6,21.3-21.3S75.8,42.7,64,42.7S42.7,52.2,42.7,64S52.2,85.3,64,85.3z" class="st0"/><linearGradient id="SVGID_2_" x1="56.638" x2="114.013" y1="21.845" y2="79.22" gradientTransform="matrix(1 0 0 -1 0 127.7323)" gradientUnits="userSpaceOnUse"><stop offset="0" style="stop-color:#d500e6;stop-opacity:0"/><stop offset="1" style="stop-color:#5b8bf5"/></linearGradient><path d="M106.7,41.2v45.7L64,113.3V67.6L106.7,41.2z" class="st1"/><linearGradient id="SVGID_3_" x1="42.675" x2="85.325" y1="65.257" y2="107.907" gradientTransform="matrix(1 0 0 -1 0 127.7323)" gradientUnits="userSpaceOnUse"><stop offset="0" style="stop-color:#d500e6;stop-opacity:0"/><stop offset="1" style="stop-color:#5b8bf5"/></linearGradient><path d="M21.4,41.2L64,14.7l42.7,26.4L64,67.6L21.4,41.2z" class="st2"/><linearGradient id="SVGID_4_" x1="27.188" x2="58.163" y1="35.045" y2="66.02" gradientTransform="matrix(1 0 0 -1 0 127.7323)" gradientUnits="userSpaceOnUse"><stop offset="0" style="stop-color:#d500e6;stop-opacity:0"/><stop offset="1" style="stop-color:#5b8bf5"/></linearGradient><path d="M21.4,41.2L64,67.6v45.7L21.4,86.8V41.2z" class="st3"/></svg>