<svg xmlns="http://www.w3.org/2000/svg" xmlns:xlink="http://www.w3.org/1999/xlink" id="Laag_1" x="0" y="0" version="1.1" viewBox="0 0 128 128" xml:space="preserve" style="enable-background:new 0 0 128 128"><style type="text/css">.st0{fill:url(#SVGID_1_)}.st1{fill:url(#SVGID_2_)}.st2{fill:url(#SVGID_3_)}.st3{fill:url(#SVGID_4_)}.st4{fill:url(#SVGID_5_)}</style><linearGradient id="SVGID_1_" x1="1.546" x2="125.25" y1="89.624" y2="89.624" gradientTransform="matrix(1 0 0 -1 0 127.7323)" gradientUnits="userSpaceOnUse"><stop offset="0" style="stop-color:#bfa330"/><stop offset=".281" style="stop-color:#bfa330;stop-opacity:.7189"/><stop offset="1" style="stop-color:#bfa330;stop-opacity:0"/></linearGradient><path d="M124.8,69.3c-0.3,0-0.5-0.2-0.5-0.5c0-1.8-0.5-3-1.4-3.8c-2.5-2.2-8.4-1.4-15.2-0.5c-3.3,0.5-6.6,0.9-10.1,1.2	c-9.5,0.7-25.2-6.4-34.9-15.7c-6.1-5.8-9.3-11.8-9.2-17.5c0.1-7.9-3.6-15.3-10-20c-6.8-5-15.4-6.1-23.9-3.2	C6.8,13.7,2.3,25.1,2.5,34.3c0,0.3-0.2,0.5-0.5,0.5s-0.5-0.2-0.5-0.4C1.4,24.8,6,13,19.3,8.4C28,5.5,37,6.7,44,11.8	c6.7,4.8,10.5,12.6,10.4,20.8c-0.1,6.8,4.8,12.9,8.9,16.8c9.5,9.1,24.9,16,34.1,15.5c3.5-0.3,6.9-0.7,10.1-1.1	c7.3-1,13.1-1.8,15.9,0.7c1.2,1,1.8,2.5,1.8,4.6C125.3,69.1,125.1,69.3,124.8,69.3z" class="st0"/><linearGradient id="SVGID_2_" x1="57.3" x2="114.7" y1="21.832" y2="79.232" gradientTransform="matrix(1 0 0 -1 0 127.7323)" gradientUnits="userSpaceOnUse"><stop offset="0" style="stop-color:#ff3815;stop-opacity:0"/><stop offset="1" style="stop-color:#d500e6"/></linearGradient><path d="M107.3,41.2v45.7l-42.7,26.4V67.6L107.3,41.2z" class="st1"/><linearGradient id="SVGID_3_" x1="43.337" x2="86.013" y1="65.245" y2="107.92" gradientTransform="matrix(1 0 0 -1 0 127.7323)" gradientUnits="userSpaceOnUse"><stop offset="0" style="stop-color:#ff3815;stop-opacity:0"/><stop offset="1" style="stop-color:#d500e6"/></linearGradient><path d="M22,41.2l42.7-26.4l42.7,26.4L64.7,67.6L22,41.2z" class="st2"/><linearGradient id="SVGID_4_" x1="27.837" x2="58.813" y1="35.045" y2="66.02" gradientTransform="matrix(1 0 0 -1 0 127.7323)" gradientUnits="userSpaceOnUse"><stop offset="0" style="stop-color:#ff3815;stop-opacity:0"/><stop offset="1" style="stop-color:#d500e6"/></linearGradient><path d="M22,41.2l42.7,26.4v45.7L22,86.8V41.2z" class="st3"/><linearGradient id="SVGID_5_" x1="1.5" x2="125.3" y1="57.557" y2="57.557" gradientTransform="matrix(1 0 0 -1 0 127.7323)" gradientUnits="userSpaceOnUse"><stop offset="0" style="stop-color:#bfa330"/><stop offset=".281" style="stop-color:#bfa330;stop-opacity:.7189"/><stop offset="1" style="stop-color:#bfa330;stop-opacity:0"/></linearGradient><path d="M92.9,106.5c-4.9,0-9.1-2.2-12.1-6.5C64.4,76.9,49.5,72.1,35.1,67.3c-8.1-2.7-15.8-5.1-23.2-10.8	C5.5,51.6,1.6,43.3,1.5,34.3c0-0.3,0.2-0.5,0.5-0.5s0.5,0.2,0.5,0.5C2.6,43,6.3,51,12.5,55.8c7.3,5.6,14.9,8,22.9,10.7	c13.9,4.6,29.7,9.7,46.2,33c4,5.6,10,7.4,17.1,5.2c12.2-3.8,25.7-19.5,25.7-35.8c0-0.3,0.2-0.5,0.5-0.5c0.3,0,0.5,0.2,0.5,0.5	c0,16.7-13.9,32.7-26.4,36.7C96.8,106.2,94.8,106.5,92.9,106.5z" class="st4"/></svg>