<svg xmlns="http://www.w3.org/2000/svg" xmlns:xlink="http://www.w3.org/1999/xlink" id="Laag_1" x="0" y="0" version="1.1" viewBox="0 0 552 409.4" xml:space="preserve" style="enable-background:new 0 0 552 409.4"><style type="text/css">.st0{fill:url(#SVGID_1_)}.st1{fill:url(#SVGID_2_)}.st2{fill:url(#SVGID_3_)}.st3{fill:url(#SVGID_4_)}.st4{fill:url(#SVGID_5_)}.st5{fill:url(#SVGID_6_)}.st6{fill:url(#SVGID_7_)}.st7{fill:url(#SVGID_8_)}.st8{fill:url(#SVGID_9_)}.st9{fill:url(#SVGID_10_)}.st10{fill:url(#SVGID_11_)}.st11{fill:url(#SVGID_12_)}.st12{fill:url(#SVGID_13_)}.st13{fill:url(#SVGID_14_)}.st14{fill:url(#SVGID_15_)}.st15{fill:url(#SVGID_16_)}.st16{fill:#fff}</style><linearGradient id="SVGID_1_" x1="133.162" x2="419.063" y1="-96.778" y2="-96.778" gradientTransform="matrix(1 0 0 1 0 297.6783)" gradientUnits="userSpaceOnUse"><stop offset="0" style="stop-color:#bfa330"/><stop offset=".281" style="stop-color:#bfa330;stop-opacity:.7189"/><stop offset="1" style="stop-color:#bfa330;stop-opacity:0"/></linearGradient><path d="M378.6,400.1c-14.8,0-36.6-5.5-61.3-15.4c-26.7-10.7-53.8-25.4-78.5-42.4c-36.2-25-97.9-76.9-104.2-144	c-6.2-65.5,7.8-120.6,39.2-155.2c12.1-13.4,26.9-23.6,43.7-30.6C235,5.3,255.1,1.6,277.1,1.6c3,0,6.1,0.1,9.2,0.2	c23.2,1,43,6.5,58.9,16.2c14.5,8.9,25.5,21.1,32.6,36.4c17.3,37.3,8.3,89-22.3,128.6c-18.9,24.4-26.6,47.3-23,68.1	c3.7,21.3,19,40.2,46.8,57.8c28.1,17.8,44.6,47.4,38.5,68.9c-4.2,14.4-18,22.4-38.9,22.4L378.6,400.1z M277,3.1	c-43,0-77.3,13.8-102.1,41c-31.2,34.3-45,89-38.8,154c6.3,66.4,67.6,117.9,103.6,142.7c24.7,17,51.7,31.6,78.2,42.3	c24.5,9.8,46.1,15.3,60.7,15.3h0.2c20.2-0.1,33.5-7.7,37.4-21.3c2.8-9.8,0.6-21.9-6-34.2c-6.9-12.6-18.2-24.4-31.8-33	c-28.2-17.9-43.7-37.1-47.5-58.8c-3.7-21.2,4.1-44.5,23.3-69.3c30.3-39.2,39.2-90.2,22.1-127c-6.9-15-17.7-27-32-35.7	c-15.7-9.6-35.2-15-58.1-16C283,3.2,280,3.1,277,3.1z" class="st0"/><linearGradient id="SVGID_2_" x1="201.85" x2="287.1" y1="-14.628" y2="-99.879" gradientTransform="matrix(1 0 0 1 0 297.6783)" gradientUnits="userSpaceOnUse"><stop offset="0" style="stop-color:#5b8bf5;stop-opacity:0"/><stop offset="1" style="stop-color:#00d0fd"/></linearGradient><path d="M276.2,186.9v67.8L212.8,294v-67.9L276.2,186.9z" class="st1"/><linearGradient id="SVGID_3_" x1="181.175" x2="244.524" y1="-79.103" y2="-142.453" gradientTransform="matrix(1 0 0 1 0 297.6783)" gradientUnits="userSpaceOnUse"><stop offset="0" style="stop-color:#5b8bf5;stop-opacity:0"/><stop offset="1" style="stop-color:#00d0fd"/></linearGradient><path d="M149.5,186.9l63.3-39.2l63.4,39.2l-63.4,39.2L149.5,186.9z" class="st2"/><linearGradient id="SVGID_4_" x1="158.15" x2="204.15" y1="-34.228" y2="-80.228" gradientTransform="matrix(1 0 0 1 0 297.6783)" gradientUnits="userSpaceOnUse"><stop offset="0" style="stop-color:#5b8bf5;stop-opacity:0"/><stop offset="1" style="stop-color:#00d0fd"/></linearGradient><path d="M149.5,186.9l63.3,39.2V294l-63.3-39.2V186.9z" class="st3"/><linearGradient id="SVGID_5_" x1="265.275" x2="350.475" y1="-121.804" y2="-207.003" gradientTransform="matrix(1 0 0 1 0 297.6783)" gradientUnits="userSpaceOnUse"><stop offset="0" style="stop-color:#d500e6;stop-opacity:0"/><stop offset="1" style="stop-color:#5b8bf5"/></linearGradient><path d="M339.5,79.7v67.9l-63.3,39.2V119L339.5,79.7z" class="st4"/><linearGradient id="SVGID_6_" x1="244.475" x2="307.825" y1="-186.303" y2="-249.653" gradientTransform="matrix(1 0 0 1 0 297.6783)" gradientUnits="userSpaceOnUse"><stop offset="0" style="stop-color:#d500e6;stop-opacity:0"/><stop offset="1" style="stop-color:#5b8bf5"/></linearGradient><path d="M212.8,79.7l63.4-39.2l63.3,39.2L276.2,119L212.8,79.7z" class="st5"/><linearGradient id="SVGID_7_" x1="221.475" x2="267.525" y1="-141.403" y2="-187.453" gradientTransform="matrix(1 0 0 1 0 297.6783)" gradientUnits="userSpaceOnUse"><stop offset="0" style="stop-color:#d500e6;stop-opacity:0"/><stop offset="1" style="stop-color:#5b8bf5"/></linearGradient><path d="M212.8,79.7l63.4,39.2v67.9l-63.4-39.2L212.8,79.7L212.8,79.7z" class="st6"/><linearGradient id="SVGID_8_" x1="265.25" x2="350.45" y1="92.471" y2="7.272" gradientTransform="matrix(1 0 0 1 0 297.6783)" gradientUnits="userSpaceOnUse"><stop offset="0" style="stop-color:#ff3815;stop-opacity:0"/><stop offset="1" style="stop-color:#ff3815"/></linearGradient><path d="M339.5,294v67.9l-63.3,39.2v-67.9L339.5,294z" class="st7"/><linearGradient id="SVGID_9_" x1="244.475" x2="307.825" y1="27.997" y2="-35.353" gradientTransform="matrix(1 0 0 1 0 297.6783)" gradientUnits="userSpaceOnUse"><stop offset="0" style="stop-color:#ff3815;stop-opacity:0"/><stop offset="1" style="stop-color:#ff3815"/></linearGradient><path d="M212.8,294l63.4-39.2l63.3,39.2l-63.3,39.2L212.8,294z" class="st8"/><linearGradient id="SVGID_10_" x1="221.475" x2="267.525" y1="72.897" y2="26.847" gradientTransform="matrix(1 0 0 1 0 297.6783)" gradientUnits="userSpaceOnUse"><stop offset="0" style="stop-color:#ff3815;stop-opacity:0"/><stop offset="1" style="stop-color:#ff3815"/></linearGradient><path d="M212.8,294l63.4,39.2v67.9l-63.4-39.2L212.8,294L212.8,294z" class="st9"/><linearGradient id="SVGID_11_" x1="328.55" x2="413.8" y1="-14.628" y2="-99.879" gradientTransform="matrix(1 0 0 1 0 297.6783)" gradientUnits="userSpaceOnUse"><stop offset="0" style="stop-color:#ff3815;stop-opacity:0"/><stop offset="1" style="stop-color:#d500e6"/></linearGradient><path d="M402.9,186.9v67.8L339.5,294v-67.9L402.9,186.9z" class="st10"/><linearGradient id="SVGID_12_" x1="307.875" x2="371.225" y1="-79.103" y2="-142.453" gradientTransform="matrix(1 0 0 1 0 297.6783)" gradientUnits="userSpaceOnUse"><stop offset="0" style="stop-color:#ff3815;stop-opacity:0"/><stop offset="1" style="stop-color:#d500e6"/></linearGradient><path d="M276.2,186.9l63.3-39.2l63.4,39.2l-63.4,39.2L276.2,186.9z" class="st11"/><linearGradient id="SVGID_13_" x1="284.85" x2="330.85" y1="-34.228" y2="-80.228" gradientTransform="matrix(1 0 0 1 0 297.6783)" gradientUnits="userSpaceOnUse"><stop offset="0" style="stop-color:#ff3815;stop-opacity:0"/><stop offset="1" style="stop-color:#d500e6"/></linearGradient><path d="M276.2,186.9l63.3,39.2V294l-63.3-39.2V186.9z" class="st12"/><radialGradient id="SVGID_14_" cx="397.035" cy="-26.494" r=".999" gradientTransform="matrix(31.625 0 0 31.625 -12280.042 1094.3894)" gradientUnits="userSpaceOnUse"><stop offset="0" style="stop-color:#fff"/><stop offset="1" style="stop-color:#bfa330;stop-opacity:0"/></radialGradient><path d="M276.2,288.1c17.5,0,31.6-14.2,31.6-31.6s-14.2-31.6-31.6-31.6s-31.6,14.2-31.6,31.6S258.8,288.1,276.2,288.1z" class="st13"/><linearGradient id="SVGID_15_" x1="218.6" x2="218.6" y1="-126.978" y2="-172.978" gradientTransform="matrix(1 0 0 1 0 297.6783)" gradientUnits="userSpaceOnUse"><stop offset="0" style="stop-color:#fff"/><stop offset="1" style="stop-color:#000;stop-opacity:.4"/></linearGradient><path d="M218.6,170.7c9.5,0,17.3-10.3,17.3-23s-7.7-23-17.3-23c-9.5,0-17.3,10.3-17.3,23S209,170.7,218.6,170.7z" class="st14"/><linearGradient id="SVGID_16_" x1="212.8" x2="212.8" y1="-172.978" y2="-126.978" gradientTransform="matrix(1 0 0 1 0 297.6783)" gradientUnits="userSpaceOnUse"><stop offset="0" style="stop-color:#fff"/><stop offset="1" style="stop-color:#000;stop-opacity:.4"/></linearGradient><path d="M212.8,170.7c9.5,0,17.3-10.3,17.3-23s-7.7-23-17.3-23c-9.5,0-17.3,10.3-17.3,23	C195.6,160.4,203.3,170.7,212.8,170.7z" class="st15"/><path d="M217.1,138.5v-4.6h-6.9h-3.4v4.6h3.4h3.5v4.6h3.4v9.2h-3.4v4.6h-3.5v-13.8h-3.4v13.8v4.6h10.4v-4.6h3.4v-4.6	v-13.8H217.1z" class="st16"/></svg>