<svg xmlns="http://www.w3.org/2000/svg" xmlns:xlink="http://www.w3.org/1999/xlink" id="Laag_1" x="0" y="0" version="1.1" viewBox="0 0 128 128" xml:space="preserve" style="enable-background:new 0 0 128 128"><style type="text/css">.st0{fill:url(#SVGID_1_)}.st1{fill:url(#SVGID_2_)}.st2{fill:url(#SVGID_3_)}.st3{fill:url(#SVGID_4_)}.st4{fill:url(#SVGID_5_)}</style><linearGradient id="SVGID_1_" x1="66.65" x2="66.65" y1="47.732" y2="79.732" gradientTransform="matrix(1 0 0 -1 0 127.7323)" gradientUnits="userSpaceOnUse"><stop offset="0" style="stop-color:#fff"/><stop offset="1" style="stop-color:#bfa330;stop-opacity:0"/></linearGradient><path d="M66.7,80c4.4,0,8-7.2,8-16s-3.6-16-8-16s-8,7.2-8,16S62.2,80,66.7,80z" class="st0"/><linearGradient id="SVGID_2_" x1="62.65" x2="62.65" y1="79.732" y2="47.732" gradientTransform="matrix(1 0 0 -1 0 127.7323)" gradientUnits="userSpaceOnUse"><stop offset="0" style="stop-color:#fff"/><stop offset="1" style="stop-color:#bfa330;stop-opacity:0"/></linearGradient><path d="M62.7,80c4.4,0,8-7.2,8-16s-3.6-16-8-16s-8,7.2-8,16S58.2,80,62.7,80z" class="st1"/><linearGradient id="SVGID_3_" x1="57.3" x2="114.7" y1="21.832" y2="79.232" gradientTransform="matrix(1 0 0 -1 0 127.7323)" gradientUnits="userSpaceOnUse"><stop offset="0" style="stop-color:#5b8bf5;stop-opacity:0"/><stop offset="1" style="stop-color:#00d0fd"/></linearGradient><path d="M107.3,41.2v45.7l-42.7,26.4V67.6L107.3,41.2z" class="st2"/><linearGradient id="SVGID_4_" x1="43.337" x2="86.013" y1="65.245" y2="107.92" gradientTransform="matrix(1 0 0 -1 0 127.7323)" gradientUnits="userSpaceOnUse"><stop offset="0" style="stop-color:#5b8bf5;stop-opacity:0"/><stop offset="1" style="stop-color:#00d0fd"/></linearGradient><path d="M22,41.2l42.7-26.4l42.7,26.4L64.7,67.6L22,41.2z" class="st3"/><linearGradient id="SVGID_5_" x1="27.837" x2="58.813" y1="35.045" y2="66.02" gradientTransform="matrix(1 0 0 -1 0 127.7323)" gradientUnits="userSpaceOnUse"><stop offset="0" style="stop-color:#5b8bf5;stop-opacity:0"/><stop offset="1" style="stop-color:#00d0fd"/></linearGradient><path d="M22,41.2l42.7,26.4v45.7L22,86.8V41.2z" class="st4"/></svg>